<svg width="26" height="58" viewBox="0 0 26 58" fill="none" xmlns="http://www.w3.org/2000/svg">
<g clip-path="url(#clip0_26_1715)">
<path d="M5.14943 2.34079C4.00614 14.9846 6.75004 28.1167 13.6606 38.3962C15.312 40.889 17.1413 43.2533 19.1738 45.3349C19.8344 46.0288 20.622 46.7484 21.1555 47.1852C23.061 48.7529 23.4167 51.7082 21.9939 53.7641C20.5458 55.8457 17.8781 56.2826 15.9726 54.715C14.8547 53.687 13.9655 52.582 13.1525 51.554C8.19821 45.1807 4.43805 37.5739 2.43093 29.5044C0.017317 20.4842 -0.00808942 10.9756 1.66874 1.77541C2.04984 -0.665976 5.45431 -0.151999 5.14943 2.34079Z" fill="#FFF200"/>
<path d="M12.8222 56.4882C10.3577 56.1284 7.35976 55.5887 3.65041 54.8178C2.17684 54.5094 1.2368 52.9932 1.51627 51.3741C1.79574 49.7808 3.16769 48.7272 4.66667 49.0098C10.3831 50.1663 17.1921 51.2456 20.1392 51.3227C20.0376 48.1875 18.8181 40.9404 17.4715 34.9269C17.1159 33.3336 18.0305 31.7402 19.4787 31.3548C20.9522 30.9693 22.4004 31.9458 22.7561 33.5135C27.1768 53.687 25.2459 55.2547 24.001 56.2569C23.315 56.8223 22.0447 57.8502 12.8222 56.4368" fill="#FFF200"/>
</g>
<defs>
<clipPath id="clip0_26_1715">
<rect width="25" height="57" fill="white" transform="translate(0.5 0.182068)"/>
</clipPath>
</defs>
</svg>
