<svg width="176" height="57" viewBox="0 0 176 57" fill="none" xmlns="http://www.w3.org/2000/svg">
<g clip-path="url(#clip0_186_143)">
<path d="M162.434 57.0058C160.822 57.0058 159.209 56.6925 157.633 56.075C150.648 53.3288 147.607 45.5508 150.546 37.9848C150.749 37.4503 151.035 36.9618 151.376 36.5195C151.532 35.9297 151.781 35.3491 152.131 34.8054C155.219 30.0686 160.186 26.9998 164.803 26.9998C166.075 26.9998 167.291 27.2301 168.425 27.6725C174.433 30.0317 176.691 37.6162 175.816 43.9012C174.747 51.6147 169.245 57.0058 162.434 57.0058Z" fill="#F58220"/>
<path d="M166.296 33.1374C163.522 32.0499 159.384 34.4276 157.062 38.0032C157.099 37.9571 159.91 37.736 159.827 37.7452C159.928 37.7452 161.246 41.1089 161.246 41.1089L164.609 39.4409L165.688 43.0902L168.204 42.5557C168.204 42.5557 166.204 44.1316 165.181 44.8965C164.683 43.8828 164.25 42.9612 163.808 41.9199C162.656 42.7493 160.103 44.3251 160.103 44.3251L158.527 39.8187C158.527 39.8187 157.034 39.9108 156.039 40.0952C154.362 44.3989 155.606 48.9514 159.808 50.601C164.729 52.5363 169.217 48.8961 170.028 43.081C170.618 38.8234 169.088 34.2156 166.314 33.1281" fill="white"/>
<path d="M56.1416 55.3286C53.8745 55.3286 51.6536 54.536 49.8657 53.0984C48.7783 53.4394 47.5895 53.6329 46.3362 53.6329C45.9952 53.6329 45.645 53.6237 45.2948 53.5868C44.235 53.4947 43.2581 53.3011 42.3826 52.997L42.1891 53.0615C39.5258 53.8909 38.724 53.9831 38.337 54.0292C37.9039 54.0753 37.4799 54.1029 37.0744 54.1029C34.3743 54.1029 27.9786 53.0155 26.9557 42.9059C26.0986 34.4091 24.4675 18.5674 23.2971 7.94183L23.2695 7.72066C22.8732 4.19107 25.3983 1.00247 28.9186 0.578549L30.9 0.33894C31.3055 0.283646 31.7386 0.265218 32.1717 0.265218C36.3096 0.265218 41.3966 2.96539 42.4011 10.5314C46.6956 10.8355 50.1514 13.0381 52.2249 16.8257C52.2434 16.8533 52.2526 16.881 52.271 16.9086C52.483 16.8994 52.6949 16.8994 52.8977 16.8994C54.0681 16.8994 55.1094 17.0469 56.031 17.2957C56.3628 16.8257 56.713 16.3926 57.0908 15.9779C59.5422 13.2593 62.6847 11.7847 66.1866 11.711L66.4354 11.711C66.6382 11.711 66.8501 11.711 67.0621 11.7202C67.1358 11.7202 67.2095 11.7202 67.2833 11.7295C68.2693 9.43477 70.5456 7.81282 73.1997 7.8036L75.4944 7.8036C78.1669 7.8036 80.6275 8.81732 82.4245 10.6604C83.254 11.5175 83.9267 12.5312 84.4336 13.6647C85.2537 10.4393 87.659 7.95105 90.9582 7.11243C91.7323 6.91891 92.5341 6.81753 93.3451 6.81753C98.8376 6.82675 102.856 11.1304 102.92 17.0284C102.929 17.9592 102.846 18.8624 102.69 19.7378C104.671 20.899 106.238 22.5855 107.288 24.7327C108.827 27.8845 108.947 31.4233 108.883 34.1603C108.846 35.6809 108.735 40.2795 109.113 41.6987L109.196 41.8922C109.988 43.8183 109.804 45.9932 108.717 47.7626C107.62 49.532 105.749 50.6655 103.676 50.8129L103.362 50.8314C102.828 50.8682 101.372 50.9512 100.413 50.9512C100.248 50.9512 100.1 50.9512 99.9711 50.9512C98.6901 50.9051 97.5935 50.6747 96.6627 50.3061C95.8886 50.6286 95.05 50.7945 94.1929 50.7945C94.156 50.7945 93.9164 50.7945 93.9164 50.7945C92.101 53.0339 89.3455 54.3149 86.0555 54.3149C85.65 54.3149 85.2261 54.2964 84.7837 54.2596C83.7332 54.1674 82.7194 53.9002 81.761 53.4855C80.9132 53.9002 79.9548 54.1305 78.9503 54.1305C78.941 54.1305 78.7014 54.1305 78.7014 54.1305C78.3973 54.1305 77.9826 54.1398 77.5771 54.149L77.4758 54.149C76.9228 54.1674 76.3699 54.1766 76.0013 54.1766C74.8954 54.1766 70.5917 53.8817 68.3523 49.5688C68.1864 49.5872 68.0205 49.6057 67.8546 49.6149C67.6243 49.6241 67.4307 49.6333 67.2372 49.6425L66.9792 49.6425C66.4354 49.6425 65.8917 49.6149 65.348 49.5412C64.2421 51.8266 62.27 53.8725 59.0998 54.8678C58.1414 55.1719 57.1553 55.3194 56.1692 55.3194" fill="#F58220"/>
<path d="M53.1004 28.1056C52.0959 28.1056 51.1006 27.9582 50.1422 27.6725C44.6405 26.0413 41.2952 20.3 42.5209 14.6047C43.5807 9.68359 47.7922 6.23694 52.7502 6.23694C53.7639 6.23694 54.7777 6.38439 55.7545 6.67929C61.3853 8.34732 64.7674 14.1255 63.4311 19.83C62.2884 24.7051 58.04 28.1056 53.1004 28.1056Z" fill="#F58220"/>
<path d="M21.4171 56.5911C10.7086 56.5911 2.63569 48.2418 1.32707 35.8099C-0.460759 18.7149 8.39545 13.0104 13.8327 11.1304C16.1181 10.3379 18.1548 9.96007 20.0532 9.96007C24.0712 9.96007 26.5134 11.6742 27.8588 13.1118C30.301 15.7198 30.1628 19.8208 27.5547 22.2629C26.3014 23.4333 24.7163 24.0139 23.1312 24.0139C22.9008 24.0139 22.6797 24.0047 22.4493 23.977C22.1912 24.0876 21.9977 24.2996 21.8595 24.6129C21.454 25.5621 21.2697 26.5482 21.242 26.7694C21.0301 29.1931 21.8503 33.1189 23.5552 35.1372C24.2279 35.9389 24.661 35.9758 24.8177 35.985C24.9651 35.9942 25.1218 36.0034 25.2693 36.0034C26.4949 36.0034 27.3796 35.6348 27.6469 35.4044C28.8357 34.3815 30.3378 33.8285 31.8769 33.8285C32.4298 33.8285 32.9827 33.9023 33.5357 34.0405C35.6 34.5842 37.2588 36.114 37.9776 38.1322C39.0927 41.2563 39.2033 46.4079 35.858 50.6378C32.9182 54.3425 28.1998 55.7709 24.7532 56.3147C23.6289 56.4898 22.5046 56.5819 21.4079 56.5819L21.4171 56.5911Z" fill="#F58220"/>
<path d="M21.0208 29.8382C17.4267 29.8382 14.3211 27.5158 13.2797 24.0692C11.9895 19.8208 14.3856 15.2867 18.6156 13.9689C19.3897 13.7293 20.2007 13.6002 21.0116 13.6002C24.6057 13.6002 27.7114 15.9226 28.7527 19.3692C30.0337 23.6176 27.6376 28.1517 23.4169 29.4695C22.6336 29.7091 21.8226 29.8382 21.0116 29.8382" fill="#F58220"/>
<path d="M10.727 27.9397C7.74111 27.9397 4.86584 26.6127 2.84761 24.3088C0.580571 21.7284 -0.423926 18.3555 0.17509 15.2867C0.516069 13.5265 1.32704 11.9506 2.58037 10.6144C2.82919 10.3563 3.07801 10.1075 3.35448 9.88632C3.55722 8.53162 4.06407 7.02026 5.16073 5.63791C6.75504 3.61969 9.2064 2.45852 11.8789 2.45852C12.3489 2.45852 12.7913 2.49539 13.2244 2.55068C13.4271 2.41245 13.6391 2.27421 13.8603 2.1452C15.0767 1.45402 16.4591 1.0854 17.8599 1.0854C19.8504 1.0854 21.7857 1.78579 23.6196 3.16813C24.2647 3.65656 24.8177 4.19106 25.2877 4.75322C26.8082 5.20478 28.1906 6.11713 29.2965 7.41653C31.1119 9.55456 32.0611 12.651 31.7847 15.5079C31.3515 20.0051 28.0523 23.6637 23.9422 24.2074C23.5828 24.2535 23.2234 24.2811 22.864 24.2811C21.1959 24.2811 19.9518 23.7466 19.2791 23.4149C19.021 23.4701 18.6893 23.59 18.5234 23.7098C18.4497 23.8019 18.4036 23.8849 18.3483 23.9494C17.7308 24.8156 16.4407 26.6127 13.6575 27.4974C12.7175 27.7923 11.7315 27.9489 10.727 27.9489" fill="#F58220"/>
<path d="M28.2828 40.8877C24.3016 40.8877 20.4679 38.1691 18.975 34.2709C17.7216 31.027 18.6156 28.3544 19.1408 26.7601C19.3989 25.986 19.5371 25.5621 19.5648 25.0092C19.6108 24.1245 19.362 23.1015 18.8183 21.9772C17.9428 20.171 17.9705 18.0514 18.8644 16.2635C19.7675 14.4665 21.454 13.1947 23.4261 12.8169C24.3938 12.6326 25.389 12.5312 26.3843 12.5312C27.4626 12.5312 28.5408 12.6418 29.6098 12.863C31.8492 13.3238 33.978 14.2545 35.9317 15.6184C37.655 16.8257 38.678 18.7886 38.6964 20.8898C38.7056 22.8711 37.8117 24.7327 36.2819 25.9676C36.4294 26.3823 36.5492 26.8062 36.6505 27.2394C38.2725 34.1326 35.047 38.8418 31.37 40.2979C30.4023 40.685 29.361 40.8785 28.3012 40.8785" fill="#F58220"/>
<path d="M28.2828 40.8877C24.3016 40.8877 20.4679 38.1691 18.975 34.2709C17.7216 31.027 18.6156 28.3544 19.1408 26.7601C19.3989 25.986 19.5371 25.5621 19.5648 25.0092C19.6108 24.1245 19.362 23.1015 18.8183 21.9772C17.9428 20.171 17.9705 18.0514 18.8644 16.2635C19.7675 14.4665 21.454 13.1947 23.4261 12.8169C24.3938 12.6326 25.389 12.5312 26.3843 12.5312C27.4626 12.5312 28.5408 12.6418 29.6098 12.863C31.8492 13.3238 33.978 14.2545 35.9317 15.6184C37.655 16.8257 38.678 18.7886 38.6964 20.8898C38.7056 22.8711 37.8117 24.7327 36.2819 25.9676C36.4294 26.3823 36.5492 26.8062 36.6505 27.2394C38.2725 34.1326 35.047 38.8418 31.37 40.2979C30.4023 40.685 29.361 40.8785 28.3012 40.8785" fill="#F58220"/>
<path d="M117.085 54.5821C116.578 54.5821 115.868 54.5637 115.131 54.536L115.002 54.536C114.384 54.5084 113.767 54.49 113.334 54.49L112.882 54.49C99.9711 54.49 99.3629 44.6938 98.8376 36.0495L98.4597 29.5248C98.257 26.0598 98.1925 23.7651 98.3768 20.8069C98.8007 13.7753 102.257 9.67438 108.956 8.29204C109.113 8.25517 109.279 8.22753 109.445 8.20909C113.564 7.6838 116.283 7.30596 119.6 6.8544L122.817 6.42126C123.112 6.3844 123.397 6.36597 123.692 6.36597C125.231 6.36597 126.733 6.91891 127.913 7.93263C129.314 9.13987 130.134 10.8908 130.171 12.7432L130.171 13.5542C130.198 14.2638 130.217 15.1669 130.235 15.941C130.235 16.1345 130.235 16.3373 130.235 16.54C130.134 18.3555 129.959 21.2769 128.328 23.8111C128.641 24.5484 128.816 25.3502 128.834 26.1704L128.917 29.7829C128.954 31.156 128.788 32.4554 128.438 33.6442C129.424 34.7685 129.996 36.2154 130.032 37.7452L130.06 38.7312C130.069 39.2658 130.097 39.7358 130.125 40.1965C130.161 40.7863 130.189 41.3761 130.208 42.0489C130.29 45.6706 129.249 48.638 127.102 50.8774C124.835 53.2459 121.591 54.4992 117.453 54.5821C117.453 54.5821 117.121 54.5821 117.094 54.5821" fill="#F58220"/>
<path d="M117.084 53.5684C116.559 53.5684 115.794 53.5407 115.02 53.5131C114.403 53.4947 113.767 53.467 113.334 53.467L112.882 53.467C100.92 53.467 100.377 44.5832 99.8513 35.985L99.4734 29.4695C99.2799 26.0505 99.2154 23.7835 99.3905 20.8714C99.9066 12.1902 105.215 10.0983 109.168 9.28731C109.334 9.25045 109.491 9.2228 109.657 9.20437C113.702 8.6883 116.421 8.31967 119.748 7.86811L121.831 7.58242C122.125 7.54556 122.411 7.51791 122.706 7.51791C124.245 7.51791 125.738 8.07085 126.927 9.07536C128.328 10.2826 129.148 12.0336 129.185 13.8767C129.194 14.531 129.212 15.2959 129.24 15.9594C129.24 16.1622 129.24 16.3649 129.24 16.5677C129.12 18.5582 128.945 21.6178 126.927 24.0415C127.507 25 127.83 26.1058 127.858 27.2393L127.922 29.7921C127.968 31.5707 127.664 33.1926 127.056 34.5934C128.281 35.7546 129.019 37.3581 129.074 39.063C129.083 39.4408 129.111 39.791 129.129 40.132L129.129 40.2426C129.166 40.8693 129.203 41.4222 129.221 42.0581C129.304 45.4033 128.355 48.122 126.401 50.1586C124.319 52.3335 121.314 53.4762 117.462 53.55C117.462 53.55 117.14 53.55 117.121 53.55" fill="#F58220"/>
<path d="M117.085 53.8633C116.559 53.8633 115.794 53.8356 115.02 53.808C114.403 53.7896 113.776 53.7619 113.334 53.7619L112.827 53.7619C100.644 53.7619 100.091 44.7398 99.5564 36.0126C99.5564 36.0126 99.2891 31.414 99.1693 29.4787C98.9758 26.0505 98.9113 23.7835 99.0864 20.8529C99.6209 11.969 105.049 9.83102 109.095 9.00162C109.26 8.96475 109.417 8.93711 109.583 8.91868C113.647 8.4026 116.366 8.02476 119.693 7.5732L122.107 7.24143C122.402 7.20457 122.688 7.18614 122.973 7.18614C124.512 7.18614 126.014 7.73908 127.194 8.7528C128.595 9.96004 129.415 11.711 129.452 13.5634C129.461 14.273 129.48 15.1853 129.507 15.9502C129.507 16.1529 129.507 16.3557 129.507 16.5584C129.397 18.4016 129.221 21.4519 127.314 23.9494C127.811 24.8525 128.097 25.8662 128.116 26.926L128.18 29.7829C128.226 31.4601 127.968 32.9899 127.452 34.3446C128.604 35.5058 129.286 37.0816 129.332 38.7497C129.351 39.2934 129.369 39.7726 129.397 40.2518C129.433 40.8324 129.461 41.413 129.48 42.0765C129.562 45.4955 128.586 48.2878 126.577 50.389C124.448 52.6192 121.37 53.7896 117.435 53.8725C117.361 53.8725 117.232 53.8725 117.094 53.8725" fill="#F58220"/>
<path d="M132.355 54.066C131.7 54.066 131.028 54.02 130.373 53.937C122.356 52.9417 117.637 47.0806 118.365 39.0169L118.78 34.446C118.808 34.1419 118.863 33.8377 118.928 33.5428C117.822 30.4833 117.425 26.8523 117.794 22.8896C118.762 12.3838 126.042 4.76245 135.101 4.76245C135.801 4.76245 136.529 4.80852 137.248 4.90068C139.257 5.15872 140.971 5.6195 142.354 5.98812C142.897 6.13557 143.616 6.3291 144.003 6.40283L144.538 6.3291C144.814 6.29224 145.1 6.27381 145.376 6.27381C147.091 6.27381 148.749 6.95576 149.966 8.18144C151.385 9.60986 152.058 11.6281 151.791 13.6187L151.662 14.5494C151.542 15.4157 151.33 16.8626 151.099 18.4569L151.035 18.9269C150.685 21.3414 150.279 24.0692 150.095 25.5437C149.818 27.7739 149.533 30.0225 149.265 32.2619C149.219 32.6489 149.164 33.2111 149.1 33.9207L149.017 34.7777C148.952 35.5979 148.842 36.5195 148.722 37.4871L148.703 37.6069C147.514 47.311 140.787 54.0568 132.346 54.0568" fill="#F58220"/>
<path d="M132.355 53.0523C131.747 53.0523 131.12 53.0155 130.502 52.9325C123.084 52.011 118.706 46.583 119.37 39.1091L119.563 37.0079C119.646 36.0864 119.923 35.2109 120.365 34.4368C118.928 31.3035 118.393 27.4237 118.808 22.9818C119.729 13.0104 126.586 5.77618 135.11 5.77618C135.783 5.77618 136.465 5.82226 137.138 5.9052C139.055 6.15403 140.723 6.60559 142.077 6.95578C142.805 7.14931 143.773 7.40735 144.105 7.435C144.178 7.435 144.243 7.435 144.317 7.435C146.151 7.435 147.846 8.21833 149.081 9.58224C150.353 11.0014 150.887 12.9183 150.62 14.8075C150.491 15.7291 150.288 17.0838 150.076 18.5583C149.726 20.9359 149.293 23.8849 149.1 25.4239C148.823 27.6541 148.537 29.9027 148.27 32.1513C148.224 32.566 148.169 33.1466 148.095 33.8838L148.012 34.7409C147.957 35.4874 147.846 36.4089 147.726 37.3766L147.708 37.4964C146.584 46.6751 140.271 53.0523 132.355 53.0523Z" fill="#F58220"/>
<path d="M132.355 53.3472C131.728 53.3472 131.092 53.3104 130.466 53.2274C122.863 52.2782 118.393 46.7304 119.075 39.0814L119.333 36.3075C119.407 35.5334 119.6 34.787 119.914 34.0958C118.614 30.9809 118.117 27.1656 118.504 22.9449C119.453 12.6602 126.282 5.47206 135.101 5.47206C135.783 5.47206 136.474 5.51814 137.165 5.60108C139.119 5.85911 140.815 6.31068 142.169 6.67009C142.787 6.83597 143.626 7.05714 144.013 7.12165C144.188 7.11244 144.363 7.10322 144.538 7.10322C146.252 7.10322 147.902 7.78518 149.127 9.01086C150.546 10.4393 151.228 12.4575 150.952 14.4573C150.823 15.3696 150.602 16.8994 150.353 18.5767C149.984 21.0833 149.57 23.931 149.367 25.4515C149.09 27.6909 148.814 29.9303 148.537 32.1789C148.482 32.6029 148.427 33.2019 148.362 33.9576L148.289 34.7132C148.224 35.5426 148.114 36.455 148.003 37.4042L147.984 37.5332C146.842 46.841 140.409 53.3288 132.346 53.3288M135.101 19.019C133.627 19.019 132.253 21.2953 131.986 24.2074C131.885 25.2949 131.903 26.198 131.968 26.926C133 26.2625 134.207 25.8939 135.47 25.8939C135.543 25.8939 135.608 25.8939 135.682 25.8939C135.774 25.1843 135.857 24.4839 135.949 23.7743C136.087 22.6592 136.327 20.9912 136.585 19.2402C136.198 19.1573 135.811 19.0835 135.433 19.0375C135.322 19.0282 135.212 19.019 135.101 19.019Z" fill="#F58220"/>
<path d="M146.547 55.6419C144.501 55.6419 142.501 55.1903 140.603 54.3056C134.364 51.4119 131.664 45.2006 133.728 38.4916C134.281 36.7038 135.147 35.1003 135.313 34.7962C135.617 34.2524 135.986 33.7548 136.41 33.3124C136.087 30.2897 136.603 26.9997 137.958 23.6821C140.916 16.4202 146.869 11.9138 153.505 11.9138C155.652 11.9138 157.762 12.393 159.771 13.333C160.343 13.6002 160.877 13.8583 161.384 14.0979C162.693 14.7245 164.167 15.4433 164.72 15.5355C166.665 15.858 168.36 17.0561 169.309 18.7794C170.268 20.5027 170.388 22.567 169.632 24.3917C169.309 25.1658 168.83 26.3823 168.296 27.7278C167.273 30.2989 166.112 33.2203 165.402 34.8238C164.914 35.9205 163.448 39.5053 162.481 41.883C161.817 43.4957 161.292 44.8043 161.154 45.1084C158.324 51.6055 152.721 55.6419 146.547 55.6419Z" fill="#F58220"/>
<path d="M146.547 56.3607C144.4 56.3607 142.298 55.8907 140.299 54.96C133.709 51.9004 130.862 45.3573 133.046 38.2797C133.673 36.243 134.686 34.4552 134.723 34.3815L135.525 32.9438C135.562 32.8701 135.608 32.8056 135.645 32.7319C135.442 29.7737 135.995 26.6035 137.304 23.4149C140.372 15.8765 146.584 11.195 153.523 11.195C155.781 11.195 157.983 11.6926 160.103 12.6879C160.674 12.9552 161.209 13.2132 161.707 13.4528C162.905 14.0242 164.37 14.7338 164.877 14.8351L165.761 14.9826C167.706 15.3051 169.392 16.5032 170.351 18.2265C171.309 19.9498 171.429 22.0141 170.673 23.8388L170.332 24.6682C170.01 25.4423 169.531 26.6496 168.996 27.9951C167.899 30.7505 166.803 33.5152 166.084 35.1187C165.605 36.2062 164.139 39.7818 163.172 42.1503C162.508 43.7814 161.974 45.09 161.836 45.3942C158.868 52.1584 153.007 56.3607 146.547 56.3607Z" fill="#F58220"/>
<path d="M146.547 55.347C144.547 55.347 142.584 54.9047 140.732 54.0384C134.631 51.2092 131.995 45.1361 134.014 38.5746C134.272 37.7267 134.64 36.8144 135.101 35.856C135.507 35.0173 136.078 34.2985 136.76 33.7179C136.345 30.6307 136.834 27.2301 138.234 23.7927C141.146 16.6414 146.998 12.1995 153.514 12.1995C155.615 12.1995 157.679 12.6694 159.661 13.591C160.232 13.8583 160.767 14.1163 161.273 14.3559C162.61 15.001 163.983 15.6645 164.646 15.8028C166.517 16.2083 168.102 17.4247 168.996 19.1112C169.881 20.8069 169.982 22.7974 169.263 24.5668C168.959 25.3041 168.554 26.3178 168.111 27.4329L168.047 27.5988C167.024 30.1607 165.872 33.0728 165.162 34.6764C164.683 35.7638 163.246 39.2842 162.296 41.6065L162.149 41.9567C161.531 43.4681 161.043 44.6753 160.914 44.9702C158.103 51.3843 152.602 55.347 146.547 55.347Z" fill="#F58220"/>
<path d="M146.556 55.6419C144.51 55.6419 142.51 55.1903 140.612 54.3056C134.373 51.4119 131.673 45.2006 133.737 38.4916C134.29 36.7038 135.147 35.1003 135.322 34.7962C135.626 34.2524 135.995 33.7456 136.428 33.3124C136.106 30.2897 136.622 26.9997 137.976 23.6821C140.935 16.4202 146.888 11.9138 153.523 11.9138C155.67 11.9138 157.781 12.393 159.799 13.333C160.37 13.6002 160.905 13.8583 161.402 14.0979C162.711 14.7245 164.186 15.4433 164.739 15.5355C166.683 15.858 168.369 17.0561 169.328 18.7794C170.286 20.5027 170.406 22.567 169.65 24.3917C169.328 25.1658 168.849 26.3823 168.314 27.737C167.291 30.3081 166.139 33.2203 165.42 34.8238C164.932 35.9205 163.476 39.4961 162.508 41.8553C161.845 43.4865 161.31 44.7951 161.172 45.1084C158.324 51.6055 152.721 55.6419 146.556 55.6419ZM150.915 30.3634C151.45 30.3634 151.984 30.428 152.519 30.5662C152.731 30.0593 152.915 29.6354 153.053 29.3221C153.403 28.5295 153.938 27.2209 154.509 25.8109C154.352 25.7372 154.196 25.6635 154.03 25.5897C153.846 25.4976 153.671 25.4515 153.523 25.4515C152.841 25.4515 151.44 26.4929 150.51 28.7968C150.252 29.4234 150.095 29.9764 149.994 30.4372C150.298 30.3911 150.611 30.3727 150.924 30.3727" fill="#F58220"/>
<path d="M53.1004 28.1056C52.0959 28.1056 51.1006 27.9582 50.1422 27.6725C47.8659 26.9997 45.903 25.5898 44.4562 23.6084C42.5762 21.0188 42.8711 17.4431 45.1381 15.1945C46.1887 14.1532 47.525 13.5449 48.9073 13.3698C48.9718 11.7663 49.6353 10.1904 50.8518 9.00163C52.1051 7.78517 53.7363 7.15851 55.3767 7.15851C56.759 7.15851 58.1414 7.60085 59.3025 8.48556C62.7953 11.1581 64.4172 15.6 63.4311 19.8208C62.2884 24.6958 58.04 28.0964 53.1004 28.0964L53.1004 28.1056Z" fill="#F58220"/>
<path d="M68.2693 29.8013C68.2693 29.8842 68.2693 29.9672 68.2693 30.0593C68.297 30.6215 68.3615 31.0454 68.4168 31.3587C68.4352 31.3403 68.4813 31.2942 68.4813 31.2942C68.6472 31.1283 68.8315 30.9809 69.025 30.8427C69.025 30.6583 69.025 30.4648 69.025 30.2805C68.7578 30.1515 68.4997 29.9856 68.2693 29.8013Z" fill="#540000"/>
<path d="M20.9656 33.1742C20.0256 30.7321 20.7167 28.6585 21.1683 27.2854C21.1775 27.2486 21.1959 27.2117 21.2052 27.1748C21.0577 27.184 20.9195 27.2117 20.772 27.2117C20.0071 27.2117 19.2883 27.0458 18.6156 26.7693C18.4866 29.7368 19.3989 33.9575 21.4908 36.4457C22.3755 37.4963 23.3248 38.0493 24.3845 38.1414C24.5965 38.1599 24.8177 38.1691 25.0389 38.1691C25.5273 38.1691 25.9973 38.123 26.4489 38.04C24.062 37.441 21.8871 35.5979 20.9563 33.1834" fill="#540000"/>
<path d="M100.607 29.147C100.423 25.8939 100.358 23.7927 100.506 21.1478C100.22 21.0188 99.925 20.8898 99.6209 20.7792C100.063 19.5627 100.294 18.2173 100.284 16.8165C100.229 12.2824 97.2248 8.9832 93.1054 8.97398C92.488 8.97398 91.889 9.0477 91.3084 9.19516C88.2304 9.96926 86.2122 12.7524 86.2951 16.1069C86.3043 16.6045 86.378 17.1022 86.507 17.5814C86.1292 17.5722 85.1616 17.5537 85.1616 17.5537C84.2677 17.5537 83.4935 17.6643 82.8116 17.8578C82.6733 15.5263 81.8532 13.4988 80.48 12.0889C79.1161 10.6881 77.3191 9.94162 75.2732 9.94162L72.9877 9.94162C70.7391 9.96005 68.9236 11.794 68.9328 14.0426L68.9328 14.2545C68.2232 14.0334 67.4768 13.8951 66.7119 13.8583C66.5368 13.8583 66.3709 13.849 66.205 13.849L66.0023 13.849C64.1592 13.8859 62.4451 14.4204 60.9153 15.3973C61.1549 16.5861 61.1549 17.8302 60.8692 19.0467C60.1504 22.1247 57.8464 24.4378 54.9527 25.2027C54.2892 25.3778 53.5888 25.4699 52.87 25.4699C52.0959 25.4699 51.331 25.3594 50.5845 25.1382C48.8151 24.6129 47.2854 23.5162 46.1518 21.9588C44.963 20.3276 45.1473 18.079 46.585 16.6598C47.3683 15.8765 48.4096 15.4802 49.451 15.4802C50.3081 15.4802 51.1559 15.7475 51.884 16.2912C51.884 16.2912 51.9024 16.3004 51.9116 16.3096C51.93 16.2912 51.9484 16.2543 51.9577 16.2082C51.9945 16.07 51.9208 15.9041 51.8379 15.7935C50.6491 14.1532 50.8426 11.8953 52.2894 10.4853C53.0728 9.72044 54.1049 9.32417 55.1371 9.32417C55.9573 9.32417 56.7682 9.57299 57.4686 10.0706C56.6853 9.49005 55.8006 9.02927 54.833 8.74359C54.0773 8.52241 53.2939 8.40261 52.5106 8.40261C49.2206 8.40261 46.373 10.3748 45.1105 13.3514C43.9769 12.909 42.6683 12.6418 41.1293 12.6418C40.9173 12.6418 40.7054 12.6418 40.475 12.6602C40.3276 12.6602 40.1617 12.6787 39.9958 12.6971C39.9405 12.1165 39.8944 11.5912 39.8483 11.1673C39.2125 4.71635 35.3419 2.41245 31.9321 2.41245C31.6096 2.41245 31.2778 2.43088 30.9553 2.47696L28.9739 2.71657C26.7529 2.98382 25.1679 4.99283 25.4167 7.21379L25.4167 7.25987C26.0894 7.61928 26.6977 8.09849 27.2322 8.72515C28.6421 10.384 29.3794 12.7985 29.1582 15.0286L29.1582 15.0471C30.9829 15.4618 32.7154 16.2267 34.319 17.351C35.4064 18.1067 36.0515 19.3416 36.0607 20.6686C36.0699 21.9957 35.4341 23.2398 34.3558 24.0047C33.9319 24.3088 33.5172 24.6405 33.1117 24.9907C33.508 25.7372 33.849 26.5942 34.0794 27.5527C35.0194 31.5338 34.0056 36.3444 30.2457 37.8373C29.5545 38.1138 28.8172 38.252 28.0523 38.252C27.5178 38.252 26.9925 38.1599 26.4673 38.0308C26.0157 38.1046 25.5365 38.1599 25.048 38.1599C24.8269 38.1599 24.6057 38.1506 24.3937 38.1322C23.3339 38.0401 22.3847 37.4871 21.5 36.4365C19.4081 33.9483 18.4865 29.7276 18.6248 26.7601C17.1226 26.1427 15.9246 24.8986 15.3901 23.2766C14.8187 23.8941 13.9709 24.5668 12.6991 24.9631C11.9895 25.1843 11.2523 25.2948 10.4966 25.2948C8.28482 25.2948 6.16522 24.3456 4.617 22.6868C3.44662 25.8662 2.92133 29.9856 3.48348 35.3214C4.65387 46.4631 11.7683 53.9554 21.1867 53.9554C22.1543 53.9554 23.1588 53.8725 24.1633 53.7158C26.7529 53.3011 30.1351 52.3427 32.6049 50.131C33.6739 50.9511 35.0562 51.4672 36.844 51.4672C37.1574 51.4672 37.4891 51.4488 37.8301 51.4119C38.0974 51.3843 38.7978 51.3013 41.2399 50.5364L41.4242 50.4719C41.6822 50.389 41.9311 50.2784 42.1707 50.1586C43.0001 50.5733 44.023 50.859 45.2671 50.9604C45.5528 50.988 45.8385 50.9972 46.1057 50.9972C47.6908 50.9972 49.0547 50.6286 50.1791 50.0941C51.672 51.7437 53.7547 52.6929 55.9019 52.6929C56.6484 52.6929 57.3857 52.5823 58.1137 52.3519C61.3115 51.3474 62.9427 48.9237 63.5509 46.5276C64.6015 46.8594 65.6705 47.0161 66.7119 47.0161L66.9238 47.0161C67.0897 47.0161 67.2464 47.0069 67.4307 46.9884C68.168 46.9424 68.8868 46.7949 69.5687 46.5737C70.7944 50.988 74.1305 51.5502 75.734 51.5502C76.0842 51.5502 76.6187 51.5409 77.144 51.5225L77.2453 51.5225C77.6785 51.5133 78.1024 51.4949 78.4342 51.4949C78.4342 51.4949 78.6738 51.4949 78.683 51.4949C79.7151 51.4949 80.6551 51.117 81.3647 50.4812C82.3692 51.1262 83.512 51.5225 84.7284 51.6331C85.0971 51.67 85.4565 51.6792 85.7882 51.6792C88.7557 51.6792 91.0872 50.3982 92.4143 48.1404C92.4143 48.1404 93.9072 48.168 93.9256 48.168C94.8011 48.168 95.6397 47.8916 96.3401 47.3755C97.4183 48.0298 98.644 48.2694 99.7868 48.3155C99.8881 48.3155 100.017 48.3155 100.146 48.3155C100.957 48.3155 102.284 48.2418 102.929 48.1957L103.243 48.1772C103.39 48.168 103.538 48.1496 103.676 48.122C101.556 45.1084 101.28 40.5651 100.976 35.6532L100.598 29.1378L100.607 29.147ZM68.4905 31.2942C68.4905 31.2942 68.4444 31.3403 68.426 31.3587C68.3615 31.0454 68.3062 30.6215 68.2785 30.0593C68.2785 29.9672 68.2785 29.8842 68.2785 29.8013C68.5089 29.9856 68.767 30.1515 69.0342 30.2805C69.0342 30.4648 69.0342 30.6583 69.0342 30.8427C68.8407 30.9717 68.6656 31.1191 68.4905 31.2942Z" fill="#540000"/>
<path d="M60.731 14.7985C60.7494 14.8721 60.777 14.955 60.7955 15.0287C60.777 14.9458 60.7494 14.8721 60.731 14.7985Z" fill="#540000"/>
<path d="M60.2241 13.4252C60.2241 13.4252 60.2517 13.4804 60.261 13.5081C60.2517 13.4804 60.2425 13.4528 60.2241 13.4252Z" fill="#540000"/>
<path d="M58.7957 11.2874C58.8878 11.3887 58.9708 11.4899 59.0537 11.5912C58.9708 11.4899 58.8786 11.3794 58.7957 11.2874Z" fill="#540000"/>
<path d="M21.2143 27.1656C21.4632 26.4192 21.6751 25.7464 21.7212 24.8894C21.7765 23.8019 21.5277 22.6223 21.03 21.3782C20.5324 21.2215 20.1453 21.028 19.8873 20.899C19.8228 20.8713 19.7583 20.8253 19.6661 20.7884C19.6293 20.7792 19.5002 20.7331 19.233 20.7331C18.3759 20.7331 17.2701 21.1755 16.7816 21.581C16.5052 21.8113 16.3946 21.9772 16.1642 22.2906C15.9799 22.5486 15.7311 22.8896 15.3901 23.249C15.9246 24.8801 17.1226 26.115 18.6248 26.7417C19.2975 27.0182 20.0163 27.1841 20.7812 27.1841C20.9287 27.1841 21.0669 27.1656 21.2143 27.1472" fill="#540000"/>
<path d="M10.4874 25.2948C11.243 25.2948 11.9895 25.1843 12.6991 24.9631C13.9709 24.5576 14.8095 23.8941 15.3901 23.2766C15.7218 22.9172 15.9707 22.5762 16.155 22.3182C16.3854 21.9957 16.496 21.839 16.7724 21.6086C17.2609 21.2031 18.3667 20.7608 19.2238 20.7608C19.491 20.7608 19.6201 20.8068 19.6569 20.8161C19.7491 20.8529 19.8136 20.8898 19.8781 20.9266C20.1361 21.0649 20.5324 21.2492 21.0208 21.4059C21.5277 22.6407 21.7673 23.8203 21.712 24.917C21.6659 25.7741 21.454 26.4376 21.2051 27.1933C21.1959 27.2301 21.1775 27.267 21.1683 27.3039C20.7167 28.677 20.0255 30.7505 20.9655 33.1926C21.8963 35.6071 24.0712 37.4595 26.458 38.0493C26.9833 38.1783 27.5086 38.2704 28.0431 38.2704C28.808 38.2704 29.5453 38.1322 30.2365 37.8557C33.9964 36.372 35.0102 31.5615 34.0702 27.5711C33.8398 26.6035 33.4988 25.7556 33.1025 25.0092C33.508 24.659 33.9227 24.3272 34.3466 24.0231C35.4248 23.249 36.0515 22.0049 36.0515 20.687C36.0515 19.3692 35.3972 18.1251 34.3098 17.3694C32.7062 16.2451 30.9645 15.4802 29.149 15.0655L29.149 15.0471C29.361 12.8169 28.6237 10.4024 27.2229 8.74358C26.6977 8.12614 26.0802 7.63771 25.4167 7.2783C24.8638 6.9834 24.2832 6.77144 23.6749 6.67007C23.2234 6.02497 22.6428 5.39831 21.924 4.85459C20.5232 3.79479 19.0671 3.25107 17.6111 3.25107C16.625 3.25107 15.6573 3.5091 14.8003 3.99753C14.3672 4.24636 13.9709 4.54126 13.6207 4.89145C13.0125 4.73478 12.3397 4.6242 11.6209 4.6242C9.65797 4.6242 7.94386 5.42595 6.79191 6.89124C5.75054 8.20907 5.43721 9.72965 5.39113 10.9461C4.91192 11.2502 4.47878 11.6096 4.08251 12.0243C3.14252 13.0196 2.53429 14.1992 2.28547 15.5079C1.61273 18.9821 3.75075 21.7376 4.41427 22.4933C4.47878 22.567 4.5433 22.6223 4.60781 22.696C6.15603 24.3549 8.28483 25.3041 10.4874 25.3041" fill="#540000"/>
<path d="M135.23 28.0503C135.405 28.0503 135.58 28.0595 135.755 28.0872L136.806 28.2254C137.055 28.2623 137.294 28.3176 137.525 28.3913C137.709 26.8707 137.903 25.3594 138.087 23.8388C138.28 22.2906 138.668 19.6365 139.027 17.2035C137.875 16.8994 136.695 16.5769 135.497 16.4294C135.285 16.4018 135.073 16.3833 134.861 16.3833C132.023 16.3833 129.756 19.4153 129.36 23.7466C129.019 27.4513 129.784 29.746 130.549 30.5846C130.816 30.8795 130.991 30.8887 131.101 30.8887C131.221 30.7966 131.396 30.603 131.498 30.4556L131.654 30.1607C132.373 28.8429 133.756 28.0503 135.23 28.0503Z" fill="#540000"/>
<path d="M168.001 19.148C167.402 18.0606 166.333 17.3141 165.107 17.1022L164.213 16.9547C163.421 16.8257 161.965 16.1161 160.407 15.3696C159.919 15.13 159.393 14.8812 158.831 14.614C157.043 13.7753 155.173 13.3514 153.274 13.3514C151.818 13.3514 150.39 13.6002 149.035 14.0794C149.035 14.0518 149.035 14.0242 149.044 14.0057L149.173 13.0749C149.348 11.8216 148.924 10.5499 148.031 9.64673C147.256 8.87262 146.215 8.43948 145.137 8.43948C144.962 8.43948 144.787 8.4487 144.612 8.47635L143.755 8.58693C143.349 8.5685 142.28 8.28282 141.497 8.07086C140.188 7.72067 138.548 7.27831 136.705 7.0387C136.087 6.95577 135.46 6.9189 134.861 6.9189C131.691 6.9189 128.807 7.98792 126.429 9.85869C126.319 9.73888 126.226 9.60986 126.097 9.50849C125.351 8.87262 124.411 8.52242 123.443 8.52242C123.259 8.52242 123.075 8.53164 122.89 8.55928L119.674 8.99242C116.347 9.44398 113.619 9.81261 109.5 10.3471C109.399 10.3563 109.297 10.3748 109.196 10.3932C105.399 11.1765 100.985 13.0657 100.524 20.7147C100.515 20.8621 100.506 21.0096 100.496 21.157C100.349 23.8019 100.413 25.8939 100.598 29.1562L100.976 35.6716C101.28 40.5928 101.556 45.1361 103.676 48.1404C105.298 50.4443 107.998 51.8543 112.606 51.8543L113.076 51.8543C113.527 51.8543 114.182 51.8727 114.827 51.9004L114.956 51.9004C115.665 51.928 116.347 51.9464 116.836 51.9464C116.854 51.9464 117.14 51.9464 117.14 51.9464C120.467 51.8819 122.964 51.0065 124.78 49.2923C126.309 50.3521 128.199 51.0525 130.419 51.329C130.972 51.4027 131.544 51.4396 132.097 51.4396C134.05 51.4396 135.903 50.988 137.58 50.1863C138.538 51.1263 139.7 51.9188 141.064 52.5547C142.741 53.338 144.501 53.7251 146.298 53.7251C151.791 53.7251 156.804 50.0757 159.375 44.2053C159.513 43.9012 160.039 42.611 160.684 41.0167C161.651 38.6391 163.126 35.0358 163.623 33.9115C164.315 32.354 165.457 29.488 166.462 26.9629L166.499 26.8707C167.033 25.5253 167.522 24.2996 167.844 23.5162L168.185 22.6776C168.655 21.5349 168.581 20.2263 167.982 19.148M131.498 30.4556C131.396 30.6123 131.221 30.8058 131.101 30.8887C130.991 30.8887 130.816 30.8795 130.549 30.5846C129.784 29.746 129.01 27.4513 129.36 23.7466C129.756 19.4153 132.023 16.3833 134.861 16.3833C135.073 16.3833 135.285 16.3926 135.497 16.4202C136.695 16.5769 137.875 16.8902 139.027 17.1943C138.667 19.6273 138.28 22.2814 138.087 23.8296C137.893 25.3502 137.709 26.8615 137.525 28.3821C137.294 28.3084 137.055 28.2531 136.806 28.2162L135.755 28.078C135.58 28.0503 135.405 28.0411 135.23 28.0411C133.756 28.0411 132.382 28.8429 131.654 30.1515L131.498 30.4464L131.498 30.4556ZM148.04 27.6541C149.238 24.7143 151.293 22.8159 153.283 22.8159C153.781 22.8159 154.306 22.9449 154.813 23.1845C155.302 23.4149 156.997 24.2258 157.32 24.3825C156.472 26.5021 155.541 28.8429 154.998 30.0593C154.703 30.7229 154.168 32.0038 153.551 33.506C153.505 33.4783 153.459 33.4507 153.403 33.423L152.519 32.9715C151.938 32.6766 151.302 32.5291 150.675 32.5291C149.772 32.5291 148.869 32.8332 148.132 33.4138L147.948 33.5613C147.948 33.5613 147.929 33.5705 147.92 33.5797C147.828 33.4968 147.699 33.3401 147.57 33.0821C146.971 31.8656 147.146 29.8382 148.04 27.6541Z" fill="#540000"/>
<path d="M147.929 33.5705C147.929 33.5705 147.948 33.5613 147.957 33.5521L148.141 33.4046C148.878 32.8148 149.772 32.5199 150.685 32.5199C151.311 32.5199 151.947 32.6674 152.528 32.9623L153.412 33.4138C153.459 33.4415 153.514 33.4691 153.56 33.4968C154.177 31.9946 154.712 30.7229 155.007 30.0501C155.551 28.8337 156.481 26.4929 157.329 24.3733C157.007 24.2166 155.302 23.3964 154.822 23.1753C154.306 22.9357 153.79 22.8066 153.293 22.8066C151.311 22.8066 149.247 24.7051 148.049 27.6448C147.155 29.829 146.989 31.8564 147.579 33.0729C147.708 33.3309 147.846 33.4876 147.929 33.5705Z" fill="#540000"/>
<path d="M52.2894 10.4853C50.8426 11.8953 50.6491 14.1624 51.8379 15.8027C51.9208 15.9133 51.9853 16.0792 51.9577 16.2175C51.9485 16.2727 51.93 16.3004 51.9116 16.3188C51.9116 16.3188 51.8932 16.3096 51.884 16.3004C51.1559 15.7567 50.2989 15.4894 49.451 15.4894C48.4097 15.4894 47.3683 15.8857 46.585 16.669C45.1566 18.0882 44.9722 20.3368 46.1518 21.968C47.2854 23.5254 48.8152 24.6221 50.5846 25.1474C51.331 25.3686 52.0959 25.4792 52.87 25.4792C53.5889 25.4792 54.2892 25.387 54.9528 25.2119C57.8465 24.447 60.1504 22.1339 60.8692 19.0559C61.1549 17.8394 61.1549 16.5953 60.9153 15.4065C60.8876 15.2867 60.8508 15.1669 60.8231 15.0379C60.8047 14.9641 60.777 14.8812 60.7586 14.7982C60.6388 14.3559 60.4729 13.9228 60.2794 13.5081C60.2702 13.4804 60.2517 13.4528 60.2425 13.4251C59.9292 12.7708 59.5421 12.1626 59.0814 11.5912C58.9984 11.4898 58.9155 11.3792 58.8233 11.2871C58.7035 11.1489 58.5745 11.0106 58.4455 10.8816C58.2151 10.6604 57.9755 10.4393 57.7174 10.2365C57.6898 10.2089 57.6622 10.1904 57.6345 10.1628C57.5884 10.1259 57.5424 10.1075 57.4963 10.0706C56.7959 9.57299 55.9757 9.32416 55.1647 9.32416C54.1326 9.32416 53.1004 9.72044 52.3171 10.4853" fill="#540000"/>
<path d="M55.902 48.6104C54.9159 48.6104 53.9114 48.1404 53.2018 47.3571C51.9945 46.0208 51.4877 44.1869 51.3126 40.5744C51.073 35.4689 50.1514 23.6452 50.1422 23.5254L50.1238 23.2951L50.3449 23.2766C50.3449 23.2766 51.543 23.166 52.0222 23.1384C52.2434 23.12 52.4553 23.1107 52.6673 23.1107C54.0312 23.1107 55.091 23.507 55.819 24.2903C56.7682 25.3133 57.1829 26.9537 57.0631 29.3221C56.9433 31.8103 57.1645 34.9252 57.3212 37.2014C57.3857 38.0861 57.4318 38.8326 57.4502 39.3487C57.5147 41.2287 58.4823 43.7261 59.579 44.021L59.7449 44.0671L59.7449 44.2422C59.7633 44.7951 59.6712 47.5874 56.888 48.4721C56.5655 48.5735 56.2337 48.6288 55.902 48.6288M85.7974 47.6151C85.5763 47.6151 85.3367 47.6059 85.0878 47.5874C83.899 47.4861 82.8392 46.7212 82.1573 45.4955C81.2541 43.8828 80.563 41.2563 79.8994 38.722C79.4847 37.1369 79.0885 35.6164 78.6461 34.3722C78.6461 36.0218 78.6553 38.123 78.6646 40.2242C78.683 42.8506 78.6922 45.4771 78.683 47.2004L78.683 47.4308L78.4526 47.4308C78.0563 47.4308 77.5495 47.44 77.0426 47.4584C76.545 47.4676 76.0565 47.4861 75.734 47.4861C73.4762 47.4861 73.1813 44.961 73.172 42.7769C73.1628 38.6114 73.126 33.5244 73.0799 28.4466C73.043 23.4149 73.0062 18.3923 72.9877 14.273L72.9877 14.0426C72.9877 14.0426 74.5728 14.0426 75.2548 14.0426C76.1763 14.0426 76.9412 14.3467 77.531 14.9549C78.3144 15.7659 78.7475 17.0837 78.7291 18.678L78.6553 30.0317C79.7704 27.6448 80.9316 25.1935 82.2863 23.1753C82.9867 22.1247 83.5581 21.6547 85.1339 21.6547L85.2906 21.6547C86.5163 21.6823 87.7419 21.71 88.9676 21.7468L89.1888 21.7468L89.1796 22.2537L89.1335 22.309C88.2212 23.5715 83.4935 30.9532 82.9222 31.8564C83.1802 32.7226 85.0049 38.8879 85.8988 40.5006C87.1061 42.6479 88.3317 44.0855 89.2625 44.4357L89.4468 44.5002L89.41 44.6937C89.0045 46.7027 87.8617 47.6335 85.7882 47.6335M36.8348 47.3847C34.6692 47.3847 33.5264 45.7259 33.1578 42.012C32.4758 35.2477 30.7433 18.3002 29.49 6.99262L29.4623 6.76222L31.4437 6.52262C31.6096 6.50419 31.7755 6.49497 31.9321 6.49497C34.0978 6.49497 35.4709 8.30123 35.7935 11.5728C35.9225 12.8077 36.1068 14.8535 36.2911 16.8257C36.4017 17.9776 36.5031 19.1112 36.5952 20.0419C37.4062 17.9131 38.7517 16.8257 40.6778 16.7335C40.8344 16.7335 40.9819 16.7243 41.1293 16.7243C46.2071 16.7243 47.5618 21.0372 48.0502 27.5158C48.124 28.5203 48.1977 29.7091 48.2806 30.9809C48.6032 36.243 49.0455 43.4588 50.2343 44.5832L50.3726 44.7122L50.2804 44.8688C49.9671 45.4033 48.5295 46.9147 46.1058 46.9147C45.9491 46.9147 45.7832 46.9147 45.6081 46.8963C42.613 46.6474 42.5301 44.703 42.4103 42.2424C42.3918 41.7724 42.3642 41.2747 42.3181 40.7587C42.1615 38.8602 42.1522 36.5379 42.143 34.0681C42.143 32.6673 42.1338 31.2205 42.0969 29.8013C42.0232 26.5758 41.1938 24.7972 39.7654 24.7972C39.7009 24.7972 39.6364 24.7972 39.5719 24.8064C37.7288 24.9999 37.5813 26.7325 37.9407 30.5293C38.3831 35.2109 40.134 46.2788 40.1525 46.3894L40.1801 46.5829L39.9958 46.6475C39.9128 46.6751 37.9407 47.2925 37.3601 47.3571C37.1758 47.3755 37.0007 47.3847 36.8348 47.3847ZM92.1931 44.0671C90.2578 43.9934 89.3178 42.6479 89.3178 39.9477L89.3178 33.294C89.3363 32.5015 89.3915 31.1283 89.4468 29.6723C89.5113 28.1148 89.5759 26.5021 89.5943 25.2856L89.5943 25.0368L90.0366 25.0645C90.9213 25.1013 91.6217 24.8802 92.359 24.659C93.2252 24.3917 94.2021 24.0876 95.6397 24.1521C95.7411 24.1521 95.8517 24.1613 95.9623 24.1705C101.611 24.5852 102.284 29.018 102.164 33.7548C102.091 36.7314 101.971 41.7079 102.837 43.8275L102.957 44.1224L102.644 44.15C102.008 44.1961 100.515 44.2698 99.925 44.2514C97.704 44.1685 97.3078 42.7216 97.3538 40.0859C97.3907 37.8742 97.4276 35.6532 97.4644 33.4415C97.5105 30.428 96.6903 29.9764 95.7872 29.9395C95.3817 29.9395 95.0776 30.0501 94.8288 30.2989C94.3219 30.8058 94.0454 31.8287 94.0362 33.2572C93.9994 36.796 93.9717 40.3348 93.9348 43.8736L93.9348 44.1039L92.1931 44.0763L92.1931 44.0671ZM66.8593 42.9336C62.187 43.0257 59.109 38.6114 58.639 31.1191C58.3625 26.668 59.5145 22.4288 61.6525 20.0512C62.8966 18.678 64.3803 17.9592 66.076 17.9223C66.2142 17.9223 66.3525 17.9223 66.4999 17.9223C69.1448 18.0422 71.2183 20.3829 71.3381 23.3504C71.3566 23.8296 71.3566 24.3733 71.3658 24.917C71.3658 25.4607 71.3658 25.9952 71.3934 26.4652L71.3934 26.6956L71.0525 26.7048L70.8497 26.6035C70.435 25.986 69.3291 25.0829 67.956 25.1105L67.8546 25.1105C65.4217 25.2488 64.067 27.1656 64.2237 30.2529C64.3527 32.7595 65.0807 35.7362 67.7993 35.6809L67.9284 35.6809C69.3199 35.5979 70.3889 35.1371 71.3013 34.2432L71.3658 34.1787L71.6791 34.1787L71.7436 34.3999L71.8358 36.7407C71.9556 40.0675 69.9189 42.74 67.2003 42.9151C67.0897 42.9151 66.9884 42.9243 66.8778 42.9243M92.4143 22.7053C92.1009 22.7882 91.7784 22.8251 91.4466 22.8251L90.4329 22.8251L90.4237 22.2168L90.5435 22.1523C91.2992 21.71 92.018 20.3276 91.9996 19.36C91.9903 18.8439 91.7876 18.4016 91.4005 18.0422C90.5619 17.2588 90.3684 16.5124 90.3592 16.0147C90.3223 14.5402 91.0504 13.4712 92.3037 13.1579C92.5525 13.0934 92.829 13.0657 93.1147 13.0657C94.967 13.0657 96.1835 14.5679 96.2111 16.881C96.248 19.701 94.6445 22.1615 92.4143 22.7237" fill="#FFF200"/>
<path d="M51.7365 21.2308C49.5063 20.5672 48.0964 18.1159 48.6124 15.7383C49.1285 13.3606 51.4048 11.9783 53.6718 12.651C55.9388 13.3238 57.441 15.7567 56.8881 18.1251C56.3351 20.4935 53.9759 21.8943 51.7365 21.24" fill="#FFF200"/>
<path d="M14.5791 25.9031C14.0446 31.967 17.0766 41.6157 24.062 42.1963C26.6424 42.4083 29.6651 41.7908 31.6557 40.0675C31.6557 40.0675 32.8629 43.4681 30.559 46.3894C29.149 48.168 26.3936 49.237 23.5183 49.6978C14.3395 51.1539 8.4876 44.0118 7.52918 34.9067C6.50624 25.1013 9.35388 19.2125 15.7127 17.0192C20.4403 15.388 22.2373 16.5861 22.9008 17.3049C22.5967 16.9731 17.694 17.1667 15.6942 21.8206C14.9385 23.5715 14.6344 25.3225 14.5791 25.9215" fill="#FFF200"/>
<path d="M22.3203 21.0004C22.5783 21.8666 22.1083 22.7882 21.2512 23.0554C20.4034 23.3227 19.5003 22.8343 19.233 21.968C18.975 21.1017 19.445 20.1802 20.302 19.9129C21.1499 19.6457 22.053 20.1341 22.3203 21.0004Z" fill="white"/>
<path d="M22.8364 17.5445C23.933 17.3971 24.9467 16.1161 25.085 14.6416C25.2508 12.8906 24.2003 10.7618 22.9377 10.6789C22.1452 10.6236 21.5462 11.3885 21.3342 11.6926C21.2881 11.3332 21.0024 9.26887 19.4634 8.09849C19.1317 7.84967 17.8968 6.91889 16.8278 7.52712C15.9062 8.05241 15.427 9.52691 15.7587 11.1304C15.4638 10.6789 14.9293 9.97847 14.1092 9.47161C13.0494 8.80809 10.9943 8.14457 9.99898 9.41632C9.26173 10.3563 9.50134 11.84 9.5382 12.0981C9.74094 13.2224 10.34 13.932 10.5611 14.1624C10.34 14.0886 8.34938 13.4436 7.05919 14.8167C6.89331 15.001 6.45097 15.4802 6.29431 16.282C5.96255 17.9961 7.25273 19.5351 7.48312 19.8023C8.57056 21.0464 10.1925 21.4796 11.4735 21.0741C12.7545 20.6686 12.6347 19.7563 14.1552 18.4753C15.7311 17.1482 18.8276 16.1253 21.1038 16.9916C21.8871 17.2865 22.1452 17.6367 22.8364 17.5445Z" fill="#ED1C24"/>
<path d="M24.403 18.9453C25.2324 18.7886 26.5041 18.6596 28.0431 18.9729C29.8125 19.3416 31.1672 20.1341 31.969 20.6963C31.1672 21.2676 30.2825 21.9957 29.3886 22.8896C28.762 23.5162 28.2182 24.1429 27.739 24.7327C28.2182 25.129 29.6006 26.3823 30.0982 28.4835C30.5498 30.4095 30.347 33.4046 28.7343 34.0405C27.3888 34.575 25.4075 33.3401 24.7716 31.6997C24.0159 29.746 25.6194 28.3452 25.7853 25.1013C25.9143 22.6039 25.1218 20.429 24.403 18.9361L24.403 18.9453Z" stroke="#540000" stroke-width="3.57" stroke-linecap="round" stroke-linejoin="round"/>
<path d="M24.403 18.9453C25.2324 18.7886 26.5041 18.6596 28.0431 18.9729C29.8125 19.3416 31.1672 20.1341 31.969 20.6963C31.1672 21.2676 30.2825 21.9957 29.3886 22.8896C28.762 23.5162 28.2182 24.1429 27.739 24.7327C28.2182 25.129 29.6006 26.3823 30.0982 28.4835C30.5498 30.4095 30.347 33.4046 28.7343 34.0405C27.3888 34.575 25.4075 33.3401 24.7716 31.6997C24.0159 29.746 25.6194 28.3452 25.7853 25.1013C25.9143 22.6039 25.1218 20.429 24.403 18.9361" fill="#ED1C24"/>
<path d="M116.845 47.8731C116.366 47.8731 115.675 47.8455 114.974 47.8271C114.283 47.7994 113.583 47.781 113.085 47.781L112.578 47.781C105.814 47.781 105.602 44.4173 105.058 35.4228L104.68 28.9166C104.496 25.6543 104.431 23.6268 104.597 20.9727C104.874 16.3004 106.643 15.0932 110.025 14.3928C114.163 13.8675 116.9 13.4896 120.236 13.0381L123.443 12.6049L123.443 13.4159C123.471 14.1624 123.489 15.1116 123.517 15.9226C123.305 19.5443 122.881 21.0649 119.462 21.7837C116.762 22.3551 114.504 22.7882 111.841 23.1384C111.804 24.4009 111.841 25.6635 111.878 26.8154C113.859 26.6864 115.905 26.5298 117.859 26.3823C119.066 26.2901 120.236 26.198 121.333 26.1243L122.089 26.069L122.172 29.6907C122.254 33.2111 120.245 34.1695 118.541 34.363C117.766 34.446 116.642 34.5381 115.416 34.6303C114.384 34.7132 113.288 34.7962 112.274 34.8883C112.274 34.962 112.274 35.0266 112.274 35.1003C112.274 35.4228 112.274 35.7454 112.292 35.9481C112.431 38.9616 112.799 38.9616 114.808 38.9616C115.158 38.9616 115.545 38.9616 115.969 38.9432L116.237 38.9432C116.384 38.9432 116.449 38.9432 116.522 38.9432C116.568 38.9432 116.624 38.9432 116.734 38.9432L116.946 38.9432C119.02 38.8971 120.439 38.6391 122.347 37.9756L123.277 37.6438L123.305 38.6299C123.323 39.2381 123.351 39.7726 123.379 40.3071C123.406 40.8324 123.443 41.3669 123.452 41.9751C123.499 43.8275 123.065 45.1914 122.144 46.159C121.093 47.2557 119.425 47.8178 117.048 47.8639L116.817 47.8639L116.845 47.8731Z" fill="#FDB913"/>
<path d="M116.845 46.8594C116.375 46.8594 115.693 46.8318 115.011 46.8134C114.301 46.7857 113.592 46.7673 113.094 46.7673L112.587 46.7673C106.772 46.7673 106.625 44.3528 106.072 35.3583L105.694 28.8613C105.51 25.6358 105.445 23.6453 105.611 21.0373C105.878 16.6045 107.537 15.9502 110.228 15.3881C114.292 14.872 117.029 14.4942 120.374 14.0426L122.457 13.7569C122.466 14.4481 122.485 15.2498 122.513 15.9502C122.31 19.3508 121.987 20.2078 119.259 20.7884C116.384 21.3967 114.016 21.8482 111.122 22.2076L110.873 22.2353L110.873 22.4841C110.772 24.2627 110.836 26.0506 110.91 27.5896L110.91 27.8845L111.223 27.866C113.435 27.7278 115.757 27.5527 117.951 27.3868C119.047 27.3039 120.107 27.2209 121.112 27.1472L121.167 29.6999C121.222 31.967 120.356 33.1282 118.439 33.3401C117.674 33.4231 116.559 33.506 115.343 33.6074C114.08 33.7087 112.707 33.8101 111.518 33.9299L111.242 33.9576L111.242 34.234C111.26 34.4368 111.269 34.7685 111.269 35.0911C111.269 35.4321 111.269 35.7638 111.288 35.9758C111.445 39.2934 112.034 39.9569 114.817 39.9569C115.177 39.9569 115.573 39.9569 116.006 39.9385L116.246 39.9385C116.356 39.9385 116.412 39.9385 116.467 39.9385C116.532 39.9385 116.605 39.9385 116.744 39.9385L116.983 39.9385C119.038 39.8924 120.476 39.6528 122.319 39.0354C122.337 39.4962 122.356 39.9201 122.383 40.344C122.411 40.8601 122.439 41.3854 122.457 41.9752C122.494 43.5418 122.153 44.6661 121.425 45.431C120.568 46.3249 119.13 46.7765 117.038 46.8226L116.836 46.8226L116.845 46.8594Z" fill="white"/>
<path d="M122.162 14.0887C122.172 14.6877 122.19 15.3512 122.208 15.9318C122.006 19.3876 121.609 19.9867 119.195 20.5027C116.32 21.111 113.96 21.5625 111.076 21.9219L110.587 21.9865L110.56 22.4841C110.477 24.2627 110.541 26.069 110.606 27.6172L110.634 28.2162L111.233 28.1794C113.444 28.0411 115.739 27.866 117.96 27.7001C118.946 27.6264 119.904 27.5527 120.826 27.4882L120.844 28.2254C120.854 28.677 120.863 29.1286 120.881 29.7368C120.937 31.8472 120.172 32.8793 118.421 33.0729C117.665 33.1558 116.532 33.2479 115.334 33.3401C114.099 33.4323 112.698 33.5428 111.5 33.6627L110.947 33.7179L110.975 34.2709C110.975 34.4736 110.984 34.7962 110.984 35.1187C110.984 35.4597 110.984 35.8007 111.002 36.0126C111.168 39.4777 111.878 40.2795 114.827 40.2795C115.186 40.2795 115.582 40.2795 116.025 40.261C116.126 40.261 116.2 40.261 116.264 40.261C116.366 40.261 116.421 40.261 116.467 40.261C116.541 40.261 116.615 40.261 116.762 40.261C116.826 40.261 116.9 40.261 117.002 40.261C118.955 40.2242 120.356 40.003 122.052 39.4685C122.07 39.7818 122.079 40.0859 122.098 40.3901C122.125 40.9061 122.153 41.4222 122.172 42.0212C122.208 43.5049 121.895 44.5647 121.222 45.2651C120.421 46.1037 119.057 46.5277 117.038 46.5645L116.836 46.5645C116.375 46.5645 115.684 46.5461 115.011 46.5184C114.311 46.4908 113.592 46.4724 113.085 46.4724C112.984 46.4724 112.882 46.4724 112.808 46.4724L112.578 46.4724C107.039 46.4724 106.91 44.3343 106.358 35.3399L106.311 34.6395C106.201 32.7042 106.09 30.7689 105.97 28.8337C105.786 25.6174 105.731 23.636 105.888 21.0465C106.127 16.9639 107.473 16.2451 110.228 15.6738C114.274 15.1577 117.066 14.7798 120.292 14.3375L122.144 14.0887L122.162 14.0887ZM122.743 13.4159C118.181 14.0334 115.195 14.4481 110.173 15.0932C107.196 15.7106 105.583 16.5861 105.316 21.0096C105.15 23.6729 105.215 25.7096 105.399 28.8705C105.51 30.8058 105.62 32.7411 105.731 34.6764C106.311 44.1224 106.33 47.0622 112.578 47.0622C112.652 47.0622 112.735 47.0622 112.818 47.0622C112.901 47.0622 112.993 47.0622 113.085 47.0622C114.071 47.0622 115.886 47.1543 116.836 47.1543C116.909 47.1543 116.983 47.1543 117.048 47.1543C121.471 47.0622 122.826 45.1638 122.752 42.0028C122.724 40.7863 122.632 39.8832 122.605 38.6575C120.559 39.3763 119.084 39.6252 116.983 39.6712C116.891 39.6712 116.817 39.6712 116.753 39.6712C116.495 39.6712 116.495 39.6528 116.246 39.6528C116.181 39.6528 116.098 39.6528 115.997 39.6528C115.564 39.662 115.168 39.6712 114.817 39.6712C112.302 39.6712 111.73 39.2197 111.583 35.9666C111.564 35.5519 111.574 34.6395 111.555 34.2248C113.896 33.9852 116.919 33.8009 118.485 33.635C120.467 33.4138 121.536 32.2066 121.471 29.6999C121.443 28.548 121.434 27.9858 121.407 26.8339C118.31 27.055 114.633 27.3592 111.205 27.5711C111.131 25.9215 111.076 24.1982 111.159 22.4933C114.062 22.1339 116.449 21.6731 119.324 21.0649C122.19 20.4567 122.595 19.4614 122.807 15.9318C122.78 15.1208 122.761 14.1624 122.752 13.4159" fill="#FDB913"/>
<path d="M132.115 47.3571C131.728 47.3571 131.341 47.3294 130.945 47.2833C126.429 46.7212 124.171 43.9104 124.577 39.3579L124.991 34.7962L126.107 36.2154C126.107 36.2154 128.134 38.7497 130.641 38.7497C130.724 38.7497 130.816 38.7497 130.908 38.7497C133.166 38.593 134.391 37.3857 134.649 35.0726L134.668 34.9436C133.949 35.5611 132.972 36.1232 131.756 36.243C131.544 36.2614 131.341 36.2707 131.138 36.2707C129.397 36.2707 127.821 35.5518 126.595 34.2064C124.494 31.9025 123.581 28.0042 124.024 23.2398C124.687 16.0239 129.157 10.9922 134.889 10.9922C135.322 10.9922 135.774 11.0198 136.216 11.0751C137.783 11.2779 139.211 11.6557 140.465 11.9967C141.782 12.3469 142.916 12.651 143.819 12.651C143.966 12.651 144.095 12.651 144.234 12.6234L145.164 12.5036L145.035 13.4343C144.916 14.3375 144.685 15.8488 144.446 17.5169C144.077 20.0419 143.653 22.908 143.45 24.4839C143.165 26.7325 142.888 28.9903 142.612 31.2389C142.556 31.6997 142.501 32.3448 142.418 33.1558L142.345 33.976C142.289 34.7316 142.179 35.5795 142.077 36.4734L142.059 36.6116C141.266 43.0257 137.285 47.3386 132.134 47.3386" fill="#FDB913"/>
<path d="M132.115 46.3434C131.774 46.3434 131.424 46.3249 131.074 46.2788C126.088 45.6522 125.342 42.224 125.581 39.4501L125.775 37.3673C126.586 38.206 128.392 39.7634 130.641 39.7634C130.751 39.7634 130.862 39.7634 130.972 39.7542C133.719 39.5607 135.341 37.9756 135.654 35.1832L135.949 32.5199L135.46 32.4554L135.304 32.6213C135.304 32.6213 133.977 35.0173 131.654 35.2385C131.479 35.257 131.304 35.2662 131.129 35.2662C129.682 35.2662 128.364 34.6672 127.332 33.5336C125.425 31.4417 124.604 27.8199 125.019 23.3504C125.637 16.6783 129.691 12.0152 134.871 12.0152C135.267 12.0152 135.663 12.0428 136.069 12.0981C137.562 12.2916 138.962 12.6695 140.188 12.992C141.57 13.3606 142.768 13.6832 143.801 13.6832C143.856 13.6832 143.911 13.6832 143.966 13.6832C143.837 14.5955 143.644 15.941 143.423 17.3971C143.054 19.9314 142.63 22.7974 142.427 24.3917C142.142 26.6404 141.865 28.8982 141.589 31.1468C141.534 31.6168 141.469 32.2711 141.395 33.0913L141.322 33.9115C141.257 34.6672 141.165 35.5058 141.054 36.3813L141.036 36.5195C140.317 42.3991 136.732 46.3526 132.115 46.3526" fill="white"/>
<path d="M134.861 12.3008C135.239 12.3008 135.636 12.3285 136.023 12.3746C137.497 12.5681 138.889 12.9367 140.105 13.2685C141.432 13.6279 142.593 13.932 143.616 13.9689C143.487 14.872 143.312 16.0884 143.119 17.3878C142.75 19.9037 142.326 22.7606 142.133 24.3456C141.847 26.5943 141.57 28.8521 141.294 31.1007C141.229 31.5891 141.174 32.2803 141.091 33.165L141.027 33.8838C140.971 34.6211 140.87 35.4413 140.769 36.3075L140.75 36.4734C140.05 42.2055 136.576 46.0484 132.124 46.0484C131.793 46.0484 131.452 46.03 131.111 45.9839C127.295 45.5047 125.535 43.3206 125.876 39.4777L126.014 38.0032C126.982 38.8879 128.641 40.0583 130.641 40.0583C130.76 40.0583 130.88 40.0583 131 40.0491C133.912 39.8463 135.617 38.1691 135.949 35.2109L136.207 32.8332L136.271 32.2619L135.7 32.1881L135.636 32.1881L135.239 32.1236L135.046 32.4738C135.046 32.4738 133.783 34.7317 131.627 34.9344C131.461 34.9528 131.295 34.962 131.129 34.962C129.765 34.962 128.53 34.3907 127.553 33.3217C125.729 31.3219 124.909 27.6909 125.314 23.3596C125.913 16.8441 129.848 12.2916 134.88 12.2916M134.861 11.711C129.295 11.711 125.323 16.7243 124.715 23.3043C124.005 30.9717 126.982 35.5426 131.12 35.5426C131.304 35.5426 131.489 35.5334 131.673 35.515C134.189 35.2754 135.553 32.7503 135.553 32.7503L135.617 32.7503C135.617 32.7503 135.405 34.7132 135.359 35.1371C135.055 37.8926 133.488 39.2657 130.954 39.4501C130.853 39.4501 130.742 39.4593 130.641 39.4593C127.738 39.4593 125.544 36.6485 125.544 36.6485C125.544 36.6485 125.379 38.4916 125.296 39.404C125.001 42.6847 126.143 45.9379 131.037 46.5461C131.406 46.5922 131.765 46.6106 132.115 46.6106C136.99 46.6106 140.612 42.3438 141.331 36.5195C141.441 35.5887 141.552 34.704 141.617 33.9023C141.727 32.6858 141.81 31.755 141.884 31.1468C142.16 28.8982 142.437 26.6403 142.722 24.3917C143.054 21.7561 143.994 15.5908 144.307 13.3238C144.142 13.3422 143.976 13.3514 143.801 13.3514C141.893 13.3514 139.267 12.181 136.106 11.7663C135.682 11.711 135.276 11.6834 134.871 11.6834" fill="#FDB913"/>
<path d="M154.998 42.27C152.675 47.569 147.699 50.3337 143.1 48.1957C138.944 46.2696 138.889 42.7308 139.681 40.1597C140.059 38.9248 140.741 37.6899 140.741 37.6899C140.741 37.6899 141.847 41.5144 144.87 42.141C147.21 42.6294 148.934 41.6895 149.929 39.3487C150.049 39.063 150.777 37.3212 150.777 37.3212L150.74 37.3028C150.74 37.3028 148.961 38.7405 146.713 38.123C143.644 37.2844 140.916 32.7503 143.708 25.9031C146.169 19.8576 151.551 16.5216 156.785 18.9729C159.624 20.3092 161.596 21.3966 163.411 21.7008C162.499 23.9217 160.278 29.6538 159.246 31.967C158.398 33.8746 155.329 41.4959 154.988 42.2885L154.998 42.27Z" stroke="#500000" stroke-width="7.8" stroke-linecap="round" stroke-linejoin="round"/>
<path d="M146.307 49.6425C145.109 49.6425 143.93 49.3753 142.796 48.85C139.156 47.1635 137.774 43.9104 138.999 39.9477C139.396 38.6575 140.087 37.395 140.114 37.3489L140.953 35.8468L141.441 37.4964C141.441 37.4964 142.474 40.9153 145.035 41.4406C145.386 41.5144 145.717 41.5512 146.031 41.5512C147.505 41.5512 148.574 40.7403 149.284 39.0722L149.413 38.7589C148.961 38.8971 148.436 38.9893 147.874 38.9893C147.422 38.9893 146.971 38.9248 146.538 38.805C144.971 38.3718 143.589 37.1554 142.75 35.4597C141.441 32.8056 141.552 29.3129 143.063 25.6266C145.118 20.5765 149.035 17.4339 153.283 17.4339C154.583 17.4339 155.864 17.7288 157.108 18.3094C157.661 18.5675 158.168 18.8163 158.656 19.0559C160.628 20.0051 162.177 20.7516 163.54 20.982L164.434 21.1294L164.093 21.968C163.762 22.7606 163.273 24.0047 162.729 25.3778C161.725 27.9029 160.591 30.7597 159.928 32.2527C159.403 33.4415 157.974 36.9342 156.942 39.4777C156.315 41.0259 155.799 42.2793 155.67 42.5742C153.753 46.9424 150.178 49.661 146.326 49.661" fill="#FDB913"/>
<path d="M146.307 48.6288C145.257 48.6288 144.215 48.3892 143.22 47.9284C138.935 45.9378 139.34 42.2608 139.958 40.2426C140.16 39.5699 140.465 38.8971 140.695 38.4271C141.174 39.5883 142.409 41.9291 144.814 42.4267C145.229 42.5096 145.635 42.5557 146.022 42.5557C147.92 42.5557 149.33 41.5144 150.205 39.4593L151.164 37.1738L150.749 36.9618L150.556 37.0632C150.556 37.0632 149.404 37.9663 147.855 37.9663C147.496 37.9663 147.137 37.9203 146.786 37.8189C145.496 37.4687 144.344 36.4365 143.644 34.9989C142.464 32.6121 142.593 29.4142 143.985 25.9952C145.883 21.3321 149.441 18.4384 153.274 18.4384C154.417 18.4384 155.56 18.7057 156.675 19.2218C157.219 19.4798 157.735 19.7194 158.214 19.959C160.094 20.8621 161.605 21.5994 163.015 21.9035C162.693 22.696 162.259 23.7927 161.78 24.9907C160.785 27.4974 159.651 30.345 158.988 31.8287C158.453 33.0268 157.025 36.5287 155.984 39.0814C155.357 40.6204 154.85 41.8553 154.721 42.1502C152.97 46.1498 149.745 48.6288 146.298 48.6288" fill="white"/>
<path d="M153.283 18.7334C154.389 18.7334 155.486 18.9914 156.555 19.489C157.099 19.7471 157.615 19.9867 158.094 20.2263C159.845 21.0649 161.283 21.7653 162.619 22.1063C162.315 22.862 161.928 23.8388 161.504 24.8894C160.509 27.396 159.384 30.2344 158.73 31.7089C158.195 32.9162 156.767 36.4089 155.726 38.9709C155.117 40.4638 154.592 41.754 154.463 42.0397C152.758 45.9287 149.634 48.3432 146.316 48.3432C145.312 48.3432 144.317 48.1128 143.358 47.6704C139.276 45.772 139.663 42.2608 140.253 40.3348C140.382 39.9201 140.547 39.5054 140.704 39.1367C141.34 40.4177 142.603 42.2701 144.768 42.7124C145.211 42.8046 145.634 42.8506 146.031 42.8506C148.031 42.8506 149.57 41.7171 150.491 39.5699C150.611 39.2934 151.339 37.5332 151.339 37.5332L151.551 37.0356L151.072 36.7868L151.035 36.7683L150.694 36.5932L150.399 36.8328C150.399 36.8328 149.321 37.6715 147.883 37.6715C147.551 37.6715 147.22 37.6254 146.897 37.5332C145.69 37.2015 144.612 36.2246 143.939 34.8607C142.805 32.5476 142.925 29.4419 144.289 26.0966C146.141 21.5441 149.597 18.7149 153.302 18.7149M153.274 18.1528C149.284 18.1528 145.625 21.2124 143.718 25.8939C140.925 32.7411 143.653 37.2752 146.722 38.1138C147.118 38.2244 147.505 38.2705 147.865 38.2705C149.542 38.2705 150.74 37.3028 150.74 37.3028L150.786 37.3213C150.786 37.3213 150.058 39.0722 149.938 39.3487C149.109 41.2932 147.782 42.2701 146.022 42.2701C145.662 42.2701 145.275 42.2332 144.879 42.1503C141.856 41.5236 140.75 37.6991 140.75 37.6991C140.75 37.6991 140.068 38.9248 139.69 40.1689C138.898 42.7401 138.953 46.2789 143.109 48.2141C144.169 48.7118 145.257 48.9422 146.316 48.9422C149.864 48.9422 153.219 46.3618 155.007 42.2885C155.357 41.4959 158.426 33.8746 159.264 31.967C160.297 29.6539 162.508 23.9217 163.43 21.7008C161.624 21.3967 159.651 20.3092 156.804 18.973C155.624 18.42 154.435 18.162 153.283 18.162" fill="#FDB913"/>
<path d="M55.1371 13.3975C55.902 14.4481 56.243 15.8028 55.9296 17.139C55.3767 19.5074 53.0175 20.9082 50.7781 20.2539C50.2897 20.1065 49.8473 19.8668 49.4418 19.5627C50.004 20.3461 50.7873 20.9543 51.7365 21.2308C53.9667 21.8943 56.3351 20.4843 56.8881 18.1159C57.312 16.3096 56.5379 14.4665 55.1371 13.3975Z" fill="#FAA61A"/>
<path d="M65.4401 34.5842C64.6015 33.4968 64.2974 31.8011 64.2145 30.2713C64.0486 27.1933 65.4033 25.2672 67.8362 25.1382L67.9376 25.1382C68.4536 25.1197 68.9236 25.2488 69.3383 25.4331C68.8315 24.8525 67.8362 24.1613 66.629 24.1798L66.5276 24.1798C64.0947 24.318 62.74 26.2441 62.9058 29.3221C63.0164 31.4693 63.5694 33.9483 65.4309 34.5934" fill="#FAA61A"/>
<path d="M34.5217 10.5867C34.6507 11.8308 34.8351 13.8859 35.0194 15.8765C35.13 17.0192 35.4249 19.9314 35.4249 19.9314L36.5768 19.9867C36.5768 19.9867 36.3096 16.9916 36.3003 16.8534C36.116 14.872 35.9317 12.8169 35.8027 11.5636C35.5447 8.99242 34.6415 7.35204 33.2223 6.75303C33.9043 7.61008 34.3558 8.90027 34.5217 10.5867Z" fill="#FAA61A"/>
<path d="M94.7366 16.2267C94.7735 19.0467 93.1792 21.498 90.949 22.0694C90.82 22.097 90.7002 22.1247 90.5711 22.1431C90.5711 22.1431 90.5619 22.1523 90.5527 22.1523L90.4329 22.2168L90.4329 22.6039L90.4606 22.8251L91.4558 22.8251C91.7784 22.8251 92.1102 22.779 92.4235 22.7053C94.6537 22.1431 96.248 19.6825 96.2111 16.8626C96.1835 14.7153 95.1329 13.2961 93.5109 13.0934C94.2666 13.7477 94.7182 14.8351 94.7366 16.2267Z" fill="#FAA61A"/>
<path d="M81.6596 30.8519C81.9177 31.7182 83.7424 37.8834 84.6363 39.4961C85.8435 41.6434 87.0692 43.0718 87.9908 43.4312C87.3365 42.74 86.6269 41.7355 85.9173 40.473C85.0234 38.8695 83.1987 32.7042 82.9406 31.8287C83.512 30.9256 88.2396 23.5439 89.152 22.2814L89.198 22.2261L89.2165 21.7284L88.9861 21.7284C88.5253 21.71 88.0645 21.7008 87.6037 21.6916C86.2767 23.6361 82.1942 30.0225 81.6596 30.8611" fill="#FAA61A"/>
<path d="M77.4757 17.6735L77.402 29.5248L78.6922 29.9303L78.7567 18.6504C78.7659 17.0561 78.342 15.7383 77.5587 14.9273C77.2546 14.614 76.8952 14.3836 76.4897 14.2269C77.1255 15.0471 77.485 16.2359 77.4757 17.6643" fill="#FAA61A"/>
<path d="M70.0387 22.4104C70.0572 22.8896 70.0572 23.4333 70.0664 23.977C70.0664 24.5207 70.0664 25.0552 70.094 25.5252L70.094 25.7556L69.9466 25.7556C70.3521 26.0321 70.6654 26.3546 70.8405 26.6219L71.0525 26.7233L71.4026 26.7233L71.4026 26.4837C71.3842 26.0137 71.3842 25.4699 71.375 24.9354C71.375 24.3917 71.375 23.848 71.3474 23.3688C71.2644 21.1478 70.0848 19.2863 68.3799 18.4384C69.3568 19.4245 69.9834 20.8253 70.0387 22.4196" fill="#FAA61A"/>
<path d="M59.7541 44.0579L59.5882 44.0118C58.4916 43.7169 57.5239 41.2195 57.4594 39.3395C57.441 38.8326 57.3857 38.0861 57.3304 37.2014C57.1737 34.9252 56.9525 31.8103 57.0723 29.3129C57.1829 26.9537 56.7775 25.3041 55.8282 24.2903C55.5241 23.9586 55.1463 23.719 54.7224 23.5254C55.5426 24.5576 55.902 26.1243 55.8006 28.336C55.6808 30.8334 55.902 33.9483 56.0586 36.2246C56.1231 37.1093 56.1692 37.8465 56.1877 38.3626C56.2522 40.2426 57.2198 42.74 58.3165 43.0349L58.4823 43.081L58.4823 43.2561C58.5008 43.809 58.4086 46.6014 55.6255 47.4861C55.303 47.5874 54.9712 47.6427 54.6394 47.6427C54.1418 47.6427 53.6349 47.5137 53.1649 47.2925C53.1834 47.3202 53.2018 47.3478 53.2294 47.3755C53.939 48.1588 54.9435 48.6288 55.9296 48.6288C56.2614 48.6288 56.5931 48.5735 56.9157 48.4721C59.6988 47.5967 59.791 44.7951 59.7725 44.2422L59.7725 44.0671L59.7541 44.0579Z" fill="#FAA61A"/>
<path d="M94.5615 28.9074C94.156 28.8982 93.8519 29.018 93.6031 29.2668C93.0962 29.7736 92.8198 30.7966 92.8105 32.225C92.7737 35.7638 92.7368 39.3026 92.7092 42.8322L92.7092 43.0626L90.9674 43.0349C90.5896 43.0165 90.267 42.9428 89.9629 42.8322C90.4329 43.6155 91.1794 44.0302 92.2115 44.0671L93.9533 44.0947L93.9533 43.8643C93.9901 40.3255 94.0178 36.7867 94.0546 33.2572C94.0639 31.8287 94.3403 30.8058 94.8472 30.2989C95.096 30.0501 95.4001 29.9303 95.8056 29.9395C95.8517 29.9395 95.907 29.9395 95.9531 29.9487C95.6397 29.1101 95.1144 28.9258 94.5615 28.9074Z" fill="#FAA61A"/>
<path d="M102.846 43.8275C101.98 41.7079 102.1 36.7314 102.174 33.7548C102.266 30.1423 101.888 26.7048 99.197 25.1013C100.764 26.9168 101.003 29.7644 100.93 32.7226C100.856 35.6993 100.736 40.6757 101.611 42.7953L101.731 43.0902L101.418 43.1179C100.81 43.1639 99.2983 43.2377 98.6993 43.2192C98.3491 43.21 98.0542 43.1455 97.787 43.0626C98.1556 43.7998 98.8099 44.2053 99.9434 44.2514C100.542 44.2698 102.054 44.1869 102.662 44.15L102.975 44.1316L102.856 43.8367L102.846 43.8275Z" fill="#FAA61A"/>
<path d="M78.6645 34.4736L77.3744 33.3862C77.3744 33.3862 77.3836 37.0909 77.3928 39.1644C77.4112 41.8185 77.4204 44.4726 77.4112 46.2143L77.4112 46.4447L77.1808 46.4447C76.7846 46.4447 76.2777 46.4539 75.7708 46.4724C75.2732 46.4816 74.7848 46.5 74.4622 46.5C74.241 46.5 74.0475 46.4724 73.8632 46.4263C74.241 47.0622 74.8308 47.4861 75.7432 47.4861C76.0657 47.4861 76.5542 47.4769 77.0518 47.4584C77.5495 47.4492 78.0563 47.4308 78.4618 47.4308L78.6922 47.4308L78.6922 47.2004C78.7106 45.4586 78.6922 42.8045 78.6738 40.1504C78.6738 39.3855 78.6645 34.4736 78.6645 34.4736Z" fill="#FAA61A"/>
<path d="M88.1567 43.6063L88.1382 43.6985C87.7327 45.7075 86.59 46.6383 84.5165 46.6383C84.2953 46.6383 84.0557 46.629 83.8069 46.6014C83.429 46.5645 83.0604 46.4632 82.7194 46.2973C83.3645 47.0437 84.1939 47.5045 85.0879 47.5782C85.3367 47.5967 85.5671 47.6151 85.7975 47.6151C87.8618 47.6151 89.0137 46.6843 89.4192 44.6753L89.4561 44.4818L89.2717 44.4173C88.9308 44.2883 88.5529 44.0118 88.1474 43.6063" fill="#FAA61A"/>
<path d="M37.9499 30.5293C37.5905 26.7325 37.738 25.0092 39.5811 24.8064C39.6456 24.8064 39.7101 24.7972 39.7746 24.7972C39.8576 24.7972 39.9221 24.8249 40.005 24.8341C39.618 24.1798 39.1203 23.8111 38.4936 23.8111C38.4291 23.8111 38.3646 23.8111 38.3001 23.8204C36.457 24.0139 36.3095 25.7464 36.669 29.5433C37.1113 34.2248 38.8623 45.2928 38.8807 45.4033L38.9084 45.5969L38.724 45.6614C38.6411 45.689 36.669 46.3065 36.0884 46.371C35.9041 46.3894 35.729 46.3986 35.5631 46.3986C35.1392 46.3986 34.7705 46.3157 34.4203 46.1867C35.0194 46.9884 35.8119 47.3847 36.8441 47.3847C37.0099 47.3847 37.185 47.3755 37.3694 47.3571C37.9592 47.2925 39.9221 46.6751 40.005 46.6475L40.1893 46.5922L40.1525 46.3986C40.134 46.288 38.3831 35.2201 37.9407 30.5385" fill="#FAA61A"/>
<path d="M48.2806 30.9717C48.2069 29.6999 48.1332 28.5111 48.0503 27.5066C47.6816 22.5302 46.7877 18.8439 44.0967 17.3971C45.8109 19.2218 46.4652 22.438 46.7693 26.5205C46.843 27.525 46.9167 28.7138 46.9997 29.9856C47.3222 35.2477 47.7646 42.4636 48.9534 43.5971L49.0824 43.7261L48.9902 43.8828C48.6769 44.4173 47.2393 45.9286 44.8156 45.9286C44.6497 45.9286 44.4838 45.9286 44.3179 45.9102C43.8295 45.8733 43.424 45.7812 43.0738 45.6522C43.5162 46.3341 44.2718 46.7857 45.5989 46.8963C45.7648 46.9147 45.9307 46.9147 46.0965 46.9147C48.5202 46.9147 49.9579 45.3941 50.2712 44.8688L50.3634 44.7122L50.2251 44.5832C49.0363 43.4496 48.594 36.243 48.2714 30.9717" fill="#FAA61A"/>
<path d="M71.6699 34.1787L71.3566 34.1972L71.2921 34.2524C71.034 34.5013 70.7668 34.7132 70.4811 34.8975L70.518 35.8744C70.6378 39.1183 68.5919 41.7908 65.8733 41.9659C65.7627 41.9659 65.6613 41.9751 65.5507 41.9751C64.3527 42.0028 63.2653 41.7263 62.2976 41.1826C63.5509 42.3622 65.09 42.9704 66.8594 42.9336C66.9607 42.9336 67.0713 42.9336 67.1819 42.9244C69.9005 42.7493 71.9372 40.0767 71.8266 36.8328L71.7344 34.4091L71.6699 34.1787Z" fill="#FAA61A"/>
<path d="M133.765 28.4189C131.009 28.4189 128.779 26.1427 128.779 23.3411C128.779 20.5396 131.019 18.2633 133.765 18.2633C136.511 18.2633 138.76 20.5396 138.76 23.3411C138.76 26.1427 136.52 28.4189 133.765 28.4189Z" fill="#BCBEC0"/>
<path d="M137.479 22.438C137.479 24.9078 135.516 26.9168 133.092 26.9168C130.668 26.9168 128.696 24.9078 128.696 22.438C128.696 19.9682 130.659 17.9592 133.092 17.9592C135.525 17.9592 137.479 19.9682 137.479 22.438Z" fill="#FDB913"/>
<path d="M130.576 22.438C130.576 21.7284 130.862 21.0925 131.313 20.6225C131.765 20.1618 132.392 19.8761 133.092 19.8761C133.792 19.8761 134.41 20.1618 134.861 20.6225" stroke="white" stroke-width="1.92" stroke-linecap="round" stroke-linejoin="round"/>
<path d="M151.726 33.4507C148.971 33.4507 146.731 31.1744 146.731 28.3729C146.731 25.5713 148.971 23.2951 151.726 23.2951C154.481 23.2951 156.721 25.5713 156.721 28.3729C156.721 31.1744 154.481 33.4507 151.726 33.4507Z" fill="#BCBEC0"/>
<path d="M155.431 27.4605C155.431 29.9303 153.468 31.9393 151.044 31.9393C148.62 31.9393 146.648 29.9303 146.648 27.4605C146.648 24.9907 148.611 22.9817 151.044 22.9817C153.477 22.9817 155.431 24.9907 155.431 27.4605Z" fill="#FDB913"/>
<path d="M148.537 27.4605C148.537 26.7509 148.823 26.1151 149.275 25.6451C149.726 25.1843 150.353 24.8986 151.053 24.8986C151.754 24.8986 152.371 25.1843 152.823 25.6451" stroke="white" stroke-width="1.92" stroke-linecap="round" stroke-linejoin="round"/>
<path d="M162.435 54.5268C161.126 54.5268 159.817 54.2688 158.527 53.7619C152.767 51.4857 150.381 45.219 152.86 38.8603C153.044 38.3903 153.33 37.9663 153.689 37.6346C153.744 37.1185 153.919 36.6024 154.223 36.1417C156.822 32.1605 161.08 29.4788 164.821 29.4788C165.78 29.4788 166.701 29.6446 167.549 29.9856C172.295 31.8656 174.092 38.3903 173.364 43.5694C172.461 50.0204 167.964 54.5268 162.435 54.5268Z" fill="#540000"/>
<path d="M166.305 33.1374C163.54 32.0407 159.393 34.4183 157.062 37.994C157.09 37.9479 159.91 37.7267 159.827 37.736C159.928 37.736 161.237 41.0997 161.237 41.0997L164.6 39.4408L165.669 43.0995L168.185 42.5742C168.185 42.5742 166.185 44.15 165.162 44.9149C164.665 43.9012 164.232 42.9796 163.789 41.9383C162.628 42.7677 160.075 44.3343 160.075 44.3343L158.509 39.8279C158.509 39.8279 157.016 39.9201 156.021 40.1044C154.343 44.4081 155.569 48.9606 159.771 50.6194C164.692 52.5639 169.19 48.9329 170.001 43.1179C170.6 38.8603 169.07 34.2525 166.305 33.1558" fill="white"/>
<path d="M31.6557 40.0675C31.3516 40.3255 31.0198 40.5559 30.6788 40.7679C30.7249 42.0028 30.4853 43.6708 29.2688 45.219C27.8588 46.9976 25.1034 48.0666 22.2281 48.5274C18.2469 49.1541 14.9017 48.1772 12.2937 46.1129C15.0307 48.9513 18.846 50.4351 23.5091 49.6978C26.3843 49.237 29.1398 48.168 30.5498 46.3894C32.8629 43.4681 31.6465 40.0675 31.6465 40.0675" fill="#FAA61A"/>
</g>
<defs>
<clipPath id="clip0_186_143">
<rect width="176" height="56.7498" fill="white" transform="translate(176 57.0058) rotate(-180)"/>
</clipPath>
</defs>
</svg>
