<svg width="120" height="39" viewBox="0 0 120 39" fill="none" xmlns="http://www.w3.org/2000/svg">
<g clip-path="url(#clip0_941_66400)">
<path d="M110.75 38.6931C109.651 38.6931 108.551 38.4794 107.476 38.0584C102.714 36.186 100.64 30.8828 102.645 25.7242C102.783 25.3597 102.978 25.0267 103.21 24.7251C103.317 24.323 103.487 23.9271 103.725 23.5564C105.83 20.3267 109.217 18.2344 112.365 18.2344C113.232 18.2344 114.061 18.3915 114.834 18.6931C118.931 20.3016 120.471 25.4728 119.874 29.7581C119.145 35.0173 115.394 38.6931 110.75 38.6931Z" fill="#F58220"/>
<path d="M113.384 22.4191C111.492 21.6777 108.671 23.2988 107.088 25.7367C107.113 25.7053 109.029 25.5545 108.973 25.5608C109.042 25.5608 109.94 27.8542 109.94 27.8542L112.234 26.7169L112.969 29.2052L114.684 28.8407C114.684 28.8407 113.321 29.9152 112.623 30.4367C112.284 29.7455 111.989 29.1172 111.687 28.4072C110.902 28.9727 109.161 30.0471 109.161 30.0471L108.087 26.9746C108.087 26.9746 107.069 27.0374 106.39 27.1631C105.247 30.0974 106.095 33.2014 108.96 34.3261C112.315 35.6456 115.375 33.1637 115.928 29.1989C116.33 26.2959 115.287 23.1543 113.396 22.4128" fill="white"/>
<path d="M38.2783 37.5495C36.7326 37.5495 35.2183 37.0091 33.9993 36.0289C33.2579 36.2614 32.4473 36.3934 31.5928 36.3934C31.3603 36.3934 31.1215 36.3871 30.8827 36.362C30.1601 36.2991 29.4941 36.1672 28.8972 35.9598L28.7652 36.0038C26.9493 36.5693 26.4027 36.6321 26.1388 36.6636C25.8435 36.695 25.5544 36.7138 25.278 36.7138C23.4369 36.7138 19.0763 35.9724 18.3788 29.0795C17.7945 23.2862 16.6823 12.4851 15.8843 5.24037L15.8655 5.08957C15.5953 2.68303 17.3169 0.508985 19.7172 0.21995L21.0681 0.0565816C21.3446 0.0188809 21.6399 0.00631535 21.9352 0.00631538C24.7564 0.00631563 28.2249 1.84735 28.9097 7.006C31.8378 7.21335 34.1941 8.71508 35.6078 11.2975C35.6204 11.3164 35.6267 11.3353 35.6393 11.3541C35.7838 11.3478 35.9283 11.3478 36.0665 11.3478C36.8645 11.3478 37.5745 11.4484 38.2029 11.618C38.4291 11.2975 38.6678 11.0022 38.9255 10.7195C40.5968 8.86588 42.7395 7.86054 45.1272 7.81027L45.2968 7.81027C45.435 7.81027 45.5796 7.81027 45.7241 7.81656C45.7743 7.81656 45.8246 7.81656 45.8749 7.82284C46.5472 6.25828 48.0992 5.15241 49.9088 5.14612L51.4734 5.14612C53.2956 5.14612 54.9732 5.83729 56.1985 7.09397C56.764 7.67832 57.2227 8.3695 57.5682 9.14235C58.1275 6.94317 59.7674 5.24666 62.0169 4.67487C62.5447 4.54292 63.0913 4.4738 63.6443 4.4738C67.3892 4.48009 70.1287 7.41442 70.1727 11.4358C70.179 12.0704 70.1224 12.6862 70.0156 13.2831C71.3666 14.0748 72.4347 15.2247 73.151 16.6887C74.2004 18.8376 74.282 21.2504 74.2381 23.1166C74.2129 24.1533 74.1375 27.2888 74.3951 28.2564L74.4517 28.3883C74.9921 29.7016 74.8664 31.1845 74.125 32.3909C73.3772 33.5973 72.1017 34.3701 70.6879 34.4707L70.4743 34.4832C70.1099 34.5084 69.1171 34.5649 68.4636 34.5649C68.3505 34.5649 68.25 34.5649 68.162 34.5649C67.2886 34.5335 66.5409 34.3764 65.9063 34.1251C65.3785 34.345 64.8067 34.4581 64.2223 34.4581C64.1972 34.4581 64.0338 34.4581 64.0338 34.4581C62.796 35.985 60.9173 36.8583 58.6741 36.8583C58.3977 36.8583 58.1086 36.8458 57.807 36.8206C57.0907 36.7578 56.3995 36.5756 55.7461 36.2928C55.168 36.5756 54.5145 36.7327 53.8296 36.7327C53.8234 36.7327 53.66 36.7327 53.66 36.7327C53.4526 36.7327 53.1699 36.739 52.8934 36.7452L52.8243 36.7452C52.4473 36.7578 52.0703 36.7641 51.819 36.7641C51.0649 36.7641 48.1306 36.563 46.6038 33.6224C46.4906 33.635 46.3775 33.6475 46.2644 33.6538C46.1074 33.6601 45.9754 33.6664 45.8435 33.6727L45.6675 33.6727C45.2968 33.6727 44.9261 33.6538 44.5554 33.6035C43.8014 35.1618 42.4567 36.5567 40.2952 37.2353C39.6418 37.4427 38.9694 37.5432 38.2971 37.5432" fill="#F58220"/>
<path d="M36.2048 18.9884C35.5199 18.9884 34.8413 18.8878 34.1878 18.693C30.4366 17.5809 28.1558 13.6663 28.9915 9.7832C29.714 6.42788 32.5855 4.07789 35.966 4.07789C36.6572 4.07789 37.3483 4.17843 38.0144 4.3795C41.8535 5.51679 44.1595 9.45647 43.2484 13.3459C42.4693 16.6698 39.5727 18.9884 36.2048 18.9884Z" fill="#F58220"/>
<path d="M14.6025 38.4103C7.30122 38.4103 1.79699 32.7175 0.904752 24.2413C-0.314222 12.5856 5.7241 8.69619 9.4313 7.41438C10.9896 6.87401 12.3782 6.61639 13.6726 6.61639C16.4121 6.61639 18.0772 7.7851 18.9946 8.76531C20.6597 10.5435 20.5654 13.3396 18.7872 15.0047C17.9327 15.8027 16.852 16.1985 15.7712 16.1985C15.6141 16.1985 15.4633 16.1923 15.3063 16.1734C15.1303 16.2488 14.9984 16.3933 14.9041 16.607C14.6277 17.2542 14.502 17.9265 14.4831 18.0773C14.3386 19.7298 14.8978 22.4065 16.0603 23.7826C16.5189 24.3292 16.8143 24.3544 16.9211 24.3607C17.0216 24.3669 17.1284 24.3732 17.229 24.3732C18.0647 24.3732 18.6679 24.1219 18.8501 23.9648C19.6606 23.2673 20.6848 22.8903 21.7342 22.8903C22.1112 22.8903 22.4882 22.9406 22.8652 23.0349C24.2726 23.4056 25.4036 24.4486 25.8937 25.8247C26.654 27.9547 26.7294 31.4672 24.4486 34.3512C22.4442 36.8771 19.2271 37.8511 16.8771 38.2218C16.1105 38.3412 15.344 38.404 14.5962 38.404L14.6025 38.4103Z" fill="#F58220"/>
<path d="M14.3322 20.1696C11.8817 20.1696 9.76422 18.5862 9.0542 16.2362C8.17453 13.3396 9.80821 10.2482 12.6923 9.34965C13.2201 9.18628 13.773 9.09831 14.326 9.09831C16.7765 9.09831 18.894 10.6817 19.604 13.0317C20.4774 15.9283 18.8437 19.0198 15.9659 19.9183C15.4318 20.0817 14.8789 20.1696 14.326 20.1696" fill="#F58220"/>
<path d="M7.31385 18.8753C5.27803 18.8753 3.31761 17.9705 1.94155 16.3996C0.395844 14.6403 -0.289041 12.3405 0.119378 10.2482C0.351863 9.04805 0.904801 7.9736 1.75934 7.0625C1.92899 6.88657 2.09864 6.71692 2.28714 6.56612C2.42538 5.64246 2.77096 4.61199 3.51868 3.66948C4.6057 2.29342 6.27709 1.50171 8.09927 1.50171C8.41972 1.50171 8.72132 1.52685 9.01664 1.56455C9.15487 1.4703 9.29939 1.37605 9.45019 1.28808C10.2796 0.816826 11.2221 0.565491 12.1772 0.565491C13.5344 0.565491 14.8539 1.04303 16.1043 1.98554C16.5441 2.31856 16.9211 2.68299 17.2416 3.06628C18.2783 3.37416 19.2208 3.99622 19.9749 4.88217C21.2127 6.33992 21.8599 8.45113 21.6714 10.399C21.376 13.4653 19.1266 15.9598 16.3242 16.3305C16.0792 16.3619 15.8341 16.3808 15.5891 16.3808C14.4518 16.3808 13.6035 16.0163 13.1448 15.7901C12.9689 15.8278 12.7427 15.9095 12.6296 15.9912C12.5793 16.054 12.5479 16.1106 12.5102 16.1546C12.0892 16.7452 11.2095 17.9705 9.31196 18.5737C8.67105 18.7747 7.99873 18.8815 7.31385 18.8815" fill="#F58220"/>
<path d="M19.2835 27.7034C16.5691 27.7034 13.9552 25.8498 12.9373 23.192C12.0828 20.9802 12.6923 19.158 13.0504 18.071C13.2263 17.5432 13.3206 17.2542 13.3394 16.8772C13.3709 16.274 13.2012 15.5765 12.8305 14.8099C12.2336 13.5784 12.2524 12.1332 12.8619 10.9143C13.4777 9.68899 14.6275 8.82189 15.9722 8.56427C16.6319 8.4386 17.3105 8.36948 17.9891 8.36948C18.7243 8.36948 19.4595 8.44488 20.1883 8.59568C21.7152 8.90985 23.1667 9.54448 24.4987 10.4744C25.6737 11.2975 26.3712 12.6359 26.3837 14.0685C26.39 15.4194 25.7805 16.6887 24.7375 17.5307C24.838 17.8134 24.9197 18.1024 24.9888 18.3978C26.0947 23.0977 23.8955 26.3085 21.3885 27.3013C20.7287 27.5652 20.0187 27.6972 19.2961 27.6972" fill="#F58220"/>
<path d="M19.2835 27.7034C16.5691 27.7034 13.9552 25.8498 12.9373 23.192C12.0828 20.9802 12.6923 19.158 13.0504 18.071C13.2263 17.5432 13.3206 17.2542 13.3394 16.8772C13.3709 16.274 13.2012 15.5765 12.8305 14.8099C12.2336 13.5784 12.2524 12.1332 12.8619 10.9143C13.4777 9.68899 14.6275 8.82189 15.9722 8.56427C16.6319 8.4386 17.3105 8.36948 17.9891 8.36948C18.7243 8.36948 19.4595 8.44488 20.1883 8.59568C21.7152 8.90985 23.1667 9.54448 24.4987 10.4744C25.6737 11.2975 26.3712 12.6359 26.3837 14.0685C26.39 15.4194 25.7805 16.6887 24.7375 17.5307C24.838 17.8134 24.9197 18.1024 24.9888 18.3978C26.0947 23.0977 23.8955 26.3085 21.3885 27.3013C20.7287 27.5652 20.0187 27.6972 19.2961 27.6972" fill="#F58220"/>
<path d="M79.8302 37.0405C79.4847 37.0405 79.0008 37.028 78.4982 37.0091L78.4102 37.0091C77.9892 36.9903 77.5682 36.9777 77.2729 36.9777L76.965 36.9777C68.162 36.9777 67.7473 30.2985 67.3892 24.4047L67.1315 19.956C66.9933 17.5935 66.9493 16.0289 67.075 14.012C67.364 9.21773 69.7203 6.42163 74.2883 5.47912C74.3951 5.45399 74.5082 5.43514 74.6213 5.42257C77.43 5.06442 79.2836 4.8068 81.5456 4.49892L83.7385 4.2036C83.9396 4.17846 84.1344 4.1659 84.3354 4.1659C85.3848 4.1659 86.4089 4.5429 87.2132 5.23407C88.1683 6.05719 88.7275 7.25104 88.7526 8.514L88.7526 9.06693C88.7715 9.55075 88.7841 10.1665 88.7966 10.6943C88.7966 10.8263 88.7966 10.9645 88.7966 11.1027C88.7275 12.3406 88.6081 14.3324 87.496 16.0603C87.7096 16.563 87.829 17.1097 87.8416 17.6689L87.8981 20.132C87.9232 21.0682 87.8101 21.9541 87.5714 22.7647C88.2437 23.5313 88.6333 24.5178 88.6584 25.5608L88.6772 26.2331C88.6835 26.5976 88.7024 26.918 88.7212 27.2322C88.7464 27.6343 88.7652 28.0365 88.7778 28.4951C88.8343 30.9645 88.1243 32.9878 86.6603 34.5146C85.1146 36.1295 82.9028 36.984 80.0816 37.0405C80.0816 37.0405 79.8554 37.0405 79.8365 37.0405" fill="#F58220"/>
<path d="M79.8301 36.3494C79.472 36.3494 78.9505 36.3305 78.4227 36.3117C78.0017 36.2991 77.5681 36.2803 77.2728 36.2803L76.9649 36.2803C68.8091 36.2803 68.4384 30.2231 68.0802 24.3607L67.8226 19.9183C67.6907 17.5872 67.6467 16.0415 67.7661 14.0559C68.1179 8.137 71.7372 6.71067 74.4327 6.15773C74.5458 6.1326 74.6526 6.11375 74.7657 6.10118C77.5241 5.74931 79.3777 5.49798 81.646 5.19009L83.0661 4.99531C83.2672 4.97017 83.4619 4.95132 83.663 4.95132C84.7123 4.95132 85.7302 5.32833 86.5408 6.01322C87.4959 6.83634 88.0551 8.03018 88.0802 9.28686C88.0865 9.73298 88.0991 10.2545 88.1179 10.7069C88.1179 10.8451 88.1179 10.9834 88.1179 11.1216C88.0362 12.4788 87.9169 14.5649 86.5408 16.2174C86.9366 16.8709 87.1566 17.6249 87.1754 18.3978L87.2194 20.1383C87.2508 21.3509 87.0435 22.4568 86.6288 23.4119C87.4645 24.2036 87.9671 25.2969 88.0048 26.4593C88.0111 26.717 88.03 26.9557 88.0425 27.1882L88.0425 27.2636C88.0677 27.6909 88.0928 28.0679 88.1054 28.5014C88.1619 30.7823 87.5147 32.6359 86.1826 34.0245C84.7626 35.5074 82.7142 36.2865 80.0878 36.3368C80.0878 36.3368 79.8678 36.3368 79.8553 36.3368" fill="#F58220"/>
<path d="M79.8303 36.5504C79.4721 36.5504 78.9506 36.5316 78.4228 36.5127C78.0018 36.5002 77.5746 36.4813 77.273 36.4813L76.9274 36.4813C68.6207 36.4813 68.2437 30.3299 67.8793 24.3795C67.8793 24.3795 67.6971 21.2441 67.6154 19.9246C67.4835 17.5872 67.4395 16.0415 67.5589 14.0434C67.9233 7.98618 71.6242 6.52843 74.3826 5.96293C74.4957 5.9378 74.6025 5.91895 74.7156 5.90638C77.4866 5.55451 79.3402 5.29689 81.6085 4.98901L83.2547 4.76281C83.4558 4.73767 83.6506 4.7251 83.8454 4.7251C84.8947 4.7251 85.9189 5.10211 86.7232 5.79328C87.6782 6.6164 88.2375 7.81025 88.2626 9.07321C88.2689 9.55703 88.2814 10.1791 88.3003 10.7006C88.3003 10.8388 88.3003 10.9771 88.3003 11.1153C88.2249 12.372 88.1055 14.4518 86.8048 16.1546C87.1442 16.7703 87.3389 17.4615 87.3515 18.1841L87.3955 20.132C87.4269 21.2755 87.251 22.3186 86.8991 23.2422C87.6845 24.0339 88.1495 25.1084 88.1809 26.2457C88.1935 26.6164 88.206 26.9431 88.2249 27.2699C88.25 27.6657 88.2689 28.0616 88.2814 28.514C88.338 30.8451 87.672 32.749 86.3022 34.1816C84.8507 35.7022 82.7521 36.5002 80.0691 36.5567C80.0188 36.5567 79.9308 36.5567 79.8366 36.5567" fill="#F58220"/>
<path d="M90.2418 36.6887C89.7957 36.6887 89.337 36.6573 88.8909 36.6007C83.4244 35.9221 80.2073 31.9259 80.7037 26.4279L80.9864 23.3114C81.0053 23.104 81.043 22.8967 81.0869 22.6956C80.3329 20.6095 80.0627 18.1338 80.3141 15.432C80.9738 8.26894 85.9377 3.07259 92.1143 3.07259C92.5918 3.07259 93.0882 3.104 93.5783 3.16684C94.9481 3.34277 96.1168 3.65694 97.0593 3.90828C97.43 4.00881 97.9201 4.14076 98.184 4.19103L98.5485 4.14076C98.737 4.11563 98.9317 4.10306 99.1202 4.10306C100.289 4.10306 101.42 4.56803 102.249 5.40372C103.217 6.37765 103.676 7.75371 103.493 9.11092L103.406 9.74554C103.324 10.3362 103.179 11.3227 103.022 12.4097L102.978 12.7301C102.739 14.3764 102.463 16.2363 102.337 17.2416C102.149 18.7622 101.954 20.2953 101.772 21.8222C101.74 22.0861 101.703 22.4694 101.659 22.9532L101.602 23.5376C101.558 24.0968 101.483 24.7251 101.401 25.3849L101.389 25.4666C100.578 32.083 95.9911 36.6824 90.2355 36.6824" fill="#F58220"/>
<path d="M90.2418 35.9975C89.8271 35.9975 89.3998 35.9724 88.9788 35.9158C83.9207 35.2875 80.9361 31.5866 81.3885 26.4908L81.5205 25.0581C81.577 24.4298 81.7655 23.8329 82.0671 23.3051C81.0869 21.1687 80.7225 18.5234 81.0052 15.4948C81.6336 8.69622 86.3084 3.76377 92.1205 3.76377C92.5792 3.76377 93.0442 3.79519 93.5029 3.85174C94.8098 4.02139 95.9471 4.32927 96.8708 4.56804C97.3671 4.69999 98.0269 4.87593 98.2531 4.89478C98.3034 4.89478 98.3474 4.89478 98.3976 4.89478C99.648 4.89478 100.804 5.42887 101.646 6.35881C102.513 7.32645 102.878 8.63339 102.695 9.92148C102.607 10.5498 102.469 11.4735 102.325 12.4788C102.086 14.0999 101.791 16.1106 101.659 17.1599C101.47 18.6805 101.275 20.2137 101.093 21.7468C101.062 22.0296 101.024 22.4254 100.974 22.9281L100.917 23.5124C100.88 24.0214 100.804 24.6497 100.722 25.3095L100.71 25.3912C99.9433 31.6494 95.6392 35.9975 90.2418 35.9975Z" fill="#F58220"/>
<path d="M90.2418 36.1986C89.8145 36.1986 89.381 36.1734 88.9537 36.1169C83.7699 35.4697 80.7225 31.6871 81.1874 26.4719L81.3634 24.5806C81.4136 24.0528 81.5456 23.5438 81.7592 23.0726C80.8733 20.9488 80.534 18.3475 80.7979 15.4697C81.4451 8.45744 86.101 3.55641 92.1142 3.55641C92.5792 3.55641 93.0505 3.58782 93.5217 3.64437C94.8538 3.82031 96.0099 4.12819 96.9336 4.37324C97.3546 4.48635 97.9264 4.63714 98.1903 4.68113C98.3096 4.67485 98.429 4.66856 98.5484 4.66856C99.7171 4.66856 100.842 5.13353 101.678 5.96922C102.645 6.94314 103.11 8.31921 102.922 9.6827C102.834 10.3048 102.683 11.3478 102.513 12.4914C102.262 14.2004 101.979 16.142 101.841 17.1788C101.652 18.7056 101.464 20.2325 101.275 21.7656C101.238 22.0547 101.2 22.4631 101.156 22.9783L101.106 23.4936C101.062 24.0591 100.986 24.6811 100.911 25.3283L100.898 25.4163C100.119 31.7625 95.7335 36.186 90.2355 36.186M92.1142 12.793C91.1089 12.793 90.1727 14.345 89.9905 16.3305C89.9213 17.072 89.9339 17.6877 89.9779 18.1841C90.6816 17.7317 91.5047 17.4804 92.3656 17.4804C92.4158 17.4804 92.4598 17.4804 92.5101 17.4804C92.5729 16.9966 92.6295 16.519 92.6923 16.0352C92.7866 15.2749 92.9499 14.1376 93.1259 12.9438C92.862 12.8872 92.5981 12.837 92.3404 12.8055C92.265 12.7993 92.1896 12.793 92.1142 12.793Z" fill="#F58220"/>
<path d="M99.9182 37.7631C98.5233 37.7631 97.1598 37.4552 95.8654 36.852C91.6116 34.8791 89.7705 30.6441 91.178 26.0698C91.555 24.8508 92.1456 23.7575 92.2587 23.5501C92.4661 23.1794 92.7174 22.8401 93.0065 22.5385C92.7866 20.4776 93.1384 18.2344 94.0621 15.9724C96.079 11.0211 100.138 7.94849 104.662 7.94849C106.126 7.94849 107.565 8.27523 108.935 8.91613C109.324 9.09835 109.689 9.27429 110.034 9.43765C110.927 9.86492 111.932 10.355 112.309 10.4179C113.635 10.6378 114.791 11.4546 115.438 12.6296C116.092 13.8046 116.173 15.2121 115.658 16.4562C115.438 16.984 115.111 17.8134 114.747 18.7308C114.05 20.4838 113.258 22.4757 112.774 23.569C112.441 24.3167 111.442 26.7609 110.782 28.382C110.33 29.4816 109.972 30.3739 109.877 30.5812C107.948 35.011 104.128 37.7631 99.9182 37.7631Z" fill="#F58220"/>
<path d="M99.9181 38.2532C98.4541 38.2532 97.0215 37.9328 95.658 37.2982C91.1654 35.2121 89.2238 30.7509 90.713 25.9253C91.1402 24.5366 91.8314 23.3177 91.8566 23.2674L92.4032 22.2872C92.4283 22.2369 92.4598 22.1929 92.4849 22.1427C92.3467 20.1257 92.7237 17.9642 93.6159 15.7902C95.7083 10.6504 99.9433 7.4584 104.675 7.4584C106.214 7.4584 107.716 7.79771 109.161 8.47631C109.551 8.65853 109.915 8.83447 110.254 8.99783C111.071 9.3874 112.07 9.87122 112.416 9.94034L113.019 10.0409C114.345 10.2608 115.495 11.0776 116.148 12.2526C116.802 13.4276 116.883 14.8351 116.368 16.0792L116.136 16.6447C115.916 17.1725 115.589 17.9956 115.224 18.913C114.477 20.7917 113.729 22.6768 113.239 23.7701C112.912 24.5115 111.913 26.9494 111.253 28.5643C110.801 29.6764 110.437 30.5687 110.342 30.776C108.319 35.388 104.323 38.2532 99.9181 38.2532Z" fill="#F58220"/>
<path d="M99.9181 37.5621C98.5546 37.5621 97.2163 37.2605 95.9533 36.6698C91.7937 34.7408 89.9967 30.6001 91.3727 26.1263C91.5487 25.5483 91.8 24.9262 92.1142 24.2727C92.3906 23.7009 92.7802 23.2108 93.2452 22.815C92.9624 20.7101 93.2955 18.3915 94.2505 16.0478C96.2361 11.1719 100.226 8.1433 104.668 8.1433C106.101 8.1433 107.508 8.46375 108.859 9.09209C109.249 9.2743 109.613 9.45024 109.959 9.61361C110.87 10.0534 111.806 10.5058 112.259 10.6001C113.534 10.8766 114.615 11.706 115.224 12.8558C115.828 14.012 115.897 15.3692 115.407 16.5756C115.199 17.0783 114.923 17.7694 114.621 18.5297L114.577 18.6428C113.88 20.3896 113.094 22.3752 112.611 23.4685C112.284 24.2099 111.304 26.6102 110.656 28.1936L110.556 28.4323C110.135 29.4628 109.802 30.2859 109.714 30.487C107.797 34.8602 104.046 37.5621 99.9181 37.5621Z" fill="#F58220"/>
<path d="M99.9246 37.7631C98.5297 37.7631 97.1662 37.4552 95.8718 36.852C91.618 34.8791 89.7769 30.6441 91.1844 26.0698C91.5614 24.8508 92.1458 23.7575 92.2652 23.5501C92.4725 23.1794 92.7238 22.8338 93.0192 22.5385C92.7992 20.4776 93.1511 18.2344 94.0748 15.9724C96.0917 11.0211 100.151 7.94849 104.675 7.94849C106.139 7.94849 107.578 8.27523 108.954 8.91613C109.343 9.09835 109.708 9.27429 110.047 9.43765C110.939 9.86492 111.945 10.355 112.322 10.4179C113.648 10.6378 114.797 11.4546 115.451 12.6296C116.104 13.8046 116.186 15.2121 115.671 16.4562C115.451 16.984 115.124 17.8134 114.76 18.7371C114.062 20.4901 113.277 22.4757 112.787 23.569C112.454 24.3167 111.461 26.7547 110.801 28.3632C110.349 29.4754 109.984 30.3676 109.89 30.5812C107.948 35.011 104.128 37.7631 99.9246 37.7631ZM102.897 20.5278C103.261 20.5278 103.626 20.5718 103.99 20.6661C104.134 20.3205 104.26 20.0314 104.354 19.8178C104.593 19.2774 104.958 18.3852 105.347 17.4238C105.24 17.3736 105.134 17.3233 105.02 17.273C104.895 17.2102 104.775 17.1788 104.675 17.1788C104.21 17.1788 103.255 17.8888 102.62 19.4596C102.444 19.8869 102.337 20.2639 102.268 20.5781C102.476 20.5467 102.689 20.5341 102.903 20.5341" fill="#F58220"/>
<path d="M36.2048 18.9884C35.5199 18.9884 34.8413 18.8878 34.1878 18.693C32.6358 18.2344 31.2974 17.273 30.311 15.9221C29.0291 14.1564 29.2302 11.7185 30.7759 10.1853C31.4922 9.47532 32.4033 9.06062 33.3458 8.94123C33.3898 7.84792 33.8422 6.77346 34.6716 5.96291C35.5262 5.1335 36.6383 4.70623 37.7568 4.70623C38.6993 4.70623 39.6418 5.00783 40.4335 5.61104C42.8149 7.43322 43.9208 10.4618 43.2484 13.3396C42.4693 16.6635 39.5727 18.9821 36.2048 18.9821L36.2048 18.9884Z" fill="#F58220"/>
<path d="M46.5473 20.1445C46.5473 20.2011 46.5473 20.2576 46.5473 20.3205C46.5661 20.7038 46.6101 20.9928 46.6478 21.2064C46.6604 21.1939 46.6918 21.1625 46.6918 21.1625C46.8049 21.0494 46.9305 20.9488 47.0625 20.8546C47.0625 20.7289 47.0625 20.5969 47.0625 20.4713C46.8803 20.3833 46.7043 20.2702 46.5473 20.1445Z" fill="#540000"/>
<path d="M14.2946 22.4442C13.6537 20.7791 14.1249 19.3654 14.4328 18.4291C14.4391 18.404 14.4517 18.3789 14.458 18.3537C14.3574 18.36 14.2632 18.3789 14.1626 18.3789C13.6411 18.3789 13.151 18.2658 12.6923 18.0773C12.6044 20.1005 13.2264 22.9783 14.6527 24.6748C15.2559 25.3911 15.9031 25.7681 16.6257 25.831C16.7702 25.8435 16.921 25.8498 17.0718 25.8498C17.4049 25.8498 17.7253 25.8184 18.0332 25.7618C16.4058 25.3534 14.9229 24.0967 14.2883 22.4505" fill="#540000"/>
<path d="M68.5956 19.6984C68.47 17.4804 68.426 16.0478 68.5265 14.2445C68.3317 14.1565 68.1307 14.0685 67.9233 13.9931C68.2249 13.1637 68.382 12.2463 68.3757 11.2913C68.338 8.19985 66.2896 5.9504 63.481 5.94412C63.06 5.94412 62.6515 5.99438 62.2557 6.09492C60.157 6.62272 58.781 8.5203 58.8375 10.8075C58.8438 11.1468 58.8941 11.4861 58.9821 11.8128C58.7244 11.8065 58.0647 11.7939 58.0647 11.7939C57.4552 11.7939 56.9274 11.8693 56.4624 12.0013C56.3682 10.4116 55.8089 9.02925 54.8727 8.0679C53.9428 7.11282 52.7175 6.60387 51.3226 6.60387L49.7643 6.60387C48.2312 6.61644 46.9934 7.86683 46.9996 9.39997L46.9996 9.54449C46.5158 9.39369 46.0069 9.29944 45.4854 9.27431C45.366 9.27431 45.2529 9.26802 45.1398 9.26802L45.0015 9.26802C43.7449 9.29315 42.5761 9.65759 41.5331 10.3236C41.6965 11.1342 41.6965 11.9824 41.5017 12.8118C41.0116 14.9105 39.4407 16.4876 37.4677 17.0091C37.0153 17.1285 36.5378 17.1914 36.0477 17.1914C35.5199 17.1914 34.9984 17.116 34.4894 16.9652C33.283 16.607 32.24 15.8593 31.4671 14.7974C30.6566 13.6852 30.7822 12.1521 31.7624 11.1845C32.2965 10.6504 33.0065 10.3802 33.7166 10.3802C34.3009 10.3802 34.879 10.5624 35.3754 10.9331C35.3754 10.9331 35.388 10.9394 35.3942 10.9457C35.4068 10.9331 35.4194 10.908 35.4256 10.8766C35.4508 10.7823 35.4005 10.6692 35.344 10.5938C34.5334 9.47537 34.6654 7.93595 35.6519 6.97459C36.1859 6.45307 36.8897 6.18288 37.5934 6.18288C38.1526 6.18288 38.7056 6.35253 39.1831 6.69184C38.649 6.29598 38.0458 5.98182 37.3861 5.78703C36.8708 5.63623 36.3367 5.55454 35.8027 5.55454C33.5595 5.55454 31.6179 6.89919 30.7571 8.92872C29.9842 8.62712 29.092 8.4449 28.0427 8.4449C27.8982 8.4449 27.7536 8.4449 27.5966 8.45747C27.496 8.45747 27.3829 8.47003 27.2698 8.4826C27.2321 8.08675 27.2007 7.72859 27.1693 7.43956C26.7357 3.04119 24.0967 1.47034 21.7719 1.47034C21.5519 1.47034 21.3257 1.48291 21.1058 1.51433L19.7549 1.6777C18.2406 1.85991 17.1599 3.22969 17.3295 4.74399L17.3295 4.7754C17.7882 5.02045 18.2029 5.34719 18.5673 5.77446C19.5287 6.90547 20.0314 8.55172 19.8806 10.0723L19.8806 10.0849C21.1247 10.3676 22.306 10.8891 23.3993 11.6557C24.1407 12.1709 24.5805 13.0129 24.5868 13.9177C24.5931 14.8225 24.1596 15.6708 23.4244 16.1923C23.1354 16.3997 22.8526 16.6259 22.5761 16.8646C22.8463 17.3736 23.0788 17.9579 23.2359 18.6114C23.8768 21.3258 23.1856 24.6058 20.622 25.6237C20.1508 25.8122 19.6481 25.9064 19.1266 25.9064C18.7621 25.9064 18.404 25.8436 18.0458 25.7556C17.7379 25.8059 17.4112 25.8436 17.0782 25.8436C16.9274 25.8436 16.7766 25.8373 16.6321 25.8247C15.9095 25.7619 15.2623 25.3849 14.6591 24.6686C13.2328 22.9721 12.6044 20.0943 12.6987 18.071C11.6745 17.65 10.8576 16.8018 10.4932 15.6959C10.1036 16.1169 9.52556 16.5756 8.65845 16.8458C8.17463 16.9966 7.67196 17.072 7.15672 17.072C5.64871 17.072 4.20353 16.4248 3.14792 15.2938C2.34993 17.4615 1.99178 20.2702 2.37507 23.9083C3.17306 31.5049 8.02382 36.6133 14.4454 36.6133C15.1052 36.6133 15.7901 36.5567 16.475 36.4499C18.2406 36.1672 20.5466 35.5137 22.2305 34.0057C22.9594 34.5649 23.9019 34.9168 25.1209 34.9168C25.3345 34.9168 25.5607 34.9042 25.7932 34.8791C25.9755 34.8602 26.453 34.8037 28.1181 34.2822L28.2437 34.2382C28.4197 34.1816 28.5893 34.1062 28.7527 34.0245C29.3182 34.3073 30.0157 34.5021 30.8639 34.5712C31.0587 34.59 31.2535 34.5963 31.4357 34.5963C32.5164 34.5963 33.4464 34.345 34.213 33.9806C35.2309 35.1053 36.6509 35.7525 38.1149 35.7525C38.6239 35.7525 39.1266 35.6771 39.623 35.52C41.8033 34.8351 42.9154 33.1826 43.3301 31.5489C44.0465 31.7751 44.7753 31.8819 45.4854 31.8819L45.6299 31.8819C45.743 31.8819 45.8498 31.8756 45.9755 31.8631C46.4781 31.8316 46.9682 31.7311 47.4332 31.5803C48.2689 34.59 50.5435 34.9733 51.6368 34.9733C51.8755 34.9733 52.24 34.967 52.5981 34.9545L52.6672 34.9545C52.9626 34.9482 53.2516 34.9356 53.4778 34.9356C53.4778 34.9356 53.6412 34.9356 53.6475 34.9356C54.3512 34.9356 54.9921 34.678 55.4759 34.2445C56.1608 34.6843 56.94 34.9545 57.7694 35.0299C58.0207 35.055 58.2657 35.0613 58.4919 35.0613C60.5152 35.0613 62.1049 34.1879 63.0097 32.6485C63.0097 32.6485 64.0276 32.6673 64.0402 32.6673C64.6371 32.6673 65.2089 32.4788 65.6864 32.127C66.4216 32.5731 67.2573 32.7364 68.0364 32.7679C68.1055 32.7679 68.1935 32.7679 68.2815 32.7679C68.8344 32.7679 69.7392 32.7176 70.179 32.6862L70.3927 32.6736C70.4932 32.6673 70.5937 32.6548 70.688 32.6359C69.2428 30.5813 69.0543 27.4835 68.847 24.1345L68.5893 19.6922L68.5956 19.6984ZM46.698 21.1625C46.698 21.1625 46.6666 21.1939 46.6541 21.2064C46.6101 20.9928 46.5724 20.7038 46.5535 20.3205C46.5535 20.2577 46.5535 20.2011 46.5535 20.1446C46.7106 20.2702 46.8865 20.3833 47.0688 20.4713C47.0688 20.597 47.0688 20.7289 47.0688 20.8546C46.9368 20.9425 46.8174 21.0431 46.698 21.1625Z" fill="#540000"/>
<path d="M41.4074 9.91534C41.42 9.96556 41.4388 10.0221 41.4514 10.0723C41.4388 10.0158 41.42 9.96556 41.4074 9.91534Z" fill="#540000"/>
<path d="M41.0616 8.97862C41.0616 8.97862 41.0806 9.01653 41.0869 9.03548C41.0806 9.01653 41.0743 8.99757 41.0616 8.97862Z" fill="#540000"/>
<path d="M40.088 7.52137C40.1508 7.59042 40.2074 7.65948 40.2639 7.72853C40.2074 7.65948 40.1445 7.58414 40.088 7.52137Z" fill="#540000"/>
<path d="M14.4642 18.3475C14.6338 17.8385 14.7784 17.3799 14.8098 16.7955C14.8475 16.0541 14.6778 15.2498 14.3385 14.4015C13.9992 14.2947 13.7353 14.1628 13.5594 14.0748C13.5154 14.0559 13.4714 14.0245 13.4086 13.9994C13.3834 13.9931 13.2955 13.9617 13.1133 13.9617C12.5289 13.9617 11.7749 14.2633 11.4419 14.5398C11.2534 14.6969 11.178 14.81 11.0209 15.0236C10.8952 15.1995 10.7256 15.432 10.4931 15.6771C10.8575 16.7892 11.6744 17.6312 12.6986 18.0585C13.1572 18.247 13.6474 18.3601 14.1689 18.3601C14.2694 18.3601 14.3636 18.3475 14.4642 18.3349" fill="#540000"/>
<path d="M7.15047 17.072C7.6657 17.072 8.17466 16.9966 8.65848 16.8458C9.52559 16.5693 10.0974 16.1169 10.4932 15.6959C10.7194 15.4508 10.8891 15.2184 11.0148 15.0424C11.1718 14.8225 11.2472 14.7157 11.4357 14.5586C11.7688 14.2821 12.5228 13.9805 13.1071 13.9805C13.2893 13.9805 13.3773 14.012 13.4024 14.0182C13.4653 14.0434 13.5092 14.0685 13.5532 14.0936C13.7292 14.1879 13.9994 14.3136 14.3324 14.4204C14.678 15.2623 14.8413 16.0666 14.8036 16.8143C14.7722 17.3987 14.6277 17.8511 14.458 18.3663C14.4518 18.3915 14.4392 18.4166 14.4329 18.4417C14.125 19.378 13.6538 20.7917 14.2947 22.4568C14.9293 24.1031 16.4122 25.366 18.0396 25.7682C18.3977 25.8561 18.7559 25.919 19.1203 25.919C19.6418 25.919 20.1445 25.8247 20.6158 25.6362C23.1794 24.6246 23.8705 21.3447 23.2296 18.624C23.0726 17.9642 22.8401 17.3861 22.5699 16.8772C22.8464 16.6384 23.1291 16.4122 23.4181 16.2049C24.1533 15.677 24.5806 14.8288 24.5806 13.9303C24.5806 13.0317 24.1344 12.1835 23.393 11.6683C22.2997 10.9017 21.1121 10.3802 19.8743 10.0974L19.8743 10.0848C20.0188 8.56426 19.5162 6.91802 18.5611 5.78701C18.2029 5.36602 17.782 5.03301 17.3296 4.78795C16.9525 4.58688 16.5567 4.44236 16.142 4.37325C15.8341 3.93341 15.4382 3.50614 14.9481 3.13542C13.9931 2.41283 13.0003 2.04211 12.0075 2.04211C11.3352 2.04211 10.6754 2.21805 10.0911 2.55107C9.79577 2.72072 9.52559 2.92178 9.28682 3.16055C8.87212 3.05374 8.41343 2.97834 7.92333 2.97834C6.58497 2.97834 5.41626 3.52499 4.63083 4.52405C3.92081 5.42257 3.70717 6.45933 3.67576 7.28874C3.34902 7.49609 3.0537 7.74114 2.78352 8.02389C2.14261 8.70249 1.72791 9.50677 1.55826 10.399C1.09957 12.7678 2.55732 14.6466 3.00972 15.1618C3.0537 15.2121 3.09769 15.2498 3.14167 15.3C4.19728 16.4311 5.64874 17.0782 7.15047 17.0782" fill="#540000"/>
<path d="M92.2023 18.9507C92.3216 18.9507 92.441 18.9569 92.5604 18.9758L93.2767 19.07C93.4464 19.0952 93.6097 19.1329 93.7668 19.1831C93.8925 18.1464 94.0244 17.1159 94.1501 16.0792C94.2821 15.0235 94.546 13.2139 94.791 11.5551C94.0056 11.3478 93.2013 11.1279 92.3845 11.0273C92.24 11.0085 92.0954 10.9959 91.9509 10.9959C90.0156 10.9959 88.4699 13.0631 88.1997 16.0163C87.9673 18.5422 88.4888 20.1068 89.0103 20.6786C89.1925 20.8797 89.3119 20.8859 89.3873 20.8859C89.469 20.8231 89.5884 20.6912 89.6575 20.5906L89.7643 20.3896C90.2544 19.491 91.1969 18.9507 92.2023 18.9507Z" fill="#540000"/>
<path d="M114.546 12.8809C114.138 12.1395 113.409 11.6306 112.573 11.486L111.963 11.3855C111.423 11.2975 110.43 10.8137 109.368 10.3048C109.035 10.1414 108.677 9.97174 108.294 9.78952C107.075 9.21773 105.799 8.9287 104.505 8.9287C103.512 8.9287 102.538 9.09835 101.615 9.42508C101.615 9.40623 101.615 9.38738 101.621 9.37482L101.709 8.7402C101.828 7.88566 101.539 7.01855 100.93 6.40278C100.402 5.87497 99.692 5.57965 98.9569 5.57965C98.8375 5.57965 98.7181 5.58594 98.5987 5.60479L98.0144 5.68019C97.7379 5.66762 97.009 5.47284 96.4749 5.32832C95.5827 5.08955 94.4642 4.78795 93.2076 4.62458C92.7866 4.56803 92.3593 4.5429 91.9509 4.5429C89.7894 4.5429 87.8227 5.27177 86.2016 6.54729C86.1262 6.46561 86.0634 6.37764 85.9754 6.30852C85.4664 5.87497 84.8255 5.6362 84.1658 5.6362C84.0401 5.6362 83.9144 5.64249 83.7888 5.66134L81.5959 5.95666C79.3276 6.26454 77.4677 6.51587 74.659 6.88031C74.5899 6.88659 74.5208 6.89916 74.4517 6.91173C71.8629 7.44582 68.8532 8.73391 68.539 13.9491C68.5327 14.0496 68.5264 14.1502 68.5202 14.2507C68.4196 16.054 68.4636 17.4804 68.5893 19.7047L68.8469 24.147C69.0542 27.5024 69.2427 30.6001 70.6879 32.6485C71.7938 34.2193 73.6348 35.1807 76.7765 35.1807L77.097 35.1807C77.4049 35.1807 77.851 35.1932 78.2908 35.2121L78.3788 35.2121C78.8626 35.2309 79.3276 35.2435 79.6606 35.2435C79.6732 35.2435 79.8679 35.2435 79.8679 35.2435C82.1362 35.1995 83.839 34.6026 85.0769 33.4339C86.1199 34.1565 87.408 34.634 88.9223 34.8225C89.2993 34.8728 89.6889 34.8979 90.0659 34.8979C91.398 34.8979 92.6609 34.59 93.8045 34.0434C94.458 34.6843 95.2497 35.2246 96.1796 35.6582C97.3232 36.1923 98.5233 36.4562 99.7486 36.4562C103.493 36.4562 106.912 33.968 108.665 29.9655C108.759 29.7581 109.117 28.8784 109.557 27.7914C110.217 26.1703 111.222 23.7135 111.561 22.9469C112.033 21.885 112.812 19.9309 113.497 18.2093L113.522 18.1464C113.886 17.229 114.219 16.3934 114.439 15.8593L114.672 15.2875C114.992 14.5083 114.942 13.6161 114.533 12.8809M89.6575 20.5907C89.5883 20.6975 89.469 20.8294 89.3873 20.886C89.3119 20.886 89.1925 20.8797 89.0103 20.6786C88.4887 20.1068 87.9609 18.5423 88.1997 16.0163C88.4699 13.0632 90.0156 10.9959 91.9509 10.9959C92.0954 10.9959 92.2399 11.0022 92.3844 11.0211C93.2013 11.1279 94.0056 11.3415 94.791 11.5489C94.5459 13.2077 94.282 15.0173 94.1501 16.0729C94.0181 17.1097 93.8925 18.1401 93.7668 19.1769C93.6097 19.1266 93.4463 19.0889 93.2767 19.0638L92.5604 18.9695C92.441 18.9507 92.3216 18.9444 92.2022 18.9444C91.1969 18.9444 90.2607 19.4911 89.7643 20.3833L89.6575 20.5844L89.6575 20.5907ZM100.936 18.6805C101.753 16.6761 103.154 15.3817 104.511 15.3817C104.851 15.3817 105.209 15.4697 105.554 15.6331C105.887 15.7901 107.044 16.3431 107.263 16.4499C106.685 17.8951 106.051 19.4911 105.68 20.3205C105.479 20.7729 105.115 21.6463 104.694 22.6705C104.662 22.6516 104.631 22.6328 104.593 22.6139L103.99 22.306C103.594 22.1049 103.16 22.0044 102.733 22.0044C102.117 22.0044 101.502 22.2118 100.999 22.6076L100.873 22.7082C100.873 22.7082 100.861 22.7144 100.854 22.7207C100.792 22.6642 100.704 22.5573 100.616 22.3814C100.207 21.552 100.327 20.1697 100.936 18.6805Z" fill="#540000"/>
<path d="M100.861 22.7144C100.861 22.7144 100.873 22.7081 100.88 22.7019L101.005 22.6013C101.508 22.1992 102.117 21.9981 102.739 21.9981C103.167 21.9981 103.6 22.0987 103.996 22.2997L104.599 22.6076C104.631 22.6265 104.668 22.6453 104.7 22.6642C105.121 21.64 105.485 20.7729 105.686 20.3142C106.057 19.4848 106.692 17.8888 107.27 16.4436C107.05 16.3368 105.887 15.7776 105.561 15.6268C105.209 15.4634 104.857 15.3754 104.518 15.3754C103.167 15.3754 101.759 16.6698 100.942 18.6742C100.333 20.1634 100.22 21.5457 100.622 22.3751C100.71 22.5511 100.804 22.6579 100.861 22.7144Z" fill="#540000"/>
<path d="M35.6518 6.97459C34.6653 7.93594 34.5333 9.48165 35.3439 10.6001C35.4004 10.6755 35.4444 10.7886 35.4255 10.8828C35.4193 10.9205 35.4067 10.9394 35.3941 10.952C35.3941 10.952 35.3816 10.9457 35.3753 10.9394C34.8789 10.5687 34.2945 10.3865 33.7165 10.3865C33.0064 10.3865 32.2964 10.6566 31.7623 11.1907C30.7884 12.1584 30.6628 13.6915 31.467 14.8037C32.2399 15.8656 33.2829 16.6133 34.4893 16.9714C34.9983 17.1222 35.5198 17.1976 36.0476 17.1976C36.5377 17.1976 37.0152 17.1348 37.4676 17.0154C39.4406 16.4939 41.0115 14.9168 41.5016 12.8181C41.6964 11.9887 41.6964 11.1405 41.533 10.3299C41.5141 10.2482 41.489 10.1665 41.4702 10.0786C41.4576 10.0283 41.4387 9.97176 41.4262 9.91521C41.3445 9.61361 41.2314 9.31829 41.0994 9.03553C41.0932 9.01668 41.0806 8.99783 41.0743 8.97898C40.8607 8.53286 40.5968 8.11816 40.2826 7.72859C40.2261 7.65948 40.1695 7.58407 40.1067 7.52124C40.025 7.42699 39.937 7.33274 39.8491 7.24477C39.692 7.09397 39.5286 6.94317 39.3527 6.80494C39.3338 6.78608 39.315 6.77352 39.2961 6.75467C39.2647 6.72953 39.2333 6.71697 39.2019 6.69183C38.7243 6.35253 38.1651 6.18288 37.6122 6.18288C36.9084 6.18288 36.2047 6.45307 35.6706 6.97459" fill="#540000"/>
<path d="M38.1148 32.9689C37.4425 32.9689 36.7576 32.6484 36.2738 32.1144C35.4507 31.2033 35.1051 29.9529 34.9857 27.4898C34.8223 24.0088 34.194 15.9472 34.1877 15.8655L34.1751 15.7084L34.3259 15.6959C34.3259 15.6959 35.1428 15.6205 35.4695 15.6016C35.6203 15.5891 35.7648 15.5828 35.9093 15.5828C36.8393 15.5828 37.5619 15.853 38.0583 16.387C38.7054 17.0845 38.9882 18.2029 38.9065 19.8178C38.8248 21.5143 38.9756 23.6381 39.0825 25.1901C39.1264 25.7933 39.1579 26.3022 39.1704 26.6541C39.2144 27.9359 39.8742 29.6387 40.6219 29.8398L40.735 29.8712L40.735 29.9906C40.7475 30.3676 40.6847 32.2714 38.7871 32.8746C38.5672 32.9438 38.341 32.9815 38.1148 32.9815M58.4981 32.2903C58.3473 32.2903 58.1839 32.284 58.0143 32.2714C57.2037 32.2023 56.4811 31.6808 56.0162 30.8451C55.4004 29.7455 54.9291 27.9548 54.4767 26.2268C54.194 25.1461 53.9238 24.1093 53.6222 23.2611C53.6222 24.3858 53.6285 25.8184 53.6348 27.251C53.6473 29.0418 53.6536 30.8325 53.6473 32.0075L53.6473 32.1646L53.4902 32.1646C53.2201 32.1646 52.8745 32.1709 52.5289 32.1835C52.1896 32.1898 51.8566 32.2023 51.6366 32.2023C50.0972 32.2023 49.8962 30.4807 49.8899 28.9915C49.8836 26.1514 49.8585 22.683 49.827 19.2209C49.8019 15.7901 49.7768 12.3657 49.7642 9.55702L49.7642 9.39993C49.7642 9.39993 50.8449 9.39993 51.3099 9.39993C51.9383 9.39993 52.4598 9.60728 52.8619 10.022C53.396 10.5749 53.6913 11.4734 53.6787 12.5605L53.6285 20.3016C54.3888 18.6742 55.1805 17.0028 56.1041 15.6268C56.5817 14.9105 56.9712 14.59 58.0457 14.59L58.1525 14.59C58.9882 14.6089 59.8239 14.6277 60.6596 14.6528L60.8104 14.6528L60.8041 14.9984L60.7727 15.0361C60.1506 15.8969 56.9273 20.9299 56.5377 21.5457C56.7136 22.1363 57.9577 26.3399 58.5672 27.4395C59.3903 28.9035 60.226 29.8838 60.8606 30.1225L60.9863 30.1665L60.9612 30.2985C60.6847 31.6682 59.9056 32.3029 58.4918 32.3029M25.1145 32.1332C23.6379 32.1332 22.8588 31.0022 22.6074 28.47C22.1425 23.858 20.9612 12.3029 20.1066 4.59314L20.0878 4.43606L21.4387 4.27269C21.5518 4.26012 21.6649 4.25384 21.7717 4.25384C23.2483 4.25384 24.1846 5.48538 24.4045 7.71598C24.4924 8.55796 24.6181 9.95287 24.7438 11.2975C24.8192 12.0829 24.8883 12.8558 24.9511 13.4904C25.5041 12.0389 26.4214 11.2975 27.7347 11.2347C27.8415 11.2347 27.942 11.2284 28.0426 11.2284C31.5047 11.2284 32.4284 14.169 32.7614 18.5862C32.8116 19.2711 32.8619 20.0817 32.9185 20.9488C33.1384 24.5366 33.44 29.4565 34.2505 30.2231L34.3448 30.311L34.282 30.4178C34.0683 30.7823 33.0881 31.8127 31.4356 31.8127C31.3288 31.8127 31.2157 31.8127 31.0963 31.8002C29.0542 31.6305 28.9976 30.3047 28.9159 28.6271C28.9034 28.3066 28.8845 27.9673 28.8531 27.6154C28.7463 26.3211 28.74 24.7377 28.7337 23.0537C28.7337 22.0986 28.7274 21.1122 28.7023 20.1445C28.652 17.9453 28.0865 16.7326 27.1126 16.7326C27.0686 16.7326 27.0247 16.7326 26.9807 16.7389C25.724 16.8709 25.6235 18.0521 25.8685 20.6409C26.1701 23.8329 27.3639 31.3792 27.3765 31.4546L27.3954 31.5865L27.2697 31.6305C27.2131 31.6494 25.8685 32.0704 25.4726 32.1143C25.347 32.1269 25.2276 32.1332 25.1145 32.1332ZM62.8588 29.8712C61.5393 29.8209 60.8984 28.9035 60.8984 27.0625L60.8984 22.5259C60.9109 21.9855 60.9486 21.0493 60.9863 20.0565C61.0303 18.9947 61.0743 17.8951 61.0869 17.0657L61.0869 16.896L61.3885 16.9149C61.9917 16.94 62.4692 16.7892 62.9719 16.6384C63.5625 16.4562 64.2285 16.2488 65.2088 16.2928C65.2779 16.2928 65.3533 16.2991 65.4287 16.3054C69.2804 16.5881 69.7391 19.6104 69.6574 22.8401C69.6071 24.8696 69.5254 28.2626 70.1161 29.7078L70.1978 29.9089L69.9841 29.9277C69.5506 29.9592 68.5327 30.0094 68.1305 29.9969C66.6162 29.9403 66.346 28.9538 66.3775 27.1568C66.4026 25.6488 66.4277 24.1345 66.4529 22.6264C66.4843 20.5718 65.9251 20.2639 65.3093 20.2388C65.0328 20.2388 64.8255 20.3142 64.6558 20.4838C64.3102 20.8294 64.1217 21.5269 64.1154 22.5008C64.0903 24.9136 64.0715 27.3264 64.0463 29.7392L64.0463 29.8963L62.8588 29.8775L62.8588 29.8712ZM45.5858 29.0983C42.4001 29.1612 40.3014 26.1514 39.981 21.043C39.7925 18.0082 40.5779 15.1178 42.0356 13.4967C42.8839 12.5605 43.8955 12.0704 45.0517 12.0452C45.1459 12.0452 45.2402 12.0452 45.3407 12.0452C47.144 12.1269 48.5578 13.7229 48.6395 15.7461C48.652 16.0729 48.652 16.4436 48.6583 16.8143C48.6583 17.185 48.6583 17.5495 48.6772 17.8699L48.6772 18.027L48.4447 18.0333L48.3065 17.9642C48.0237 17.5432 47.2697 16.9274 46.3335 16.9463L46.2644 16.9463C44.6055 17.0405 43.6819 18.3475 43.7887 20.4524C43.8767 22.1615 44.3731 24.191 46.2267 24.1533L46.3146 24.1533C47.2634 24.0968 47.9923 23.7826 48.6143 23.1731L48.6583 23.1291L48.872 23.1291L48.9159 23.2799L48.9788 24.8759C49.0605 27.1442 47.6718 28.9664 45.8182 29.0858C45.7428 29.0858 45.6737 29.092 45.5983 29.092M63.0096 15.3063C62.7959 15.3629 62.576 15.388 62.3498 15.388L61.6586 15.388L61.6524 14.9733L61.734 14.9293C62.2493 14.6277 62.7394 13.6852 62.7268 13.0254C62.7205 12.6736 62.5823 12.372 62.3184 12.1269C61.7466 11.5928 61.6147 11.0839 61.6084 10.7446C61.5832 9.73924 62.0796 9.01036 62.9342 8.79673C63.1038 8.75274 63.2923 8.73389 63.4871 8.73389C64.7501 8.73389 65.5795 9.75808 65.5983 11.3352C65.6235 13.2579 64.5301 14.9356 63.0096 15.3189" fill="#FFF200"/>
<path d="M35.2747 14.301C33.7541 13.8486 32.7928 12.1772 33.1446 10.5561C33.4965 8.93499 35.0485 7.99248 36.5942 8.45117C38.1399 8.90986 39.1641 10.5687 38.7871 12.1835C38.4101 13.7983 36.8016 14.7534 35.2747 14.3073" fill="#FFF200"/>
<path d="M9.94019 17.4866C9.57575 21.6211 11.643 28.1998 16.4058 28.5957C18.1651 28.7402 20.2261 28.3192 21.5833 27.1442C21.5833 27.1442 22.4064 29.4628 20.8356 31.4546C19.8742 32.6673 17.9955 33.3962 16.0351 33.7103C9.77682 34.7031 5.78688 29.8335 5.13341 23.6255C4.43595 16.94 6.37752 12.9249 10.7131 11.4295C13.9364 10.3173 15.1617 11.1341 15.6141 11.6242C15.4067 11.398 12.064 11.53 10.7005 14.7031C10.1852 15.8969 9.97789 17.0908 9.94019 17.4992" fill="#FFF200"/>
<path d="M15.2182 14.1439C15.3941 14.7345 15.0737 15.3628 14.4893 15.5451C13.9113 15.7273 13.2955 15.3943 13.1133 14.8036C12.9373 14.213 13.2578 13.5846 13.8421 13.4024C14.4202 13.2202 15.036 13.5532 15.2182 14.1439Z" fill="white"/>
<path d="M15.5701 11.7876C16.3178 11.6871 17.0089 10.8137 17.1032 9.80837C17.2163 8.61452 16.5 7.16306 15.6392 7.10651C15.0988 7.06881 14.6904 7.59034 14.5459 7.79769C14.5144 7.55263 14.3197 6.14516 13.2703 5.34717C13.0441 5.17752 12.2022 4.54289 11.4733 4.9576C10.8449 5.31575 10.5182 6.32109 10.7444 7.4144C10.5433 7.10651 10.1789 6.62898 9.61969 6.28339C8.8971 5.83099 7.4959 5.37858 6.8173 6.24569C6.31463 6.88659 6.478 7.89822 6.50313 8.07415C6.64136 8.84073 7.04978 9.32454 7.20058 9.48163C7.04978 9.43136 5.69257 8.99153 4.8129 9.92775C4.6998 10.0534 4.3982 10.3802 4.29139 10.9268C4.06518 12.0955 4.94485 13.1448 5.10194 13.3271C5.84338 14.1753 6.94925 14.4706 7.82264 14.1942C8.69603 13.9177 8.61435 13.2956 9.65111 12.4223C10.7256 11.5174 12.8368 10.82 14.3888 11.4106C14.9229 11.6117 15.0988 11.8505 15.5701 11.7876Z" fill="#ED1C24"/>
<path d="M16.6382 12.7427C17.2037 12.6359 18.0708 12.5479 19.1201 12.7616C20.3266 13.0129 21.2502 13.5533 21.7969 13.9366C21.2502 14.3261 20.647 14.8225 20.0375 15.432C19.6103 15.8593 19.2395 16.2865 18.9128 16.6887C19.2395 16.9589 20.182 17.8134 20.5213 19.246C20.8292 20.5592 20.691 22.6013 19.5914 23.0349C18.674 23.3993 17.3231 22.5574 16.8895 21.4389C16.3743 20.1068 17.4676 19.1518 17.5807 16.94C17.6687 15.2372 17.1283 13.7543 16.6382 12.7364L16.6382 12.7427Z" stroke="#540000" stroke-width="3.57" stroke-linecap="round" stroke-linejoin="round"/>
<path d="M16.6382 12.7427C17.2037 12.6359 18.0708 12.5479 19.1201 12.7616C20.3266 13.0129 21.2502 13.5533 21.7969 13.9366C21.2502 14.3261 20.647 14.8225 20.0375 15.432C19.6103 15.8593 19.2395 16.2865 18.9128 16.6887C19.2395 16.9589 20.182 17.8134 20.5213 19.246C20.8292 20.5592 20.691 22.6013 19.5914 23.0349C18.674 23.3993 17.3231 22.5574 16.8895 21.4389C16.3743 20.1068 17.4676 19.1518 17.5807 16.94C17.6687 15.2372 17.1283 13.7543 16.6382 12.7364" fill="#ED1C24"/>
<path d="M79.6669 32.4663C79.3402 32.4663 78.8689 32.4474 78.3914 32.4348C77.9201 32.416 77.4426 32.4034 77.1033 32.4034L76.7577 32.4034C72.1457 32.4034 72.0012 30.11 71.6305 23.9774L71.3728 19.5413C71.2472 17.317 71.2032 15.9347 71.3163 14.1251C71.5048 10.9394 72.7112 10.1163 75.0172 9.63874C77.8384 9.28058 79.7046 9.02297 81.9792 8.71508L84.1658 8.41976L84.1658 8.9727C84.1847 9.48165 84.1972 10.1288 84.2161 10.6818C84.0715 13.1511 83.7825 14.1879 81.4514 14.678C79.6103 15.0676 78.0709 15.3629 76.255 15.6017C76.2299 16.4625 76.255 17.3233 76.2802 18.1087C77.6311 18.0208 79.026 17.914 80.3581 17.8134C81.1812 17.7506 81.9792 17.6878 82.7269 17.6375L83.2421 17.5998L83.2987 20.0692C83.3552 22.4694 81.9855 23.1229 80.823 23.2548C80.2952 23.3114 79.5287 23.3742 78.693 23.437C77.9892 23.4936 77.2415 23.5501 76.5503 23.613C76.5503 23.6632 76.5503 23.7072 76.5503 23.7575C76.5503 23.9774 76.5503 24.1973 76.5629 24.3356C76.6572 26.3902 76.9085 26.3902 78.2783 26.3902C78.517 26.3902 78.7809 26.3902 79.07 26.3777L79.2522 26.3777C79.3527 26.3777 79.3967 26.3777 79.447 26.3777C79.4784 26.3777 79.5161 26.3777 79.5915 26.3777L79.736 26.3777C81.1498 26.3462 82.1174 26.1703 83.4181 25.7179L84.0527 25.4917L84.0715 26.164C84.0841 26.5787 84.103 26.9432 84.1218 27.3076C84.1407 27.6658 84.1658 28.0302 84.1721 28.4449C84.2035 29.7079 83.9082 30.6378 83.2798 31.2976C82.5635 32.0453 81.4262 32.4286 79.8051 32.46L79.648 32.46L79.6669 32.4663Z" fill="#FDB913"/>
<path d="M79.667 31.775C79.3465 31.775 78.8815 31.7562 78.4166 31.7436C77.9328 31.7248 77.4489 31.7122 77.1096 31.7122L76.7641 31.7122C72.7992 31.7122 72.6987 30.066 72.3217 23.9334L72.0641 19.5036C71.9384 17.3044 71.8944 15.9472 72.0075 14.169C72.1898 11.1467 73.3208 10.7006 75.1555 10.3173C77.9265 9.96542 79.7926 9.7078 82.0735 9.39992L83.4936 9.20514C83.4998 9.67639 83.5124 10.223 83.5313 10.7006C83.393 13.0191 83.1731 13.6035 81.3132 13.9994C79.3528 14.4141 77.738 14.7219 75.765 14.967L75.5953 14.9858L75.5953 15.1555C75.5262 16.3682 75.5702 17.5872 75.6205 18.6365L75.6205 18.8376L75.8341 18.825C77.3421 18.7307 78.9255 18.6114 80.421 18.4983C81.1687 18.4417 81.8913 18.3852 82.5762 18.3349L82.6139 20.0754C82.6516 21.6211 82.0609 22.4128 80.754 22.5573C80.2325 22.6139 79.4722 22.6704 78.6428 22.7395C77.782 22.8087 76.8457 22.8778 76.0352 22.9595L75.8467 22.9783L75.8467 23.1668C75.8592 23.305 75.8655 23.5312 75.8655 23.7512C75.8655 23.9836 75.8655 24.2098 75.8781 24.3544C75.9849 26.6164 76.387 27.0688 78.2846 27.0688C78.5297 27.0688 78.7999 27.0688 79.0952 27.0562L79.2586 27.0562C79.334 27.0562 79.3717 27.0562 79.4094 27.0562C79.4533 27.0562 79.5036 27.0562 79.5979 27.0562L79.7612 27.0562C81.1624 27.0248 82.1426 26.8614 83.3993 26.4404C83.4119 26.7546 83.4244 27.0437 83.4433 27.3327C83.4621 27.6846 83.481 28.0427 83.4936 28.4448C83.5187 29.513 83.2862 30.2796 82.7898 30.8011C82.2055 31.4106 81.2253 31.7185 79.7989 31.7499L79.6607 31.7499L79.667 31.775Z" fill="white"/>
<path d="M83.2923 9.43138C83.2986 9.8398 83.3112 10.2922 83.3238 10.6881C83.1855 13.0443 82.9153 13.4527 81.2691 13.8046C79.3087 14.2193 77.7001 14.5272 75.7334 14.7723L75.4004 14.8162L75.3816 15.1555C75.325 16.3682 75.369 17.5998 75.413 18.6554L75.4318 19.0638L75.8403 19.0387C77.3483 18.9444 78.9128 18.825 80.4271 18.7119C81.0994 18.6617 81.7529 18.6114 82.3813 18.5674L82.3938 19.0701C82.4001 19.378 82.4064 19.6859 82.419 20.1006C82.4567 21.5395 81.9351 22.2432 80.7413 22.3751C80.2261 22.4317 79.4532 22.4945 78.6364 22.5574C77.7944 22.6202 76.8393 22.6956 76.0225 22.7773L75.6455 22.815L75.6643 23.192C75.6643 23.3302 75.6706 23.5501 75.6706 23.7701C75.6706 24.0025 75.6706 24.235 75.6832 24.3795C75.7963 26.7421 76.2801 27.2887 78.2908 27.2887C78.5358 27.2887 78.806 27.2887 79.1076 27.2762C79.1767 27.2762 79.227 27.2762 79.271 27.2762C79.3401 27.2762 79.3778 27.2762 79.4092 27.2762C79.4595 27.2762 79.5097 27.2762 79.6103 27.2762C79.6543 27.2762 79.7045 27.2762 79.7737 27.2762C81.1057 27.251 82.0608 27.1002 83.2169 26.7358C83.2295 26.9494 83.2358 27.1568 83.2484 27.3641C83.2672 27.716 83.2861 28.0679 83.2986 28.4763C83.3238 29.4879 83.1101 30.2105 82.6514 30.6881C82.1048 31.2598 81.1748 31.5489 79.7988 31.574L79.6606 31.574C79.3464 31.574 78.8751 31.5614 78.4164 31.5426C77.9389 31.5237 77.4488 31.5112 77.1032 31.5112C77.0341 31.5112 76.965 31.5112 76.9147 31.5112L76.7576 31.5112C72.9813 31.5112 72.8933 30.0534 72.5163 23.9209L72.4849 23.4433C72.4095 22.1238 72.3341 20.8043 72.2524 19.4848C72.1268 17.2919 72.0891 15.941 72.1959 14.1753C72.3593 11.3918 73.2766 10.9017 75.1554 10.5121C77.9138 10.1603 79.8176 9.90264 82.0168 9.60103L83.2798 9.43138L83.2923 9.43138ZM83.6882 8.9727C80.5779 9.39368 78.5421 9.67643 75.1177 10.1163C73.0881 10.5373 71.9885 11.1342 71.8063 14.1502C71.6932 15.9661 71.7372 17.3547 71.8629 19.5099C71.9383 20.8294 72.0137 22.1489 72.0891 23.4685C72.4849 29.9089 72.4975 31.9133 76.7576 31.9133C76.8079 31.9133 76.8644 31.9133 76.921 31.9133C76.9775 31.9133 77.0404 31.9133 77.1032 31.9133C77.7755 31.9133 79.0134 31.9761 79.6606 31.9761C79.7108 31.9761 79.7611 31.9761 79.8051 31.9761C82.8211 31.9133 83.7447 30.6189 83.6945 28.4637C83.6756 27.6343 83.6128 27.0186 83.5939 26.1829C82.199 26.673 81.1937 26.8426 79.7611 26.874C79.6982 26.874 79.648 26.874 79.604 26.874C79.4281 26.874 79.4281 26.8615 79.2584 26.8615C79.2144 26.8615 79.1579 26.8615 79.0888 26.8615C78.7934 26.8678 78.5233 26.874 78.2845 26.874C76.5691 26.874 76.1796 26.5662 76.079 24.3481C76.0665 24.0654 76.0727 23.4433 76.0602 23.1606C77.6562 22.9972 79.7171 22.8715 80.7853 22.7584C82.1362 22.6076 82.8651 21.7845 82.8211 20.0754C82.8022 19.29 82.796 18.9067 82.7771 18.1213C80.6659 18.2721 78.1588 18.4794 75.8214 18.624C75.7711 17.4992 75.7334 16.3242 75.79 15.1618C77.7693 14.9168 79.3966 14.6026 81.3571 14.1879C83.3112 13.7732 83.5877 13.0946 83.7322 10.6881C83.7133 10.1351 83.7008 9.48165 83.6945 8.9727" fill="#FDB913"/>
<path d="M90.0786 32.1144C89.8147 32.1144 89.5508 32.0955 89.2806 32.0641C86.2017 31.6808 84.6623 29.7644 84.9388 26.6604L85.2215 23.5501L85.9818 24.5178C85.9818 24.5178 87.3641 26.2457 89.0732 26.2457C89.1298 26.2457 89.1926 26.2457 89.2554 26.2457C90.7949 26.1389 91.6306 25.3158 91.8065 23.7386L91.8191 23.6507C91.329 24.0717 90.6629 24.455 89.8335 24.5366C89.689 24.5492 89.5508 24.5555 89.4125 24.5555C88.225 24.5555 87.1505 24.0654 86.3148 23.148C84.8822 21.5772 84.2602 18.9193 84.5618 15.6708C85.0142 10.7509 88.0616 7.32018 91.9699 7.32018C92.2652 7.32018 92.5731 7.33903 92.8747 7.37673C93.9428 7.51496 94.9168 7.77258 95.7713 8.00506C96.6698 8.24383 97.4427 8.45118 98.0585 8.45118C98.159 8.45118 98.247 8.45118 98.3412 8.43233L98.9758 8.35065L98.8879 8.98527C98.8062 9.60104 98.6491 10.6315 98.4857 11.7688C98.2344 13.4905 97.9454 15.4446 97.8071 16.519C97.6123 18.0522 97.4238 19.5916 97.2353 21.1248C97.1976 21.4389 97.1599 21.8788 97.1034 22.4317L97.0531 22.9909C97.0154 23.5062 96.94 24.0842 96.8709 24.6937L96.8583 24.788C96.318 29.1612 93.6035 32.1018 90.0911 32.1018" fill="#FDB913"/>
<path d="M90.0785 31.4232C89.846 31.4232 89.6073 31.4106 89.3685 31.3792C85.9692 30.9519 85.4602 28.6145 85.6236 26.7232L85.7555 25.3032C86.3085 25.8749 87.54 26.9368 89.0732 26.9368C89.1486 26.9368 89.224 26.9368 89.2994 26.9306C91.1718 26.7986 92.2777 25.7179 92.4913 23.814L92.6924 21.9981L92.3594 21.9541L92.2526 22.0672C92.2526 22.0672 91.3478 23.7009 89.7643 23.8517C89.645 23.8643 89.5256 23.8706 89.4062 23.8706C88.4197 23.8706 87.5212 23.4621 86.8174 22.6893C85.5168 21.2629 84.9576 18.7936 85.2403 15.7461C85.6613 11.197 88.426 8.01758 91.9572 8.01758C92.2274 8.01758 92.4976 8.03643 92.7741 8.07413C93.792 8.20608 94.7471 8.4637 95.5828 8.68362C96.5253 8.93496 97.3421 9.15488 98.0458 9.15488C98.0835 9.15488 98.1212 9.15488 98.1589 9.15488C98.071 9.77693 97.939 10.6943 97.7882 11.6871C97.5369 13.415 97.2478 15.3691 97.1096 16.4562C96.9148 17.9893 96.7263 19.5287 96.5378 21.0619C96.5001 21.3823 96.4561 21.8285 96.4059 22.3877L96.3556 22.9469C96.3116 23.4621 96.2488 24.0339 96.1734 24.6308L96.1608 24.7251C95.6707 28.7339 93.2265 31.4295 90.0785 31.4295" fill="white"/>
<path d="M91.9509 8.2124C92.2085 8.2124 92.4787 8.23125 92.7426 8.26267C93.7479 8.39462 94.6967 8.64595 95.5261 8.87215C96.4309 9.11721 97.2227 9.32456 97.9201 9.34969C97.8321 9.96546 97.7128 10.7949 97.5808 11.6808C97.3295 13.3962 97.0404 15.344 96.9085 16.4248C96.7137 17.9579 96.5252 19.4973 96.3367 21.0305C96.2927 21.3635 96.255 21.8348 96.1985 22.438L96.1545 22.9281C96.1168 23.4307 96.0477 23.99 95.9785 24.5806L95.966 24.6937C95.4884 28.602 93.1196 31.2221 90.0847 31.2221C89.8585 31.2221 89.626 31.2096 89.3936 31.1782C86.7922 30.8514 85.5921 29.3623 85.8246 26.7421L85.9188 25.7367C86.5786 26.3399 87.7096 27.1379 89.0731 27.1379C89.1548 27.1379 89.2365 27.1379 89.3182 27.1317C91.3037 26.9934 92.4661 25.8498 92.6923 23.8329L92.8683 22.2118L92.9122 21.8222L92.5227 21.7719L92.4787 21.7719L92.2085 21.7279L92.0766 21.9667C92.0766 21.9667 91.2157 23.5061 89.7454 23.6444C89.6323 23.6569 89.5192 23.6632 89.4061 23.6632C88.4762 23.6632 87.6342 23.2737 86.9682 22.5448C85.7241 21.1813 85.1648 18.7056 85.4413 15.7525C85.8497 11.3101 88.5327 8.20612 91.9635 8.20612M91.9509 7.81026C88.1557 7.81026 85.4476 11.2284 85.0329 15.7148C84.5491 20.9425 86.5786 24.0591 89.3998 24.0591C89.5255 24.0591 89.6512 24.0528 89.7768 24.0402C91.4922 23.8769 92.4221 22.1552 92.4221 22.1552L92.4661 22.1552C92.4661 22.1552 92.3216 23.4936 92.2902 23.7826C92.0828 25.6613 91.0147 26.5976 89.2867 26.7232C89.2176 26.7232 89.1422 26.7295 89.0731 26.7295C87.0938 26.7295 85.5984 24.8131 85.5984 24.8131C85.5984 24.8131 85.4853 26.0698 85.4287 26.6918C85.2277 28.9287 86.0068 31.1467 89.3433 31.5614C89.5946 31.5929 89.8397 31.6054 90.0784 31.6054C93.4024 31.6054 95.8717 28.6962 96.3618 24.7251C96.4372 24.0905 96.5126 23.4873 96.5566 22.9406C96.632 22.1112 96.6886 21.4766 96.7388 21.0619C96.9273 19.5288 97.1158 17.9893 97.3106 16.4562C97.5368 14.6591 98.1777 10.4556 98.3914 8.90985C98.2783 8.92242 98.1652 8.92871 98.0458 8.92871C96.7451 8.92871 94.9543 8.13072 92.7992 7.84796C92.5101 7.81026 92.2336 7.79141 91.9572 7.79141" fill="#FDB913"/>
<path d="M105.68 28.6459C104.097 32.2589 100.704 34.1439 97.5682 32.6862C94.7344 31.3729 94.6967 28.9601 95.237 27.2071C95.4947 26.3651 95.9596 25.5231 95.9596 25.5231C95.9596 25.5231 96.7136 28.1307 98.7746 28.558C100.371 28.891 101.546 28.2501 102.224 26.6541C102.306 26.4593 102.802 25.2718 102.802 25.2718L102.777 25.2592C102.777 25.2592 101.564 26.2394 100.031 25.8184C97.9389 25.2466 96.079 22.1552 97.9829 17.4867C99.6605 13.3648 103.33 11.0902 106.899 12.7616C108.834 13.6726 110.179 14.4141 111.417 14.6214C110.795 16.1357 109.28 20.044 108.577 21.6211C107.999 22.9218 105.906 28.1181 105.674 28.6585L105.68 28.6459Z" stroke="#500000" stroke-width="7.8" stroke-linecap="round" stroke-linejoin="round"/>
<path d="M99.7548 33.6726C98.938 33.6726 98.1337 33.4904 97.3609 33.1323C94.8789 31.9824 93.9364 29.7644 94.7721 27.0625C95.0423 26.1828 95.5136 25.322 95.5324 25.2906L96.1042 24.2664L96.4372 25.3911C96.4372 25.3911 97.141 27.7223 98.8877 28.0804C99.1265 28.1307 99.3527 28.1558 99.5663 28.1558C100.572 28.1558 101.301 27.6029 101.784 26.4656L101.872 26.252C101.564 26.3462 101.206 26.409 100.823 26.409C100.515 26.409 100.207 26.3651 99.9119 26.2834C98.8438 25.9881 97.9013 25.1586 97.3295 24.0025C96.4372 22.1929 96.5126 19.8115 97.5431 17.2981C98.9443 13.8548 101.615 11.7122 104.511 11.7122C105.397 11.7122 106.271 11.9133 107.119 12.3091C107.496 12.4851 107.842 12.6547 108.175 12.8181C109.519 13.4653 110.575 13.9742 111.505 14.1313L112.114 14.2318L111.882 14.8036C111.656 15.344 111.323 16.1923 110.952 17.1285C110.267 18.8501 109.494 20.798 109.042 21.8159C108.684 22.6264 107.71 25.0078 107.006 26.7421C106.579 27.7977 106.227 28.6522 106.139 28.8533C104.832 31.8316 102.394 33.6852 99.7674 33.6852" fill="#FDB913"/>
<path d="M99.755 32.9815C99.0387 32.9815 98.3286 32.8181 97.65 32.5039C94.7283 31.1467 95.0047 28.6396 95.4257 27.2636C95.5639 26.8049 95.7713 26.3462 95.9284 26.0258C96.2551 26.8175 97.0971 28.4134 98.7371 28.7527C99.0198 28.8093 99.2963 28.8407 99.5602 28.8407C100.855 28.8407 101.816 28.1307 102.413 26.7295L103.066 25.1712L102.784 25.0267L102.652 25.0958C102.652 25.0958 101.866 25.7116 100.811 25.7116C100.566 25.7116 100.32 25.6802 100.082 25.6111C99.202 25.3723 98.4166 24.6685 97.9391 23.6883C97.1348 22.0609 97.2228 19.8806 98.1715 17.5495C99.4659 14.3701 101.891 12.3971 104.505 12.3971C105.284 12.3971 106.063 12.5793 106.824 12.9312C107.194 13.1071 107.546 13.2705 107.873 13.4339C109.155 14.0496 110.185 14.5523 111.147 14.7597C110.927 15.3 110.631 16.0477 110.305 16.8646C109.626 18.5737 108.853 20.5152 108.401 21.5269C108.036 22.3437 107.063 24.7314 106.353 26.4719C105.925 27.5212 105.58 28.3632 105.492 28.5642C104.298 31.2912 102.099 32.9815 99.7487 32.9815" fill="white"/>
<path d="M104.511 12.5982C105.265 12.5982 106.013 12.7741 106.742 13.1134C107.113 13.2893 107.465 13.4527 107.791 13.6161C108.985 14.1879 109.965 14.6654 110.877 14.8979C110.669 15.4131 110.405 16.0792 110.116 16.7955C109.438 18.5045 108.671 20.4398 108.225 21.4452C107.86 22.2683 106.887 24.6497 106.177 26.3965C105.762 27.4144 105.404 28.294 105.316 28.4888C104.153 31.1404 102.023 32.7867 99.7612 32.7867C99.0763 32.7867 98.3977 32.6296 97.7442 32.328C94.9607 31.0336 95.2246 28.6396 95.6267 27.3264C95.7147 27.0437 95.8278 26.7609 95.9346 26.5096C96.3682 27.383 97.229 28.6459 98.7056 28.9475C99.0072 29.0103 99.2962 29.0418 99.5664 29.0418C100.93 29.0418 101.979 28.2689 102.608 26.8049C102.689 26.6164 103.186 25.4163 103.186 25.4163L103.33 25.077L103.003 24.9073L102.978 24.8947L102.746 24.7754L102.545 24.9387C102.545 24.9387 101.81 25.5105 100.829 25.5105C100.603 25.5105 100.377 25.4791 100.157 25.4163C99.3339 25.1901 98.5988 24.524 98.1401 23.5941C97.3672 22.0169 97.4489 19.8994 98.3789 17.6186C99.6418 14.5146 101.998 12.5856 104.524 12.5856M104.505 12.2023C101.784 12.2023 99.29 14.2884 97.9893 17.4803C96.0854 22.1489 97.9453 25.2403 100.038 25.8121C100.308 25.8875 100.572 25.9189 100.817 25.9189C101.96 25.9189 102.777 25.2592 102.777 25.2592L102.809 25.2717C102.809 25.2717 102.312 26.4656 102.231 26.6541C101.665 27.9799 100.76 28.6459 99.5601 28.6459C99.3151 28.6459 99.0512 28.6208 98.781 28.5642C96.72 28.137 95.966 25.5294 95.966 25.5294C95.966 25.5294 95.5011 26.365 95.2435 27.2133C94.7031 28.9664 94.7408 31.3792 97.5746 32.6987C98.2972 33.038 99.0386 33.1951 99.7612 33.1951C102.18 33.1951 104.467 31.4357 105.686 28.6585C105.925 28.1181 108.018 22.9218 108.589 21.6211C109.293 20.044 110.801 16.1357 111.429 14.6214C110.198 14.4141 108.853 13.6726 106.912 12.7615C106.107 12.3845 105.297 12.2086 104.511 12.2086" fill="#FDB913"/>
<path d="M37.5934 8.96013C38.1149 9.67644 38.3474 10.6001 38.1337 11.5112C37.7567 13.126 36.1482 14.0811 34.6213 13.635C34.2883 13.5344 33.9867 13.3711 33.7102 13.1637C34.0935 13.6978 34.6276 14.1125 35.2748 14.301C36.7954 14.7534 38.4102 13.7921 38.7872 12.1772C39.0762 10.9457 38.5484 9.689 37.5934 8.96013Z" fill="#FAA61A"/>
<path d="M44.6183 23.4056C44.0465 22.6642 43.8391 21.508 43.7826 20.465C43.6695 18.3663 44.5931 17.0531 46.2519 16.9651L46.321 16.9651C46.6729 16.9526 46.9934 17.0405 47.2761 17.1662C46.9305 16.7703 46.2519 16.2991 45.4288 16.3117L45.3597 16.3117C43.7009 16.4059 42.7772 17.7191 42.8903 19.8178C42.9657 21.2818 43.3427 22.972 44.612 23.4119" fill="#FAA61A"/>
<path d="M23.5375 7.04366C23.6255 7.89192 23.7512 9.29311 23.8768 10.6503C23.9522 11.4295 24.1533 13.415 24.1533 13.415L24.9387 13.4527C24.9387 13.4527 24.7565 11.4106 24.7502 11.3164C24.6246 9.96544 24.4989 8.56424 24.4109 7.7097C24.235 5.95664 23.6192 4.8382 22.6516 4.42978C23.1165 5.01413 23.4244 5.89381 23.5375 7.04366Z" fill="#FAA61A"/>
<path d="M64.5931 10.8891C64.6182 12.8118 63.5312 14.4832 62.0106 14.8728C61.9227 14.8916 61.841 14.9105 61.753 14.923C61.753 14.923 61.7467 14.9293 61.7405 14.9293L61.6588 14.9733L61.6588 15.2372L61.6776 15.388L62.3562 15.388C62.5761 15.388 62.8023 15.3566 63.016 15.3063C64.5366 14.923 65.6236 13.2454 65.5985 11.3227C65.5796 9.85864 64.8633 8.891 63.7574 8.75276C64.2727 9.19888 64.5805 9.94032 64.5931 10.8891Z" fill="#FAA61A"/>
<path d="M55.677 20.8608C55.8529 21.4515 57.097 25.655 57.7065 26.7546C58.5296 28.2187 59.3653 29.1926 59.9937 29.4376C59.5475 28.9664 59.0637 28.2815 58.5799 27.4207C57.9704 26.3274 56.7263 22.1238 56.5504 21.5269C56.9399 20.9111 60.1633 15.8781 60.7854 15.0173L60.8168 14.9796L60.8293 14.6403L60.6723 14.6403C60.3581 14.6277 60.0439 14.6214 59.7298 14.6151C58.8249 15.9409 56.0414 20.2953 55.677 20.8671" fill="#FAA61A"/>
<path d="M52.8243 11.8756L52.774 19.956L53.6537 20.2325L53.6977 12.5416C53.7039 11.4546 53.4149 10.5561 52.8808 10.0032C52.6735 9.78952 52.4284 9.63243 52.1519 9.52562C52.5855 10.0848 52.8305 10.8954 52.8243 11.8693" fill="#FAA61A"/>
<path d="M47.7537 15.1052C47.7662 15.432 47.7662 15.8027 47.7725 16.1734C47.7725 16.5441 47.7725 16.9086 47.7914 17.229L47.7914 17.3861L47.6908 17.3861C47.9673 17.5746 48.1809 17.7945 48.3003 17.9767L48.4448 18.0459L48.6836 18.0459L48.6836 17.8825C48.671 17.562 48.671 17.1913 48.6647 16.8269C48.6647 16.4562 48.6647 16.0854 48.6459 15.7587C48.5893 14.2444 47.7851 12.9752 46.6226 12.3971C47.2887 13.0694 47.716 14.0245 47.7537 15.1115" fill="#FAA61A"/>
<path d="M40.7415 29.8649L40.6284 29.8335C39.8806 29.6324 39.2209 27.9296 39.1769 26.6478C39.1643 26.3022 39.1266 25.7933 39.0889 25.1901C38.9821 23.6381 38.8313 21.5143 38.913 19.8115C38.9884 18.2029 38.7119 17.0782 38.0647 16.387C37.8574 16.1608 37.5998 15.9975 37.3107 15.8655C37.87 16.5693 38.115 17.6374 38.0459 19.1455C37.9642 20.8483 38.115 22.972 38.2218 24.524C38.2658 25.1272 38.2972 25.6299 38.3098 25.9818C38.3538 27.2636 39.0135 28.9664 39.7613 29.1674L39.8744 29.1989L39.8744 29.3182C39.8869 29.6953 39.8241 31.5991 37.9265 32.2023C37.7066 32.2714 37.4804 32.3091 37.2542 32.3091C36.9149 32.3091 36.5693 32.2212 36.2488 32.0704C36.2614 32.0892 36.274 32.1081 36.2928 32.1269C36.7766 32.661 37.4615 32.9815 38.1339 32.9815C38.3601 32.9815 38.5863 32.9438 38.8062 32.8746C40.7038 32.2777 40.7666 30.3676 40.754 29.9906L40.754 29.8712L40.7415 29.8649Z" fill="#FAA61A"/>
<path d="M64.4736 19.535C64.1971 19.5287 63.9898 19.6104 63.8201 19.7801C63.4745 20.1257 63.286 20.8231 63.2797 21.797C63.2546 24.2099 63.2295 26.6227 63.2106 29.0292L63.2106 29.1863L62.0231 29.1674C61.7654 29.1549 61.5455 29.1046 61.3382 29.0292C61.6586 29.5633 62.1676 29.846 62.8713 29.8712L64.0589 29.89L64.0589 29.7329C64.084 27.3201 64.1029 24.9073 64.128 22.5008C64.1343 21.5268 64.3228 20.8294 64.6684 20.4838C64.838 20.3142 65.0454 20.2325 65.3218 20.2388C65.3532 20.2388 65.3909 20.2388 65.4224 20.245C65.2087 19.6733 64.8506 19.5476 64.4736 19.535Z" fill="#FAA61A"/>
<path d="M70.1225 29.7078C69.5318 28.2627 69.6135 24.8696 69.6638 22.8401C69.7266 20.377 69.469 18.0333 67.6343 16.94C68.7024 18.1778 68.8658 20.1194 68.8155 22.1364C68.7653 24.1659 68.6836 27.5589 69.2805 29.0041L69.3622 29.2052L69.1486 29.224C68.7339 29.2554 67.7034 29.3057 67.295 29.2931C67.0562 29.2869 66.8551 29.2429 66.6729 29.1863C66.9242 29.689 67.3704 29.9655 68.1432 29.9969C68.5516 30.0094 69.5821 29.9529 69.9968 29.9278L70.2104 29.9152L70.1288 29.7141L70.1225 29.7078Z" fill="#FAA61A"/>
<path d="M53.6349 23.3302L52.7552 22.5888C52.7552 22.5888 52.7615 25.1147 52.7678 26.5285C52.7803 28.3381 52.7866 30.1477 52.7803 31.3352L52.7803 31.4923L52.6233 31.4923C52.3531 31.4923 52.0075 31.4986 51.6619 31.5112C51.3226 31.5175 50.9896 31.53 50.7697 31.53C50.6189 31.53 50.4869 31.5112 50.3612 31.4798C50.6189 31.9133 51.021 32.2023 51.643 32.2023C51.863 32.2023 52.196 32.1961 52.5353 32.1835C52.8746 32.1772 53.2202 32.1646 53.4966 32.1646L53.6537 32.1646L53.6537 32.0076C53.6663 30.82 53.6537 29.0104 53.6412 27.2008C53.6412 26.6793 53.6349 23.3302 53.6349 23.3302Z" fill="#FAA61A"/>
<path d="M60.1067 29.557L60.0942 29.6199C59.8177 30.9896 59.0385 31.6243 57.6248 31.6243C57.474 31.6243 57.3106 31.618 57.141 31.5991C56.8833 31.574 56.632 31.5049 56.3995 31.3918C56.8394 31.9007 57.4049 32.2149 58.0144 32.2652C58.184 32.2777 58.3411 32.2903 58.4982 32.2903C59.9057 32.2903 60.6911 31.6557 60.9675 30.2859L60.9927 30.1539L60.867 30.11C60.6345 30.022 60.3769 29.8335 60.1004 29.557" fill="#FAA61A"/>
<path d="M25.8747 20.6409C25.6297 18.0521 25.7302 16.8771 26.9869 16.7389C27.0309 16.7389 27.0749 16.7326 27.1189 16.7326C27.1754 16.7326 27.2194 16.7515 27.2759 16.7578C27.012 16.3116 26.6727 16.0603 26.2455 16.0603C26.2015 16.0603 26.1575 16.0603 26.1135 16.0666C24.8568 16.1985 24.7563 17.3798 25.0014 19.9686C25.303 23.1605 26.4968 30.7069 26.5094 30.7823L26.5282 30.9142L26.4025 30.9582C26.346 30.9771 25.0014 31.398 24.6055 31.442C24.4798 31.4546 24.3605 31.4609 24.2474 31.4609C23.9583 31.4609 23.707 31.4043 23.4682 31.3164C23.8766 31.863 24.417 32.1332 25.1207 32.1332C25.2338 32.1332 25.3532 32.1269 25.4789 32.1143C25.881 32.0704 27.2194 31.6494 27.2759 31.6305L27.4016 31.5928L27.3765 31.4609C27.3639 31.3855 26.1701 23.8391 25.8685 20.6472" fill="#FAA61A"/>
<path d="M32.9186 20.9425C32.8683 20.0754 32.818 19.2649 32.7615 18.58C32.5102 15.1869 31.9007 12.6736 30.0659 11.6871C31.2346 12.9312 31.6808 15.1241 31.8881 17.9076C31.9384 18.5925 31.9886 19.4031 32.0452 20.2702C32.2651 23.858 32.5667 28.7779 33.3773 29.5507L33.4652 29.6387L33.4024 29.7455C33.1888 30.11 32.2086 31.1404 30.556 31.1404C30.4429 31.1404 30.3298 31.1404 30.2167 31.1279C29.8837 31.1027 29.6072 31.0399 29.3685 30.9519C29.6701 31.4169 30.1853 31.7248 31.0901 31.8002C31.2032 31.8128 31.3163 31.8128 31.4294 31.8128C33.0819 31.8128 34.0622 30.776 34.2758 30.4178L34.3386 30.311L34.2444 30.2231C33.4338 29.4502 33.1322 24.5366 32.9123 20.9425" fill="#FAA61A"/>
<path d="M48.8658 23.1292L48.6522 23.1417L48.6082 23.1794C48.4323 23.3491 48.2501 23.4936 48.0553 23.6193L48.0804 24.2853C48.1621 26.497 46.7672 28.3192 44.9136 28.4386C44.8382 28.4386 44.7691 28.4449 44.6937 28.4449C43.8768 28.4637 43.1354 28.2752 42.4756 27.9045C43.3302 28.7088 44.3795 29.1235 45.5859 29.0984C45.655 29.0984 45.7304 29.0984 45.8058 29.0921C47.6594 28.9727 49.0481 27.1505 48.9727 24.9388L48.9098 23.2862L48.8658 23.1292Z" fill="#FAA61A"/>
<path d="M91.2033 19.202C89.3246 19.202 87.804 17.65 87.804 15.7399C87.804 13.8298 89.3308 12.2778 91.2033 12.2778C93.0757 12.2778 94.6089 13.8298 94.6089 15.7399C94.6089 17.65 93.082 19.202 91.2033 19.202Z" fill="#BCBEC0"/>
<path d="M93.7354 15.1241C93.7354 16.808 92.397 18.1778 90.7445 18.1778C89.0919 18.1778 87.7473 16.808 87.7473 15.1241C87.7473 13.4401 89.0856 12.0704 90.7445 12.0704C92.4033 12.0704 93.7354 13.4401 93.7354 15.1241Z" fill="#FDB913"/>
<path d="M89.0292 15.1241C89.0292 14.6403 89.2239 14.2067 89.5318 13.8863C89.8397 13.5721 90.267 13.3773 90.7445 13.3773C91.2221 13.3773 91.643 13.5721 91.9509 13.8863" stroke="white" stroke-width="1.92" stroke-linecap="round" stroke-linejoin="round"/>
<path d="M103.449 22.6328C101.571 22.6328 100.044 21.0808 100.044 19.1706C100.044 17.2605 101.571 15.7085 103.449 15.7085C105.328 15.7085 106.855 17.2605 106.855 19.1706C106.855 21.0808 105.328 22.6328 103.449 22.6328Z" fill="#BCBEC0"/>
<path d="M105.975 18.5485C105.975 20.2325 104.637 21.6022 102.984 21.6022C101.332 21.6022 99.9873 20.2325 99.9873 18.5485C99.9873 16.8646 101.326 15.4948 102.984 15.4948C104.643 15.4948 105.975 16.8646 105.975 18.5485Z" fill="#FDB913"/>
<path d="M101.275 18.5485C101.275 18.0647 101.47 17.6312 101.778 17.3107C102.086 16.9965 102.513 16.8018 102.991 16.8018C103.468 16.8018 103.889 16.9965 104.197 17.3107" stroke="white" stroke-width="1.92" stroke-linecap="round" stroke-linejoin="round"/>
<path d="M110.751 37.0028C109.859 37.0028 108.966 36.8269 108.087 36.4813C104.159 34.9293 102.532 30.6566 104.222 26.3211C104.348 26.0006 104.543 25.7116 104.788 25.4854C104.826 25.1335 104.945 24.7816 105.152 24.4675C106.924 21.7531 109.827 19.9246 112.378 19.9246C113.032 19.9246 113.66 20.0377 114.238 20.2702C117.474 21.552 118.699 26.0006 118.203 29.5319C117.587 33.9302 114.521 37.0028 110.751 37.0028Z" fill="#540000"/>
<path d="M113.39 22.4191C111.505 21.6714 108.677 23.2925 107.087 25.7304C107.106 25.699 109.029 25.5482 108.972 25.5545C109.042 25.5545 109.934 27.8479 109.934 27.8479L112.227 26.7169L112.956 29.2114L114.672 28.8533C114.672 28.8533 113.308 29.9277 112.611 30.4492C112.271 29.7581 111.976 29.1297 111.674 28.4197C110.883 28.9852 109.142 30.0534 109.142 30.0534L108.074 26.9808C108.074 26.9808 107.056 27.0437 106.377 27.1693C105.234 30.1037 106.07 33.2077 108.935 34.3387C112.29 35.6645 115.356 33.1888 115.909 29.224C116.318 26.3211 115.275 23.1794 113.39 22.4317" fill="white"/>
<path d="M21.5833 27.1442C21.3759 27.3201 21.1497 27.4772 20.9172 27.6217C20.9486 28.4637 20.7853 29.601 19.9559 30.6566C18.9945 31.8693 17.1158 32.5982 15.1554 32.9124C12.4409 33.3396 10.1601 32.6736 8.38187 31.2661C10.248 33.2014 12.8494 34.213 16.0287 33.7103C17.9892 33.3962 19.8679 32.6673 20.8292 31.4546C22.4064 29.4628 21.577 27.1442 21.577 27.1442" fill="#FAA61A"/>
</g>
<defs>
<clipPath id="clip0_941_66400">
<rect width="120" height="38.6931" fill="white" transform="translate(120 38.6931) rotate(-180)"/>
</clipPath>
</defs>
</svg>
