<svg width="168" height="228" viewBox="0 0 168 228" fill="none" xmlns="http://www.w3.org/2000/svg">
<g filter="url(#filter0_n_680_532)">
<path d="M93.4153 119.633C75.7223 119.633 60.4337 109.187 55.3073 93.6837C48.9559 74.5741 60.7513 54.1794 81.5746 48.2517C85.3854 47.1739 89.3777 46.5936 93.37 46.5936C111.063 46.5936 126.352 57.0397 131.478 72.5429C137.784 91.6526 125.989 112.047 105.211 117.975C101.354 119.053 97.3622 119.633 93.37 119.633" fill="#F58220"/>
</g>
<g filter="url(#filter1_n_680_532)">
<path d="M93.1433 134.639C88.5159 123.654 91.9184 114.327 94.1414 108.151C94.1868 107.985 94.2775 107.819 94.3228 107.653C93.597 107.695 92.9164 107.819 92.1906 107.819C88.4251 107.819 84.8866 107.073 81.5748 105.829C80.9397 119.177 85.4309 138.162 95.7292 149.355C100.084 154.08 104.757 156.567 109.974 156.982C111.018 157.065 112.107 157.106 113.195 157.106C115.6 157.106 117.914 156.899 120.136 156.526C108.387 153.831 97.6799 145.541 93.0979 134.68" fill="#540000"/>
</g>
<g filter="url(#filter2_n_680_532)">
<path d="M94.3678 107.612C95.5927 104.254 96.6361 101.228 96.8629 97.3729C97.1351 92.4815 95.9102 87.1756 93.4604 81.5795C91.0106 80.8748 89.1053 80.0043 87.835 79.4239C87.5175 79.2996 87.1999 79.0923 86.7462 78.9265C86.5647 78.885 85.9296 78.6778 84.614 78.6778C80.3949 78.6778 74.9508 80.6675 72.5464 82.4914C71.1854 83.5277 70.641 84.2739 69.5068 85.6833C68.5995 86.8439 67.3746 88.3777 65.6961 89.9943C68.3273 97.3314 74.225 102.886 81.6197 105.705C84.9315 106.948 88.4702 107.695 92.2356 107.695C92.9615 107.695 93.6419 107.612 94.3678 107.529" fill="#540000"/>
</g>
<path d="M77.624 2.6554C84.7345 2.80742 91.7564 5.30764 98.4248 9.91907L99.0859 10.3859C102.104 12.5639 104.615 15.0156 106.646 17.5519C109.449 18.0623 112.119 18.9884 114.647 20.2208L114.659 20.2267C117.784 21.7741 120.714 23.8462 123.254 26.4474L123.757 26.9747L123.762 26.9806C130.37 34.1338 134.013 44.3284 133.505 54.0284C141.686 55.9347 149.54 59.1991 156.808 63.8556L156.809 63.8556C162.467 67.4499 165.958 73.4277 165.958 79.8536C165.958 84.4214 164.25 88.7785 161.229 92.2384L161.17 92.3068L161.105 92.3683C159.959 93.4649 158.097 95.1601 156.216 96.7023C155.275 97.473 154.31 98.2215 153.415 98.8429C153.22 98.9786 153.02 99.1109 152.821 99.2404C158.809 110.705 160.063 124.676 155.644 136.776C155.527 137.104 155.41 137.414 155.318 137.653C158.012 145.729 160.863 158.464 160.984 171.466C161.109 184.803 158.363 198.852 149.116 208.259L149.04 208.336L148.957 208.405C136.878 218.291 120.479 222.494 108.144 224.3L108.137 224.301C103.311 224.989 98.4757 225.353 93.8076 225.353C48.2133 225.352 13.9011 192.136 8.27734 143.207L8.27734 143.206C5.67866 120.659 7.94234 102.954 13.2451 89.0626C13.2343 89.0514 13.2228 89.0408 13.2119 89.0294L13.2119 89.0284C10.0251 85.7103 -0.744739 73.1465 2.65332 57.1017L2.6543 57.1017C3.91664 51.0406 6.99938 45.603 11.6992 41.0538L11.707 41.045C13.4292 39.3977 15.2973 37.9391 17.333 36.671C17.7177 31.3165 19.4059 24.7746 24.3652 19.0382C30.2283 12.2248 38.9 8.57052 48.667 8.57043C51.8465 8.57052 54.8319 8.96947 57.5508 9.5509C59.1368 8.2158 60.8771 7.07223 62.7383 6.09485L62.7441 6.09192C67.0787 3.8341 71.9661 2.64763 76.9355 2.64758L77.624 2.6554Z" fill="#252525" stroke="#FDB913" stroke-width="4"/>
<g filter="url(#filter3_n_680_532)">
<path d="M61.704 101.933C59.0728 129.209 73.9984 172.609 108.386 175.221C121.089 176.174 135.969 173.397 145.768 165.645C145.768 165.645 151.712 180.941 140.37 194.082C133.429 202.082 119.864 206.891 105.71 208.963C60.5245 215.513 31.7167 183.387 26.9986 142.432C21.9629 98.3263 35.9812 71.8381 67.2842 61.9724C90.5573 54.6353 99.4038 60.0242 102.67 63.2575C101.173 61.7652 77.038 62.6357 67.1934 83.5692C63.4734 91.4452 61.9762 99.3212 61.704 102.016" fill="#FFF200"/>
</g>
<g filter="url(#filter4_n_680_532)">
<path d="M99.8123 79.8798C101.083 83.7763 98.7688 87.9216 94.5497 89.1237C90.376 90.3258 85.93 88.1288 84.6144 84.2323C83.3441 80.3357 85.6579 76.1905 89.877 74.9884C94.0507 73.7862 98.4966 75.9832 99.8123 79.8798Z" fill="white"/>
</g>
<g filter="url(#filter5_n_680_532)">
<path d="M102.353 64.3352C107.751 63.672 112.742 57.9101 113.422 51.2777C114.239 43.4017 109.067 33.8261 102.852 33.453C98.9502 33.2043 96.0013 36.6449 94.9579 38.0128C94.7311 36.3962 93.3247 27.1108 85.7485 21.8463C84.1153 20.7271 78.0361 16.5404 72.7736 19.2763C68.2369 21.6391 65.8778 28.2715 67.511 35.4842C66.0593 33.453 63.4281 30.3026 59.3904 28.0227C54.1733 25.0382 44.0565 22.0536 39.1569 27.774C35.5275 32.0022 36.7071 38.6761 36.8885 39.8367C37.8866 44.894 40.8354 48.0858 41.9242 49.1221C40.8354 48.7905 31.0362 45.8888 24.6849 52.0653C23.8683 52.8943 21.6907 55.0498 20.9195 58.6562C19.2863 66.3664 25.6376 73.289 26.7718 74.4911C32.125 80.0872 40.1096 82.0355 46.4156 80.2116C52.7215 78.3876 52.1318 74.2838 59.6173 68.5219C67.375 62.5528 82.6182 57.9515 93.8237 61.8481C97.6799 63.1746 98.9502 64.7498 102.353 64.3352Z" fill="#ED1C24"/>
</g>
<g filter="url(#filter6_n_680_532)">
<path d="M110.065 70.636C114.148 69.9313 120.409 69.3509 127.985 70.7603C136.695 72.4184 143.364 75.9834 147.311 78.512C143.364 81.082 139.009 84.3568 134.609 88.3777C131.524 91.1965 128.847 94.0152 126.488 96.6682C128.847 98.4507 135.652 104.088 138.102 113.539C140.325 122.203 139.327 135.675 131.388 138.535C124.764 140.94 115.01 135.385 111.88 128.006C108.16 119.218 116.054 112.918 116.87 98.3263C117.505 87.0927 113.604 77.3098 110.065 70.5945L110.065 70.636Z" stroke="#540000" stroke-width="3.57" stroke-linecap="round" stroke-linejoin="round"/>
</g>
<g filter="url(#filter7_n_680_532)">
<path d="M110.065 70.636C114.148 69.9313 120.409 69.3509 127.985 70.7603C136.695 72.4184 143.364 75.9834 147.311 78.512C143.364 81.082 139.009 84.3568 134.609 88.3777C131.524 91.1965 128.847 94.0152 126.488 96.6682C128.847 98.4507 135.652 104.088 138.102 113.539C140.325 122.203 139.327 135.675 131.388 138.535C124.764 140.94 115.01 135.385 111.88 128.006C108.16 119.218 116.054 112.918 116.87 98.3263C117.505 87.0927 113.604 77.3098 110.065 70.5945" fill="#ED1C24"/>
</g>
<g filter="url(#filter8_n_680_532)">
<path d="M145.768 165.645C144.271 166.806 142.638 167.842 140.96 168.796C141.186 174.35 140.007 181.853 134.019 188.817C127.077 196.818 113.513 201.626 99.3584 203.699C79.76 206.518 63.2919 202.124 50.4531 192.838C63.927 205.606 82.7088 212.279 105.664 208.963C119.819 206.891 133.383 202.082 140.324 194.082C151.712 180.941 145.723 165.645 145.723 165.645" fill="#FAA61A"/>
</g>
<defs>
<filter id="filter0_n_680_532" x="53.5876" y="46.5936" width="79.5896" height="73.0394" filterUnits="userSpaceOnUse" color-interpolation-filters="sRGB">
<feFlood flood-opacity="0" result="BackgroundImageFix"/>
<feBlend mode="normal" in="SourceGraphic" in2="BackgroundImageFix" result="shape"/>
<feTurbulence type="fractalNoise" baseFrequency="0.20000000298023224 0.20000000298023224" stitchTiles="stitch" numOctaves="3" result="noise" seed="2663" />
<feColorMatrix in="noise" type="luminanceToAlpha" result="alphaNoise" />
<feComponentTransfer in="alphaNoise" result="coloredNoise1">
<feFuncA type="discrete" tableValues="0 0 0 0 0 0 0 0 0 0 0 0 0 0 0 0 1 1 1 1 1 1 1 1 1 1 1 1 1 1 1 1 1 1 0 0 0 0 0 0 0 0 0 0 0 0 0 0 0 0 0 0 0 0 0 0 0 0 0 0 0 0 0 0 0 0 0 0 0 0 0 0 0 0 0 0 0 0 0 0 0 0 0 0 0 0 0 0 0 0 0 0 0 0 0 0 0 0 0 0 "/>
</feComponentTransfer>
<feComposite operator="in" in2="shape" in="coloredNoise1" result="noise1Clipped" />
<feFlood flood-color="#252525" result="color1Flood" />
<feComposite operator="in" in2="noise1Clipped" in="color1Flood" result="color1" />
<feMerge result="effect1_noise_680_532">
<feMergeNode in="shape" />
<feMergeNode in="color1" />
</feMerge>
</filter>
<filter id="filter1_n_680_532" x="81.516" y="105.829" width="38.6205" height="51.2769" filterUnits="userSpaceOnUse" color-interpolation-filters="sRGB">
<feFlood flood-opacity="0" result="BackgroundImageFix"/>
<feBlend mode="normal" in="SourceGraphic" in2="BackgroundImageFix" result="shape"/>
<feTurbulence type="fractalNoise" baseFrequency="0.20000000298023224 0.20000000298023224" stitchTiles="stitch" numOctaves="3" result="noise" seed="2663" />
<feColorMatrix in="noise" type="luminanceToAlpha" result="alphaNoise" />
<feComponentTransfer in="alphaNoise" result="coloredNoise1">
<feFuncA type="discrete" tableValues="0 0 0 0 0 0 0 0 0 0 0 0 0 0 0 0 1 1 1 1 1 1 1 1 1 1 1 1 1 1 1 1 1 1 0 0 0 0 0 0 0 0 0 0 0 0 0 0 0 0 0 0 0 0 0 0 0 0 0 0 0 0 0 0 0 0 0 0 0 0 0 0 0 0 0 0 0 0 0 0 0 0 0 0 0 0 0 0 0 0 0 0 0 0 0 0 0 0 0 0 "/>
</feComponentTransfer>
<feComposite operator="in" in2="shape" in="coloredNoise1" result="noise1Clipped" />
<feFlood flood-color="#252525" result="color1Flood" />
<feComposite operator="in" in2="noise1Clipped" in="color1Flood" result="color1" />
<feMerge result="effect1_noise_680_532">
<feMergeNode in="shape" />
<feMergeNode in="color1" />
</feMerge>
</filter>
<filter id="filter2_n_680_532" x="65.696" y="78.6777" width="31.2042" height="29.0168" filterUnits="userSpaceOnUse" color-interpolation-filters="sRGB">
<feFlood flood-opacity="0" result="BackgroundImageFix"/>
<feBlend mode="normal" in="SourceGraphic" in2="BackgroundImageFix" result="shape"/>
<feTurbulence type="fractalNoise" baseFrequency="0.20000000298023224 0.20000000298023224" stitchTiles="stitch" numOctaves="3" result="noise" seed="2663" />
<feColorMatrix in="noise" type="luminanceToAlpha" result="alphaNoise" />
<feComponentTransfer in="alphaNoise" result="coloredNoise1">
<feFuncA type="discrete" tableValues="0 0 0 0 0 0 0 0 0 0 0 0 0 0 0 0 1 1 1 1 1 1 1 1 1 1 1 1 1 1 1 1 1 1 0 0 0 0 0 0 0 0 0 0 0 0 0 0 0 0 0 0 0 0 0 0 0 0 0 0 0 0 0 0 0 0 0 0 0 0 0 0 0 0 0 0 0 0 0 0 0 0 0 0 0 0 0 0 0 0 0 0 0 0 0 0 0 0 0 0 "/>
</feComponentTransfer>
<feComposite operator="in" in2="shape" in="coloredNoise1" result="noise1Clipped" />
<feFlood flood-color="#252525" result="color1Flood" />
<feComposite operator="in" in2="noise1Clipped" in="color1Flood" result="color1" />
<feMerge result="effect1_noise_680_532">
<feMergeNode in="shape" />
<feMergeNode in="color1" />
</feMerge>
</filter>
<filter id="filter3_n_680_532" x="25.9963" y="58.3008" width="121.328" height="151.513" filterUnits="userSpaceOnUse" color-interpolation-filters="sRGB">
<feFlood flood-opacity="0" result="BackgroundImageFix"/>
<feBlend mode="normal" in="SourceGraphic" in2="BackgroundImageFix" result="shape"/>
<feTurbulence type="fractalNoise" baseFrequency="0.20000000298023224 0.20000000298023224" stitchTiles="stitch" numOctaves="3" result="noise" seed="2663" />
<feColorMatrix in="noise" type="luminanceToAlpha" result="alphaNoise" />
<feComponentTransfer in="alphaNoise" result="coloredNoise1">
<feFuncA type="discrete" tableValues="0 0 0 0 0 0 0 0 0 0 0 0 0 0 0 0 1 1 1 1 1 1 1 1 1 1 1 1 1 1 1 1 1 1 0 0 0 0 0 0 0 0 0 0 0 0 0 0 0 0 0 0 0 0 0 0 0 0 0 0 0 0 0 0 0 0 0 0 0 0 0 0 0 0 0 0 0 0 0 0 0 0 0 0 0 0 0 0 0 0 0 0 0 0 0 0 0 0 0 0 "/>
</feComponentTransfer>
<feComposite operator="in" in2="shape" in="coloredNoise1" result="noise1Clipped" />
<feFlood flood-color="#252525" result="color1Flood" />
<feComposite operator="in" in2="noise1Clipped" in="color1Flood" result="color1" />
<feMerge result="effect1_noise_680_532">
<feMergeNode in="shape" />
<feMergeNode in="color1" />
</feMerge>
</filter>
<filter id="filter4_n_680_532" x="84.2667" y="74.6594" width="15.8932" height="14.7932" filterUnits="userSpaceOnUse" color-interpolation-filters="sRGB">
<feFlood flood-opacity="0" result="BackgroundImageFix"/>
<feBlend mode="normal" in="SourceGraphic" in2="BackgroundImageFix" result="shape"/>
<feTurbulence type="fractalNoise" baseFrequency="0.20000000298023224 0.20000000298023224" stitchTiles="stitch" numOctaves="3" result="noise" seed="2663" />
<feColorMatrix in="noise" type="luminanceToAlpha" result="alphaNoise" />
<feComponentTransfer in="alphaNoise" result="coloredNoise1">
<feFuncA type="discrete" tableValues="0 0 0 0 0 0 0 0 0 0 0 0 0 0 0 0 1 1 1 1 1 1 1 1 1 1 1 1 1 1 1 1 1 1 0 0 0 0 0 0 0 0 0 0 0 0 0 0 0 0 0 0 0 0 0 0 0 0 0 0 0 0 0 0 0 0 0 0 0 0 0 0 0 0 0 0 0 0 0 0 0 0 0 0 0 0 0 0 0 0 0 0 0 0 0 0 0 0 0 0 "/>
</feComponentTransfer>
<feComposite operator="in" in2="shape" in="coloredNoise1" result="noise1Clipped" />
<feFlood flood-color="#252525" result="color1Flood" />
<feComposite operator="in" in2="noise1Clipped" in="color1Flood" result="color1" />
<feMerge result="effect1_noise_680_532">
<feMergeNode in="shape" />
<feMergeNode in="color1" />
</feMerge>
</filter>
<filter id="filter5_n_680_532" x="20.6527" y="18.3645" width="92.8546" height="62.5103" filterUnits="userSpaceOnUse" color-interpolation-filters="sRGB">
<feFlood flood-opacity="0" result="BackgroundImageFix"/>
<feBlend mode="normal" in="SourceGraphic" in2="BackgroundImageFix" result="shape"/>
<feTurbulence type="fractalNoise" baseFrequency="0.20000000298023224 0.20000000298023224" stitchTiles="stitch" numOctaves="3" result="noise" seed="2663" />
<feColorMatrix in="noise" type="luminanceToAlpha" result="alphaNoise" />
<feComponentTransfer in="alphaNoise" result="coloredNoise1">
<feFuncA type="discrete" tableValues="0 0 0 0 0 0 0 0 0 0 0 0 0 0 0 0 1 1 1 1 1 1 1 1 1 1 1 1 1 1 1 1 1 1 0 0 0 0 0 0 0 0 0 0 0 0 0 0 0 0 0 0 0 0 0 0 0 0 0 0 0 0 0 0 0 0 0 0 0 0 0 0 0 0 0 0 0 0 0 0 0 0 0 0 0 0 0 0 0 0 0 0 0 0 0 0 0 0 0 0 "/>
</feComponentTransfer>
<feComposite operator="in" in2="shape" in="coloredNoise1" result="noise1Clipped" />
<feFlood flood-color="#252525" result="color1Flood" />
<feComposite operator="in" in2="noise1Clipped" in="color1Flood" result="color1" />
<feMerge result="effect1_noise_680_532">
<feMergeNode in="shape" />
<feMergeNode in="color1" />
</feMerge>
</filter>
<filter id="filter6_n_680_532" x="108.28" y="68.1113" width="40.8162" height="72.7778" filterUnits="userSpaceOnUse" color-interpolation-filters="sRGB">
<feFlood flood-opacity="0" result="BackgroundImageFix"/>
<feBlend mode="normal" in="SourceGraphic" in2="BackgroundImageFix" result="shape"/>
<feTurbulence type="fractalNoise" baseFrequency="0.20000000298023224 0.20000000298023224" stitchTiles="stitch" numOctaves="3" result="noise" seed="2663" />
<feColorMatrix in="noise" type="luminanceToAlpha" result="alphaNoise" />
<feComponentTransfer in="alphaNoise" result="coloredNoise1">
<feFuncA type="discrete" tableValues="0 0 0 0 0 0 0 0 0 0 0 0 0 0 0 0 1 1 1 1 1 1 1 1 1 1 1 1 1 1 1 1 1 1 0 0 0 0 0 0 0 0 0 0 0 0 0 0 0 0 0 0 0 0 0 0 0 0 0 0 0 0 0 0 0 0 0 0 0 0 0 0 0 0 0 0 0 0 0 0 0 0 0 0 0 0 0 0 0 0 0 0 0 0 0 0 0 0 0 0 "/>
</feComponentTransfer>
<feComposite operator="in" in2="shape" in="coloredNoise1" result="noise1Clipped" />
<feFlood flood-color="#252525" result="color1Flood" />
<feComposite operator="in" in2="noise1Clipped" in="color1Flood" result="color1" />
<feMerge result="effect1_noise_680_532">
<feMergeNode in="shape" />
<feMergeNode in="color1" />
</feMerge>
</filter>
<filter id="filter7_n_680_532" x="110.065" y="69.8965" width="37.2461" height="69.2068" filterUnits="userSpaceOnUse" color-interpolation-filters="sRGB">
<feFlood flood-opacity="0" result="BackgroundImageFix"/>
<feBlend mode="normal" in="SourceGraphic" in2="BackgroundImageFix" result="shape"/>
<feTurbulence type="fractalNoise" baseFrequency="0.20000000298023224 0.20000000298023224" stitchTiles="stitch" numOctaves="3" result="noise" seed="2663" />
<feColorMatrix in="noise" type="luminanceToAlpha" result="alphaNoise" />
<feComponentTransfer in="alphaNoise" result="coloredNoise1">
<feFuncA type="discrete" tableValues="0 0 0 0 0 0 0 0 0 0 0 0 0 0 0 0 1 1 1 1 1 1 1 1 1 1 1 1 1 1 1 1 1 1 0 0 0 0 0 0 0 0 0 0 0 0 0 0 0 0 0 0 0 0 0 0 0 0 0 0 0 0 0 0 0 0 0 0 0 0 0 0 0 0 0 0 0 0 0 0 0 0 0 0 0 0 0 0 0 0 0 0 0 0 0 0 0 0 0 0 "/>
</feComponentTransfer>
<feComposite operator="in" in2="shape" in="coloredNoise1" result="noise1Clipped" />
<feFlood flood-color="#252525" result="color1Flood" />
<feComposite operator="in" in2="noise1Clipped" in="color1Flood" result="color1" />
<feMerge result="effect1_noise_680_532">
<feMergeNode in="shape" />
<feMergeNode in="color1" />
</feMerge>
</filter>
<filter id="filter8_n_680_532" x="50.4531" y="165.645" width="96.8436" height="44.1624" filterUnits="userSpaceOnUse" color-interpolation-filters="sRGB">
<feFlood flood-opacity="0" result="BackgroundImageFix"/>
<feBlend mode="normal" in="SourceGraphic" in2="BackgroundImageFix" result="shape"/>
<feTurbulence type="fractalNoise" baseFrequency="0.20000000298023224 0.20000000298023224" stitchTiles="stitch" numOctaves="3" result="noise" seed="2663" />
<feColorMatrix in="noise" type="luminanceToAlpha" result="alphaNoise" />
<feComponentTransfer in="alphaNoise" result="coloredNoise1">
<feFuncA type="discrete" tableValues="0 0 0 0 0 0 0 0 0 0 0 0 0 0 0 0 1 1 1 1 1 1 1 1 1 1 1 1 1 1 1 1 1 1 0 0 0 0 0 0 0 0 0 0 0 0 0 0 0 0 0 0 0 0 0 0 0 0 0 0 0 0 0 0 0 0 0 0 0 0 0 0 0 0 0 0 0 0 0 0 0 0 0 0 0 0 0 0 0 0 0 0 0 0 0 0 0 0 0 0 "/>
</feComponentTransfer>
<feComposite operator="in" in2="shape" in="coloredNoise1" result="noise1Clipped" />
<feFlood flood-color="#252525" result="color1Flood" />
<feComposite operator="in" in2="noise1Clipped" in="color1Flood" result="color1" />
<feMerge result="effect1_noise_680_532">
<feMergeNode in="shape" />
<feMergeNode in="color1" />
</feMerge>
</filter>
</defs>
</svg>
