<svg width="56" height="56" viewBox="0 0 56 56" fill="none" xmlns="http://www.w3.org/2000/svg">
<path d="M28 0.5C43.1878 0.5 55.5 12.8122 55.5 28C55.5 43.1878 43.1878 55.5 28 55.5C12.8122 55.5 0.5 43.1878 0.5 28C0.5 12.8122 12.8122 0.5 28 0.5Z" fill="#FEF2F2"/>
<path d="M28 0.5C43.1878 0.5 55.5 12.8122 55.5 28C55.5 43.1878 43.1878 55.5 28 55.5C12.8122 55.5 0.5 43.1878 0.5 28C0.5 12.8122 12.8122 0.5 28 0.5Z" stroke="#EC008C"/>
<path fill-rule="evenodd" clip-rule="evenodd" d="M33.724 20.3905L35.6096 22.2761L29.8857 28L35.6096 33.7239L33.724 35.6095L28.0001 29.8856L22.2762 35.6095L20.3906 33.7239L26.1145 28L20.3906 22.2761L22.2762 20.3905L28.0001 26.1144L33.724 20.3905Z" fill="black"/>
</svg>
