<svg width="170" height="80" viewBox="0 0 170 80" fill="none" xmlns="http://www.w3.org/2000/svg">
<g clip-path="url(#clip0_4_41)">
<path d="M161.291 53.154C161.792 52.8069 162.242 52.4078 162.622 51.9219C163.278 51.0195 163.607 49.961 163.607 48.8677C163.607 48.4338 163.555 48 163.451 47.5662L163.417 47.462V47.3406L163.33 47.1844V47.0803L162.414 44.5119C161.74 43.0716 160.652 40.7809 160.583 40.6074C158.975 36.4425 155.847 36.1996 153.791 36.0607L153.307 36.026H153.151L151.993 35.9046C148.33 35.4707 146.014 36.0781 144.458 36.4946L143.905 36.6334L143.75 36.7028C142.765 37.0325 141.762 37.5531 140.795 38.2299C139.412 36.6855 137.511 35.9913 135.403 36.3037L134.953 36.3731C134.072 36.5293 132.033 36.8764 129.078 36.8764H119.261C119.313 36.7028 119.365 36.4078 119.4 35.8872C119.434 35.1236 119.158 34.6898 119.071 34.5336C118.881 34.2213 118.553 33.9783 118.225 33.8742C117.222 33.718 116.807 33.2842 116.686 32.7115L116.721 32.0174V30.9588V30.9241C120.195 31.41 124.031 30.9935 127.764 28.2343C131.514 25.423 134.158 21.4143 134.037 16.3644C134.037 12.9111 132.517 9.54447 129.821 7.08026C125.95 3.57484 120.955 3.66161 119.071 3.69631V3.6269H74.6395C73.0668 3.60955 71.6843 4.23427 70.7338 5.25814C70.2499 4.94577 69.8005 4.66811 69.3339 4.45987C67.1737 3.43601 64.927 2.37744 60.1572 2.37744C49.4079 2.37744 40.9916 11.1584 40.9916 22.3514C40.9916 27.6269 43.3073 32.9024 47.2476 36.8069C44.206 37.1193 41.2854 38.1258 38.6758 39.7397C38.4338 39.2885 38.14 38.8547 37.7598 38.4729C36.7575 37.4837 35.3749 36.9111 33.9578 36.9111H25.2823C23.6578 36.9111 22.1543 37.6573 21.1519 38.8894C19.6138 37.6052 17.4536 36.9284 14.6712 36.9111H10.2643C7.23995 36.9111 6.15119 38.3167 5.25253 40.9024C5.25253 40.9544 4.73407 43.0889 4.73407 43.0889C4.68222 43.3319 4.66494 43.5748 4.66494 43.8178C4.66494 45.4837 5.71914 46.9588 7.65472 47.9826L7.60287 47.9479C7.60287 47.9479 7.65472 47.9826 7.672 47.9826C7.672 48.0347 7.74113 48.1909 7.74113 48.7809C7.74113 48.833 7.74113 48.9024 7.74113 48.9718C7.74113 48.9718 7.59135 53.7672 7.2918 63.3579C7.2918 65.6486 6.89431 65.7874 6.77334 65.8395C4.50941 66.5683 4.16377 67.4881 3.38608 69.6226L3.28239 69.8829L2.97131 71.6703V71.705C2.97131 73.0759 3.38608 74.0651 4.37115 75.0369C5.26981 75.9393 6.85975 76.5293 8.38056 76.5293H17.3499C18.8534 76.5293 20.236 75.9913 21.2383 74.9848C22.0851 74.1518 22.569 73.0412 22.69 71.8265C25.1095 75.7137 27.4425 76.4946 30.8125 76.4078H31.7112C33.7159 76.4078 35.807 76.2343 37.3796 74.6204C37.3796 74.6204 37.6389 74.308 37.8462 74.0477C41.1989 76.3731 45.1219 77.6399 49.235 77.6399C52.8988 77.6399 56.3379 76.564 59.2067 74.551C62.2656 76.321 65.7393 77.2755 69.2821 77.2755C71.9608 77.2755 74.5704 76.7375 77.0417 75.6963C77.8366 76.1649 78.7353 76.4252 79.6685 76.4252H91.0227C94.531 76.4252 97.7281 75.5748 100.562 73.9436C100.735 74.2386 100.943 74.5336 101.185 74.7766C102.204 75.7831 103.552 76.3384 104.987 76.3384H136.664C138.531 76.3384 140.812 76.3037 142.125 75.1584C144.649 76.3905 147.707 76.9805 151.268 76.8764C159.684 76.7722 165.56 71.0456 165.56 62.9588C165.56 59.436 164.056 56 161.395 53.1887" fill="white"/>
<path d="M161.291 53.154C161.792 52.8069 162.242 52.4078 162.622 51.9219C163.278 51.0195 163.607 49.961 163.607 48.8677C163.607 48.4338 163.555 48 163.451 47.5662L163.417 47.462V47.3406L163.33 47.1844V47.0803L162.414 44.5119C161.74 43.0716 160.652 40.7809 160.583 40.6074C158.975 36.4425 155.847 36.1996 153.791 36.0607L153.307 36.026H153.151L151.993 35.9046C148.33 35.4707 146.014 36.0781 144.458 36.4946L143.905 36.6334L143.75 36.7028C142.765 37.0325 141.762 37.5531 140.795 38.2299C139.412 36.6855 137.511 35.9913 135.403 36.3037L134.953 36.3731C134.072 36.5293 132.033 36.8764 129.078 36.8764H119.261C119.313 36.7028 119.365 36.4078 119.4 35.8872C119.434 35.1236 119.158 34.6898 119.071 34.5336C118.881 34.2213 118.553 33.9783 118.225 33.8742C117.222 33.718 116.807 33.2842 116.686 32.7115L116.721 32.0174V30.9588V30.9241C120.195 31.41 124.031 30.9935 127.764 28.2343C131.514 25.423 134.158 21.4143 134.037 16.3644C134.037 12.9111 132.517 9.54447 129.821 7.08026C125.95 3.57484 120.955 3.66161 119.071 3.69631V3.6269H74.6395C73.0668 3.60955 71.6843 4.23427 70.7338 5.25814C70.2499 4.94577 69.8005 4.66811 69.3339 4.45987C67.1737 3.43601 64.927 2.37744 60.1572 2.37744C49.4079 2.37744 40.9916 11.1584 40.9916 22.3514C40.9916 27.6269 43.3073 32.9024 47.2476 36.8069C44.206 37.1193 41.2854 38.1258 38.6758 39.7397C38.4338 39.2885 38.14 38.8547 37.7598 38.4729C36.7575 37.4837 35.3749 36.9111 33.9578 36.9111H25.2823C23.6578 36.9111 22.1543 37.6573 21.1519 38.8894C19.6138 37.6052 17.4536 36.9284 14.6712 36.9111H10.2643C7.23995 36.9111 6.15119 38.3167 5.25253 40.9024C5.25253 40.9544 4.73407 43.0889 4.73407 43.0889C4.68222 43.3319 4.66494 43.5748 4.66494 43.8178C4.66494 45.4837 5.71914 46.9588 7.65472 47.9826L7.60287 47.9479C7.60287 47.9479 7.65472 47.9826 7.672 47.9826C7.672 48.0347 7.74113 48.1909 7.74113 48.7809C7.74113 48.833 7.74113 48.9024 7.74113 48.9718C7.74113 48.9718 7.59135 53.7672 7.2918 63.3579C7.2918 65.6486 6.89431 65.7874 6.77334 65.8395C4.50941 66.5683 4.16377 67.4881 3.38608 69.6226L3.28239 69.8829L2.97131 71.6703V71.705C2.97131 73.0759 3.38608 74.0651 4.37115 75.0369C5.26981 75.9393 6.85975 76.5293 8.38056 76.5293H17.3499C18.8534 76.5293 20.236 75.9913 21.2383 74.9848C22.0851 74.1518 22.569 73.0412 22.69 71.8265C25.1095 75.7137 27.4425 76.4946 30.8125 76.4078H31.7112C33.7159 76.4078 35.807 76.2343 37.3796 74.6204C37.3796 74.6204 37.6389 74.308 37.8462 74.0477C41.1989 76.3731 45.1219 77.6399 49.235 77.6399C52.8988 77.6399 56.3379 76.564 59.2067 74.551C62.2656 76.321 65.7393 77.2755 69.2821 77.2755C71.9608 77.2755 74.5703 76.7375 77.0417 75.6963C77.8366 76.1649 78.7353 76.4252 79.6685 76.4252H91.0227C94.531 76.4252 97.7281 75.5748 100.562 73.9436C100.735 74.2386 100.943 74.5336 101.185 74.7766C102.204 75.7831 103.552 76.3384 104.987 76.3384H136.664C138.531 76.3384 140.812 76.3037 142.125 75.1584C144.649 76.3905 147.707 76.9805 151.268 76.8764C159.684 76.7722 165.56 71.0456 165.56 62.9588C165.56 59.436 164.056 56 161.395 53.1887L161.291 53.154Z" stroke="white" stroke-width="2.75" stroke-linecap="round" stroke-linejoin="round"/>
<path d="M161.291 53.154C161.792 52.8069 162.242 52.4078 162.622 51.9219C163.278 51.0195 163.607 49.961 163.607 48.8677C163.607 48.4338 163.555 48 163.451 47.5662L163.417 47.462V47.3406L163.33 47.1844V47.0803L162.414 44.5119C161.74 43.0716 160.652 40.7809 160.583 40.6074C158.975 36.4425 155.847 36.1996 153.791 36.0607L153.307 36.026H153.151L151.993 35.9046C148.33 35.4707 146.014 36.0781 144.458 36.4946L143.905 36.6334L143.75 36.7028C142.765 37.0325 141.762 37.5531 140.795 38.2299C139.412 36.6855 137.511 35.9913 135.403 36.3037L134.953 36.3731C134.072 36.5293 132.033 36.8764 129.078 36.8764H119.261C119.313 36.7028 119.365 36.4078 119.4 35.8872C119.434 35.1236 119.158 34.6898 119.071 34.5336C118.881 34.2213 118.553 33.9783 118.225 33.8742C117.222 33.718 116.807 33.2842 116.686 32.7115L116.721 32.0174V30.9588V30.9241C120.195 31.41 124.031 30.9935 127.764 28.2343C131.514 25.423 134.158 21.4143 134.037 16.3644C134.037 12.9111 132.517 9.54447 129.821 7.08026C125.95 3.57484 120.955 3.66161 119.071 3.69631V3.6269H74.6395C73.0668 3.60955 71.6843 4.23427 70.7338 5.25814C70.2499 4.94577 69.8005 4.66811 69.3339 4.45987C67.1737 3.43601 64.927 2.37744 60.1572 2.37744C49.4079 2.37744 40.9916 11.1584 40.9916 22.3514C40.9916 27.6269 43.3073 32.9024 47.2476 36.8069C44.206 37.1193 41.2854 38.1258 38.6758 39.7397C38.4338 39.2885 38.14 38.8547 37.7598 38.4729C36.7575 37.4837 35.3749 36.9111 33.9578 36.9111H25.2823C23.6578 36.9111 22.1543 37.6573 21.1519 38.8894C19.6138 37.6052 17.4536 36.9284 14.6712 36.9111H10.2643C7.23995 36.9111 6.15119 38.3167 5.25253 40.9024C5.25253 40.9544 4.73407 43.0889 4.73407 43.0889C4.68222 43.3319 4.66494 43.5748 4.66494 43.8178C4.66494 45.4837 5.71914 46.9588 7.65472 47.9826L7.60287 47.9479C7.60287 47.9479 7.65472 47.9826 7.672 47.9826C7.672 48.0347 7.74113 48.1909 7.74113 48.7809C7.74113 48.833 7.74113 48.9024 7.74113 48.9718C7.74113 48.9718 7.59135 53.7672 7.2918 63.3579C7.2918 65.6486 6.89431 65.7874 6.77334 65.8395C4.50941 66.5683 4.16377 67.4881 3.38608 69.6226L3.28239 69.8829L2.97131 71.6703V71.705C2.97131 73.0759 3.38608 74.0651 4.37115 75.0369C5.26981 75.9393 6.85975 76.5293 8.38056 76.5293H17.3499C18.8534 76.5293 20.236 75.9913 21.2383 74.9848C22.0851 74.1518 22.569 73.0412 22.69 71.8265C25.1095 75.7137 27.4425 76.4946 30.8125 76.4078H31.7112C33.7159 76.4078 35.807 76.2343 37.3796 74.6204C37.3796 74.6204 37.6389 74.308 37.8462 74.0477C41.1989 76.3731 45.1219 77.6399 49.235 77.6399C52.8988 77.6399 56.3379 76.564 59.2067 74.551C62.2656 76.321 65.7393 77.2755 69.2821 77.2755C71.9608 77.2755 74.5704 76.7375 77.0417 75.6963C77.8366 76.1649 78.7353 76.4252 79.6685 76.4252H91.0227C94.531 76.4252 97.7281 75.5748 100.562 73.9436C100.735 74.2386 100.943 74.5336 101.185 74.7766C102.204 75.7831 103.552 76.3384 104.987 76.3384H136.664C138.531 76.3384 140.812 76.3037 142.125 75.1584C144.649 76.3905 147.707 76.9805 151.268 76.8764C159.684 76.7722 165.56 71.0456 165.56 62.9588C165.56 59.436 164.056 56 161.395 53.1887" fill="#ED1C24"/>
<path d="M34.5108 70.2299C34.5108 69.4143 33.8541 69.0499 33.2838 68.7375C32.9555 68.564 32.6098 68.3731 32.3506 68.1128C31.7285 67.4881 31.4001 66.1866 31.4174 64.59C31.4174 64.0347 31.4692 51.4013 31.4692 50.8633C31.4692 45.8135 32.8518 44.4599 34.1998 43.8178C34.6145 43.6269 34.9083 43.1757 34.9083 42.7592V42.1518C34.9083 41.9436 34.8219 41.7527 34.6491 41.5792C34.4417 41.3883 34.1652 41.2668 33.906 41.2668H25.2304C24.7811 41.2668 24.2281 41.6659 24.2281 42.1518V42.846C24.2281 43.1236 24.4009 43.5575 25.1786 43.9046C27.3043 44.8243 28.4622 47.5488 28.4449 51.6095V60.4946C28.4449 60.4946 28.4103 60.5466 28.393 60.5466C28.3758 60.5466 28.3585 60.5466 28.3585 60.5293L18.767 42.7419C18.6115 42.4121 17.8338 41.2842 14.6021 41.2668H10.0742C9.57302 41.2668 9.15825 41.6486 8.98543 42.1866L8.8299 42.846C8.60523 43.6963 8.95087 43.9566 9.36564 44.1649C9.4002 44.1822 9.43476 44.2169 9.50389 44.2343C11.8715 45.5705 12.0271 47.8438 12.0098 49.0586V49.3015L11.5777 63.3926C11.5777 65.9089 11.2494 68.6161 8.32872 69.692C8.29416 69.692 8.24231 69.7267 8.19046 69.7267C7.89667 69.8308 7.48191 69.9002 7.25724 70.6117L7.06714 71.3753C7.06714 71.5835 7.15355 71.7744 7.32637 71.9306C7.49919 72.1215 7.75842 72.2256 8.01764 72.2256H16.8487C17.2116 72.2256 17.4709 72.1388 17.661 71.9479C17.8338 71.7918 17.9202 71.5488 17.9202 71.2712V70.7332C17.9202 70.4555 17.7819 70.0738 17.1943 69.8482C15.0514 69.102 14.8267 65.0412 14.8267 63.3232L15.2761 49.8915C15.2761 49.8915 15.2761 49.8742 15.2933 49.8568H15.3279C15.3279 49.8568 15.3625 49.8568 15.3797 49.8915C15.4662 50.0304 24.833 66.9328 26.0081 69.0152C27.719 72.0347 28.5313 72.1735 30.6915 72.1215C31.0026 72.1215 31.3482 72.1215 31.7285 72.1215C33.1801 72.1215 33.906 72 34.2689 71.6356C34.58 71.3059 34.58 70.9067 34.5627 70.4902C34.5627 70.4035 34.5627 70.3341 34.5627 70.2299" fill="white"/>
<path d="M55.422 67.3319L55.1627 66.9848L54.9035 67.3319C54.0221 68.5119 52.8988 69.2581 51.6718 69.5011C47.8525 70.2299 42.979 67.3666 41.3026 59.3319C41.078 58.3254 40.9916 57.1627 41.0607 55.9653V55.8265L40.9743 55.7224C40.3867 55.1323 39.9374 54.4035 39.7473 53.7267C39.4362 52.564 39.5399 51.2972 40.0065 50.1518C40.0583 51.2104 40.3694 52.3558 40.8706 53.2234L41.2508 53.8829L41.2854 53.7614C42.6506 55.3753 45.0701 55.7918 46.8156 55.3232C48.0599 54.9935 49.4251 53.5532 49.6844 52.2863C49.8226 51.6269 49.6498 51.0542 49.1832 50.6725C48.8894 50.4469 48.0253 49.7354 47.1439 50.4295C46.9365 50.5857 46.6082 50.6551 46.228 50.5857C45.6058 50.4816 45.001 50.0824 44.6208 49.5098C44.2233 48.9197 44.1023 48.0694 44.327 47.3059C44.5516 46.4902 45.1219 45.8308 45.9342 45.449C46.0552 45.397 46.3662 45.2408 46.5736 45.2061C48.8376 44.7722 51.3089 46.0738 53.3481 48.7636L53.6592 49.1627L53.9012 48.7115C54.8171 46.9414 56.0268 45.3449 57.5131 43.974L57.8069 43.6963L57.4612 43.4707C54.9554 41.8915 52.0693 41.0759 49.1141 41.0759C40.3521 41.0759 33.2147 48.3297 33.2147 57.2321C33.2147 61.6226 34.9256 65.7354 38.0191 68.807C41.0088 71.7571 44.9491 73.3883 49.1141 73.3883C52.2767 73.3883 55.3183 72.4339 57.9279 70.6638L58.2735 70.4382L57.9624 70.1779C57.0119 69.3623 56.1478 68.4078 55.3701 67.3666" fill="white"/>
<path d="M157.213 55.2191C155.916 54.1084 152.443 52.269 150.006 51.2451C148.243 50.5163 146.083 49.2147 145.685 47.2364C145.651 47.0803 145.634 46.9241 145.634 46.6811C145.634 45.9523 145.789 44.9284 146.515 44.2516C147.051 43.731 147.811 43.5054 148.796 43.5575C149.246 43.5922 150.887 43.7831 152.529 45.5705C153.462 46.5944 154.154 47.41 154.707 48.0694C155.986 49.5965 156.504 50.2212 157.575 50.0651C157.61 50.0651 157.627 50.0651 157.662 50.0651C157.99 50.0304 158.751 49.9783 159.096 49.4924C159.217 49.3189 159.338 49.0412 159.235 48.6421V48.6074L157.005 43.4534C156.936 43.2451 156.85 43.0542 156.763 42.8807C156.729 42.7419 156.677 42.603 156.608 42.4642C155.761 40.6421 154.81 40.5553 152.927 40.3991C152.495 40.3644 152.011 40.3124 151.475 40.2603C148.416 39.8959 146.688 40.4338 145.305 40.7983C145.305 40.7983 144.217 41.1453 144.372 41.18C143.11 41.7874 142.281 42.6377 142.229 42.6898C141.901 43.0195 141.348 43.5748 140.847 44.3731L140.743 44.5119L140.829 44.6681L142.022 47.2885C142.022 47.2885 142.056 47.3579 142.074 47.3926L142.108 47.4967C142.471 48.6421 142.143 49.423 141.814 49.8568C141.607 50.1345 141.14 50.603 140.294 50.7419L139.931 50.7939L140.052 51.141C140.691 53.1714 142.575 54.7505 143.629 55.5141C143.629 55.5314 143.664 55.5488 143.698 55.5662C144.389 56.0521 144.856 56.3124 144.873 56.3124L145.236 56.5032C146.29 57.1106 147.466 57.7006 148.606 58.2733C149.712 58.846 150.766 59.3666 151.63 59.8698C154.378 61.449 155.605 62.9761 155.657 64.8156C155.726 67.2104 154.033 68.9978 151.561 69.1887C150.507 69.2755 148.399 69.0672 147.12 67.8351C146.377 67.1236 146.031 66.1692 146.1 64.9718C146.118 64.3471 146.446 63.8612 147.12 63.41C147.759 62.9935 147.949 62.4208 147.707 61.5878C147.258 60.026 145.685 60.026 144.355 60.2169C143.422 60.3384 142.004 61.0325 141.071 62.3167L140.847 62.6291L141.192 62.8026C141.192 62.8026 141.244 62.8026 141.279 62.8373C141.313 62.8547 141.348 62.872 141.4 62.8894C142.678 63.5488 143.197 64.7983 142.696 66.0824L141.607 69.3796L141.555 69.5531L141.676 69.692C144.234 72.5206 149.055 72.6941 151.026 72.6421H151.112C157.213 72.5727 161.153 68.7896 161.153 63.0282C161.153 60.2343 159.736 57.4056 157.247 55.2711" fill="white"/>
<path d="M135.731 72.0521C135.904 72.0521 136.059 72.0521 136.215 72.0694C136.612 72.1388 137.01 72.2082 137.321 72.2777C137.615 72.3471 137.839 72.3818 138.012 72.4165C138.911 72.538 139.205 71.7744 139.291 71.5141V71.4794L141.227 65.5792C141.227 65.5792 141.244 65.5445 141.261 65.5271C141.521 64.8503 141.296 64.3471 140.605 64C139.308 63.3406 138.773 63.9306 138.202 64.5553C138.133 64.6247 138.081 64.7115 138.012 64.7809L137.632 65.1974C137.269 65.5792 136.958 65.9262 136.492 66.3601C133.45 69.154 129.821 68.8243 129.129 68.7202H129.06C128.594 68.7202 128.283 68.6334 128.11 68.4599C127.902 68.269 127.816 67.9046 127.816 67.3319V56.295C127.833 56.1388 127.902 55.9826 128.041 55.8438C128.179 55.7223 128.352 55.6529 128.525 55.6529C128.784 55.6529 129.164 55.6529 129.596 55.6876C129.7 55.6876 129.821 55.705 129.924 55.7223C129.907 55.7223 129.994 55.7223 129.994 55.7223C130.028 55.7223 130.063 55.7223 130.114 55.7223L130.477 55.757C132.793 56 133.692 57.3536 134.279 58.256C134.4 58.4468 134.487 58.603 134.608 58.7419C135.351 59.7137 136.215 59.6095 136.889 59.4187C137.442 59.2451 137.822 58.9675 138.012 58.603C138.151 58.2733 138.151 57.9089 137.978 57.5098C137.822 57.128 137.511 56.1735 137.166 55.1497C136.751 53.8308 136.25 52.3384 135.921 51.5054C135.282 49.9783 135.109 49.718 133.709 49.8221C132.43 49.9262 132.188 50.603 131.998 51.0889C131.946 51.2278 131.895 51.3492 131.843 51.4534C131.549 51.9045 131.221 52.0087 130.166 52.0954H128.49C128.317 52.0954 128.179 52.026 128.058 51.9045C127.937 51.7831 127.868 51.6095 127.868 51.436L127.833 46.3167V46.1952C127.833 45.6573 127.833 45.1019 128.041 44.8937C128.075 44.859 128.162 44.7722 128.421 44.7722H128.836C130.305 44.7549 132.534 44.7028 134.936 46.6638L136.388 47.8612C138.047 49.2321 138.341 49.475 139.205 49.5445C139.326 49.5445 139.499 49.5098 139.758 49.4056C139.81 49.4056 139.861 49.3709 139.896 49.3709C140.276 49.2668 140.535 49.0933 140.674 48.833C140.898 48.4512 140.743 48.0347 140.674 47.8438V47.8091V47.7744L138.151 42.1865C137.667 40.9197 136.993 40.3991 135.973 40.5727C135.904 40.5727 135.818 40.5727 135.714 40.6074C134.815 40.7635 132.448 41.1453 128.991 41.1453H118.95C118.449 41.1453 118.052 41.7006 118.052 42.1518V42.846C118.052 43.3145 118.449 43.4534 118.726 43.5575C118.76 43.5575 118.812 43.5922 118.847 43.5922C121.145 44.4772 121.335 45.9696 121.335 47.3059V62.0911V62.4902L121.733 62.4035C122.407 62.2473 123.15 62.3688 123.962 62.7679C125.224 63.4273 125.725 64.5727 125.241 65.8742L123.236 72.1388L135.8 72.0694L135.731 72.0521Z" fill="white"/>
<path d="M79.7722 66.3774V49.9436H79.4611C78.7871 49.9089 78.1477 49.5618 77.5947 48.885C76.6096 47.705 76.5923 46.2994 77.5083 45.154C77.7502 44.8764 78.0786 44.5119 78.4415 44.1302L78.718 43.8698L78.4069 43.6443C75.6937 41.6833 72.5138 40.6421 69.2129 40.6421C60.4337 40.6421 53.3309 47.8785 53.3309 56.7983C53.3309 61.1887 55.0245 65.3015 58.1352 68.3731C61.1077 71.3406 65.0653 72.9545 69.2302 72.9545C72.0818 72.9545 74.8987 72.1562 77.3873 70.6464L77.5083 70.577V70.4382C77.6638 69.6573 78.044 69.0846 78.7526 68.6855C79.7722 68.0607 79.8068 67.9219 79.8068 66.3601M61.0213 55.3406C60.4337 54.7505 59.9844 54.0217 59.8116 53.3449C59.5005 52.1822 59.6042 50.9154 60.0708 49.7874C60.1054 50.846 60.4164 51.974 60.9176 52.859L61.2978 53.5184L61.3324 53.397C62.7149 55.0108 65.0999 55.4273 66.8799 54.9588C68.1069 54.6291 69.4722 53.1887 69.7487 51.9393C69.8869 51.2625 69.7141 50.7072 69.2475 50.3427C68.9537 50.1171 68.0896 49.4056 67.2255 50.0824C67.0181 50.2386 66.6898 50.308 66.2923 50.2386C65.6529 50.1518 65.0826 49.7527 64.6851 49.1627C64.2876 48.5727 64.1839 47.7223 64.3913 46.9414C64.616 46.1258 65.1863 45.4664 65.9985 45.102C66.1195 45.0325 66.4478 44.8937 66.6379 44.859C70.7165 44.0781 75.1752 48.885 76.5578 55.5835C77.4564 59.8698 76.938 64.0347 75.1406 66.6898C74.2247 68.0434 73.0495 68.8937 71.7015 69.1367C67.8822 69.8655 63.026 67.0022 61.3324 58.9675C61.125 57.961 61.0386 56.7983 61.0904 55.6009V55.462L61.004 55.3753L61.0213 55.3406Z" fill="white"/>
<path d="M101.219 45.1714C98.3676 42.2039 94.2545 40.6941 90.1068 40.7809C89.0526 40.7983 85.8727 40.885 83.0731 42.3254C80.9819 43.4013 79.2538 45.154 78.5798 46.0043C77.7848 46.9935 78.4242 47.7744 78.6489 48.0347C79.2538 48.7809 79.7031 48.6247 80.0142 48.4165C80.0314 48.4165 80.0487 48.3991 80.066 48.3818C80.3425 48.2603 80.6882 48.2256 80.8955 48.2256C80.9819 48.2256 81.0338 48.243 81.0684 48.295C81.1029 48.3297 81.1202 48.3818 81.1202 48.4685V66.1866V66.3774C81.1202 68.1996 81.1202 68.8069 79.392 69.8655C78.7871 70.2126 78.7871 70.6985 78.7871 70.9761V71.3579C78.7871 71.6356 78.8908 71.8091 78.9945 71.9132C79.0982 72.0174 79.271 72.1215 79.5821 72.1215H90.9363C99.3354 72.1215 105.004 65.9089 105.228 56.6768C105.349 52.2863 103.932 48 101.219 45.1714ZM96.1728 66.0824C94.1508 68.4772 91.714 69.5532 90.1932 69.5532C90.055 69.5532 89.9167 69.5532 89.7785 69.5532C89.6402 69.5532 89.5019 69.5532 89.3637 69.5532C88.9316 69.5532 88.5341 69.397 88.2231 69.0846C87.912 68.7896 87.7565 68.3905 87.7565 67.9566V46.0738C87.7565 44.5987 88.7761 44.3037 89.381 44.269C89.6748 44.269 89.8994 44.2516 90.1587 44.2516C92.5781 44.2516 95.1531 45.9523 96.8813 48.6768L97.2442 49.423C97.9701 50.898 101.323 58.5336 96.4493 65.7354L96.2246 66.0824V66.1171L96.1728 66.0824Z" fill="white"/>
<path d="M123.91 65.4924C124.169 64.833 123.945 64.3124 123.271 63.9653C121.854 63.2364 121.301 63.9306 120.679 64.7289L120.644 64.7809C120.488 64.9892 120.316 65.2321 120.143 65.4924C119.884 65.8568 119.59 66.2386 119.279 66.6551L119.227 66.7419C118.812 67.2625 117.689 68.6855 113.904 68.6855C113.489 68.6855 113.195 68.5813 113.005 68.3905C112.746 68.1475 112.625 67.7137 112.625 67.0889V48.59C112.625 48.4338 112.625 48.2603 112.625 48.0868C112.573 46.7158 112.504 44.6681 114.543 43.6095C114.613 43.5748 114.664 43.5575 114.716 43.5401C114.941 43.4534 115.304 43.3145 115.304 42.8807V42.0304C115.304 41.8221 115.235 41.6486 115.096 41.5098C114.924 41.3362 114.699 41.2668 114.422 41.2668H104.105C103.587 41.2668 103.224 41.5792 103.224 42.0304V42.9675C103.224 43.8004 103.708 43.9566 104.019 44.0607C104.053 44.0607 104.071 44.0781 104.105 44.0954C106.023 44.8243 105.989 46.9761 105.972 48.2603V48.59V66.0651V66.3948C105.972 68.1475 105.902 69.2234 104.589 69.6052C104.192 69.7267 103.95 70.0738 103.95 70.5076V71.167C103.95 71.3926 104.019 71.6009 104.192 71.7397C104.364 71.9132 104.606 72 104.9 72H118.415C118.57 72 118.743 72 118.899 72.0174C119.296 72.0868 119.693 72.1735 120.005 72.243C120.281 72.295 120.523 72.3471 120.679 72.3644C121.577 72.4685 121.854 71.7223 121.957 71.462V71.4273L123.91 65.5271C123.91 65.5271 123.91 65.4924 123.91 65.4751" fill="white"/>
<path d="M51.1188 34.7245C54.0394 37.2061 57.755 38.7505 61.0732 38.8547C67.6576 39.0282 72.2719 36.4425 74.0519 31.5315C74.2938 30.872 74.121 30.1258 73.6717 29.8308C73.4989 29.7267 73.015 29.5184 72.4274 30.0911C70.4227 31.9653 67.6403 33.0065 64.5987 33.0065C61.4015 33.0065 58.3772 31.7571 56.096 29.5011C53.7456 27.1757 52.4495 24.0694 52.4495 20.7375C52.4495 20.564 52.4495 19.9913 52.4495 19.8004C52.7087 13.9176 55.9577 10.1345 60.7448 10.1866C62.9396 10.1866 64.1493 10.8807 65.3764 11.9913C66.396 12.8937 67.0527 13.8482 67.0527 15.6356C67.0527 18.308 65.3245 20.4946 63.2161 20.4946C61.9891 20.4946 61.2978 20.0954 61.0213 19.1584C61.004 19.1063 60.9868 18.9848 60.9868 18.9328C60.9868 18.7245 61.0386 18.6551 61.3151 18.6551H61.3497C61.6262 18.6725 61.9027 18.6898 62.0582 18.6898C63.2507 18.5857 63.9074 17.7354 63.8037 16.4685C63.7346 15.705 63.4062 15.0629 62.8359 14.6638C62.3693 14.3341 61.8854 14.1952 61.2978 14.2126C59.5869 14.282 58.429 15.6009 58.1698 16.885C57.7032 19.141 58.4982 21.1714 60.5029 22.9588C61.6262 23.9653 63.5618 24.5206 65.4455 24.3991C66.8108 24.3124 68.7809 23.7918 70.3363 21.9696C72.22 19.7657 72.9113 17.2668 72.3583 14.7332C71.7016 11.731 69.4031 9.23211 67.4502 8.31237C65.3937 7.34057 63.9074 6.64642 60.1227 6.64642C51.7582 6.64642 45.2256 13.5531 45.2256 22.4035C45.2256 26.9675 47.4377 31.5662 51.1533 34.7245" fill="white"/>
<path d="M104.313 38.1779H114.042C114.336 38.1779 114.595 38.0738 114.768 37.9002C114.924 37.744 114.993 37.5531 114.993 37.3276V36.5293C114.993 36.0434 114.492 35.5748 114.06 35.436C112.418 34.6204 112.435 33.4403 112.435 31.9306V12.321C112.435 11.9566 112.504 11.731 112.591 11.6443C112.625 11.6095 112.712 11.5228 113.04 11.5228C113.558 11.5228 114.042 11.5228 114.474 11.5228C115.649 11.5054 116.496 11.4881 117.62 11.6616C121.975 12.321 122.096 16.1215 122.113 16.295C122.51 21.4837 120.696 23.2191 119.486 23.5835C117.723 24.1041 117.395 23.6703 116.704 23.41L116.583 23.3579C116.289 23.2538 116.047 23.0282 115.788 22.8026C115.321 22.3861 114.785 21.9002 113.921 22.0738C113.282 22.1952 112.867 22.7505 112.833 23.4794C112.763 24.7809 113.679 25.8221 115.701 26.8113C117.499 27.679 120.748 27.4881 123.219 26.2039C125.517 25.0065 129.527 21.7614 129.752 16.4512V16.3991C129.752 15.3232 129.492 12.5466 126.883 10.1866C124.273 7.80911 120.765 7.87853 119.089 7.91323H118.916C117.136 7.94794 104.624 7.91323 104.485 7.91323C103.967 7.91323 103.414 8.2603 103.414 8.81562V9.28417C103.414 9.82213 104.105 10.3601 104.554 10.4469C105.73 10.551 105.972 11.974 105.972 13.1714V31.6009C105.972 31.6009 105.972 31.7744 105.972 31.8785C105.972 32.9718 106.023 35.0022 104.295 35.436H104.382C103.829 35.436 103.327 36.0434 103.327 36.5293V37.3276C103.327 37.5531 103.397 37.744 103.552 37.9002C103.725 38.0738 103.984 38.1779 104.278 38.1779" fill="white"/>
<path d="M74.8814 10.9675C74.8814 10.9675 74.9333 11.0022 74.9678 11.0022C77.0589 11.7831 77.0244 14.1258 77.0071 15.5315V15.8959L76.3158 25.2842C76.3158 25.5618 76.3158 25.9089 76.2813 26.3427C76.1776 28.5466 75.9875 32.6594 78.6316 35.5401C80.4116 37.4664 83.4705 38.5249 87.1689 38.6811C91.403 38.872 94.7729 38.1952 97.106 35.8872C99.5946 33.4056 99.6119 30.3514 99.5773 28.9284V28.5987C99.5773 28.0607 99.3699 24.1909 99.3699 24.1909L98.7132 15.9132C98.7132 15.7397 98.7132 15.5662 98.7132 15.3579C98.6614 13.8655 98.575 11.6269 100.822 10.4816C100.873 10.4469 100.943 10.4295 101.012 10.3948C101.254 10.308 101.651 10.1518 101.651 9.6833V8.76356C101.651 8.53796 101.565 8.34707 101.426 8.20824C101.254 8.03471 100.977 7.93058 100.701 7.93058H91.9041C91.3511 7.93058 90.9363 8.27766 90.9363 8.76356V9.78742C90.9363 10.6898 91.4894 10.8807 91.8004 10.9848C91.835 10.9848 91.8696 11.0195 91.9041 11.0195C94.1853 11.8698 94.4791 12.7722 94.4791 15.9132L94.8593 25.961C94.9112 29.1367 94.8593 32.0174 93.3731 33.5098C92.4744 34.4121 91.3511 34.8286 89.2946 34.8286C87.6009 34.8286 86.3566 34.4989 85.337 33.6659C83.7298 32.3297 83.6952 29.8134 83.7298 25.961L83.9544 15.3406C84.0927 12.9631 84.2309 11.5748 86.3739 10.4816C86.443 10.4469 86.4949 10.4295 86.564 10.3948C86.806 10.308 87.1862 10.1345 87.1862 9.66594V8.7462C87.1862 8.52061 87.117 8.32972 86.9442 8.17353C86.7714 8.01735 86.5122 7.91323 86.2184 7.91323H74.9678C74.4148 7.91323 74 8.2603 74 8.7462V9.77006C74 10.6725 74.5358 10.8633 74.8641 10.9675" fill="white"/>
<path d="M163.399 40C163.399 38.282 164.799 37.0152 166.458 37.0152C168.117 37.0152 169.5 38.282 169.5 40C169.5 41.718 168.1 43.0022 166.458 43.0022C164.817 43.0022 163.399 41.7354 163.399 40ZM166.458 42.4989C167.824 42.4989 168.895 41.423 168.895 40C168.895 38.577 167.824 37.5184 166.458 37.5184C165.093 37.5184 164.004 38.577 164.004 40C164.004 41.423 165.076 42.4989 166.458 42.4989ZM165.819 41.7354H165.283V38.282H166.614C167.426 38.282 167.841 38.577 167.841 39.2711C167.841 39.8785 167.443 40.1562 166.942 40.2082L167.927 41.7354H167.34L166.407 40.2429H165.802V41.7354H165.819ZM166.458 39.7918C166.908 39.7918 167.288 39.757 167.288 39.2191C167.288 38.7852 166.908 38.7158 166.528 38.7158H165.819V39.7918H166.458Z" fill="#231F20"/>
</g>
<defs>
<clipPath id="clip0_4_41">
<rect width="169" height="80" fill="white" transform="translate(0.5)"/>
</clipPath>
</defs>
</svg>
