<svg width="53" height="36" viewBox="0 0 53 36" fill="none" xmlns="http://www.w3.org/2000/svg">
<g clip-path="url(#clip0_769_77944)">
<path d="M43.8266 35.3984C42.7361 35.3984 41.6456 35.1865 40.58 34.769C35.8565 32.912 33.8001 27.6526 35.788 22.5366C35.9251 22.1751 36.1182 21.8449 36.3488 21.5457C36.4547 21.1469 36.623 20.7543 36.8598 20.3867C38.9473 17.1837 42.3061 15.1086 45.4281 15.1086C46.288 15.1086 47.1106 15.2644 47.8771 15.5635C51.94 17.1588 53.4667 22.2873 52.8747 26.5372C52.1519 31.7529 48.4317 35.3984 43.8266 35.3984Z" fill="#F58220"/>
<path d="M46.4382 19.2588C44.5625 18.5235 41.7646 20.1312 40.1943 22.549C40.2192 22.5179 42.1198 22.3683 42.0637 22.3746C42.1323 22.3746 43.0234 24.6491 43.0234 24.6491L45.2979 23.5212L46.0269 25.9888L47.7281 25.6274C47.7281 25.6274 46.3759 26.693 45.6842 27.2102C45.3477 26.5247 45.0548 25.9016 44.7557 25.1974C43.9768 25.7583 42.2506 26.8238 42.2506 26.8238L41.1851 23.7766C41.1851 23.7766 40.1756 23.839 39.5026 23.9636C38.3684 26.8737 39.2097 29.9521 42.0512 31.0675C45.3789 32.3761 48.4136 29.9147 48.962 25.9826C49.3608 23.1036 48.3264 19.9879 46.4507 19.2526" fill="white"/>
<path d="M13.162 33.7595C12.8193 33.7595 12.3395 33.747 11.8409 33.7283L11.7537 33.7283C11.3362 33.7096 10.9187 33.6971 10.6258 33.6971L10.3205 33.6971C1.59013 33.6971 1.17885 27.0731 0.823655 21.2279L0.568166 16.816C0.431074 14.473 0.387451 12.9213 0.512081 10.921C0.798729 6.16637 3.13555 3.39335 7.66585 2.45863C7.77178 2.4337 7.88395 2.41501 7.99612 2.40255C10.7816 2.04735 12.6199 1.79186 14.8632 1.48652L17.038 1.19364C17.2374 1.16871 17.4306 1.15625 17.63 1.15625C18.6707 1.15625 19.6864 1.53014 20.484 2.2156C21.4312 3.03193 21.9858 4.21592 22.0108 5.46845L22.0108 6.01682C22.0295 6.49664 22.0419 7.10733 22.0544 7.63078C22.0544 7.76164 22.0544 7.89873 22.0544 8.03582C21.9858 9.26343 21.8674 11.2388 20.7645 12.9525C20.9763 13.451 21.0947 13.9931 21.1072 14.5477L21.1633 16.9905C21.1882 17.919 21.076 18.7976 20.8392 19.6015C21.506 20.3617 21.8924 21.3401 21.9173 22.3745L21.936 23.0413C21.9422 23.4027 21.9609 23.7205 21.9796 24.0321C22.0045 24.4309 22.0232 24.8297 22.0357 25.2846C22.0918 27.7336 21.3876 29.7401 19.9357 31.2544C18.4027 32.8559 16.2092 33.7034 13.4113 33.7595C13.4113 33.7595 13.187 33.7595 13.1683 33.7595" fill="#F58220"/>
<path d="M13.162 33.074C12.8068 33.074 12.2896 33.0553 11.7661 33.0366C11.3486 33.0242 10.9187 33.0055 10.6258 33.0055L10.3204 33.0055C2.23195 33.0055 1.86429 26.9983 1.50909 21.1843L1.2536 16.7787C1.12274 14.4668 1.07912 12.9338 1.19752 10.9647C1.54648 5.09459 5.13583 3.68004 7.80914 3.13167C7.92131 3.10674 8.02724 3.08805 8.13941 3.07558C10.875 2.72662 12.7133 2.47736 14.9629 2.17202L16.3712 1.97884C16.5706 1.95391 16.7638 1.93522 16.9632 1.93522C18.0039 1.93522 19.0134 2.30911 19.8172 2.98834C20.7644 3.80467 21.319 4.98866 21.344 6.23495C21.3502 6.67739 21.3627 7.1946 21.3813 7.64327C21.3813 7.78037 21.3813 7.91746 21.3813 8.05455C21.3003 9.40056 21.1819 11.4694 19.8172 13.1083C20.2098 13.7564 20.4279 14.5042 20.4466 15.2706L20.4902 16.9968C20.5214 18.1994 20.3158 19.2962 19.9045 20.2434C20.7333 21.0285 21.2318 22.1128 21.2692 23.2657C21.2754 23.5211 21.2941 23.7579 21.3066 23.9885L21.3066 24.0633C21.3315 24.487 21.3564 24.8609 21.3689 25.2909C21.425 27.5529 20.7831 29.3912 19.462 30.7684C18.0537 32.239 16.0223 33.0117 13.4175 33.0616C13.4175 33.0616 13.1994 33.0616 13.1869 33.0616" fill="#F58220"/>
<path d="M13.162 33.2734C12.8068 33.2734 12.2896 33.2547 11.7662 33.236C11.3486 33.2236 10.9249 33.2049 10.6258 33.2049L10.2831 33.2049C2.045 33.2049 1.67112 27.1042 1.30969 21.203C1.30969 21.203 1.12897 18.0935 1.04797 16.7849C0.917104 14.4668 0.873485 12.9338 0.991884 10.9522C1.35331 4.94502 5.02367 3.49931 7.7593 2.93848C7.87146 2.91355 7.9774 2.89485 8.08957 2.88239C10.8377 2.53343 12.676 2.27794 14.9255 1.97259L16.5582 1.74826C16.7576 1.72333 16.9508 1.71087 17.1439 1.71087C18.1846 1.71087 19.2003 2.08476 19.998 2.77023C20.9452 3.58655 21.4998 4.77054 21.5247 6.02307C21.5309 6.5029 21.5434 7.11982 21.5621 7.63703C21.5621 7.77412 21.5621 7.91122 21.5621 8.04831C21.4873 9.29461 21.3689 11.3572 20.079 13.046C20.4155 13.6567 20.6087 14.3421 20.6211 15.0587L20.6647 16.9905C20.6959 18.1246 20.5214 19.1591 20.1724 20.0751C20.9514 20.8603 21.4125 21.9259 21.4437 23.0538C21.4561 23.4214 21.4686 23.7455 21.4873 24.0695C21.5122 24.4621 21.5309 24.8547 21.5434 25.3033C21.5995 27.6152 20.9389 29.5034 19.5805 30.9242C18.141 32.4322 16.0597 33.2236 13.3988 33.2797C13.349 33.2797 13.2617 33.2797 13.1682 33.2797" fill="#F58220"/>
<path d="M23.4876 33.4105C23.0452 33.4105 22.5903 33.3794 22.1478 33.3233C16.7264 32.6503 13.5359 28.687 14.0282 23.2345L14.3086 20.1437C14.3273 19.938 14.3647 19.7324 14.4083 19.533C13.6605 17.4641 13.3926 15.0089 13.6418 12.3293C14.2961 5.22544 19.219 0.0719856 25.3446 0.0719862C25.8182 0.0719862 26.3105 0.103145 26.7965 0.165458C28.155 0.339942 29.3141 0.651515 30.2488 0.900775C30.6164 1.00048 31.1025 1.13134 31.3642 1.18119L31.7257 1.13134C31.9126 1.10641 32.1058 1.09396 32.2927 1.09396C33.4518 1.09396 34.5735 1.55508 35.396 2.38387C36.3557 3.34976 36.8106 4.71445 36.6298 6.06046L36.5426 6.68984C36.4616 7.2756 36.3183 8.25395 36.1625 9.332L36.1189 9.64981C35.8821 11.2825 35.6079 13.127 35.4832 14.124C35.2963 15.632 35.1031 17.1525 34.9224 18.6668C34.8913 18.9285 34.8539 19.3086 34.8102 19.7885L34.7542 20.368C34.7105 20.9226 34.6358 21.5457 34.5548 22.2001L34.5423 22.2811C33.7384 28.8428 29.1894 33.4043 23.4814 33.4043" fill="#F58220"/>
<path d="M23.4876 32.725C23.0764 32.725 22.6526 32.7001 22.2351 32.644C17.2187 32.0209 14.2588 28.3505 14.7074 23.2968L14.8383 21.876C14.8944 21.2528 15.0813 20.6608 15.3805 20.1374C14.4083 18.0187 14.0469 15.3952 14.3273 12.3916C14.9505 5.64916 19.5867 0.757432 25.3509 0.757432C25.8058 0.757432 26.2669 0.788591 26.7218 0.844672C28.0179 1.01292 29.1458 1.31827 30.0619 1.55506C30.5542 1.68593 31.2085 1.86041 31.4328 1.8791C31.4827 1.8791 31.5263 1.8791 31.5761 1.8791C32.8162 1.8791 33.9628 2.40878 34.7978 3.33105C35.6578 4.2907 36.0192 5.58685 35.8385 6.86431C35.7512 7.48746 35.6141 8.40348 35.4708 9.40053C35.234 11.0083 34.9411 13.0023 34.8103 14.043C34.6233 15.551 34.4302 17.0715 34.2494 18.592C34.2183 18.8724 34.1809 19.265 34.131 19.7635L34.075 20.343C34.0376 20.8478 33.9628 21.4709 33.8818 22.1253L33.8693 22.2063C33.1091 28.4128 28.8405 32.725 23.4876 32.725Z" fill="#F58220"/>
<path d="M23.4876 32.9244C23.0639 32.9244 22.6339 32.8995 22.2102 32.8434C17.0692 32.2016 14.0469 28.4502 14.508 23.2781L14.6825 21.4024C14.7324 20.8789 14.8632 20.3742 15.0751 19.9068C14.1965 17.8006 13.86 15.2207 14.1217 12.3667C14.7635 5.41236 19.3811 0.551791 25.3446 0.551791C25.8057 0.551791 26.2731 0.58295 26.7405 0.639033C28.0615 0.813514 29.2081 1.11886 30.1242 1.36189C30.5417 1.47405 31.1088 1.62361 31.3705 1.66723C31.4889 1.661 31.6073 1.65477 31.7257 1.65477C32.8847 1.65477 34.0002 2.1159 34.829 2.94469C35.7886 3.91057 36.2497 5.27527 36.0628 6.62751C35.9756 7.24442 35.826 8.27885 35.6577 9.41298C35.4085 11.108 35.1281 13.0335 34.991 14.0617C34.804 15.5759 34.6171 17.0902 34.4301 18.6107C34.3928 18.8973 34.3554 19.3024 34.3117 19.8134L34.2619 20.3243C34.2183 20.8852 34.1435 21.5021 34.0687 22.1439L34.0563 22.2312C33.2835 28.525 28.934 32.912 23.4814 32.912M25.3446 9.7121C24.3476 9.7121 23.4191 11.2513 23.2384 13.2204C23.1698 13.9557 23.1823 14.5664 23.2259 15.0587C23.9238 14.6101 24.7402 14.3608 25.5939 14.3608C25.6437 14.3608 25.6873 14.3608 25.7372 14.3608C25.7995 13.881 25.8556 13.4074 25.9179 12.9276C26.0114 12.1735 26.1734 11.0456 26.3479 9.86165C26.0862 9.80557 25.8244 9.75572 25.5689 9.72456C25.4942 9.71833 25.4194 9.7121 25.3446 9.7121Z" fill="#F58220"/>
<path d="M33.0841 34.4761C31.7007 34.4761 30.3485 34.1708 29.0648 33.5726C24.8461 31.6159 23.0202 27.4158 24.4161 22.8793C24.79 21.6704 25.3757 20.5861 25.4879 20.3805C25.6936 20.0128 25.9428 19.6763 26.2295 19.3772C26.0114 17.3333 26.3603 15.1086 27.2764 12.8653C29.2767 7.95486 33.3022 4.90765 37.7889 4.90765C39.2408 4.90765 40.6679 5.23169 42.0263 5.86731C42.4127 6.04802 42.7741 6.2225 43.1168 6.38452C44.0017 6.80826 44.9988 7.29432 45.3726 7.35664C46.6875 7.57474 47.8341 8.38483 48.4759 9.55013C49.124 10.7154 49.205 12.1113 48.694 13.3451C48.4759 13.8686 48.1519 14.6911 47.7905 15.6009C47.0988 17.3395 46.3136 19.3149 45.8338 20.3992C45.5035 21.1407 44.5127 23.5648 43.8584 25.1725C43.4097 26.263 43.0545 27.1479 42.961 27.3535C41.048 31.7467 37.2592 34.4761 33.0841 34.4761Z" fill="#F58220"/>
<path d="M33.0841 34.9622C31.6322 34.9622 30.2114 34.6443 28.8592 34.015C24.4036 31.9461 22.4781 27.5217 23.955 22.736C24.3787 21.3588 25.0642 20.1499 25.0891 20.1L25.6312 19.1279C25.6562 19.0781 25.6873 19.0344 25.7123 18.9846C25.5752 16.9843 25.9491 14.8406 26.8339 12.6845C28.909 7.58717 33.109 4.42157 37.8014 4.42157C39.3281 4.42157 40.8174 4.75807 42.2507 5.43107C42.637 5.61179 42.9984 5.78627 43.3349 5.94829C44.145 6.33464 45.1358 6.81447 45.4786 6.88302L46.0768 6.98272C47.3917 7.20082 48.532 8.01092 49.1801 9.17621C49.8282 10.3415 49.9092 11.7374 49.3982 12.9712L49.1676 13.532C48.9495 14.0555 48.6255 14.8718 48.2641 15.7816C47.5225 17.6448 46.781 19.5143 46.2949 20.5985C45.9709 21.3339 44.9801 23.7517 44.3258 25.3532C43.8771 26.4562 43.5157 27.341 43.4222 27.5467C41.4156 32.1206 37.4524 34.9622 33.0841 34.9622Z" fill="#F58220"/>
<path d="M33.0842 34.2767C31.7319 34.2767 30.4046 33.9776 29.1521 33.3919C25.0268 31.4788 23.2446 27.3722 24.6093 22.9354C24.7838 22.3621 25.0331 21.7452 25.3446 21.0971C25.6188 20.53 26.0052 20.044 26.4663 19.6514C26.1859 17.5638 26.5162 15.2644 27.4633 12.9401C29.4325 8.10442 33.3895 5.10084 37.7952 5.10084C39.216 5.10084 40.6118 5.41864 41.9516 6.04179C42.3379 6.22251 42.6994 6.39699 43.0421 6.55901C43.9457 6.99521 44.8742 7.44388 45.3228 7.53736C46.5878 7.81154 47.6596 8.6341 48.2641 9.77446C48.8623 10.9211 48.9309 12.2671 48.4448 13.4635C48.2392 13.962 47.965 14.6475 47.6659 15.4015L47.6222 15.5137C46.9305 17.246 46.1516 19.2152 45.6718 20.2995C45.3477 21.0348 44.3756 23.4152 43.7338 24.9856L43.6341 25.2224C43.2166 26.2443 42.8863 27.0607 42.7991 27.2601C40.8985 31.5972 37.1782 34.2767 33.0842 34.2767Z" fill="#F58220"/>
<path d="M33.0903 34.4761C31.7069 34.4761 30.3547 34.1708 29.071 33.5726C24.8523 31.6159 23.0265 27.4158 24.4223 22.8793C24.7962 21.6704 25.3757 20.5861 25.4941 20.3805C25.6998 20.0128 25.949 19.6701 26.2419 19.3772C26.0238 17.3333 26.3728 15.1086 27.2888 12.8653C29.2891 7.95486 33.3147 4.90765 37.8014 4.90765C39.2533 4.90765 40.6803 5.23169 42.045 5.86731C42.4314 6.04802 42.7928 6.2225 43.1293 6.38452C44.0142 6.80826 45.0112 7.29432 45.3851 7.35664C46.6999 7.57474 47.8403 8.38483 48.4884 9.55013C49.1365 10.7154 49.2175 12.1113 48.7065 13.3451C48.4884 13.8686 48.1643 14.6911 47.8029 15.6071C47.1112 17.3457 46.3323 19.3149 45.8462 20.3992C45.516 21.1407 44.5314 23.5585 43.8771 25.1538C43.4284 26.2568 43.067 27.1417 42.9735 27.3535C41.048 31.7467 37.2592 34.4761 33.0903 34.4761ZM36.0378 17.3831C36.3993 17.3831 36.7607 17.4267 37.1221 17.5202C37.2654 17.1775 37.3901 16.8908 37.4835 16.679C37.7203 16.1431 38.0818 15.2582 38.4681 14.3048C38.3622 14.2549 38.2563 14.2051 38.1441 14.1552C38.0195 14.0929 37.9011 14.0617 37.8014 14.0617C37.3402 14.0617 36.393 14.7659 35.7637 16.3238C35.5892 16.7475 35.4832 17.1214 35.4147 17.433C35.6203 17.4018 35.8322 17.3894 36.0441 17.3894" fill="#F58220"/>
<path d="M25.4318 15.819C25.5502 15.819 25.6686 15.8252 25.787 15.8439L26.4974 15.9374C26.6657 15.9623 26.8277 15.9997 26.9835 16.0495C27.1081 15.0213 27.239 13.9994 27.3636 12.9712C27.4945 11.9243 27.7562 10.1296 27.9992 8.4845C27.2203 8.27886 26.4226 8.06076 25.6125 7.96106C25.4692 7.94236 25.3259 7.9299 25.1826 7.9299C23.2633 7.9299 21.7303 9.98006 21.4624 12.9089C21.2318 15.4139 21.749 16.9656 22.2662 17.5326C22.4469 17.732 22.5653 17.7383 22.6401 17.7383C22.7211 17.676 22.8395 17.5451 22.9081 17.4454L23.014 17.246C23.5001 16.3549 24.4348 15.819 25.4318 15.819Z" fill="#540000"/>
<path d="M47.591 9.79934C47.186 9.06402 46.4631 8.55927 45.6344 8.41594L45.0299 8.31624C44.494 8.229 43.5094 7.74917 42.4563 7.24442C42.126 7.0824 41.7708 6.91415 41.3907 6.73344C40.1818 6.16637 38.9168 5.87972 37.6331 5.87972C36.6485 5.87972 35.6826 6.04797 34.7666 6.37201C34.7666 6.35331 34.7666 6.33462 34.7728 6.32216L34.8601 5.69278C34.9785 4.84529 34.6918 3.98534 34.0874 3.37466C33.5639 2.85121 32.8598 2.55833 32.1307 2.55833C32.0123 2.55833 31.8939 2.56456 31.7755 2.58325L31.196 2.65803C30.9218 2.64557 30.1989 2.45239 29.6692 2.30907C28.7844 2.07227 27.6752 1.77316 26.4289 1.61114C26.0114 1.55506 25.5876 1.53013 25.1826 1.53013C23.0389 1.53013 21.0885 2.25298 19.4807 3.51798C19.406 3.43697 19.3436 3.34973 19.2564 3.28118C18.7517 2.85121 18.116 2.61441 17.4617 2.61441C17.3371 2.61441 17.2125 2.62064 17.0878 2.63934L14.9131 2.93222C12.6635 3.23756 10.8189 3.48682 8.03347 3.84825C7.96492 3.85448 7.89638 3.86694 7.82783 3.8794C5.26045 4.40908 2.27556 5.68654 1.96398 10.8587C1.95775 10.9584 1.95152 11.0581 1.94529 11.1578C1.84558 12.9462 1.8892 14.3608 2.01383 16.5667L2.26932 20.9724C2.47496 24.3 2.66191 27.3722 4.09515 29.4036C5.19189 30.9615 7.01773 31.9149 10.1335 31.9149L10.4513 31.9149C10.7566 31.9149 11.1991 31.9274 11.6353 31.9461L11.7225 31.9461C12.2023 31.9648 12.6635 31.9772 12.9937 31.9772C13.0062 31.9772 13.1994 31.9772 13.1994 31.9772C15.449 31.9336 17.1377 31.3416 18.3653 30.1826C19.3997 30.8992 20.6772 31.3728 22.179 31.5597C22.5529 31.6096 22.9392 31.6345 23.3131 31.6345C24.6342 31.6345 25.8867 31.3292 27.0209 30.787C27.6689 31.4226 28.4541 31.9586 29.3764 32.3885C30.5105 32.9182 31.7007 33.1799 32.9159 33.1799C36.6298 33.1799 40.0198 30.7123 41.7584 26.7428C41.8518 26.5371 42.207 25.6647 42.6432 24.5867C43.2975 22.979 44.2946 20.5424 44.6311 19.7822C45.0984 18.7291 45.8712 16.7911 46.5504 15.0836L46.5753 15.0213C46.9367 14.1115 47.267 13.2827 47.4851 12.7531L47.7157 12.186C48.0335 11.4133 47.9836 10.5284 47.5786 9.79934M22.9081 17.4454C22.8395 17.5513 22.7211 17.6822 22.6401 17.7383C22.5653 17.7383 22.4469 17.732 22.2662 17.5326C21.749 16.9656 21.2256 15.4139 21.4624 12.9089C21.7303 9.98005 23.2633 7.92988 25.1826 7.92988C25.3259 7.92988 25.4692 7.93611 25.6125 7.95481C26.4226 8.06074 27.2203 8.27262 27.9992 8.47825C27.7562 10.1234 27.4945 11.918 27.3636 12.9649C27.2327 13.9931 27.1081 15.0151 26.9835 16.0433C26.8277 15.9934 26.6657 15.9561 26.4974 15.9311L25.787 15.8377C25.6686 15.819 25.5502 15.8127 25.4318 15.8127C24.4348 15.8127 23.5063 16.3549 23.014 17.2397L22.9081 17.4392L22.9081 17.4454ZM34.0936 15.551C34.9037 13.5632 36.2933 12.2795 37.6393 12.2795C37.9758 12.2795 38.331 12.3667 38.6738 12.5287C39.004 12.6845 40.1506 13.2329 40.3687 13.3388C39.7954 14.7721 39.1661 16.3549 38.7984 17.1774C38.599 17.6261 38.2376 18.4923 37.8201 19.508C37.7889 19.4893 37.7577 19.4706 37.7203 19.4519L37.1221 19.1466C36.7295 18.9472 36.2996 18.8475 35.8758 18.8475C35.2651 18.8475 34.6544 19.0531 34.1559 19.4457L34.0313 19.5454C34.0313 19.5454 34.0188 19.5516 34.0126 19.5579C33.9503 19.5018 33.863 19.3958 33.7758 19.2214C33.3708 18.3988 33.4892 17.0279 34.0936 15.551Z" fill="#540000"/>
<path d="M34.0189 19.5516C34.0189 19.5516 34.0313 19.5454 34.0376 19.5392L34.1622 19.4395C34.6607 19.0407 35.2652 18.8412 35.8821 18.8412C36.3058 18.8412 36.7358 18.9409 37.1284 19.1404L37.7266 19.4457C37.7578 19.4644 37.7952 19.4831 37.8263 19.5018C38.2438 18.486 38.6053 17.6261 38.8047 17.1712C39.1723 16.3486 39.8017 14.7658 40.375 13.3326C40.1569 13.2267 39.0041 12.6721 38.68 12.5225C38.3311 12.3605 37.9821 12.2732 37.6456 12.2732C36.3058 12.2732 34.91 13.5569 34.0999 15.5448C33.4954 17.0216 33.3833 18.3926 33.7821 19.2151C33.8693 19.3896 33.9628 19.4956 34.0189 19.5516Z" fill="#540000"/>
<path d="M13 29.223C12.676 29.223 12.2086 29.2043 11.735 29.1918C11.2676 29.1731 10.794 29.1606 10.4575 29.1606L10.1148 29.1606C5.54088 29.1606 5.39756 26.8861 5.0299 20.8042L4.77441 16.4048C4.64978 14.1988 4.60616 12.8279 4.71832 11.0332C4.90527 7.87383 6.10172 7.05751 8.38868 6.58391C11.1866 6.22872 13.0374 5.97323 15.2932 5.66788L17.4617 5.375L17.4617 5.92337C17.4804 6.42813 17.4929 7.06997 17.5116 7.61834C17.3683 10.0673 17.0816 11.0955 14.7697 11.5816C12.9439 11.9679 11.4172 12.2608 9.61628 12.4976C9.59136 13.3513 9.61628 14.205 9.64121 14.984C10.981 14.8967 12.3644 14.7908 13.6855 14.6911C14.5018 14.6288 15.2932 14.5665 16.0347 14.5166L16.5457 14.4792L16.6018 16.9282C16.6579 19.3086 15.2994 19.9567 14.1466 20.0876C13.6231 20.1437 12.8629 20.206 12.0341 20.2683C11.3362 20.3244 10.5946 20.3805 9.90916 20.4428C9.90916 20.4926 9.90916 20.5362 9.90916 20.5861C9.90916 20.8042 9.90917 21.0223 9.92163 21.1594C10.0151 23.1971 10.2644 23.1971 11.6228 23.1971C11.8596 23.1971 12.1213 23.1971 12.408 23.1846L12.5887 23.1846C12.6884 23.1846 12.732 23.1846 12.7819 23.1846C12.813 23.1846 12.8504 23.1846 12.9252 23.1846L13.0685 23.1846C14.4706 23.1535 15.4303 22.979 16.7202 22.5303L17.3496 22.306L17.3683 22.9728C17.3807 23.384 17.3994 23.7455 17.4181 24.1069C17.4368 24.4621 17.4617 24.8235 17.468 25.2348C17.4991 26.4873 17.2063 27.4096 16.5831 28.0639C15.8727 28.8055 14.7448 29.1856 13.1371 29.2167L12.9813 29.2167L13 29.223Z" fill="#FDB913"/>
<path d="M13 28.5375C12.6822 28.5375 12.2211 28.5188 11.76 28.5063C11.2801 28.4876 10.8003 28.4752 10.4638 28.4752L10.1211 28.4752C6.18899 28.4752 6.08929 26.8425 5.7154 20.7606L5.45991 16.3674C5.33528 14.1863 5.29166 12.8403 5.40383 11.0768C5.58454 8.07945 6.70621 7.63702 8.5258 7.25689C11.2739 6.90793 13.1247 6.65244 15.3867 6.3471L16.795 6.15392C16.8012 6.62128 16.8137 7.16342 16.8324 7.63702C16.6953 9.93644 16.4772 10.516 14.6327 10.9086C12.6885 11.3198 11.087 11.6252 9.13026 11.8682L8.96201 11.8869L8.96201 12.0552C8.89347 13.2578 8.93709 14.4667 8.98694 15.5074L8.98694 15.7068L9.19881 15.6943C10.6944 15.6009 12.2647 15.4825 13.7478 15.3703C14.4894 15.3142 15.206 15.2581 15.8852 15.2083L15.9226 16.9344C15.96 18.4674 15.3742 19.2525 14.0781 19.3959C13.5609 19.4519 12.8068 19.508 11.9843 19.5766C11.1306 19.6451 10.2021 19.7137 9.39822 19.7947L9.21127 19.8134L9.21127 20.0003C9.22374 20.1374 9.22997 20.3617 9.22997 20.5798C9.22997 20.8104 9.22996 21.0347 9.24243 21.1781C9.34836 23.4214 9.74718 23.8701 11.6291 23.8701C11.8721 23.8701 12.1401 23.8701 12.433 23.8576L12.595 23.8576C12.6698 23.8576 12.7071 23.8576 12.7445 23.8576C12.7882 23.8576 12.838 23.8576 12.9315 23.8576L13.0935 23.8576C14.4831 23.8265 15.4552 23.6644 16.7015 23.2469C16.714 23.5585 16.7265 23.8452 16.7452 24.1318C16.7639 24.4808 16.7825 24.836 16.795 25.2348C16.8199 26.2941 16.5894 27.0544 16.0971 27.5716C15.5176 28.176 14.5454 28.4814 13.1309 28.5125L12.9938 28.5125L13 28.5375Z" fill="white"/>
<path d="M16.5956 6.37825C16.6018 6.7833 16.6143 7.23197 16.6268 7.62455C16.4897 9.96136 16.2217 10.3664 14.5891 10.7154C12.6448 11.1267 11.0496 11.432 9.0991 11.675L8.76883 11.7186L8.75013 12.0551C8.69405 13.2578 8.73767 14.4792 8.78129 15.5261L8.79999 15.9311L9.20503 15.9062C10.7006 15.8127 12.2522 15.6943 13.754 15.5822C14.4208 15.5323 15.0689 15.4825 15.692 15.4389L15.7045 15.9374C15.7107 16.2427 15.717 16.5481 15.7294 16.9593C15.7668 18.3864 15.2496 19.0843 14.0656 19.2151C13.5546 19.2712 12.7881 19.3335 11.9781 19.3959C11.143 19.4582 10.1958 19.5329 9.38575 19.614L9.01186 19.6513L9.03055 20.0252C9.03055 20.1623 9.03678 20.3804 9.03678 20.5985C9.03678 20.8291 9.03678 21.0597 9.04925 21.203C9.16141 23.546 9.64124 24.0882 11.6353 24.0882C11.8783 24.0882 12.1463 24.0882 12.4454 24.0757C12.514 24.0757 12.5638 24.0757 12.6074 24.0757C12.676 24.0757 12.7134 24.0757 12.7445 24.0757C12.7944 24.0757 12.8442 24.0757 12.9439 24.0757C12.9876 24.0757 13.0374 24.0757 13.106 24.0757C14.427 24.0508 15.3742 23.9012 16.5208 23.5398C16.5333 23.7517 16.5395 23.9573 16.552 24.163C16.5707 24.5119 16.5894 24.8609 16.6018 25.2659C16.6268 26.2692 16.4149 26.9858 15.96 27.4594C15.4178 28.0265 14.4956 28.3131 13.1309 28.3381L12.9938 28.3381C12.6822 28.3381 12.2148 28.3256 11.7599 28.3069C11.2864 28.2882 10.8003 28.2757 10.4576 28.2757C10.389 28.2757 10.3205 28.2757 10.2706 28.2757L10.1148 28.2757C6.3697 28.2757 6.28246 26.83 5.90857 20.7481L5.87741 20.2745C5.80263 18.9659 5.72786 17.6573 5.64685 16.3487C5.52222 14.1739 5.48483 12.8341 5.59076 11.083C5.75278 8.32248 6.66258 7.83642 8.5258 7.45007C11.2614 7.10111 13.1496 6.84561 15.3306 6.5465L16.5831 6.37825L16.5956 6.37825ZM16.9882 5.92335C13.9036 6.34086 11.8846 6.62128 8.48841 7.05748C6.47564 7.47499 5.38513 8.06699 5.20441 11.0581C5.09224 12.859 5.13586 14.2362 5.26049 16.3736C5.33527 17.6822 5.41005 18.9908 5.48483 20.2994C5.87741 26.6867 5.88987 28.6746 10.1148 28.6746C10.1647 28.6746 10.2208 28.6746 10.2769 28.6746C10.3329 28.6746 10.3953 28.6746 10.4576 28.6746C11.1243 28.6746 12.3519 28.7369 12.9938 28.7369C13.0436 28.7369 13.0935 28.7369 13.1371 28.7369C16.1282 28.6746 17.0443 27.3909 16.9944 25.2535C16.9757 24.4309 16.9134 23.8202 16.8947 22.9914C15.5113 23.4775 14.5143 23.6457 13.0935 23.6769C13.0312 23.6769 12.9813 23.6769 12.9377 23.6769C12.7632 23.6769 12.7632 23.6644 12.595 23.6644C12.5514 23.6644 12.4953 23.6644 12.4267 23.6644C12.1338 23.6707 11.8659 23.6769 11.6291 23.6769C9.92789 23.6769 9.54153 23.3716 9.44183 21.1718C9.42937 20.8914 9.4356 20.2745 9.42314 19.9941C11.0059 19.8321 13.0499 19.7074 14.1092 19.5953C15.449 19.4457 16.1719 18.6294 16.1282 16.9344C16.1095 16.1555 16.1033 15.7754 16.0846 14.9964C13.9908 15.146 11.5045 15.3516 9.18634 15.4949C9.13649 14.3795 9.0991 13.2142 9.15518 12.0614C11.1181 11.8183 12.7321 11.5068 14.6763 11.0955C16.6143 10.6842 16.8885 10.0112 17.0318 7.62455C17.0131 7.07618 17.0006 6.4281 16.9944 5.92335" fill="#FDB913"/>
<path d="M23.3256 28.874C23.0639 28.874 22.8022 28.8553 22.5342 28.8241C19.4808 28.444 17.9541 26.5434 18.2282 23.465L18.5087 20.3804L19.2627 21.3401C19.2627 21.3401 20.6336 23.0537 22.3286 23.0537C22.3846 23.0537 22.447 23.0537 22.5093 23.0537C24.036 22.9478 24.8648 22.1315 25.0393 20.5674L25.0517 20.4801C24.5657 20.8976 23.9051 21.2778 23.0826 21.3588C22.9393 21.3712 22.8022 21.3775 22.6651 21.3775C21.4873 21.3775 20.4217 20.8914 19.5929 19.9816C18.1722 18.4237 17.5552 15.7878 17.8543 12.5661C18.303 7.68686 21.3253 4.28446 25.2013 4.28446C25.4942 4.28446 25.7995 4.30315 26.0986 4.34054C27.158 4.47763 28.1239 4.73313 28.9713 4.96369C29.8625 5.20049 30.6289 5.40613 31.2396 5.40613C31.3393 5.40613 31.4266 5.40613 31.52 5.38743L32.1494 5.30642L32.0622 5.93581C31.9812 6.54649 31.8254 7.56846 31.6634 8.69636C31.4141 10.4038 31.1274 12.3418 30.9904 13.4074C30.7972 14.9279 30.6102 16.4546 30.4233 17.9751C30.3859 18.2866 30.3485 18.7228 30.2924 19.2712L30.2426 19.8258C30.2052 20.3368 30.1304 20.9101 30.0619 21.5146L30.0494 21.608C29.5135 25.9452 26.8215 28.8615 23.3381 28.8615" fill="#FDB913"/>
<path d="M23.3256 28.1885C23.095 28.1885 22.8582 28.1761 22.6214 28.1449C19.2502 27.7212 18.7454 25.4031 18.9074 23.5274L19.0383 22.119C19.5867 22.6861 20.8081 23.7392 22.3285 23.7392C22.4033 23.7392 22.4781 23.7392 22.5529 23.733C24.4099 23.6021 25.5066 22.5303 25.7185 20.6422L25.9179 18.8413L25.5876 18.7977L25.4817 18.9098C25.4817 18.9098 24.5843 20.53 23.014 20.6796C22.8956 20.692 22.7772 20.6983 22.6588 20.6983C21.6805 20.6983 20.7894 20.2932 20.0914 19.5267C18.8015 18.1122 18.2469 15.6632 18.5273 12.6409C18.9448 8.12933 21.6867 4.97619 25.1888 4.97619C25.4568 4.97619 25.7247 4.99488 25.9989 5.03227C27.0084 5.16313 27.9556 5.41863 28.7844 5.63673C29.7191 5.88599 30.5292 6.10409 31.2271 6.10409C31.2645 6.10409 31.3019 6.10409 31.3393 6.10409C31.2521 6.72101 31.1212 7.63081 30.9716 8.61539C30.7224 10.329 30.4357 12.267 30.2986 13.3451C30.1055 14.8656 29.9185 16.3923 29.7316 17.9128C29.6942 18.2306 29.6506 18.673 29.6007 19.2276L29.5509 19.7822C29.5072 20.2932 29.4449 20.8603 29.3701 21.4523L29.3577 21.5458C28.8716 25.5214 26.4476 28.1948 23.3256 28.1948" fill="white"/>
<path d="M25.1826 5.16939C25.4381 5.16939 25.706 5.18808 25.9678 5.21924C26.9648 5.3501 27.9058 5.59936 28.7283 5.82369C29.6257 6.06672 30.4108 6.27236 31.1025 6.29729C31.0153 6.90797 30.8969 7.73053 30.766 8.60917C30.5168 10.3104 30.2301 12.2421 30.0993 13.314C29.9061 14.8344 29.7191 16.3612 29.5322 17.8816C29.4886 18.2119 29.4512 18.6793 29.3951 19.2775L29.3515 19.7636C29.3141 20.2621 29.2455 20.8167 29.177 21.4024L29.1645 21.5146C28.6909 25.3906 26.3417 27.9891 23.3318 27.9891C23.1075 27.9891 22.8769 27.9767 22.6464 27.9455C20.0665 27.6215 18.8763 26.1446 19.1069 23.5461L19.2004 22.549C19.8547 23.1473 20.9763 23.9387 22.3286 23.9387C22.4096 23.9387 22.4906 23.9387 22.5716 23.9324C24.5407 23.7953 25.6936 22.6612 25.9179 20.6609L26.0924 19.0532L26.136 18.6668L25.7497 18.617L25.706 18.617L25.4381 18.5733L25.3072 18.8101C25.3072 18.8101 24.4535 20.3369 22.9953 20.474C22.8832 20.4864 22.771 20.4926 22.6588 20.4926C21.7366 20.4926 20.9016 20.1063 20.241 19.3834C19.0072 18.0312 18.4526 15.576 18.7268 12.6472C19.1318 8.24152 21.7927 5.16315 25.1951 5.16315M25.1826 4.77057C21.4188 4.77057 18.733 8.1605 18.3217 12.6098C17.8419 17.7944 19.8547 20.8852 22.6526 20.8852C22.7772 20.8852 22.9019 20.879 23.0265 20.8665C24.7277 20.7045 25.65 18.9971 25.65 18.9971L25.6936 18.9971C25.6936 18.9971 25.5503 20.3244 25.5191 20.611C25.3135 22.4743 24.2541 23.4028 22.5404 23.5274C22.4719 23.5274 22.3971 23.5336 22.3286 23.5336C20.3656 23.5336 18.8825 21.633 18.8825 21.633C18.8825 21.633 18.7704 22.8793 18.7143 23.4962C18.5149 25.7146 19.2876 27.9144 22.5965 28.3256C22.8458 28.3568 23.0888 28.3693 23.3256 28.3693C26.6221 28.3693 29.0711 25.4841 29.5571 21.5458C29.6319 20.9164 29.7067 20.3182 29.7503 19.776C29.8251 18.9535 29.8811 18.3241 29.931 17.9128C30.1179 16.3923 30.3049 14.8656 30.4981 13.3451C30.7224 11.5629 31.358 7.39403 31.5699 5.86108C31.4577 5.87354 31.3456 5.87978 31.2272 5.87978C29.9372 5.87978 28.1613 5.08837 26.0238 4.80796C25.7372 4.77057 25.463 4.75187 25.1888 4.75187" fill="#FDB913"/>
<path d="M38.7984 25.4342C37.2281 29.0173 33.8631 30.8867 30.7536 29.441C27.9432 28.1386 27.9058 25.7457 28.4417 24.0072C28.6972 23.1721 29.1583 22.3371 29.1583 22.3371C29.1583 22.3371 29.9061 24.9232 31.95 25.3469C33.5328 25.6772 34.6981 25.0416 35.3711 23.4588C35.4521 23.2656 35.9444 22.0879 35.9444 22.0879L35.9195 22.0754C35.9195 22.0754 34.7168 23.0475 33.1963 22.63C31.1212 22.0629 29.2767 18.997 31.1648 14.367C32.8287 10.2792 36.4679 8.02335 40.0073 9.68093C41.9266 10.5845 43.2602 11.3198 44.4878 11.5255C43.8709 13.0273 42.3691 16.9032 41.6712 18.4674C41.0979 19.7573 39.0228 24.9107 38.7922 25.4466L38.7984 25.4342Z" stroke="#500000" stroke-width="7.8" stroke-linecap="round" stroke-linejoin="round"/>
<path d="M32.9221 30.4194C32.112 30.4194 31.3144 30.2387 30.5479 29.8835C28.0865 28.7431 27.1518 26.5434 27.9806 23.8639C28.2485 22.9915 28.7159 22.1378 28.7346 22.1066L29.3016 21.0909L29.6319 22.2063C29.6319 22.2063 30.3298 24.5182 32.0622 24.8734C32.299 24.9232 32.5233 24.9482 32.7352 24.9482C33.7322 24.9482 34.4551 24.3998 34.9349 23.2719L35.0222 23.06C34.7168 23.1535 34.3616 23.2158 33.9815 23.2158C33.6762 23.2158 33.3708 23.1722 33.0779 23.0912C32.0186 22.7983 31.0838 21.9757 30.5168 20.8291C29.6319 19.0345 29.7067 16.6727 30.7287 14.1801C32.1183 10.7653 34.7667 8.64032 37.6394 8.64032C38.518 8.64032 39.3842 8.83973 40.2255 9.23231C40.5994 9.40679 40.9421 9.57504 41.2724 9.73706C42.6059 10.3789 43.6528 10.8837 44.5751 11.0394L45.1795 11.1392L44.9489 11.7062C44.7246 12.2421 44.3943 13.0834 44.0267 14.0119C43.3474 15.7193 42.581 17.6511 42.1323 18.6606C41.7771 19.4644 40.8112 21.8262 40.1133 23.5461C39.6896 24.593 39.3406 25.4405 39.2533 25.6399C37.9572 28.5936 35.5394 30.4319 32.9346 30.4319" fill="#FDB913"/>
<path d="M32.9221 29.7339C32.2117 29.7339 31.5076 29.5719 30.8346 29.2604C27.9369 27.9143 28.2111 25.428 28.6286 24.0633C28.7657 23.6084 28.9714 23.1535 29.1272 22.8357C29.4512 23.6208 30.2862 25.2036 31.9126 25.5401C32.193 25.5962 32.4672 25.6274 32.729 25.6274C34.0126 25.6274 34.9661 24.9232 35.5581 23.5336L36.2061 21.9882L35.9257 21.8449L35.7949 21.9134C35.7949 21.9134 35.0159 22.5241 33.969 22.5241C33.726 22.5241 33.483 22.4929 33.2462 22.4244C32.3738 22.1876 31.5948 21.4897 31.1212 20.5176C30.3236 18.9036 30.4108 16.7413 31.3518 14.4294C32.6355 11.2762 35.0408 9.31955 37.6332 9.31955C38.4059 9.31955 39.1786 9.50026 39.9326 9.84922C40.3002 10.0237 40.6492 10.1857 40.9732 10.3477C42.2445 10.9584 43.2664 11.457 44.2199 11.6626C44.0017 12.1985 43.7089 12.94 43.3848 13.7501C42.7118 15.4451 41.9454 17.3706 41.4967 18.3739C41.1353 19.184 40.1694 21.552 39.4652 23.2781C39.0415 24.3188 38.6987 25.1538 38.6115 25.3532C37.4275 28.0577 35.2465 29.7339 32.9159 29.7339" fill="white"/>
<path d="M37.6394 9.51894C38.3871 9.51894 39.1287 9.69342 39.8515 10.0299C40.2192 10.2044 40.5682 10.3664 40.8922 10.5284C42.0762 11.0955 43.0483 11.5691 43.9519 11.7997C43.7462 12.3106 43.4845 12.9712 43.1979 13.6816C42.5249 15.3765 41.7646 17.2959 41.3222 18.2929C40.9608 19.1092 39.9949 21.471 39.2907 23.2033C38.8794 24.2128 38.5242 25.0852 38.437 25.2784C37.2842 27.9081 35.1717 29.5408 32.9283 29.5408C32.2491 29.5408 31.5761 29.385 30.928 29.0859C28.1675 27.8022 28.4292 25.428 28.828 24.1256C28.9153 23.8452 29.0274 23.5647 29.1334 23.3155C29.5633 24.1817 30.417 25.4342 31.8815 25.7333C32.1806 25.7956 32.4672 25.8268 32.7352 25.8268C34.0874 25.8268 35.1281 25.0603 35.7512 23.6084C35.8322 23.4214 36.3245 22.2312 36.3245 22.2312L36.4678 21.8947L36.1438 21.7264L36.1189 21.714L35.8883 21.5956L35.6889 21.7576C35.6889 21.7576 34.9598 22.3247 33.9877 22.3247C33.7634 22.3247 33.539 22.2935 33.3209 22.2312C32.5046 22.0069 31.7755 21.3463 31.3206 20.4241C30.5541 18.86 30.6352 16.7599 31.5574 14.4979C32.8099 11.4195 35.1468 9.50647 37.6518 9.50647M37.6331 9.12635C34.9349 9.12635 32.461 11.1952 31.1711 14.3608C29.2829 18.9908 31.1274 22.0567 33.2025 22.6238C33.4705 22.6986 33.7322 22.7297 33.9752 22.7297C35.1094 22.7297 35.9195 22.0754 35.9195 22.0754L35.9506 22.0879C35.9506 22.0879 35.4583 23.2719 35.3773 23.4588C34.8165 24.7737 33.9192 25.4342 32.7289 25.4342C32.4859 25.4342 32.2242 25.4093 31.9562 25.3532C29.9123 24.9294 29.1645 22.3434 29.1645 22.3434C29.1645 22.3434 28.7034 23.1722 28.4479 24.0134C27.912 25.752 27.9494 28.1449 30.7598 29.4535C31.4764 29.79 32.2117 29.9458 32.9283 29.9458C35.3275 29.9458 37.5957 28.201 38.8047 25.4467C39.0414 24.9107 41.1165 19.7573 41.6836 18.4674C42.3815 16.9033 43.8771 13.0273 44.5002 11.5255C43.2789 11.3198 41.9453 10.5845 40.0198 9.68096C39.2222 9.30706 38.4183 9.13258 37.6394 9.13258" fill="#FDB913"/>
<path d="M24.4411 16.0682C22.5778 16.0682 21.0698 14.5291 21.0698 12.6347C21.0698 10.7403 22.5841 9.20112 24.4411 9.20112C26.2981 9.20112 27.8185 10.7403 27.8185 12.6347C27.8185 14.5291 26.3043 16.0682 24.4411 16.0682Z" fill="#BCBEC0"/>
<path d="M26.9523 12.024C26.9523 13.694 25.625 15.0525 23.9861 15.0525C22.3473 15.0525 21.0137 13.694 21.0137 12.024C21.0137 10.3539 22.341 8.99547 23.9861 8.99547C25.6313 8.99547 26.9523 10.3539 26.9523 12.024Z" fill="#FDB913"/>
<path d="M22.285 12.024C22.285 11.5442 22.4781 11.1142 22.7835 10.7964C23.0888 10.4848 23.5126 10.2916 23.9862 10.2916C24.4598 10.2916 24.8773 10.4848 25.1826 10.7964" stroke="white" stroke-width="1.92" stroke-linecap="round" stroke-linejoin="round"/>
<path d="M36.5862 19.4706C34.723 19.4706 33.2087 17.9315 33.2087 16.0371C33.2087 14.1427 34.723 12.6035 36.5862 12.6035C38.4494 12.6035 39.9637 14.1427 39.9637 16.0371C39.9637 17.9315 38.4494 19.4706 36.5862 19.4706Z" fill="#BCBEC0"/>
<path d="M39.0913 15.4202C39.0913 17.0902 37.764 18.4487 36.1251 18.4487C34.4862 18.4487 33.1527 17.0902 33.1527 15.4202C33.1527 13.7501 34.48 12.3916 36.1251 12.3916C37.7702 12.3917 39.0913 13.7501 39.0913 15.4202Z" fill="#FDB913"/>
<path d="M34.4301 15.4202C34.4301 14.9403 34.6233 14.5104 34.9286 14.1926C35.234 13.881 35.6577 13.6878 36.1313 13.6878C36.6049 13.6878 37.0224 13.881 37.3278 14.1926" stroke="white" stroke-width="1.92" stroke-linecap="round" stroke-linejoin="round"/>
<path d="M43.8273 33.7221C42.9424 33.7221 42.0575 33.5476 41.1851 33.2049C37.2904 31.6657 35.6764 27.4283 37.3527 23.1286C37.4774 22.8107 37.6705 22.5241 37.9136 22.2998C37.9509 21.9508 38.0693 21.6018 38.275 21.2903C40.0323 18.5983 42.9112 16.7849 45.4412 16.7849C46.0893 16.7849 46.7124 16.8971 47.2857 17.1276C50.495 18.3988 51.7101 22.8107 51.2178 26.3129C50.6071 30.6749 47.5662 33.7221 43.8273 33.7221Z" fill="#540000"/>
<path d="M46.4444 19.2588C44.575 18.5173 41.7708 20.125 40.1942 22.5428C40.2129 22.5116 42.1198 22.3621 42.0637 22.3683C42.1322 22.3683 43.0171 24.6428 43.0171 24.6428L45.2916 23.5212L46.0145 25.9951L47.7157 25.6399C47.7157 25.6399 46.3634 26.7054 45.6717 27.2227C45.3352 26.5372 45.0424 25.914 44.7432 25.2099C43.9581 25.7707 42.2319 26.8301 42.2319 26.8301L41.1726 23.7829C41.1726 23.7829 40.1631 23.8452 39.4901 23.9698C38.356 26.8799 39.1847 29.9583 42.0263 31.08C45.3539 32.3948 48.3949 29.9396 48.9433 26.0075C49.3483 23.1286 48.3139 20.0128 46.4444 19.2713" fill="white"/>
</g>
<defs>
<clipPath id="clip0_769_77944">
<rect width="53" height="36" fill="white" transform="translate(53 36) rotate(-180)"/>
</clipPath>
</defs>
</svg>
