<svg width="80" height="39" viewBox="0 0 80 39" fill="none" xmlns="http://www.w3.org/2000/svg">
<g clip-path="url(#clip0_769_77878)">
<path d="M15.7995 26.7514C15.5638 26.7514 15.3476 26.7318 15.1577 26.6925C12.7474 26.175 11.1624 23.208 11.3916 19.6385L11.5226 17.5687L13.5203 18.1386C13.7495 18.2041 13.946 18.2368 14.1294 18.2368C14.3128 18.2368 14.5027 18.2106 14.6796 18.1648C15.1184 18.0469 15.5114 17.7914 15.8192 17.4247L18.5701 14.0974L18.7731 18.4071C18.8648 20.3327 18.95 22.1601 19.0285 23.8106L19.1202 25.8345L18.0199 26.2733C17.5811 26.4501 16.7034 26.7449 15.7995 26.7449" fill="#F58220"/>
<path d="M7.98578 19.7105C7.21947 19.7105 6.45316 19.5729 5.71305 19.3109L5.04497 19.0686L4.75679 18.4202C4.16076 17.0906 3.25036 16.1212 2.04521 15.5383L1.41644 15.2305L1.19376 14.5689C0.774577 13.318 0.70253 12.0604 0.984167 10.8356C1.25925 9.65013 1.83562 8.60218 2.70018 7.73107C2.83118 7.60008 2.96872 7.46908 3.11282 7.35119C3.32896 6.32944 3.76123 5.39938 4.39 4.64617C5.4969 3.31003 7.08193 2.58301 8.85689 2.58301C9.16473 2.58301 9.47911 2.60921 9.7935 2.64851C9.8721 2.60266 9.94414 2.55682 10.0227 2.51752C10.8218 2.09179 11.7191 1.86255 12.623 1.86255C14.0901 1.86255 15.4786 2.41272 16.7558 3.49997C17.1095 3.80126 17.4239 4.13529 17.7186 4.51517C18.6618 4.88196 19.5001 5.51073 20.1617 6.36219C21.3472 7.88171 21.8908 9.96452 21.6222 11.936C21.3734 13.7961 20.404 15.4728 18.9565 16.5404L16.8213 18.1254L16.3039 15.4073C16.0681 14.379 15.1708 13.652 14.1294 13.652C13.9395 13.652 13.7561 13.6782 13.5727 13.724C12.3937 14.0319 11.6667 15.2698 11.9483 16.4815C11.968 16.5666 12.0073 16.6517 12.0335 16.7369L12.492 17.9748L11.3982 18.7215C10.8873 19.0555 10.3306 19.3109 9.73456 19.4747C9.17128 19.6319 8.58181 19.7105 7.98578 19.7105Z" fill="#F58220"/>
<path d="M14.1294 21.5771C13.6316 21.5771 13.1338 21.5051 12.6033 21.3479C10.9004 20.8567 9.52495 19.5664 8.90928 17.8897C8.83723 17.6997 8.75863 17.4836 8.69969 17.2216C8.01197 14.2611 9.82623 11.2352 12.7408 10.4754C13.1993 10.3575 13.6644 10.2986 14.1359 10.2986C16.7427 10.2986 18.9761 12.0866 19.5656 14.6476C19.5787 14.7131 19.5918 14.7851 19.6049 14.8572C19.9259 16.5404 19.4805 18.2434 18.3998 19.5533C17.6466 20.4637 16.651 21.099 15.531 21.3938C15.0725 21.5117 14.6075 21.5706 14.1359 21.5706" fill="#F58220"/>
<path d="M72.1727 38.1741C71.9697 38.1741 71.7667 38.161 71.5636 38.1348L71.354 38.1086C70.889 38.0496 69.1075 37.7352 68.4525 37.5715C67.7451 37.3881 67.1164 37.1261 66.5531 36.7921C66.3697 36.8183 66.1798 36.8248 65.9898 36.8248C65.6427 36.8248 65.3021 36.7855 64.9681 36.7069C64.9681 36.7069 63.2717 36.3139 63.2455 36.3074C61.7849 35.9275 60.5536 35.0892 59.7021 33.9364C58.1957 35.5804 56.1587 36.5104 53.9646 36.5104C53.7878 36.5104 53.6044 36.5104 53.421 36.4908C53.159 36.4777 52.8577 36.4384 52.5564 36.3925C51.9342 36.2943 51.3447 36.1044 50.7814 35.8358C50.3492 35.9668 49.8972 36.0389 49.4388 36.0389H49.3667C49.1964 36.0389 47.3691 36.0127 47.1464 36.0127C45.8168 36.0127 44.5854 35.6131 43.5833 34.873C43.079 34.9975 42.5616 35.0695 42.0442 35.0826H41.8149H41.6184C41.1076 35.0695 40.6098 35.0171 40.1317 34.932C39.2474 36.0258 38.0881 36.8117 36.7062 37.244C36.0643 37.447 35.4028 37.5453 34.7347 37.5453H34.5579C33.1693 37.4994 31.8463 37.0344 30.7263 36.2092C30.0255 36.4187 29.2985 36.5235 28.5518 36.5235C28.4208 36.5235 28.2898 36.5235 28.1523 36.5104C27.9099 36.4973 27.661 36.4777 27.4122 36.4384C26.7965 36.3467 26.2267 36.1961 25.7027 35.993C24.0718 36.4646 23.5544 36.5104 23.2727 36.5301C23.0763 36.5432 22.8929 36.5497 22.716 36.5497C22.5981 36.5497 22.4737 36.5497 22.3623 36.5432C21.4323 36.4973 20.5743 36.2812 19.808 35.9013C18.5832 36.6545 17.1553 37.1851 15.5507 37.4929C14.9022 37.6173 14.2473 37.6763 13.5858 37.6763C11.0117 37.6763 8.67349 36.8379 6.63653 35.194L5.49034 34.2704L6.2632 33.0195C6.45969 32.6985 6.49899 32.2924 6.36145 31.9322L6.01432 31.0284C5.81783 30.4389 5.56239 29.0307 5.63443 23.6534C5.66718 21.5444 5.36589 19.7825 4.75677 18.4136L3.1521 14.8375L6.84612 16.1606C7.22601 16.2981 7.61899 16.3701 7.99887 16.3701C8.28706 16.3701 8.57524 16.3308 8.85033 16.2588C9.11887 16.1868 9.35466 16.0754 9.5708 15.9313L11.3392 14.7655L12.0662 16.75C12.3151 17.4377 12.8522 17.9421 13.5399 18.1386L14.8302 18.5119L14.745 19.8546C14.6206 21.7933 15.2559 22.9591 15.6817 23.3194C15.6162 21.8457 15.4262 17.929 15.4262 17.929L15.8389 17.4312C16.2842 16.8876 16.4676 16.1868 16.3432 15.5056L16.1467 14.4773L16.9916 13.8551C17.7121 13.318 18.2033 12.46 18.3343 11.4906C18.4784 10.423 18.1705 9.21788 17.5483 8.41882C17.2012 7.97344 16.7689 7.67871 16.2973 7.55426L15.6686 7.39707L15.3411 6.89929C15.3083 6.85345 15.2756 6.81415 15.2494 6.77485L14.8171 6.15263L15.007 5.41906C15.4917 3.53275 17.1095 2.15732 19.0351 1.99358L20.2795 1.88878C20.4891 1.86913 20.6725 1.86258 20.8559 1.86258C20.9738 1.86258 21.0917 1.86258 21.2096 1.86913C24.0391 2.01978 25.8271 3.72924 26.8161 5.8055C28.1064 3.85369 30.2416 2.6289 32.6192 2.6289C33.4117 2.6289 34.1976 2.76644 34.9574 3.04153C37.3349 3.89299 39.0117 5.65485 39.6535 7.8359C40.3543 7.63941 41.0748 7.54116 41.8215 7.54116C41.8215 7.54116 42.0769 7.54116 42.1228 7.54116C42.1686 6.60456 42.2537 4.86889 42.2537 4.86889C42.3127 3.66375 42.8563 2.50445 43.7536 1.69884C44.592 0.939078 45.6858 0.519897 46.8189 0.519897C46.8975 0.519897 46.9695 0.519897 47.0481 0.519897C47.0612 0.519897 48.083 0.572295 48.5284 0.598494C50.5522 0.716388 52.432 1.68574 53.552 3.19217C54.1611 4.01088 54.5999 4.98679 54.8488 6.07403C54.8685 6.07403 54.8815 6.07403 54.9012 6.07403C55.1304 6.08713 55.3662 6.11988 55.5889 6.16573L57.8093 6.64386C57.8551 6.65696 57.901 6.66351 57.9468 6.67661C58.7655 6.37532 59.6104 6.21813 60.475 6.21813C60.7894 6.21813 61.1103 6.23778 61.4247 6.28362C63.8808 6.60456 65.9898 8.06514 67.326 10.3248C67.4373 10.351 67.5487 10.3772 67.66 10.4099H67.6927C67.7582 10.4165 67.8172 10.4099 67.8827 10.4099C68.3281 10.3575 68.7931 10.3313 69.245 10.3313C70.2144 10.3313 71.1444 10.4492 72.0221 10.6785C72.1334 10.7047 72.2448 10.7374 72.3627 10.7702C77.8513 12.4207 80.052 17.2609 78.4211 24.066C76.8754 30.5306 76.7248 32.5151 76.7117 32.8819V32.9343C76.9278 34.3621 76.4562 35.8096 75.4541 36.8248C74.6027 37.6894 73.4172 38.1872 72.2055 38.1872" fill="#F58220"/>
<path d="M53.9711 33.6155C53.8598 33.6155 53.7419 33.6155 53.624 33.6024C53.4406 33.5893 53.2376 33.5696 53.028 33.5369C52.3141 33.419 51.6591 33.0849 51.1155 32.5741V33.1635L49.4257 33.1439C49.4257 33.1439 47.3953 33.1177 47.1529 33.1177C46.0329 33.1177 45.3387 32.633 44.9522 32.2269C43.8715 31.0938 43.9632 29.3582 44.0353 27.9631V27.7993C44.1925 24.7734 44.3693 21.0924 44.5396 17.405V17.2609C44.7164 13.5603 44.9719 8.18956 45.1225 5.15705L45.2142 3.31659C45.2142 3.31659 47.9061 3.46068 48.3384 3.48033C49.2488 3.53273 50.4867 3.93881 51.2137 4.91471C51.9276 5.86442 52.2486 7.20711 52.1569 8.79868L52.0979 9.80078C52.6219 9.30955 53.3358 8.94932 54.3969 8.94932C54.4951 8.94932 54.5999 8.94932 54.7113 8.95587H54.8423L59.1585 9.89248L58.366 11.7526C57.2067 14.4838 55.34 18.8394 54.5344 20.5488C54.8816 22.2255 55.4841 24.8258 56.0016 26.1161C56.5517 27.498 57.8486 28.1858 57.8617 28.1923L59.1781 28.8866L58.6542 30.2817C58.1761 31.5196 56.6565 33.6089 53.9777 33.6089" fill="#F58220"/>
<path d="M41.6708 32.1876C40.1513 32.1549 35.1539 31.2969 34.9705 21.6164C34.8984 17.8831 35.9071 14.4445 37.6624 12.4272C38.8086 11.1107 40.243 10.4164 41.8018 10.4164H41.9197C42.0507 10.4164 42.1882 10.4295 42.3258 10.4426C44.9194 10.6915 46.8713 13.187 46.8582 16.2457C46.8582 16.5928 46.8451 16.9858 46.832 17.3788V17.5032C46.8189 17.8634 46.8058 18.2171 46.8058 18.5381L46.7927 20.3785H44.4413L43.5178 19.8283L43.3017 19.4223C43.2362 19.3109 43.0069 19.1144 42.8759 19.1144H42.8432C42.0572 19.1275 41.9852 20.5095 41.9917 21.1055C42.0048 22.8609 42.3978 23.4765 42.5026 23.542C42.5026 23.542 42.5223 23.542 42.5616 23.542H42.614C43.0593 23.5355 43.3606 23.411 43.675 23.0835L44.2252 22.5203L46.4783 22.5727L46.8254 24.2035V26.103C46.7992 29.4957 44.7164 32.1025 41.9786 32.1811H41.8149H41.6774L41.6708 32.1876Z" fill="#F58220"/>
<path d="M34.6234 34.6503C33.4772 34.6175 32.331 34.0084 31.5712 33.0325C30.3923 31.5195 30.1237 29.607 30.0648 27.0134C29.9927 23.5813 29.639 16.0099 29.567 14.5231L29.4884 12.9446C28.5649 11.9294 28.1981 10.5343 28.5387 9.00171C28.9906 6.95165 30.6608 5.51727 32.5995 5.51727C33.058 5.51727 33.5165 5.59587 33.9553 5.75961C36.287 6.59142 37.4397 8.63493 36.8895 10.9666C36.6669 11.8967 36.1953 12.7023 35.5534 13.3049C35.8743 13.5406 36.1232 13.7961 36.3197 14.0319C37.217 15.1453 37.5838 16.7434 37.4397 18.9179C37.3284 20.6602 37.4201 22.9067 37.4856 24.5441C37.5118 25.2187 37.538 25.7886 37.538 26.175C37.5445 26.9675 37.8196 27.8255 38.0095 28.1726L38.9985 28.5001V29.8363C38.9854 31.5326 38.1536 33.7595 35.8416 34.4866C35.4814 34.5979 35.108 34.6568 34.7412 34.6568H34.6299L34.6234 34.6503Z" fill="#F58220"/>
<path d="M22.5065 33.6548C20.201 33.5369 18.95 31.6833 18.7797 28.1465L18.629 24.8716C18.3998 19.9463 18.092 13.2066 17.7383 6.7814L17.6335 4.99988L20.4957 4.75755C20.6136 4.74445 20.7184 4.74445 20.8297 4.74445C20.8952 4.74445 20.9607 4.74445 21.0262 4.74445C21.8711 4.79029 24.6548 5.30117 24.8709 10.0497C24.884 10.351 24.8905 10.5278 24.8905 10.6785C25.277 10.5802 25.6503 10.5409 25.9909 10.5409C26.1219 10.5409 26.2463 10.5409 26.3708 10.554C31.7284 10.8357 31.8725 17.0448 31.9446 20.0314C31.9642 20.7191 31.9708 21.5248 31.9839 22.3959L31.997 23.529C32.0166 25.71 32.0494 28.677 32.3572 29.4171L33.1497 30.3406L32.4947 31.4803C32.0625 32.2269 30.687 33.6286 28.5453 33.6286C28.4601 33.6286 28.375 33.6286 28.2898 33.6286C28.1392 33.622 27.982 33.6089 27.8248 33.5827C27.0454 33.4648 26.4559 33.2225 25.9974 32.8885L25.0543 33.1701C23.5675 33.6089 23.1811 33.6417 23.037 33.6548C22.9191 33.6613 22.8143 33.6679 22.7029 33.6679C22.6309 33.6679 22.5654 33.6679 22.4934 33.6679" fill="#F58220"/>
<path d="M13.5792 34.7879C9.6756 34.7879 5.23491 31.7553 4.12801 24.9895C3.1783 19.1865 4.4031 12.3945 10.7039 10.7112C11.2868 10.554 11.8959 10.4754 12.5116 10.4754C13.7495 10.4754 15.0136 10.7898 16.2646 11.4186L15.5834 14.5821C14.9481 14.6083 13.3696 14.8637 12.5051 16.6845C12.1907 17.3526 11.9745 18.1975 11.8697 19.1996C11.4964 22.7299 12.9504 25.7689 15.2494 26.2602C15.4131 26.2929 15.5965 26.3126 15.793 26.3126C16.9065 26.3126 18.1051 25.7951 18.4325 25.5921L20.5481 23.1818L21.2489 26.4239C21.3209 26.7579 21.8908 29.7315 19.9586 32.0239C18.8583 33.3338 17.1422 34.2442 15.0005 34.6569C14.5355 34.7486 14.0573 34.7879 13.5792 34.7879Z" fill="#F58220"/>
<path d="M7.98576 16.809C6.75442 16.809 5.54928 16.1933 4.75021 15.1716C4.42273 14.7524 3.39443 13.2394 3.80051 11.4775C3.95115 10.8226 4.27208 10.2462 4.75676 9.75496C5.0777 9.43402 5.44448 9.18514 5.85711 9.01484C5.83746 8.34023 5.93571 7.30537 6.61688 6.48011C7.16705 5.82515 7.95956 5.45836 8.85687 5.45836C9.47254 5.45836 10.0424 5.62865 10.4877 5.8186C10.7366 5.49766 11.0379 5.23567 11.385 5.05228C11.7649 4.84924 12.1841 4.74445 12.6164 4.74445C13.3762 4.74445 14.1359 5.06538 14.876 5.69415C15.3476 6.09368 15.6816 6.57181 15.924 7.04339C15.9698 7.04339 16.0157 7.04339 16.0615 7.05649C16.7558 7.13508 17.3846 7.50841 17.8758 8.13719C18.5701 9.02794 18.9106 10.3641 18.7535 11.5365C18.5242 13.2459 17.247 14.641 15.7864 14.7786C15.6947 14.7851 15.6096 14.7917 15.531 14.7917C14.8433 14.7917 14.3783 14.5231 14.1032 14.3594C14.0442 14.3266 13.9787 14.2808 13.887 14.2415C13.7167 14.1629 13.4875 14.1236 13.2321 14.1236C12.4854 14.1236 11.6732 14.4576 11.2672 14.7786C11.0052 14.9882 10.8742 15.165 10.7104 15.3811C10.4026 15.7872 9.94412 16.3963 8.94856 16.678C8.64073 16.7631 8.31325 16.809 7.97921 16.809" fill="#F58220"/>
<path d="M14.1294 18.6822C12.8784 18.6822 11.8108 17.8176 11.5226 16.5732C11.1886 15.1257 12.0597 13.652 13.4679 13.2852C13.684 13.2263 13.9067 13.2001 14.1359 13.2001C15.3869 13.2001 16.4545 14.0646 16.7427 15.3091C17.0767 16.7566 16.2056 18.2302 14.7974 18.597C14.5813 18.656 14.3586 18.6822 14.1294 18.6822Z" fill="#F58220"/>
<path d="M59.3812 30.7926C59.1127 30.7926 58.8376 30.7729 58.5625 30.7402C54.7244 30.2358 52.7726 25.9392 53.4734 19.5336C54.1546 13.3049 56.9578 9.11963 60.4488 9.11963C60.6387 9.11963 60.8287 9.13273 61.0186 9.15893C63.907 9.53881 66.5269 12.5713 65.8785 18.4857C65.7868 19.3175 65.5772 21.2235 64.2935 22.5268L64.8437 22.5989L64.5162 25.5986C64.169 28.7556 62.1517 30.7926 59.3812 30.7926Z" fill="#F58220"/>
<path d="M71.7405 35.2332C71.2754 35.1743 69.6315 34.8796 69.1664 34.7617C68.3412 34.5455 67.7648 34.1787 67.3718 33.7334L67.2539 34.2639L64.0249 33.5238C62.9442 33.2421 60.6387 32.1876 61.5098 28.1661L63.2521 20.3327C63.3765 19.7629 63.6188 18.8132 63.8743 17.8045L63.9005 17.6932C64.169 16.6518 64.4703 15.4663 64.6668 14.6017L65.1056 12.6892L67.1033 13.2787C67.2015 13.3049 67.3915 13.3245 67.6141 13.3245C67.7844 13.3245 67.9678 13.3114 68.184 13.2852C68.5311 13.2459 68.8782 13.2263 69.2254 13.2263C69.9458 13.2263 70.6401 13.3114 71.2754 13.4752C71.3606 13.4948 71.4457 13.521 71.5309 13.5472C74.2621 14.3659 77.1767 16.7369 75.5851 23.3849C73.6464 31.4934 73.7774 32.9867 73.7971 33.1308L74.1573 35.5607L71.747 35.2398L71.7405 35.2332Z" fill="#F58220"/>
<path d="M53.9711 33.6155C53.8598 33.6155 53.7419 33.6155 53.624 33.6024C53.4406 33.5893 53.2376 33.5696 53.028 33.5369C52.3141 33.419 51.6591 33.0849 51.1155 32.5741V33.1635L49.4257 33.1439C49.4257 33.1439 47.3953 33.1177 47.1529 33.1177C46.0329 33.1177 45.3387 32.633 44.9522 32.2269C43.8715 31.0938 43.9632 29.3582 44.0353 27.9631V27.7993C44.1925 24.7734 44.3693 21.0924 44.5396 17.405V17.2609C44.7164 13.5603 44.9719 8.18956 45.1225 5.15705L45.2142 3.31659C45.2142 3.31659 47.9061 3.46068 48.3384 3.48033C49.2488 3.53273 50.4867 3.93881 51.2137 4.91471C51.9276 5.86442 52.2486 7.20711 52.1569 8.79868L52.0979 9.80078C52.6219 9.30955 53.3358 8.94932 54.3969 8.94932C54.4951 8.94932 54.5999 8.94932 54.7113 8.95587H54.8423L59.1585 9.89248L58.366 11.7526C57.2067 14.4838 55.34 18.8394 54.5344 20.5488C54.8816 22.2255 55.4841 24.8258 56.0016 26.1161C56.5517 27.498 57.8486 28.1858 57.8617 28.1923L59.1781 28.8866L58.6542 30.2817C58.1761 31.5196 56.6565 33.6089 53.9777 33.6089" fill="#F58220"/>
<path d="M41.6708 32.1876C40.1513 32.1549 35.1539 31.2969 34.9705 21.6164C34.8984 17.8831 35.9071 14.4445 37.6624 12.4272C38.8086 11.1107 40.243 10.4164 41.8018 10.4164H41.9197C42.0507 10.4164 42.1882 10.4295 42.3258 10.4426C44.9194 10.6915 46.8713 13.187 46.8582 16.2457C46.8582 16.5928 46.8451 16.9858 46.832 17.3788V17.5032C46.8189 17.8634 46.8058 18.2171 46.8058 18.5381L46.7927 20.3785H44.4413L43.5178 19.8283L43.3017 19.4223C43.2362 19.3109 43.0069 19.1144 42.8759 19.1144H42.8432C42.0572 19.1275 41.9852 20.5095 41.9917 21.1055C42.0048 22.8609 42.3978 23.4765 42.5026 23.542C42.5026 23.542 42.5223 23.542 42.5616 23.542H42.614C43.0593 23.5355 43.3606 23.411 43.675 23.0835L44.2252 22.5203L46.4783 22.5727L46.8254 24.2035V26.103C46.7992 29.4957 44.7164 32.1025 41.9786 32.1811H41.8149H41.6774L41.6708 32.1876Z" fill="#F58220"/>
<path d="M34.6234 34.6503C33.4772 34.6175 32.331 34.0084 31.5712 33.0325C30.3923 31.5195 30.1237 29.607 30.0648 27.0134C29.9927 23.5813 29.639 16.0099 29.567 14.5231L29.4884 12.9446C28.5649 11.9294 28.1981 10.5343 28.5387 9.00171C28.9906 6.95165 30.6608 5.51727 32.5995 5.51727C33.058 5.51727 33.5165 5.59587 33.9553 5.75961C36.287 6.59142 37.4397 8.63493 36.8895 10.9666C36.6669 11.8967 36.1953 12.7023 35.5534 13.3049C35.8743 13.5406 36.1232 13.7961 36.3197 14.0319C37.217 15.1453 37.5838 16.7434 37.4397 18.9179C37.3284 20.6602 37.4201 22.9067 37.4856 24.5441C37.5118 25.2187 37.538 25.7886 37.538 26.175C37.5445 26.9675 37.8196 27.8255 38.0095 28.1726L38.9985 28.5001V29.8363C38.9854 31.5326 38.1536 33.7595 35.8416 34.4866C35.4814 34.5979 35.108 34.6568 34.7412 34.6568H34.6299L34.6234 34.6503Z" fill="#F58220"/>
<path d="M22.5065 33.6548C20.201 33.5369 18.95 31.6833 18.7797 28.1465L18.629 24.8716C18.3998 19.9463 18.092 13.2066 17.7383 6.7814L17.6335 4.99988L20.4957 4.75755C20.6136 4.74445 20.7184 4.74445 20.8297 4.74445C20.8952 4.74445 20.9607 4.74445 21.0262 4.74445C21.8711 4.79029 24.6548 5.30117 24.8709 10.0497C24.884 10.351 24.8905 10.5278 24.8905 10.6785C25.277 10.5802 25.6503 10.5409 25.9909 10.5409C26.1219 10.5409 26.2463 10.5409 26.3708 10.554C31.7284 10.8357 31.8725 17.0448 31.9446 20.0314C31.9642 20.7191 31.9708 21.5248 31.9839 22.3959L31.997 23.529C32.0166 25.71 32.0494 28.677 32.3572 29.4171L33.1497 30.3406L32.4947 31.4803C32.0625 32.2269 30.687 33.6286 28.5453 33.6286C28.4601 33.6286 28.375 33.6286 28.2898 33.6286C28.1392 33.622 27.982 33.6089 27.8248 33.5827C27.0454 33.4648 26.4559 33.2225 25.9974 32.8885L25.0543 33.1701C23.5675 33.6089 23.1811 33.6417 23.037 33.6548C22.9191 33.6613 22.8143 33.6679 22.7029 33.6679C22.6309 33.6679 22.5654 33.6679 22.4934 33.6679" fill="#F58220"/>
<path d="M13.5792 34.7879C9.6756 34.7879 5.23491 31.7553 4.12801 24.9895C3.1783 19.1865 4.4031 12.3945 10.7039 10.7112C11.2868 10.554 11.8959 10.4754 12.5116 10.4754C13.7495 10.4754 15.0136 10.7898 16.2646 11.4186L15.5834 14.5821C14.9481 14.6083 13.3696 14.8637 12.5051 16.6845C12.1907 17.3526 11.9745 18.1975 11.8697 19.1996C11.4964 22.7299 12.9504 25.7689 15.2494 26.2602C15.4131 26.2929 15.5965 26.3126 15.793 26.3126C16.9065 26.3126 18.1051 25.7951 18.4325 25.5921L20.5481 23.1818L21.2489 26.4239C21.3209 26.7579 21.8908 29.7315 19.9586 32.0239C18.8583 33.3338 17.1422 34.2442 15.0005 34.6569C14.5355 34.7486 14.0573 34.7879 13.5792 34.7879Z" fill="#F58220"/>
<path d="M7.98576 16.809C6.75442 16.809 5.54928 16.1933 4.75021 15.1716C4.42273 14.7524 3.39443 13.2394 3.80051 11.4775C3.95115 10.8226 4.27208 10.2462 4.75676 9.75496C5.0777 9.43402 5.44448 9.18514 5.85711 9.01484C5.83746 8.34023 5.93571 7.30537 6.61688 6.48011C7.16705 5.82515 7.95956 5.45836 8.85687 5.45836C9.47254 5.45836 10.0424 5.62865 10.4877 5.8186C10.7366 5.49766 11.0379 5.23567 11.385 5.05228C11.7649 4.84924 12.1841 4.74445 12.6164 4.74445C13.3762 4.74445 14.1359 5.06538 14.876 5.69415C15.3476 6.09368 15.6816 6.57181 15.924 7.04339C15.9698 7.04339 16.0157 7.04339 16.0615 7.05649C16.7558 7.13508 17.3846 7.50841 17.8758 8.13719C18.5701 9.02794 18.9106 10.3641 18.7535 11.5365C18.5242 13.2459 17.247 14.641 15.7864 14.7786C15.6947 14.7851 15.6096 14.7917 15.531 14.7917C14.8433 14.7917 14.3783 14.5231 14.1032 14.3594C14.0442 14.3266 13.9787 14.2808 13.887 14.2415C13.7167 14.1629 13.4875 14.1236 13.2321 14.1236C12.4854 14.1236 11.6732 14.4576 11.2672 14.7786C11.0052 14.9882 10.8742 15.165 10.7104 15.3811C10.4026 15.7872 9.94412 16.3963 8.94856 16.678C8.64073 16.7631 8.31325 16.809 7.97921 16.809" fill="#F58220"/>
<path d="M14.1294 18.6822C12.8784 18.6822 11.8108 17.8176 11.5226 16.5732C11.1886 15.1257 12.0597 13.652 13.4679 13.2852C13.684 13.2263 13.9067 13.2001 14.1359 13.2001C15.3869 13.2001 16.4545 14.0646 16.7427 15.3091C17.0767 16.7566 16.2056 18.2302 14.7974 18.597C14.5813 18.656 14.3586 18.6822 14.1294 18.6822Z" fill="#F58220"/>
<path d="M59.3812 30.7926C59.1127 30.7926 58.8376 30.7729 58.5625 30.7402C54.7244 30.2358 52.7726 25.9392 53.4734 19.5336C54.1546 13.3049 56.9578 9.11963 60.4488 9.11963C60.6387 9.11963 60.8287 9.13273 61.0186 9.15893C63.907 9.53881 66.5269 12.5713 65.8785 18.4857C65.7868 19.3175 65.5772 21.2235 64.2935 22.5268L64.8437 22.5989L64.5162 25.5986C64.169 28.7556 62.1517 30.7926 59.3812 30.7926Z" fill="#F58220"/>
<path d="M71.7405 35.2332C71.2754 35.1743 69.6315 34.8796 69.1664 34.7617C68.3412 34.5455 67.7648 34.1787 67.3718 33.7334L67.2539 34.2639L64.0249 33.5238C62.9442 33.2421 60.6387 32.1876 61.5098 28.1661L63.2521 20.3327C63.3765 19.7629 63.6188 18.8132 63.8743 17.8045L63.9005 17.6932C64.169 16.6518 64.4703 15.4663 64.6668 14.6017L65.1056 12.6892L67.1033 13.2787C67.2015 13.3049 67.3915 13.3245 67.6141 13.3245C67.7844 13.3245 67.9678 13.3114 68.184 13.2852C68.5311 13.2459 68.8782 13.2263 69.2254 13.2263C69.9458 13.2263 70.6401 13.3114 71.2754 13.4752C71.3606 13.4948 71.4457 13.521 71.5309 13.5472C74.2621 14.3659 77.1767 16.7369 75.5851 23.3849C73.6464 31.4934 73.7774 32.9867 73.7971 33.1308L74.1573 35.5607L71.747 35.2398L71.7405 35.2332Z" fill="#F58220"/>
<path d="M18.9368 25.8541C17.3977 25.8541 15.8126 24.6424 15.2559 23.0377C14.8105 21.7605 15.1773 20.6995 15.4655 19.848C15.662 19.2716 15.8519 18.7214 15.9043 17.9682C15.9764 16.9203 15.7537 15.7937 15.2297 14.6213L14.3717 12.6761L16.4611 12.3028C16.8868 12.2242 17.3191 12.1914 17.7579 12.1914C18.3343 12.1914 18.9172 12.2569 19.487 12.3944C20.5939 12.6564 21.6484 13.1608 22.6178 13.8943L24.432 15.2698L22.5785 16.5928C22.061 16.9661 21.5567 17.3853 21.0982 17.8503C21.0786 17.87 21.0589 17.8896 21.0393 17.9093C21.4126 18.4791 21.7598 19.2061 21.9432 20.0838C22.3165 21.8784 22.0938 24.852 19.9586 25.6772C19.6377 25.8017 19.2905 25.8672 18.9368 25.8672" fill="#F58220"/>
<path d="M18.9368 25.8541C17.3977 25.8541 15.8126 24.6424 15.2559 23.0377C14.8105 21.7605 15.1773 20.6995 15.4655 19.848C15.662 19.2716 15.8519 18.7214 15.9043 17.9682C15.9764 16.9203 15.7537 15.7937 15.2297 14.6213L14.3717 12.6761L16.4611 12.3028C16.8868 12.2242 17.3191 12.1914 17.7579 12.1914C18.3343 12.1914 18.9172 12.2569 19.487 12.3944C20.5939 12.6564 21.6484 13.1608 22.6178 13.8943L24.432 15.2698L22.5785 16.5928C22.061 16.9661 21.5567 17.3853 21.0982 17.8503C21.0786 17.87 21.0589 17.8896 21.0393 17.9093C21.4126 18.4791 21.7598 19.2061 21.9432 20.0838C22.3165 21.8784 22.0938 24.852 19.9586 25.6772C19.6377 25.8017 19.2905 25.8672 18.9368 25.8672" fill="#F58220"/>
<path d="M15.0987 19.7825C14.7778 19.8676 14.4503 19.9069 14.1228 19.9069C13.7495 19.9069 13.3958 19.8414 13.0552 19.7432C12.8653 22.7102 14.1163 24.7603 15.5048 25.055C15.5572 25.0681 15.6555 25.0812 15.7996 25.0812C16.3563 25.0812 16.9851 24.8913 17.3977 24.7275C17.3125 22.8608 17.2143 20.7453 17.1029 18.4857C16.5986 19.0948 15.9109 19.5664 15.0987 19.7759" fill="#540000"/>
<path d="M6.26976 17.7325C6.81993 17.929 7.3963 18.0338 7.97923 18.0338C8.4246 18.0338 8.85688 17.9748 9.27606 17.8569C9.75419 17.7259 10.1472 17.5294 10.4681 17.3133C10.4092 17.1627 10.3568 17.0055 10.3175 16.8417C9.83279 14.7524 11.1034 12.6237 13.1535 12.0866C13.4744 12.0015 13.8019 11.9622 14.1294 11.9622C15.9502 11.9622 17.5156 13.2197 17.9348 15.0209C17.9479 15.0733 17.9544 15.1323 17.961 15.1846C19.0089 14.4118 19.7687 13.1542 19.9652 11.7002C20.1682 10.1872 19.7359 8.53672 18.8386 7.37742C18.2622 6.63731 17.5156 6.13298 16.6903 5.92339C16.6641 5.88409 16.6314 5.85134 16.6052 5.81204C16.3497 5.44526 16.0484 5.08503 15.6686 4.75754C14.7058 3.93228 13.6775 3.51965 12.6164 3.51965C11.9876 3.51965 11.3589 3.67685 10.8021 3.97158C10.5729 4.09603 10.3502 4.24012 10.1537 4.41041C9.75419 4.30562 9.31536 4.23357 8.85033 4.23357C7.58624 4.23357 6.45315 4.75099 5.66719 5.69415C4.98602 6.51941 4.73058 7.46912 4.65198 8.26163C4.37689 8.43847 4.11491 8.64806 3.87912 8.8904C3.23725 9.53882 2.80497 10.3182 2.60193 11.1959C2.35959 12.2569 2.49714 13.2263 2.76567 14.0254C4.10836 14.6738 5.41175 15.8069 6.26976 17.7259" fill="#540000"/>
<path d="M14.1294 11.9688C13.8019 11.9688 13.4744 12.008 13.1535 12.0932C11.11 12.6303 9.83933 14.7589 10.3175 16.8483C10.3568 17.012 10.4157 17.1627 10.4681 17.3198C10.9069 18.5184 11.8632 19.4026 13.0487 19.7432C13.3893 19.8415 13.7429 19.907 14.1163 19.907C14.4438 19.907 14.7712 19.8677 15.0922 19.7825C15.9043 19.5729 16.5921 19.1014 17.0964 18.4922C17.8365 17.6015 18.1836 16.3963 17.9544 15.1912C17.9413 15.1388 17.9347 15.0799 17.9282 15.0275C17.509 13.2263 15.9502 11.9688 14.1228 11.9688" fill="#540000"/>
<path d="M71.8715 12.3683C71.7732 12.3421 71.675 12.3093 71.5767 12.2897C70.8366 12.0997 70.0441 12.0015 69.2188 12.0015C68.8259 12.0015 68.4329 12.0211 68.0465 12.067C67.8827 12.0866 67.7386 12.0932 67.6142 12.0932C67.4832 12.0932 67.4111 12.0801 67.3784 12.0801L67.1622 12.0146C66.8937 11.936 66.6186 11.8967 66.337 11.8967C66.3042 11.8967 66.2715 11.8967 66.2453 11.9032C65.1384 9.51915 63.2128 8.20921 61.1824 7.94722C60.94 7.91447 60.6977 7.90137 60.4554 7.90137C59.5843 7.90137 58.7655 8.10441 57.9927 8.4712C57.8158 8.3926 57.6325 8.3271 57.436 8.2878L55.2222 7.80968C55.0781 7.77693 54.9274 7.75728 54.7833 7.75073C54.6458 7.74418 54.5213 7.73763 54.3969 7.73763C54.0301 7.73763 53.6961 7.77038 53.3882 7.83588C53.3162 6.40149 52.9101 5.15705 52.1962 4.2008C51.3644 3.08735 49.9497 2.36689 48.4105 2.27519C47.9717 2.24899 46.9565 2.19659 46.9565 2.19659C46.9041 2.19659 46.8582 2.19659 46.8058 2.19659C46.0919 2.19659 45.3976 2.46513 44.8606 2.94326C44.2907 3.46068 43.9436 4.18115 43.9108 4.95401V5.11776C43.8453 6.30325 43.7668 7.84898 43.6882 9.5126C43.2952 9.3816 42.8825 9.28991 42.4503 9.25061C42.28 9.23096 42.1097 9.22441 41.9525 9.22441H41.8084C40.5181 9.22441 39.313 9.60429 38.2388 10.3313C38.4419 7.78348 36.9813 5.55658 34.381 4.63308C33.8047 4.42349 33.2086 4.31869 32.6061 4.31869C30.0844 4.31869 27.923 6.14606 27.3467 8.76593C27.2943 8.99517 27.2615 9.21786 27.2353 9.4471C26.9864 9.4078 26.731 9.3816 26.4559 9.36195C26.3249 9.36195 26.1939 9.34886 26.0629 9.34886C25.6503 5.26185 23.2793 3.67027 21.1114 3.55238C21.0262 3.55238 20.9345 3.54583 20.8494 3.54583C20.7118 3.54583 20.5677 3.55238 20.4106 3.56548L19.1661 3.67027C17.9086 3.77507 16.913 4.67893 16.6183 5.84477C16.6445 5.88407 16.6772 5.91682 16.7034 5.95612C17.5287 6.16571 18.2819 6.67658 18.8517 7.41015C19.749 8.56289 20.1813 10.22 19.9783 11.7329C19.7818 13.187 19.022 14.4445 17.9741 15.2174C18.2033 16.4225 17.8562 17.6277 17.1161 18.5184C17.2209 20.7781 17.3191 22.8936 17.4042 24.7603C16.9916 24.924 16.3628 25.114 15.8061 25.114C15.662 25.114 15.5703 25.1009 15.5114 25.0878C14.1229 24.793 12.8719 22.7364 13.0618 19.776C11.8763 19.4354 10.9135 18.5512 10.4812 17.3526C10.1603 17.5687 9.76731 17.7587 9.28918 17.8962C8.87 18.0141 8.43117 18.073 7.99234 18.073C7.40941 18.073 6.83304 17.9682 6.28287 17.7718C6.94439 19.2454 7.34392 21.1776 7.31117 23.7189C7.24567 28.6901 7.46181 30.1245 7.60591 30.5371L7.92684 31.3689C8.25433 32.2138 8.16918 33.1635 7.69105 33.9364C9.29573 35.2332 11.2672 36.0454 13.5923 36.0454C14.149 36.0454 14.6992 35.993 15.2428 35.8882C17.0375 35.5411 18.5701 34.8795 19.7687 33.9364C20.607 34.611 21.5698 34.8664 22.4541 34.9123C22.5458 34.9123 22.6309 34.9188 22.7226 34.9188C22.8601 34.9188 22.9977 34.9188 23.1483 34.8992C23.3645 34.8861 23.8098 34.8468 25.4276 34.3687L25.5455 34.3294C25.6372 34.3032 25.7223 34.2704 25.814 34.2377C26.3184 34.5062 26.934 34.7093 27.6676 34.8206C27.8641 34.8468 28.0606 34.8664 28.244 34.8795C28.3488 34.8795 28.4536 34.8861 28.5584 34.8861C29.5212 34.8861 30.3595 34.6634 31.0669 34.3294C32.0297 35.2987 33.2807 35.8685 34.5906 35.9078H34.7413C35.239 35.9078 35.7303 35.8358 36.2084 35.6852C37.7607 35.2005 38.789 34.1918 39.4112 33.0456C40.0858 33.288 40.8259 33.4321 41.6381 33.4517H41.8018H41.9983C42.6992 33.4321 43.3672 33.2814 43.9829 33.0194C44.0091 33.0456 44.0287 33.0784 44.0549 33.1046C44.8343 33.9233 45.9281 34.3752 47.1464 34.3752C47.3822 34.3752 49.3995 34.4014 49.406 34.4014H49.4453C49.9628 34.4014 50.4605 34.2639 50.8994 34.0084C51.4757 34.4014 52.1307 34.6634 52.8315 34.7813C53.087 34.8206 53.3293 34.8468 53.5389 34.8599C53.683 34.8664 53.8271 34.873 53.9712 34.873C56.4928 34.873 58.1826 33.4059 59.1192 32.0304C59.2044 32.0304 59.2961 32.0501 59.3812 32.0501C59.7611 32.0501 60.1279 32.0173 60.4881 31.9584C61.0972 33.4976 62.3548 34.3883 63.6778 34.7289C63.704 34.7289 65.348 35.1153 65.348 35.1153C65.5641 35.1612 65.7803 35.1874 65.9964 35.1874C66.3108 35.1874 66.6186 35.135 66.9199 35.0367C67.5028 35.5149 68.1971 35.8096 68.8652 35.9864C69.4153 36.124 71.1183 36.4253 71.5767 36.4842L71.7863 36.5104C71.9173 36.5301 72.0418 36.5366 72.1728 36.5366C72.9456 36.5366 73.6857 36.2288 74.2359 35.6721C74.8778 35.0236 75.1725 34.1132 75.0415 33.2159L75.0153 33.0391C75.0153 32.9736 74.9302 31.4017 76.7706 23.7058C77.5893 20.2803 78.0478 14.2611 71.8715 12.4076" fill="#540000"/>
<path d="M53.7354 31.9322C53.5913 31.9256 53.4406 31.906 53.29 31.8798C52.5433 31.7619 51.9015 31.1593 51.515 30.2358C51.0041 29.0176 50.6701 27.0592 50.3492 25.1729C50.1461 23.994 49.9562 22.8609 49.727 21.9243C49.6615 23.136 49.6287 24.8061 49.5501 26.3519C49.4584 28.284 49.4453 31.4672 49.4453 31.4672C49.4453 31.4672 47.3494 31.441 47.1464 31.441C45.4762 31.441 45.6334 29.4957 45.712 27.8779C45.8692 24.8127 46.0395 21.0728 46.2163 17.3329C46.3866 13.6324 46.6421 8.26817 46.7927 5.23566V5.06537C46.7927 5.06537 47.8079 5.11777 48.2402 5.14396C48.8231 5.17671 49.5239 5.44525 49.8711 5.91028C50.3361 6.5325 50.5522 7.5215 50.4867 8.6939L49.9169 18.7149C50.716 16.9989 51.8163 13.0691 52.7529 11.6347C53.2376 10.888 53.6175 10.5671 54.613 10.6261L56.8268 11.1042C56.8268 11.1042 53.1787 19.6843 52.7791 20.3261C52.9101 20.9746 53.6961 24.8716 54.4427 26.7383C55.2549 28.7621 57.0954 29.6857 57.0954 29.6857C57.0954 29.6857 56.1653 32.0959 53.7419 31.9322" fill="#FFF200"/>
<path d="M41.7101 30.5175C38.6383 30.452 36.7389 27.1116 36.6341 21.5837C36.5686 18.3023 37.4463 15.2108 38.9199 13.5276C39.7714 12.5516 40.767 12.067 41.8804 12.0932C41.9721 12.0932 42.0638 12.0997 42.1555 12.1063C43.8912 12.2766 45.188 14.0515 45.1814 16.2391C45.1814 16.5928 45.1684 16.9923 45.1553 17.3919C45.1422 17.7914 45.1291 18.1844 45.1291 18.5315V18.7018H44.8998L44.7688 18.6232C44.5134 18.1582 43.8126 17.4574 42.9087 17.4377H42.8432C41.2385 17.4639 40.2954 18.8394 40.3216 21.1121C40.3347 22.9591 40.7342 25.1729 42.5223 25.2122H42.6074C43.5244 25.1926 44.2383 24.8913 44.8605 24.2494L44.9064 24.2035H45.1094L45.1422 24.3738V26.0964C45.1225 28.546 43.7078 30.4585 41.9197 30.5044C41.8477 30.5044 41.7822 30.5044 41.7101 30.5044" fill="#FFF200"/>
<path d="M34.6758 32.9801C34.0143 32.9605 33.3462 32.5937 32.8877 32.0042C32.1017 31.0021 31.7939 29.6332 31.735 26.9741C31.6564 23.208 31.2372 14.4838 31.2306 14.3987V14.2284L31.3682 14.2153C31.3682 14.2153 32.1738 14.1563 32.4947 14.1498C32.6388 14.1432 32.7829 14.1367 32.927 14.1498C33.8374 14.176 34.5448 14.4904 35.0229 15.0798C35.6451 15.8461 35.8875 17.0709 35.7761 18.8066C35.6582 20.6405 35.7499 22.9329 35.8154 24.6096C35.8416 25.2646 35.8678 25.8148 35.8678 26.1881C35.8809 27.5701 36.4835 29.4302 37.217 29.666L37.3284 29.7053V29.8363C37.3284 30.2424 37.2236 32.299 35.3438 32.8884C35.1277 32.9539 34.8985 32.9867 34.6758 32.9801ZM35.2652 10.5802C35.6517 8.95587 34.8068 7.83587 33.392 7.33154C31.9773 6.82067 30.5298 7.73107 30.1696 9.36195C29.8093 10.9928 30.5953 12.1259 31.9904 12.6237C33.3789 13.1215 34.8854 12.198 35.2652 10.5802Z" fill="#FFF200"/>
<path d="M22.5916 31.9846C21.2358 31.9125 20.5808 30.7074 20.4564 28.0679C20.2337 23.2669 19.8538 14.7196 19.415 6.68967V6.52593L20.6529 6.42114C20.7577 6.41459 20.8625 6.40804 20.9607 6.42114C22.3165 6.49318 23.1156 7.80967 23.2203 10.1348C23.2596 11.0125 23.2203 10.7374 23.2727 12.139C23.3055 12.9577 23.3382 13.7633 23.3644 14.4249C23.9343 12.9446 24.8054 12.2242 26.0171 12.2176C26.1153 12.2176 26.207 12.2176 26.2987 12.2242C29.4622 12.3879 30.1827 15.4794 30.294 20.0707C30.3137 20.7846 30.3202 21.623 30.3333 22.5268C30.3792 26.2602 30.3333 29.6005 31.0472 30.4389L31.1258 30.5306L31.0603 30.6419C30.8507 31.0087 29.9076 32.0304 28.3946 31.9518C28.2964 31.9518 28.1916 31.9387 28.0868 31.9191C26.2267 31.644 26.2267 30.2686 26.2332 28.5263C26.2332 28.1923 26.2332 27.8452 26.2201 27.4784C26.1808 26.1357 26.338 26.2536 26.41 24.5114C26.4493 23.5224 26.4886 22.5006 26.5083 21.492C26.5607 19.2061 26.0957 17.9224 25.2049 17.8765C25.1656 17.8765 25.1263 17.8765 25.0805 17.8765C23.9277 17.9551 23.7836 19.1734 23.8884 21.8653C24.026 25.186 24.6875 31.2969 24.694 31.3755L24.7071 31.513L24.5892 31.5458C24.5368 31.5589 23.2924 31.9322 22.9191 31.9649C22.8012 31.9715 22.6964 31.9715 22.5916 31.9649" fill="#FFF200"/>
<path d="M10.2127 19.0162C9.72799 23.5944 11.8435 27.236 14.9023 27.8845C16.7951 28.2905 19.2316 27.2098 19.618 26.771C19.618 26.771 20.142 29.2075 18.6814 30.9432C17.8234 31.9649 16.4414 32.6723 14.6861 33.0063C11.0248 33.7071 6.78718 30.8777 5.77853 24.7144C4.59959 17.5425 7.13432 13.39 11.1362 12.3224C12.9832 11.8312 14.6272 12.4665 15.5179 12.9119C15.066 12.9315 12.3544 13.0953 10.9986 15.964C10.4092 17.2085 10.2585 18.5708 10.2127 19.0162Z" fill="#FFF200"/>
<path d="M15.6292 13.115C16.3104 13.0495 16.9719 12.2569 17.0964 11.3138C17.247 10.1938 16.651 8.80526 15.8781 8.71357C15.3935 8.66117 15.0005 9.13275 14.8564 9.31614C14.8367 9.0869 14.7123 7.75076 13.7953 6.9648C13.5988 6.79451 12.8587 6.16574 12.1776 6.52597C11.5946 6.84036 11.2606 7.77041 11.4243 8.80526C11.2541 8.50398 10.9397 8.0455 10.4484 7.69837C9.80657 7.24644 8.55558 6.76176 7.90716 7.54772C7.42249 8.13065 7.53383 9.0869 7.55348 9.25719C7.64517 9.98421 8.00541 10.4558 8.12985 10.6064C7.99231 10.554 6.78062 10.089 5.94881 10.9339C5.83746 11.0453 5.55582 11.34 5.43793 11.8509C5.18904 12.9447 5.94226 13.9664 6.0798 14.1433C6.72167 14.9751 7.71067 15.2895 8.50973 15.0668C9.31535 14.8441 9.26295 14.2546 10.2389 13.4752C11.2541 12.6696 13.1862 12.0932 14.5747 12.7154C15.0529 12.925 15.197 13.1543 15.6358 13.115" fill="#ED1C24"/>
<path d="M15.1118 15.6824C15.2428 16.2588 14.9153 16.8352 14.3717 16.9793C13.8281 17.1233 13.2845 16.7697 13.1469 16.1933C13.0159 15.6169 13.3434 15.0405 13.887 14.8965C14.4307 14.7524 14.9808 15.106 15.1118 15.6759" fill="white"/>
<path d="M59.3485 22.0814L58.0123 21.9046C57.9992 23.6534 58.6476 24.5703 59.9379 24.7406C61.3723 24.9306 62.322 24.6096 62.8984 24.0136L63.0097 24.0267L62.8591 25.4087C62.6168 27.6094 61.3461 29.4105 58.7786 29.0765C55.6741 28.6704 54.613 24.4852 55.137 19.7105C55.7134 14.4641 58.0254 10.4426 60.8025 10.8094C63.1538 11.1173 64.7061 13.9009 64.2214 18.2957C63.8416 21.7474 62.3875 22.481 59.3485 22.0814ZM60.3113 15.2698C59.2175 15.1257 58.6149 16.416 58.3464 18.0665L59.5515 18.2237C61.0186 18.4136 61.333 18.0141 61.4116 17.2609C61.5099 16.3832 61.202 15.3877 60.3047 15.2698" fill="#FFF200"/>
<path d="M64.4048 31.8863C63.1407 31.5589 62.7281 30.452 63.1473 28.5132L64.8829 20.6929C65.0074 20.1231 65.2562 19.1406 65.5248 18.0992C65.8064 16.9858 66.1012 15.8396 66.2977 14.9619L66.3369 14.7851L66.6251 14.8702C67.2081 15.0209 67.8434 14.9947 68.3674 14.9357C68.9765 14.8702 69.9131 14.8375 70.8497 15.0864C70.9152 15.106 70.9872 15.1257 71.0593 15.1453C74.7271 16.2457 74.773 19.5991 73.9542 22.9919C73.4434 25.1205 71.8976 31.7226 72.14 33.3731L72.1727 33.6024L71.9631 33.5762C71.5374 33.5172 69.9589 33.2356 69.579 33.1439C68.125 32.764 68.0923 31.6702 68.5245 29.7773C68.8913 28.1858 69.9589 23.5617 70.3257 21.9701C70.83 19.8087 70.5026 19.3961 69.9131 19.2454C69.6511 19.1799 69.5135 19.1865 69.304 19.3306C68.8913 19.6188 68.6686 20.3982 68.4394 21.4265C67.8696 23.9678 66.5989 29.5481 66.0291 32.0894L65.9898 32.2597L64.3982 31.8929L64.4048 31.8863Z" fill="#FFF200"/>
<path d="M16.7623 13.9533C17.2994 13.855 18.1247 13.7895 19.1071 14.0253C20.2468 14.2938 21.1048 14.844 21.6157 15.2305C21.0917 15.6038 20.5153 16.0754 19.9193 16.6648C19.5066 17.0775 19.1464 17.4835 18.832 17.8765C19.1399 18.1516 20.011 19.0031 20.3057 20.4178C20.5742 21.7146 20.404 23.7058 19.356 24.1118C18.4783 24.4524 17.2208 23.5944 16.8344 22.4941C16.3759 21.1776 17.4238 20.2672 17.5745 18.0992C17.6858 16.429 17.2077 14.9619 16.7623 13.9598V13.9533Z" stroke="#540000" stroke-width="3.06" stroke-linecap="round" stroke-linejoin="round"/>
<path d="M16.7623 13.9533C17.2994 13.855 18.1247 13.7895 19.1071 14.0253C20.2468 14.2938 21.1048 14.844 21.6157 15.2305C21.0917 15.6038 20.5153 16.0754 19.9193 16.6648C19.5066 17.0775 19.1464 17.4835 18.832 17.8765C19.1399 18.1516 20.011 19.0031 20.3057 20.4178C20.5742 21.7146 20.404 23.7058 19.356 24.1118C18.4783 24.4524 17.2208 23.5944 16.8344 22.4941C16.3759 21.1776 17.4238 20.2672 17.5745 18.0992C17.6858 16.429 17.2077 14.9619 16.7623 13.9598" fill="#ED1C24"/>
<path d="M45.1814 16.2391C45.1814 15.2436 44.9195 14.3397 44.461 13.6258C44.6116 14.1105 44.6968 14.641 44.6968 15.1977C44.6968 15.5514 44.6837 15.9509 44.6706 16.3505C44.6575 16.7434 44.6444 17.143 44.6444 17.4901V17.6604H44.4151L44.2841 17.5818C44.0287 17.1168 43.3279 16.416 42.424 16.3963H42.3585C40.7539 16.4225 39.8107 17.7979 39.8369 20.0707C39.85 21.2562 40.0137 22.5923 40.6098 23.4045C40.4002 22.6971 40.3281 21.8719 40.3216 21.1121C40.3019 18.8393 41.2385 17.4639 42.8432 17.4377H42.9087C43.8126 17.4574 44.5134 18.1582 44.7688 18.6232L44.8998 18.7018H45.129V18.5315C45.129 18.1844 45.1422 17.7848 45.1553 17.3919C45.1684 16.9923 45.1814 16.5863 45.1814 16.2391Z" fill="#FAA61A"/>
<path d="M34.7805 9.53879C34.3941 11.1631 32.8942 12.0866 31.5057 11.5823C30.9359 11.3793 30.4774 11.0649 30.1434 10.6522C30.3333 11.5888 31.0014 12.27 31.9904 12.6237C33.3789 13.1215 34.8853 12.198 35.2652 10.5802C35.4879 9.64359 35.2914 8.88383 34.8199 8.3009C34.8919 8.67424 34.8853 9.08032 34.7805 9.53879Z" fill="#FAA61A"/>
<path d="M22.7423 9.08686C22.7816 9.96452 22.7423 9.68943 22.7946 11.0911C22.8274 11.9098 22.9518 14.7654 22.9518 14.7654L23.3514 14.4052C23.3514 14.4052 23.2662 12.2766 23.2597 12.139C23.2073 10.7374 23.2466 11.0125 23.2073 10.1348C23.1549 8.90347 22.8929 7.96031 22.4672 7.33154C22.6113 7.82932 22.7095 8.41224 22.7357 9.08686" fill="#FAA61A"/>
<path d="M49.9824 7.66561L49.4126 19.4026L49.9169 18.7018L50.4802 8.70046C50.5522 7.52806 50.3296 6.53906 49.8645 5.91684C49.8514 5.89719 49.8252 5.88409 49.8121 5.86444C49.9562 6.38187 50.0217 6.99099 49.9824 7.66561Z" fill="#FAA61A"/>
<path d="M19.2054 27.0723C19.1661 27.9173 18.95 29.0045 18.1902 29.9084C17.3322 30.9301 15.9502 31.6375 14.1949 31.9715C11.4702 32.4955 8.43115 31.0546 6.63654 27.747C8.31981 31.7881 11.6994 33.5762 14.6927 33.0064C16.448 32.6723 17.83 31.965 18.688 30.9432C20.1485 29.2075 19.6246 26.7711 19.6246 26.7711C19.5525 26.8497 19.4084 26.9544 19.2119 27.0658" fill="#FAA61A"/>
<path d="M52.2748 19.2913C52.4058 19.9397 53.1917 23.8368 53.9384 25.71C54.0563 26.0113 54.2004 26.2798 54.3576 26.5287C53.6371 24.59 52.897 20.9549 52.7726 20.3261C53.1721 19.6843 56.8203 11.1042 56.8203 11.1042L55.9557 10.9208C55.0257 13.1018 52.5957 18.7739 52.2682 19.2913" fill="#FAA61A"/>
<path d="M35.108 15.1978C35.298 15.8789 35.3635 16.7304 35.2914 17.7652C35.1735 19.5991 35.2652 21.8915 35.3307 23.5683C35.3569 24.2232 35.3831 24.7734 35.3831 25.1467C35.3897 26.175 35.7303 27.4719 36.2084 28.1661C36.0053 27.5374 35.8743 26.8169 35.8678 26.1881C35.8678 25.8083 35.8416 25.2581 35.8154 24.6097C35.7499 22.9329 35.6517 20.634 35.7761 18.8066C35.8874 17.1496 35.6648 15.9706 35.108 15.1978Z" fill="#FAA61A"/>
<path d="M24.7333 16.8417C24.694 16.8417 24.6547 16.8417 24.6089 16.8417C23.4561 16.9203 23.312 18.1386 23.4168 20.8305C23.5544 24.1512 24.2159 30.262 24.2224 30.3406L24.2355 30.4782L24.1176 30.5175C24.0652 30.5306 22.8208 30.9039 22.4475 30.9301C22.3361 30.9367 22.2248 30.9432 22.12 30.9301C21.5371 30.9039 21.0917 30.6419 20.7511 30.1638C21.0786 31.3427 21.6746 31.9322 22.5916 31.9781C22.6964 31.9781 22.8077 31.9781 22.919 31.9781C23.2924 31.9519 24.5368 31.5785 24.5892 31.5589L24.7071 31.5261L24.694 31.3886C24.6875 31.31 24.0194 25.1991 23.8884 21.8784C23.7771 19.1865 23.9211 17.9683 25.0804 17.8897C25.1197 17.8897 25.1656 17.8897 25.2049 17.8897C25.4669 17.9028 25.683 18.0338 25.8664 18.2499C25.6568 17.3592 25.2835 16.8679 24.7399 16.8417" fill="#FAA61A"/>
<path d="M53.2376 30.8974C53.0935 30.8908 52.9428 30.8712 52.7922 30.845C52.2485 30.7598 51.7508 30.4061 51.3774 29.8691C51.4233 29.9935 51.4691 30.1245 51.515 30.2359C51.8949 31.1594 52.5433 31.7619 53.29 31.8798C53.4471 31.906 53.5912 31.9191 53.7353 31.9322C56.1587 32.096 57.0888 29.6857 57.0888 29.6857C57.0888 29.6857 56.7613 29.5219 56.3159 29.1748C55.8836 29.8756 54.9274 31.0087 53.231 30.8974" fill="#FAA61A"/>
<path d="M49.2029 22.9853C49.2029 22.9853 49.1309 23.7713 49.0523 25.3236C48.9606 27.2557 48.9475 30.4389 48.9475 30.4389C48.9475 30.4389 46.8516 30.4127 46.6486 30.4127C46.249 30.4127 45.9608 30.3013 45.7382 30.1114C45.8757 30.8843 46.2425 31.4541 47.1463 31.4475C47.3494 31.4475 49.4453 31.4737 49.4453 31.4737C49.4453 31.4737 49.4584 28.2906 49.5501 26.3584C49.6025 25.2712 49.7204 21.9963 49.7204 21.9963L49.1964 22.9853H49.2029Z" fill="#FAA61A"/>
<path d="M37.217 29.6726C37.073 29.6267 36.9289 29.5088 36.7979 29.3516C36.68 30.1245 36.2739 31.4082 34.8592 31.8471C34.643 31.9126 34.4138 31.9453 34.1911 31.9388C33.5361 31.9191 32.8681 31.5523 32.403 30.9628C32.3244 30.8646 32.2524 30.7533 32.1869 30.6485C32.3637 31.1855 32.593 31.6244 32.8877 32.0042C33.3462 32.5937 34.0143 32.9605 34.6758 32.9802C34.8985 32.9867 35.1211 32.954 35.3373 32.8885C37.2171 32.299 37.3218 30.2424 37.3218 29.8363V29.7119L37.2105 29.6726H37.217Z" fill="#FAA61A"/>
<path d="M30.3202 22.5268C30.3071 21.623 30.3006 20.7846 30.2809 20.0707C30.222 17.4508 29.96 15.3222 29.1544 13.9402C29.5998 15.2632 29.7635 16.9923 29.8159 19.0162C29.8356 19.7301 29.8421 20.5685 29.8552 21.4723C29.9011 25.2057 29.8618 28.546 30.5691 29.3844L30.6477 29.4761L30.5822 29.5874C30.3726 29.9542 29.4295 30.9759 27.9165 30.8973C27.8183 30.8973 27.7135 30.8842 27.6087 30.8646C26.993 30.7729 26.5869 30.5633 26.3118 30.2555C26.469 31.1266 26.9013 31.7422 28.0802 31.9125C28.185 31.9256 28.2898 31.9387 28.3881 31.9453C29.9011 32.0239 30.8442 30.9956 31.0538 30.6353L31.1193 30.524L31.0407 30.4323C30.3268 29.5939 30.3661 26.2536 30.3268 22.5203" fill="#FAA61A"/>
<path d="M45.1094 24.2167H44.9064L44.8605 24.256C44.7951 24.3215 44.723 24.3739 44.6575 24.4328V25.0616C44.6444 27.5112 43.2297 29.4237 41.4416 29.4695C41.3696 29.4695 41.2975 29.4695 41.232 29.4695C39.6863 29.4368 38.4418 28.5722 37.5707 27.0199C38.4353 29.2206 39.8566 30.4716 41.7167 30.5109C41.7887 30.5109 41.8542 30.5109 41.9263 30.5109C43.7143 30.4651 45.1291 28.5526 45.1422 26.103V24.3804L45.116 24.2167H45.1094Z" fill="#FAA61A"/>
<path d="M59.7152 14.2742C58.6214 14.1301 57.9009 15.9379 57.7307 17.9879L58.3463 18.06C58.6607 16.0754 59.4205 15.1453 60.3047 15.2632C60.4946 15.2894 60.6453 15.3549 60.7828 15.4466C60.6649 14.8572 60.3374 14.3463 59.7152 14.2677" fill="#FAA61A"/>
<path d="M63.0097 24.0332L62.8983 24.0201C62.7215 24.197 62.5119 24.3542 62.263 24.4721C62.0076 26.6466 60.7369 28.4215 58.1891 28.0875C57.2263 27.9631 56.46 27.4653 55.8771 26.7055C56.4927 28.0286 57.449 28.9062 58.7851 29.0765C61.3461 29.4171 62.6233 27.6094 62.8656 25.4087L63.0162 24.0267L63.0097 24.0332Z" fill="#FAA61A"/>
<path d="M63.6254 17.3067C63.2455 20.7584 61.7914 21.492 58.7524 21.0924L57.4163 20.9156C57.4097 22.0225 57.6782 23.2407 58.3922 23.7713C58.0581 23.1949 58.0057 22.4351 58.0057 21.9112L59.3419 22.088C62.3809 22.4875 63.8349 21.754 64.2083 18.3023C64.5096 15.5449 64.0118 13.4228 63.0162 12.1456C63.5992 13.4228 63.8481 15.1715 63.6188 17.3067" fill="#FAA61A"/>
<path d="M69.3105 19.3306C69.5135 19.1865 69.6511 19.18 69.9196 19.2455C69.9458 19.2455 70.3126 19.3634 70.5025 19.717C70.4305 18.6101 69.841 18.394 69.4611 18.2958C69.1926 18.2303 68.9306 18.191 68.721 18.3351C68.3084 18.6232 68.0857 19.4027 67.8565 20.431C67.2866 22.9722 66.016 28.5526 65.4462 31.0939L65.4069 31.2576L63.8153 30.8908C63.5206 30.8122 63.2782 30.6878 63.0752 30.5306C63.2455 31.238 63.6778 31.6964 64.4048 31.8864L65.9964 32.2532L66.0356 32.0829C66.6055 29.5416 67.8696 23.9612 68.4459 21.42C68.6752 20.3917 68.8979 19.6123 69.3105 19.3241" fill="#FAA61A"/>
<path d="M73.3845 16.619C74.0067 18.1189 73.8233 20.0511 73.3583 21.9963C72.8474 24.125 71.3017 30.727 71.544 32.3776L71.5767 32.6068L71.3672 32.5806C70.9414 32.5217 69.3629 32.24 68.9831 32.1483C68.708 32.0763 68.4984 31.9715 68.315 31.847C68.4132 32.502 68.7735 32.9343 69.5725 33.1439C69.9524 33.2421 71.5309 33.5238 71.9566 33.5827L72.1662 33.6089L72.1335 33.3797C71.8846 31.7291 73.4369 25.1271 73.9477 22.9984C74.5241 20.5881 74.6616 18.204 73.3845 16.6256" fill="#FAA61A"/>
</g>
<defs>
<clipPath id="clip0_769_77878">
<rect width="80" height="38.9189" fill="white" transform="translate(0 0.0810547)"/>
</clipPath>
</defs>
</svg>
