<svg width="97" height="48" viewBox="0 0 97 48" fill="none" xmlns="http://www.w3.org/2000/svg">
<g clip-path="url(#clip0_2_15)">
<path d="M0 0C0 26.5116 21.7003 48 48.4913 48C75.2823 48 97 26.5116 97 0H0Z" fill="#ED1C24"/>
<path d="M29.206 9.15698H33.8623V26.1802H29.206V9.15698ZM67.7593 9.15698H63.0856V26.1802H67.7593V9.15698ZM26.374 9.15698H22.0478V17.8256L16.6445 9.15698H12.0924V26.1628L16.6445 26.1802V17.1628L19.7892 22.186C20.4668 23.3023 21.5613 24.6977 22.9513 25.4826C23.7852 25.9535 25.0536 26.4244 26.5999 26.4244V9.15698H26.374ZM84.6296 9.15698H80.3208V17.8256L74.9174 9.15698H70.3654V26.1628L74.9174 26.1802V17.1628L78.0448 22.186C78.7224 23.3023 79.8169 24.6977 81.2069 25.4826C82.0408 25.9535 83.3265 26.4244 84.8728 26.4244V9.15698H84.647H84.6296ZM58.8463 19.5349C56.6572 18.0698 54.7981 17.5465 54.2248 17.2849C53.5646 16.9884 53.1302 16.3256 53.1302 15.593C53.1302 14.5291 54.0337 13.657 55.1456 13.657H60.3926V9.17442H54.1553C50.6978 9.17442 47.9006 11.9477 47.9006 15.3663C47.9006 15.6454 47.918 15.9244 47.9701 16.2035C47.5357 15.6279 47.0145 15.1221 46.4064 14.7209C44.2173 13.2558 42.3582 12.7326 41.7675 12.4709C41.1247 12.157 40.6903 11.5116 40.6903 10.7616C40.6903 9.69767 41.5764 8.84302 42.6883 8.84302H47.918V4.34302H41.6633C38.2058 4.34302 35.4259 7.11628 35.4259 10.5349C35.4259 12.8721 36.729 14.9302 38.6923 15.9593C39.4046 16.343 39.978 16.657 40.9162 17.0581C41.5243 17.3198 44.1304 18.1395 44.1304 19.7965C44.1304 20.843 43.1053 21.6977 41.8544 21.6977H35.4607V26.1977H42.8621C46.3543 26.1977 49.2037 23.3895 49.2037 19.936C49.2037 19.6395 49.1863 19.3605 49.1342 19.064C49.6728 19.7791 50.3677 20.3721 51.1669 20.8081C51.8793 21.1919 52.4526 21.5058 53.4082 21.907C53.9989 22.1686 56.605 22.9884 56.605 24.6454C56.605 25.7093 55.58 26.5465 54.329 26.5465H47.9353V31.0465H55.3367C58.8463 31.0465 61.6783 28.2558 61.6783 24.7849C61.6783 22.6221 60.5664 20.7035 58.8637 19.5698" fill="white"/>
</g>
<defs>
<clipPath id="clip0_2_15">
<rect width="97" height="48" fill="white"/>
</clipPath>
</defs>
</svg>
