<svg width="56" height="15" viewBox="0 0 56 15" fill="none" xmlns="http://www.w3.org/2000/svg">
<g clip-path="url(#clip0_769_76720)">
<path d="M15.3841 3.06569C15.3274 3.05969 15.2708 3.05969 15.2131 3.05969C14.4342 3.05969 13.7574 3.31775 13.3022 3.62381L13.2739 3.60581V3.21773H11.4935V10.8544L13.0069 10.8604H13.2739V5.16814C13.6836 4.86308 14.2127 4.63903 14.8328 4.63903C14.9693 4.63903 15.1069 4.64603 15.2313 4.67404C16.1094 4.87608 16.426 5.59724 16.426 6.3574V10.8594H18.2003V6.04233C18.2003 5.06412 17.915 4.27795 17.3071 3.78085C16.7699 3.34175 16.1013 3.0937 15.3851 3.06369L15.3841 3.06569Z" fill="#003323"/>
<path d="M8.39001 3.2207V10.8603H10.1684V3.2207H10.1663H8.39001Z" fill="#003323"/>
<path d="M22.89 3.05469C20.877 3.05469 19.1188 4.63703 19.1188 7.05855C19.1188 7.32761 19.1411 7.58766 19.1836 7.83471C19.1998 7.92673 19.218 8.01675 19.2402 8.10477C19.2473 8.13378 19.2544 8.16378 19.2625 8.19379C19.2696 8.2228 19.2777 8.2518 19.2868 8.28081C19.308 8.35583 19.3323 8.43084 19.3576 8.50386C19.9048 10.0722 21.318 11.0324 22.886 11.0324C22.9386 11.0324 22.9912 11.0314 23.0428 11.0284C24.2637 10.9794 25.3724 10.3523 25.9409 9.183C26.0198 9.02397 26.0866 8.85293 26.1432 8.67289H25.8317H24.5146C24.117 9.35104 23.3139 9.6091 22.5653 9.48007C21.6994 9.33104 21.1754 8.6789 21.0125 7.85172C20.9933 7.7537 20.9791 7.65468 20.968 7.55565H26.4417C26.471 7.35461 26.4872 7.04354 26.4872 6.79549C26.4872 4.34296 24.725 3.05569 22.892 3.05569L22.89 3.05469ZM20.967 6.25137C21.1926 5.10313 22.0342 4.57501 22.8748 4.57501C23.7155 4.57501 24.6522 5.10313 24.7867 6.25137H20.967Z" fill="#003323"/>
<path d="M3.39891 3.2207C2.69181 3.2207 2.10105 3.2207 1.54974 3.2207H0V14.08H1.81983V10.4683L1.85018 10.4533C2.31652 10.7633 3.00844 11.0284 3.80455 11.0284C5.72958 11.0284 7.35317 9.50605 7.35317 7.16155C7.35317 4.81704 5.68305 3.2207 3.39891 3.2207ZM3.41307 9.41203C2.78184 9.41203 2.24065 9.17898 1.81882 8.86791V4.78904H3.3372C4.70587 4.78904 5.51816 5.71524 5.51816 7.06653C5.51816 8.41782 4.72104 9.41203 3.41307 9.41203Z" fill="#003323"/>
<path d="M45.5696 3.05669C44.7907 3.05669 44.115 3.31575 43.6588 3.61881L43.6294 3.60381V0.0850555L41.8511 0.0810547V10.8524L43.3654 10.8564C43.9046 10.8564 44.4822 10.8564 45.1731 10.8564C47.4067 10.8564 49.0383 9.174 49.0383 6.8365C49.0383 4.499 47.4512 3.05669 45.5696 3.05669ZM45.1144 9.32404H43.6304V5.16714C44.0422 4.86308 44.5712 4.63603 45.1883 4.63603C46.4669 4.63603 47.2458 5.62324 47.2458 6.92852C47.2458 8.2338 46.4527 9.32404 45.1144 9.32404Z" fill="#003323"/>
<path d="M53.6339 6.28238C52.5606 6.04933 51.6502 6.06533 51.6502 5.35118C51.6502 4.82307 52.1499 4.59102 52.9147 4.59102C53.6794 4.59102 54.7082 4.83907 55.5893 5.36718V3.65982C54.8255 3.24073 53.7816 3.05469 52.9147 3.05469C51.1808 3.05469 49.8718 3.89287 49.8577 5.49121C49.8577 6.87251 50.7984 7.38462 52.1803 7.69468C53.2829 7.94274 54.2085 7.91173 54.2085 8.67189C54.2085 9.24601 53.6936 9.49407 52.8853 9.49407C52.0771 9.49407 50.9896 9.23001 50.0782 8.64088V10.3943C50.8864 10.8284 51.9597 11.0304 52.856 11.0304C54.5605 11.0304 56.001 10.2392 56.001 8.51586C56.001 7.05755 55.0157 6.59145 53.6349 6.28138L53.6339 6.28238Z" fill="#003323"/>
<path d="M38.7657 3.60282L38.7364 3.62183C37.6105 2.88367 36.4098 3.08571 36.4098 3.08571C34.3037 3.37477 33.2648 5.27318 33.1555 6.64947C33.0624 7.82572 33.3639 9.65312 35.3233 10.6783C36.6515 11.3735 38.0465 10.8964 38.7364 10.4613C38.7475 10.4673 38.7566 10.4743 38.7657 10.4793V10.8664H40.5461V3.21474H38.7657V3.60182V3.60282ZM38.7657 8.91496C38.1224 9.34705 37.5336 9.48708 37.0369 9.43307C35.4316 9.26203 35.212 7.84473 35.1686 7.49365C35.0785 6.7795 35.1544 5.46222 36.1963 4.8941C37.5134 4.17694 38.7657 5.16516 38.7657 5.16516V8.91396V8.91496Z" fill="#003323"/>
<path d="M31.6422 9.03199V0.0830688H29.8689V9.113C29.874 10.7344 31.013 10.8604 31.361 10.8604H32.8318V9.33005H31.6483" fill="#003323"/>
<path d="M15.3841 3.06569C15.3274 3.05969 15.2708 3.05969 15.2131 3.05969C14.4342 3.05969 13.7574 3.31775 13.3022 3.62381L13.2739 3.60581V3.21773H11.4935V10.8544L13.0069 10.8604H13.2739V5.16814C13.6836 4.86308 14.2127 4.63903 14.8328 4.63903C14.9693 4.63903 15.1069 4.64603 15.2313 4.67404C16.1094 4.87608 16.426 5.59724 16.426 6.3574V10.8594H18.2003V6.04233C18.2003 5.06412 17.915 4.27795 17.3071 3.78085C16.7699 3.34175 16.1013 3.0937 15.3851 3.06369L15.3841 3.06569Z" fill="#003323"/>
<path d="M8.39001 3.2207V10.8603H10.1684V3.2207H10.1663H8.39001Z" fill="#003323"/>
<path d="M22.89 3.05469C20.877 3.05469 19.1188 4.63703 19.1188 7.05855C19.1188 7.32761 19.1411 7.58766 19.1836 7.83471C19.1998 7.92673 19.218 8.01675 19.2402 8.10477C19.2473 8.13378 19.2544 8.16378 19.2625 8.19379C19.2696 8.2228 19.2777 8.2518 19.2868 8.28081C19.308 8.35583 19.3323 8.43084 19.3576 8.50386C19.9048 10.0722 21.318 11.0324 22.886 11.0324C22.9386 11.0324 22.9912 11.0314 23.0428 11.0284C24.2637 10.9794 25.3724 10.3523 25.9409 9.183C26.0198 9.02397 26.0866 8.85293 26.1432 8.67289H25.8317H24.5146C24.117 9.35104 23.3139 9.6091 22.5653 9.48007C21.6994 9.33104 21.1754 8.6789 21.0125 7.85172C20.9933 7.7537 20.9791 7.65468 20.968 7.55565H26.4417C26.471 7.35461 26.4872 7.04354 26.4872 6.79549C26.4872 4.34296 24.725 3.05569 22.892 3.05569L22.89 3.05469ZM20.967 6.25137C21.1926 5.10313 22.0342 4.57501 22.8748 4.57501C23.7155 4.57501 24.6522 5.10313 24.7867 6.25137H20.967Z" fill="#003323"/>
<path d="M3.39891 3.2207C2.69181 3.2207 2.10105 3.2207 1.54974 3.2207H0V14.08H1.81983V10.4683L1.85018 10.4533C2.31652 10.7633 3.00844 11.0284 3.80455 11.0284C5.72958 11.0284 7.35317 9.50605 7.35317 7.16155C7.35317 4.81704 5.68305 3.2207 3.39891 3.2207ZM3.41307 9.41203C2.78184 9.41203 2.24065 9.17898 1.81882 8.86791V4.78904H3.3372C4.70587 4.78904 5.51816 5.71524 5.51816 7.06653C5.51816 8.41782 4.72104 9.41203 3.41307 9.41203Z" fill="#003323"/>
<path d="M45.5696 3.05669C44.7907 3.05669 44.115 3.31575 43.6588 3.61881L43.6294 3.60381V0.0850555L41.8511 0.0810547V10.8524L43.3654 10.8564C43.9046 10.8564 44.4822 10.8564 45.1731 10.8564C47.4067 10.8564 49.0383 9.174 49.0383 6.8365C49.0383 4.499 47.4512 3.05669 45.5696 3.05669ZM45.1144 9.32404H43.6304V5.16714C44.0422 4.86308 44.5712 4.63603 45.1883 4.63603C46.4669 4.63603 47.2458 5.62324 47.2458 6.92852C47.2458 8.2338 46.4527 9.32404 45.1144 9.32404Z" fill="#003323"/>
<path d="M53.6339 6.28238C52.5606 6.04933 51.6502 6.06533 51.6502 5.35118C51.6502 4.82307 52.1499 4.59102 52.9147 4.59102C53.6794 4.59102 54.7082 4.83907 55.5893 5.36718V3.65982C54.8255 3.24073 53.7816 3.05469 52.9147 3.05469C51.1808 3.05469 49.8718 3.89287 49.8577 5.49121C49.8577 6.87251 50.7984 7.38462 52.1803 7.69468C53.2829 7.94274 54.2085 7.91173 54.2085 8.67189C54.2085 9.24601 53.6936 9.49407 52.8853 9.49407C52.0771 9.49407 50.9896 9.23001 50.0782 8.64088V10.3943C50.8864 10.8284 51.9597 11.0304 52.856 11.0304C54.5605 11.0304 56.001 10.2392 56.001 8.51586C56.001 7.05755 55.0157 6.59145 53.6349 6.28138L53.6339 6.28238Z" fill="#003323"/>
<path d="M38.7657 3.60282L38.7364 3.62183C37.6105 2.88367 36.4098 3.08571 36.4098 3.08571C34.3037 3.37477 33.2648 5.27318 33.1555 6.64947C33.0624 7.82572 33.3639 9.65312 35.3233 10.6783C36.6515 11.3735 38.0465 10.8964 38.7364 10.4613C38.7475 10.4673 38.7566 10.4743 38.7657 10.4793V10.8664H40.5461V3.21474H38.7657V3.60182V3.60282ZM38.7657 8.91496C38.1224 9.34705 37.5336 9.48708 37.0369 9.43307C35.4316 9.26203 35.212 7.84473 35.1686 7.49365C35.0785 6.7795 35.1544 5.46222 36.1963 4.8941C37.5134 4.17694 38.7657 5.16516 38.7657 5.16516V8.91396V8.91496Z" fill="#003323"/>
<path d="M31.6422 9.03199V0.0830688H29.8689V9.113C29.874 10.7344 31.013 10.8604 31.361 10.8604H32.8318V9.33005H31.6483" fill="#003323"/>
<path d="M8.38397 1.41234L9.64946 0.161072H11.445V1.93645L10.1795 3.18772V1.41234H8.38397Z" fill="#003323"/>
</g>
<defs>
<clipPath id="clip0_769_76720">
<rect width="56" height="14" fill="white" transform="translate(0 0.0810547)"/>
</clipPath>
</defs>
</svg>
