<svg width="32" height="33" viewBox="0 0 32 33" fill="none" xmlns="http://www.w3.org/2000/svg">
<path d="M16 1.1665C24.5604 1.1665 31.5 8.10609 31.5 16.6665C31.5 25.2269 24.5604 32.1665 16 32.1665C7.43959 32.1665 0.5 25.2269 0.5 16.6665C0.5 8.10609 7.43959 1.1665 16 1.1665Z" fill="#F4858E"/>
<path d="M16 1.1665C24.5604 1.1665 31.5 8.10609 31.5 16.6665C31.5 25.2269 24.5604 32.1665 16 32.1665C7.43959 32.1665 0.5 25.2269 0.5 16.6665C0.5 8.10609 7.43959 1.1665 16 1.1665Z" stroke="#EC008C"/>
<path d="M19.204 10.1185C19.3 10.4065 19.348 10.7105 19.348 11.0305C19.348 11.3505 19.332 11.6705 19.3 11.9905C19.3 12.1345 19.276 12.2785 19.228 12.4225C19.196 12.4865 19.188 12.5585 19.204 12.6385C19.22 12.7025 19.204 12.7585 19.156 12.8065C19.108 12.8705 19.076 12.9425 19.06 13.0225C19.06 13.1025 19.044 13.1825 19.012 13.2625C18.98 13.3425 18.948 13.4225 18.916 13.5025C18.884 13.5665 18.852 13.6385 18.82 13.7185C18.756 13.7505 18.692 13.7585 18.628 13.7425C18.58 13.7265 18.556 13.7825 18.556 13.9105C18.604 13.9425 18.636 13.9265 18.652 13.8625C18.684 13.7985 18.724 13.7825 18.772 13.8145C18.74 13.8465 18.7 13.9345 18.652 14.0785C18.604 14.2065 18.564 14.2545 18.532 14.2225C18.468 14.1585 18.436 14.1505 18.436 14.1985C18.436 14.2465 18.452 14.2945 18.484 14.3425C18.5 14.3745 18.476 14.4465 18.412 14.5585C18.364 14.6705 18.324 14.7425 18.292 14.7745C18.244 14.8065 18.204 14.8465 18.172 14.8945C18.124 14.9425 18.1 14.9905 18.1 15.0385C18.1 15.0865 18.084 15.1345 18.052 15.1825C17.892 15.3745 17.772 15.5585 17.692 15.7345C17.644 15.8145 17.588 15.8865 17.524 15.9505C17.476 15.9985 17.428 16.0625 17.38 16.1425C17.348 16.2385 17.3 16.3265 17.236 16.4065C17.172 16.4865 17.124 16.5665 17.092 16.6465C17.044 16.7745 16.98 16.8945 16.9 17.0065C16.82 17.1025 16.772 17.2065 16.756 17.3185C16.756 17.4145 16.716 17.5185 16.636 17.6305C16.604 17.6785 16.588 17.7185 16.588 17.7505C16.588 17.7825 16.58 17.8305 16.564 17.8945C16.532 17.9905 16.492 18.0865 16.444 18.1825C16.412 18.2625 16.396 18.3505 16.396 18.4465C16.38 18.5585 16.372 18.6705 16.372 18.7825C16.372 18.8785 16.34 18.9745 16.276 19.0705C16.308 19.1505 16.316 19.2545 16.3 19.3825C16.3 19.4945 16.26 19.5825 16.18 19.6465C16.164 19.6785 16.164 19.7025 16.18 19.7185C16.212 19.7185 16.244 19.7345 16.276 19.7665C16.308 19.7985 16.308 19.8305 16.276 19.8625C16.26 19.8785 16.252 19.9025 16.252 19.9345C16.22 20.0145 16.204 20.0785 16.204 20.1265C16.204 20.1745 16.164 20.2305 16.084 20.2945C15.956 20.3745 15.804 20.4065 15.628 20.3905C15.452 20.3585 15.292 20.3505 15.148 20.3665C15.068 20.3665 14.996 20.3585 14.932 20.3425C14.868 20.3265 14.796 20.3345 14.716 20.3665C14.668 20.3985 14.62 20.4065 14.572 20.3905C14.54 20.3585 14.5 20.3425 14.452 20.3425C14.404 20.3425 14.356 20.3505 14.308 20.3665C14.276 20.3825 14.236 20.3745 14.188 20.3425C14.028 20.2945 13.932 20.1985 13.9 20.0545C13.884 19.8945 13.884 19.7505 13.9 19.6225C13.9 19.5425 13.9 19.4625 13.9 19.3825C13.916 19.3025 13.924 19.2225 13.924 19.1425V18.9025C13.924 18.8545 13.932 18.8225 13.948 18.8065C13.964 18.7745 13.98 18.7425 13.996 18.7105C13.964 18.6145 13.956 18.5185 13.972 18.4225C13.988 18.3265 14.004 18.2385 14.02 18.1585C14.036 18.0305 14.044 17.9185 14.044 17.8225C14.06 17.7105 14.084 17.5985 14.116 17.4865C14.18 17.2625 14.236 17.0465 14.284 16.8385C14.332 16.6305 14.396 16.4225 14.476 16.2145C14.524 16.1185 14.564 16.0225 14.596 15.9265C14.644 15.8305 14.684 15.7345 14.716 15.6385C14.748 15.5425 14.788 15.4625 14.836 15.3985C14.9 15.3185 14.94 15.2225 14.956 15.1105C15.036 15.0465 15.084 14.9825 15.1 14.9185C15.116 14.8385 15.148 14.7585 15.196 14.6785C15.244 14.5825 15.292 14.4945 15.34 14.4145C15.404 14.3345 15.452 14.2465 15.484 14.1505C15.516 14.0705 15.564 13.9985 15.628 13.9345C15.692 13.8545 15.724 13.7745 15.724 13.6945C15.724 13.5665 15.764 13.4545 15.844 13.3585C15.924 13.2625 15.98 13.1665 16.012 13.0705C16.06 12.9425 16.092 12.8225 16.108 12.7105C16.14 12.5985 16.18 12.4785 16.228 12.3505C16.244 12.3025 16.26 12.2625 16.276 12.2305C16.308 12.1985 16.308 12.1585 16.276 12.1105C16.26 12.0785 16.268 12.0465 16.3 12.0145C16.332 11.9665 16.348 11.9265 16.348 11.8945C16.332 11.8145 16.332 11.7505 16.348 11.7025C16.38 11.6385 16.404 11.5745 16.42 11.5105C16.436 11.4465 16.428 11.3985 16.396 11.3665C16.38 11.3185 16.38 11.2705 16.396 11.2225C16.428 11.0945 16.396 10.9505 16.3 10.7905C16.204 10.6145 16.124 10.4865 16.06 10.4065C15.996 10.3105 15.892 10.2545 15.748 10.2385C15.62 10.2065 15.508 10.2065 15.412 10.2385C15.188 10.2705 15.004 10.3665 14.86 10.5265C14.732 10.7025 14.644 10.8865 14.596 11.0785C14.564 11.1425 14.524 11.1825 14.476 11.1985C14.444 11.2145 14.42 11.2545 14.404 11.3185C14.404 11.3825 14.428 11.4305 14.476 11.4625C14.524 11.4945 14.532 11.5425 14.5 11.6065C14.468 11.6705 14.46 11.7265 14.476 11.7745C14.492 11.8065 14.5 11.8625 14.5 11.9425V12.3745C14.5 12.5025 14.492 12.6225 14.476 12.7345C14.476 12.8465 14.428 12.9505 14.332 13.0465C14.252 13.1265 14.132 13.1665 13.972 13.1665C13.812 13.1665 13.684 13.1665 13.588 13.1665C13.46 13.1345 13.324 13.1345 13.18 13.1665C13.1 13.1665 13.02 13.1665 12.94 13.1665C12.86 13.1505 12.78 13.1425 12.7 13.1425C12.572 13.1425 12.444 13.1585 12.316 13.1905C12.204 13.2065 12.092 13.1585 11.98 13.0465C11.9 12.9505 11.86 12.8465 11.86 12.7345C11.876 12.6225 11.876 12.5105 11.86 12.3985C11.844 12.2865 11.844 12.1825 11.86 12.0865C11.876 11.9745 11.884 11.8625 11.884 11.7505C11.884 11.7345 11.876 11.6945 11.86 11.6305C11.86 11.5505 11.86 11.4785 11.86 11.4145C11.86 11.3345 11.868 11.2705 11.884 11.2225C11.9 11.1585 11.932 11.1345 11.98 11.1505C11.98 11.1185 11.964 11.0865 11.932 11.0545C11.9 11.0065 11.884 10.9665 11.884 10.9345C11.884 10.8545 11.892 10.7745 11.908 10.6945C11.924 10.6145 11.948 10.5345 11.98 10.4545C12.012 10.2945 12.044 10.1505 12.076 10.0225C12.124 9.8785 12.18 9.7345 12.244 9.5905C12.276 9.5105 12.34 9.4145 12.436 9.3025C12.532 9.1745 12.572 9.0705 12.556 8.9905C12.7 8.8465 12.844 8.7025 12.988 8.5585C13.132 8.4145 13.284 8.2785 13.444 8.1505C13.572 8.0545 13.716 7.9745 13.876 7.9105C14.052 7.8465 14.212 7.7825 14.356 7.7185C14.436 7.7185 14.5 7.7105 14.548 7.6945C14.596 7.6625 14.652 7.6465 14.716 7.6465C14.796 7.6465 14.876 7.6385 14.956 7.6225C15.036 7.6065 15.108 7.5825 15.172 7.5505C15.492 7.5505 15.82 7.5585 16.156 7.5745C16.492 7.5745 16.804 7.6465 17.092 7.7905C17.14 7.8225 17.188 7.8465 17.236 7.8625C17.284 7.8625 17.34 7.8785 17.404 7.9105C17.468 7.9425 17.524 7.9825 17.572 8.0305C17.62 8.0625 17.684 8.0945 17.764 8.1265C17.892 8.1745 18.004 8.2545 18.1 8.3665C18.196 8.4625 18.284 8.5585 18.364 8.6545C18.572 8.8465 18.74 9.0705 18.868 9.3265C19.012 9.5825 19.124 9.8465 19.204 10.1185ZM12.1 12.2065C12.132 12.2385 12.172 12.2385 12.22 12.2065C12.268 12.1745 12.26 12.1425 12.196 12.1105C12.196 12.1425 12.18 12.1585 12.148 12.1585C12.116 12.1425 12.1 12.1585 12.1 12.2065ZM12.772 11.5105C12.772 11.4305 12.756 11.3905 12.724 11.3905C12.708 11.4065 12.7 11.4385 12.7 11.4865C12.716 11.4865 12.724 11.4945 12.724 11.5105C12.74 11.5105 12.756 11.5105 12.772 11.5105ZM14.116 18.5185C14.132 18.4705 14.116 18.4465 14.068 18.4465C14.036 18.4465 14.02 18.4705 14.02 18.5185H14.116ZM16.156 16.6705C16.236 16.6705 16.252 16.6545 16.204 16.6225C16.156 16.5745 16.14 16.5905 16.156 16.6705ZM16.228 18.7585C16.18 18.7585 16.164 18.7745 16.18 18.8065C16.212 18.8065 16.228 18.7905 16.228 18.7585ZM16.156 15.5665C16.156 15.4705 16.124 15.4305 16.06 15.4465C16.06 15.5265 16.092 15.5665 16.156 15.5665ZM16.06 14.8465C16.108 14.8145 16.108 14.7985 16.06 14.7985C16.028 14.7825 16.004 14.7745 15.988 14.7745C15.988 14.8225 16.012 14.8465 16.06 14.8465ZM16.084 15.1585C16.1 15.0785 16.084 15.0465 16.036 15.0625C16.004 15.0785 15.964 15.0785 15.916 15.0625C15.916 15.0945 15.932 15.1185 15.964 15.1345C16.012 15.1345 16.052 15.1425 16.084 15.1585ZM15.748 16.1905C15.732 16.1585 15.716 16.1665 15.7 16.2145C15.684 16.2465 15.7 16.2545 15.748 16.2385V16.1905ZM15.556 16.5265C15.524 16.5265 15.5 16.5425 15.484 16.5745C15.484 16.5905 15.5 16.5985 15.532 16.5985C15.532 16.5665 15.54 16.5585 15.556 16.5745C15.572 16.5745 15.572 16.5585 15.556 16.5265ZM15.532 16.9825C15.564 16.9185 15.564 16.8785 15.532 16.8625C15.5 16.8465 15.468 16.8305 15.436 16.8145C15.436 16.8785 15.468 16.9345 15.532 16.9825ZM15.292 16.7425C15.34 16.7425 15.364 16.7265 15.364 16.6945C15.348 16.6785 15.324 16.6705 15.292 16.6705V16.7425ZM15.076 17.5585C15.06 17.5905 15.076 17.6225 15.124 17.6545C15.124 17.6225 15.108 17.5905 15.076 17.5585ZM14.908 17.7025C14.892 17.6705 14.868 17.6625 14.836 17.6785C14.82 17.6945 14.812 17.7185 14.812 17.7505C14.828 17.7665 14.836 17.7745 14.836 17.7745C14.852 17.7745 14.868 17.7825 14.884 17.7985C14.884 17.7665 14.892 17.7505 14.908 17.7505C14.924 17.7505 14.924 17.7345 14.908 17.7025ZM14.284 18.7585C14.3 18.8385 14.356 18.8785 14.452 18.8785C14.484 18.8465 14.476 18.8145 14.428 18.7825C14.38 18.7345 14.332 18.7265 14.284 18.7585ZM14.428 19.2625C14.428 19.2305 14.404 19.1985 14.356 19.1665V19.2625H14.428ZM14.452 19.8625C14.5 19.9105 14.524 19.8945 14.524 19.8145C14.476 19.8145 14.452 19.8145 14.452 19.8145V19.8625ZM14.884 18.3745C14.916 18.3265 14.948 18.3185 14.98 18.3505C15.012 18.3825 15.044 18.4065 15.076 18.4225C15.108 18.3745 15.1 18.3265 15.052 18.2785C15.004 18.2305 14.956 18.2065 14.908 18.2065C14.876 18.1905 14.836 18.1585 14.788 18.1105C14.74 18.0625 14.7 18.0545 14.668 18.0865L14.884 18.3745ZM14.908 18.7585C14.908 18.8065 14.932 18.8225 14.98 18.8065C15.028 18.7905 15.044 18.7665 15.028 18.7345C14.996 18.7345 14.972 18.7425 14.956 18.7585C14.94 18.7585 14.924 18.7585 14.908 18.7585ZM14.836 18.9505C14.884 18.9505 14.892 18.9425 14.86 18.9265C14.844 18.8945 14.836 18.9025 14.836 18.9505ZM14.764 18.6145C14.812 18.6145 14.82 18.6065 14.788 18.5905C14.772 18.5585 14.764 18.5665 14.764 18.6145ZM15.004 19.6225C15.02 19.5745 15.044 19.5345 15.076 19.5025C15.124 19.4705 15.164 19.4385 15.196 19.4065C15.196 19.3585 15.18 19.3345 15.148 19.3345C15.116 19.3185 15.084 19.2945 15.052 19.2625C15.004 19.1985 14.972 19.1825 14.956 19.2145C14.956 19.2465 14.932 19.2545 14.884 19.2385C14.884 19.1745 14.9 19.1505 14.932 19.1665C14.964 19.1665 14.98 19.1505 14.98 19.1185C14.948 19.0865 14.916 19.0785 14.884 19.0945C14.852 19.0945 14.82 19.0945 14.788 19.0945C14.788 19.1425 14.78 19.1985 14.764 19.2625C14.748 19.3105 14.756 19.3585 14.788 19.4065C14.836 19.4225 14.868 19.4225 14.884 19.4065C14.916 19.3745 14.948 19.3505 14.98 19.3345C15.028 19.3185 15.044 19.3265 15.028 19.3585C15.028 19.3745 15.012 19.4065 14.98 19.4545C14.964 19.4865 14.948 19.5265 14.932 19.5745C14.932 19.6065 14.956 19.6225 15.004 19.6225ZM14.932 18.1105C14.996 18.0945 15.06 18.0785 15.124 18.0625C15.188 18.0465 15.228 17.9985 15.244 17.9185C15.196 17.9185 15.156 17.9345 15.124 17.9665C15.108 17.9985 15.076 18.0065 15.028 17.9905C15.044 17.9105 15.02 17.8945 14.956 17.9425C14.908 17.9905 14.9 18.0465 14.932 18.1105ZM15.196 17.7265C15.164 17.7585 15.172 17.7825 15.22 17.7985C15.284 17.7985 15.308 17.7825 15.292 17.7505C15.276 17.7345 15.244 17.7265 15.196 17.7265ZM15.268 19.1665C15.3 19.1825 15.308 19.1985 15.292 19.2145C15.276 19.2305 15.284 19.2385 15.316 19.2385C15.348 19.2065 15.364 19.2065 15.364 19.2385C15.364 19.2225 15.364 19.2145 15.364 19.2145C15.38 19.1985 15.388 19.1825 15.388 19.1665C15.372 19.1665 15.348 19.1585 15.316 19.1425C15.284 19.1265 15.268 19.1345 15.268 19.1665ZM15.412 18.4945C15.364 18.4945 15.34 18.5265 15.34 18.5905C15.372 18.5745 15.396 18.5825 15.412 18.6145C15.444 18.6305 15.476 18.6225 15.508 18.5905C15.428 18.5425 15.428 18.4865 15.508 18.4225C15.588 18.3425 15.628 18.2865 15.628 18.2545C15.516 18.2545 15.444 18.3345 15.412 18.4945ZM15.46 17.8225C15.412 17.8065 15.372 17.8225 15.34 17.8705C15.324 17.9185 15.34 17.9585 15.388 17.9905C15.42 17.9745 15.444 17.9505 15.46 17.9185C15.492 17.8865 15.492 17.8545 15.46 17.8225ZM15.316 19.4065C15.316 19.4545 15.348 19.4865 15.412 19.5025C15.476 19.5185 15.508 19.4865 15.508 19.4065C15.444 19.4065 15.404 19.4145 15.388 19.4305C15.372 19.4305 15.348 19.4225 15.316 19.4065ZM15.556 19.2145C15.556 19.1665 15.54 19.1505 15.508 19.1665C15.476 19.1985 15.492 19.2145 15.556 19.2145ZM15.508 18.8065C15.524 18.7905 15.548 18.7985 15.58 18.8305C15.612 18.8465 15.636 18.8385 15.652 18.8065C15.636 18.8065 15.604 18.7905 15.556 18.7585C15.524 18.7265 15.508 18.7425 15.508 18.8065ZM15.748 18.6625C15.828 18.6785 15.86 18.6625 15.844 18.6145C15.844 18.5665 15.812 18.5345 15.748 18.5185V18.6625ZM15.82 17.1985C15.9 17.1665 15.916 17.1185 15.868 17.0545C15.836 16.9905 15.804 16.9745 15.772 17.0065C15.74 17.0385 15.724 17.0705 15.724 17.1025C15.74 17.1345 15.724 17.1505 15.676 17.1505C15.644 17.1025 15.596 17.0865 15.532 17.1025C15.484 17.1025 15.444 17.0705 15.412 17.0065C15.428 17.0865 15.46 17.1585 15.508 17.2225C15.556 17.2705 15.564 17.3345 15.532 17.4145C15.452 17.3505 15.388 17.3505 15.34 17.4145C15.292 17.4785 15.228 17.5105 15.148 17.5105C15.228 17.6065 15.308 17.6225 15.388 17.5585C15.468 17.4945 15.572 17.4705 15.7 17.4865C15.7 17.3905 15.692 17.3265 15.676 17.2945C15.676 17.2625 15.724 17.2305 15.82 17.1985ZM15.916 18.9505C15.884 18.9825 15.868 19.0065 15.868 19.0225C15.884 19.0385 15.916 19.0385 15.964 19.0225C15.964 19.0065 15.948 18.9825 15.916 18.9505ZM15.964 19.8145C16.044 19.8465 16.076 19.8305 16.06 19.7665C16.06 19.7025 16.036 19.6545 15.988 19.6225C15.972 19.6705 15.964 19.7345 15.964 19.8145ZM16.132 19.3585C16.148 19.3265 16.148 19.2945 16.132 19.2625C16.132 19.2145 16.116 19.1985 16.084 19.2145C16.036 19.2625 16.052 19.3105 16.132 19.3585ZM16.228 19.1185C16.244 19.0385 16.228 19.0065 16.18 19.0225C16.132 19.0385 16.116 19.0705 16.132 19.1185C16.164 19.1505 16.196 19.1505 16.228 19.1185ZM16.18 15.9745C16.148 16.0225 16.156 16.0385 16.204 16.0225C16.252 16.0065 16.26 15.9825 16.228 15.9505C16.212 15.9505 16.196 15.9585 16.18 15.9745ZM18.388 10.7425C18.42 10.7105 18.42 10.6785 18.388 10.6465C18.372 10.6145 18.348 10.6065 18.316 10.6225C18.3 10.6705 18.324 10.7105 18.388 10.7425ZM18.364 9.6865C18.38 9.6385 18.364 9.6225 18.316 9.6385C18.284 9.6385 18.268 9.6545 18.268 9.6865C18.3 9.7025 18.332 9.7025 18.364 9.6865ZM18.34 11.5585C18.292 11.5585 18.26 11.5665 18.244 11.5825C18.244 11.5825 18.252 11.5985 18.268 11.6305C18.316 11.6305 18.34 11.6065 18.34 11.5585ZM18.34 12.2785C18.292 12.2785 18.26 12.2865 18.244 12.3025C18.276 12.2865 18.292 12.2945 18.292 12.3265C18.292 12.3585 18.308 12.3665 18.34 12.3505V12.2785ZM18.148 12.8065C18.212 12.8065 18.228 12.7985 18.196 12.7825C18.164 12.7505 18.148 12.7585 18.148 12.8065ZM18.196 13.3345C18.148 13.3985 18.148 13.4465 18.196 13.4785C18.26 13.5105 18.284 13.4625 18.268 13.3345H18.196ZM18.052 9.7585C18.068 9.7105 18.076 9.6545 18.076 9.5905C18.092 9.5265 18.06 9.4945 17.98 9.4945C17.98 9.5425 17.972 9.5905 17.956 9.6385C17.956 9.6865 17.988 9.7265 18.052 9.7585ZM18.1 10.7425C18.1 10.7105 18.076 10.7025 18.028 10.7185V10.7425H18.1ZM17.932 9.4705C17.996 9.4705 18.012 9.4625 17.98 9.4465C17.948 9.4145 17.932 9.4225 17.932 9.4705ZM18.028 13.2625C17.996 13.2305 17.956 13.2305 17.908 13.2625C17.876 13.2785 17.868 13.3105 17.884 13.3585C17.98 13.3905 18.028 13.3585 18.028 13.2625ZM18.052 12.9505C18.004 12.9345 17.98 12.9505 17.98 12.9985C17.98 13.0465 18.004 13.0625 18.052 13.0465V12.9505ZM17.692 9.4465C17.66 9.4945 17.676 9.5265 17.74 9.5425C17.82 9.5425 17.86 9.5185 17.86 9.4705C17.828 9.4545 17.772 9.4465 17.692 9.4465ZM17.692 11.5825C17.74 11.5825 17.764 11.5745 17.764 11.5585C17.78 11.5425 17.78 11.5345 17.764 11.5345C17.748 11.5185 17.732 11.5105 17.716 11.5105C17.7 11.5105 17.692 11.5345 17.692 11.5825ZM17.332 12.3505C17.492 12.4145 17.588 12.3985 17.62 12.3025C17.652 12.2385 17.612 12.1905 17.5 12.1585C17.388 12.1265 17.308 12.1025 17.26 12.0865C17.26 12.1345 17.268 12.1825 17.284 12.2305C17.3 12.2625 17.316 12.3025 17.332 12.3505ZM17.596 12.6865C17.58 12.6065 17.532 12.5665 17.452 12.5665C17.372 12.5665 17.324 12.6065 17.308 12.6865C17.388 12.6865 17.444 12.7025 17.476 12.7345C17.508 12.7505 17.548 12.7345 17.596 12.6865ZM17.044 12.6865C17.076 12.6545 17.124 12.6145 17.188 12.5665C17.252 12.5185 17.22 12.4945 17.092 12.4945C17.124 12.5425 17.116 12.5825 17.068 12.6145C17.02 12.6305 17.012 12.6545 17.044 12.6865ZM17.044 12.9985C17.076 13.0145 17.1 13.0065 17.116 12.9745C17.148 12.9265 17.14 12.8945 17.092 12.8785C17.076 12.8945 17.06 12.9105 17.044 12.9265C17.028 12.9265 17.028 12.9505 17.044 12.9985ZM17.068 10.7425C17.052 10.8065 17.076 10.8385 17.14 10.8385C17.204 10.8385 17.236 10.8065 17.236 10.7425C17.204 10.7265 17.172 10.7265 17.14 10.7425C17.124 10.7425 17.1 10.7425 17.068 10.7425ZM17.332 11.6065C17.268 11.5905 17.236 11.6145 17.236 11.6785C17.316 11.6785 17.348 11.6545 17.332 11.6065ZM17.5 10.6945C17.468 10.6625 17.428 10.6545 17.38 10.6705C17.332 10.6705 17.308 10.6945 17.308 10.7425C17.34 10.7745 17.372 10.7825 17.404 10.7665C17.436 10.7345 17.468 10.7105 17.5 10.6945ZM17.332 9.8545C17.332 9.9185 17.34 9.9665 17.356 9.9985C17.404 9.9985 17.436 9.9825 17.452 9.9505C17.468 9.9025 17.46 9.8625 17.428 9.8305C17.396 9.7985 17.38 9.7985 17.38 9.8305C17.38 9.8465 17.364 9.8545 17.332 9.8545ZM17.572 11.3185C17.54 11.3185 17.508 11.3265 17.476 11.3425C17.444 11.3585 17.444 11.3825 17.476 11.4145C17.556 11.4145 17.588 11.3825 17.572 11.3185ZM17.524 9.8305C17.524 9.8625 17.532 9.8785 17.548 9.8785C17.58 9.8785 17.612 9.8865 17.644 9.9025C17.676 9.8065 17.636 9.7825 17.524 9.8305ZM17.5 10.9345C17.5 10.8865 17.492 10.8545 17.476 10.8385C17.46 10.8545 17.452 10.8865 17.452 10.9345H17.5ZM17.452 11.8945C17.452 11.8305 17.42 11.7985 17.356 11.7985C17.356 11.8625 17.388 11.8945 17.452 11.8945ZM17.572 10.2385C17.636 10.2385 17.668 10.1905 17.668 10.0945C17.62 10.0945 17.58 10.1105 17.548 10.1425C17.532 10.1745 17.54 10.2065 17.572 10.2385ZM17.452 8.7025C17.452 8.6545 17.444 8.6385 17.428 8.6545C17.412 8.6545 17.388 8.6545 17.356 8.6545C17.356 8.7025 17.364 8.7265 17.38 8.7265C17.396 8.7105 17.42 8.7025 17.452 8.7025ZM17.332 8.8465C17.332 8.8785 17.364 8.9265 17.428 8.9905C17.444 8.9585 17.444 8.9105 17.428 8.8465C17.428 8.7825 17.396 8.7825 17.332 8.8465ZM17.5 9.1585C17.484 9.1105 17.444 9.0785 17.38 9.0625C17.332 9.0305 17.292 9.0145 17.26 9.0145C17.292 9.0625 17.332 9.0945 17.38 9.1105C17.428 9.1105 17.468 9.1265 17.5 9.1585ZM17.284 9.4465C17.252 9.4785 17.26 9.5025 17.308 9.5185C17.356 9.5345 17.388 9.5505 17.404 9.5665C17.404 9.5825 17.436 9.5985 17.5 9.6145C17.58 9.6305 17.636 9.6305 17.668 9.6145C17.636 9.5345 17.588 9.4865 17.524 9.4705C17.46 9.4545 17.396 9.4385 17.332 9.4225C17.332 9.4225 17.316 9.4305 17.284 9.4465ZM17.164 10.1425C17.148 10.1745 17.148 10.2065 17.164 10.2385C17.196 10.2705 17.228 10.2945 17.26 10.3105C17.292 10.2785 17.292 10.2465 17.26 10.2145C17.228 10.1665 17.196 10.1425 17.164 10.1425ZM17.044 8.5825C17.028 8.6145 17.044 8.6385 17.092 8.6545C17.14 8.6545 17.156 8.6305 17.14 8.5825H17.044ZM17.044 8.2945C17.028 8.2625 17.012 8.2705 16.996 8.3185C16.98 8.3505 16.996 8.3585 17.044 8.3425V8.2945ZM17.02 8.8225C16.972 8.8225 16.94 8.8305 16.924 8.8465C16.924 8.8625 16.916 8.8865 16.9 8.9185C16.932 8.9185 16.948 8.9105 16.948 8.8945C16.964 8.8785 16.988 8.8545 17.02 8.8225ZM16.876 8.3905C16.78 8.4065 16.724 8.4545 16.708 8.5345C16.74 8.5665 16.772 8.5585 16.804 8.5105C16.836 8.4625 16.86 8.4225 16.876 8.3905ZM16.732 9.0385C16.78 9.0385 16.788 9.0305 16.756 9.0145C16.74 8.9825 16.732 8.9905 16.732 9.0385ZM16.66 9.4225C16.628 9.5025 16.644 9.5585 16.708 9.5905C16.788 9.6225 16.852 9.6545 16.9 9.6865C16.884 9.6545 16.892 9.6465 16.924 9.6625C16.956 9.6625 16.988 9.6545 17.02 9.6385C17.052 9.6065 17.02 9.5825 16.924 9.5665C16.828 9.5505 16.772 9.5505 16.756 9.5665C16.708 9.5665 16.684 9.5505 16.684 9.5185C16.7 9.4705 16.692 9.4385 16.66 9.4225ZM16.9 13.4545C16.916 13.4865 16.908 13.5105 16.876 13.5265C16.86 13.5425 16.868 13.5585 16.9 13.5745C16.916 13.5425 16.94 13.5345 16.972 13.5505C17.004 13.5665 17.004 13.5425 16.972 13.4785C16.94 13.4465 16.908 13.4145 16.876 13.3825C16.86 13.3345 16.836 13.3345 16.804 13.3825C16.804 13.4145 16.812 13.4305 16.828 13.4305C16.86 13.4145 16.884 13.4225 16.9 13.4545ZM16.756 13.8145C16.724 13.9105 16.708 13.9745 16.708 14.0065C16.772 14.0065 16.812 13.9825 16.828 13.9345C16.844 13.8865 16.82 13.8465 16.756 13.8145ZM16.732 9.8065C16.764 9.8065 16.796 9.7905 16.828 9.7585C16.764 9.7585 16.732 9.7745 16.732 9.8065ZM16.972 10.4545C16.94 10.4385 16.9 10.4465 16.852 10.4785V10.5265C16.9 10.5425 16.94 10.5185 16.972 10.4545ZM16.876 10.1425C16.86 10.1905 16.876 10.2145 16.924 10.2145C16.972 10.2145 16.988 10.1905 16.972 10.1425C16.94 10.1265 16.924 10.1265 16.924 10.1425C16.924 10.1425 16.908 10.1425 16.876 10.1425ZM16.948 9.8545C16.948 9.8385 16.964 9.8145 16.996 9.7825C16.964 9.7665 16.94 9.7585 16.924 9.7585C16.924 9.7425 16.908 9.7265 16.876 9.7105C16.876 9.7905 16.9 9.8385 16.948 9.8545ZM16.564 8.4865C16.644 8.4865 16.66 8.4705 16.612 8.4385C16.58 8.3905 16.564 8.4065 16.564 8.4865ZM16.396 8.3665C16.364 8.3505 16.332 8.3585 16.3 8.3905C16.284 8.4225 16.292 8.4465 16.324 8.4625C16.372 8.4625 16.396 8.4305 16.396 8.3665ZM15.7 8.5345C15.7 8.4545 15.66 8.3985 15.58 8.3665C15.58 8.4625 15.62 8.5185 15.7 8.5345ZM15.148 9.0385C15.196 9.0385 15.204 9.0305 15.172 9.0145C15.156 8.9825 15.148 8.9905 15.148 9.0385ZM15.124 9.1345C15.076 9.1825 15.092 9.2065 15.172 9.2065C15.172 9.1585 15.156 9.1345 15.124 9.1345ZM14.908 8.0065C14.956 8.0065 14.98 7.9905 14.98 7.9585C14.948 7.9585 14.924 7.9505 14.908 7.9345V8.0065ZM14.548 10.1665C14.548 10.1345 14.524 10.1185 14.476 10.1185V10.1665H14.548ZM14.452 9.0625C14.452 9.0945 14.444 9.1185 14.428 9.1345C14.412 9.1345 14.412 9.1505 14.428 9.1825C14.476 9.1985 14.5 9.1825 14.5 9.1345C14.516 9.0865 14.5 9.0625 14.452 9.0625ZM14.236 8.7985C14.268 8.8145 14.284 8.8225 14.284 8.8225C14.3 8.8065 14.316 8.7985 14.332 8.7985C14.3 8.7825 14.284 8.7665 14.284 8.7505C14.284 8.7345 14.268 8.7345 14.236 8.7505V8.7985ZM13.972 8.8945C13.94 8.9265 13.924 8.9825 13.924 9.0625C13.956 9.0785 13.98 9.0705 13.996 9.0385C14.012 9.0065 14.036 8.9985 14.068 9.0145C14.068 8.9825 14.052 8.9665 14.02 8.9665C14.004 8.9505 13.988 8.9265 13.972 8.8945ZM14.068 9.2785C14.068 9.2465 14.052 9.2305 14.02 9.2305C14.004 9.2465 13.996 9.2625 13.996 9.2785C14.012 9.2945 14.036 9.2945 14.068 9.2785ZM14.02 12.5185C13.988 12.5185 13.972 12.5185 13.972 12.5185C13.972 12.5025 13.964 12.4945 13.948 12.4945C13.916 12.5265 13.916 12.5505 13.948 12.5665C13.996 12.5665 14.02 12.5505 14.02 12.5185ZM13.996 9.9265C13.996 9.8465 13.972 9.8145 13.924 9.8305C13.924 9.8945 13.948 9.9265 13.996 9.9265ZM13.78 9.1105C13.78 9.1745 13.788 9.2065 13.804 9.2065C13.836 9.1905 13.86 9.1745 13.876 9.1585C13.892 9.1265 13.892 9.1025 13.876 9.0865C13.876 9.0705 13.844 9.0785 13.78 9.1105ZM13.78 9.4465C13.748 9.4785 13.756 9.4865 13.804 9.4705C13.852 9.4545 13.86 9.4385 13.828 9.4225C13.828 9.4065 13.82 9.4065 13.804 9.4225C13.788 9.4225 13.78 9.4305 13.78 9.4465ZM13.732 10.8625C13.684 10.9105 13.7 10.9345 13.78 10.9345C13.78 10.8865 13.764 10.8625 13.732 10.8625ZM13.756 12.4945C13.788 12.5105 13.804 12.5265 13.804 12.5425C13.804 12.5585 13.82 12.5585 13.852 12.5425C13.852 12.5105 13.836 12.4865 13.804 12.4705C13.772 12.4545 13.756 12.4625 13.756 12.4945ZM13.804 10.5265C13.836 10.5585 13.868 10.5745 13.9 10.5745C13.932 10.5745 13.956 10.5585 13.972 10.5265C13.972 10.4625 13.94 10.4305 13.876 10.4305C13.812 10.4305 13.788 10.4625 13.804 10.5265ZM13.924 12.9025C13.956 12.9345 13.996 12.9665 14.044 12.9985C14.108 13.0305 14.156 13.0065 14.188 12.9265C14.124 12.9265 14.068 12.9105 14.02 12.8785C13.988 12.8305 13.956 12.8385 13.924 12.9025ZM14.188 9.5425C14.188 9.4945 14.164 9.4625 14.116 9.4465C14.084 9.4145 14.052 9.4145 14.02 9.4465C14.02 9.5105 14.076 9.5425 14.188 9.5425ZM14.236 10.3345C14.284 10.3665 14.308 10.3585 14.308 10.3105C14.324 10.2625 14.316 10.2385 14.284 10.2385C14.252 10.2705 14.236 10.3025 14.236 10.3345ZM14.332 10.0945C14.38 10.1105 14.404 10.0945 14.404 10.0465C14.42 9.9825 14.412 9.9505 14.38 9.9505C14.38 9.9825 14.372 10.0065 14.356 10.0225C14.34 10.0385 14.332 10.0625 14.332 10.0945ZM14.428 10.6945C14.428 10.6785 14.428 10.6705 14.428 10.6705C14.444 10.6545 14.452 10.6385 14.452 10.6225C14.436 10.6225 14.42 10.6225 14.404 10.6225C14.404 10.6065 14.396 10.6145 14.38 10.6465C14.38 10.6465 14.396 10.6625 14.428 10.6945ZM14.452 10.9825C14.42 11.0625 14.444 11.1025 14.524 11.1025C14.524 11.0225 14.5 10.9825 14.452 10.9825ZM14.5 10.3105C14.5 10.3745 14.508 10.3985 14.524 10.3825C14.54 10.3665 14.564 10.3585 14.596 10.3585C14.596 10.3105 14.588 10.2945 14.572 10.3105C14.556 10.3265 14.532 10.3265 14.5 10.3105ZM14.572 10.7425C14.684 10.7745 14.716 10.7585 14.668 10.6945C14.62 10.6305 14.588 10.6465 14.572 10.7425ZM14.716 9.9025C14.748 9.9185 14.764 9.9185 14.764 9.9025C14.78 9.8705 14.796 9.8465 14.812 9.8305C14.78 9.8145 14.748 9.8145 14.716 9.8305C14.684 9.8465 14.684 9.8705 14.716 9.9025ZM14.884 10.1425C14.884 10.0625 14.844 10.0385 14.764 10.0705C14.732 10.1505 14.772 10.1745 14.884 10.1425ZM14.908 9.4465C14.94 9.4785 14.964 9.4785 14.98 9.4465C15.012 9.3985 15.004 9.3745 14.956 9.3745C14.956 9.3585 14.94 9.3825 14.908 9.4465ZM14.932 8.4625C14.932 8.5105 14.972 8.5505 15.052 8.5825C15.036 8.5505 15.036 8.5265 15.052 8.5105C15.084 8.4945 15.1 8.4705 15.1 8.4385C15.02 8.4385 14.964 8.4465 14.932 8.4625ZM15.1 9.4225C15.132 9.4385 15.164 9.4385 15.196 9.4225C15.228 9.4065 15.268 9.4065 15.316 9.4225C15.316 9.3585 15.276 9.3265 15.196 9.3265C15.116 9.3265 15.084 9.3585 15.1 9.4225ZM15.34 9.5665C15.42 9.5665 15.436 9.5505 15.388 9.5185C15.356 9.4705 15.34 9.4865 15.34 9.5665ZM15.364 9.1105C15.444 9.1105 15.46 9.0945 15.412 9.0625C15.38 9.0145 15.364 9.0305 15.364 9.1105ZM15.292 8.6785C15.324 8.7265 15.348 8.7825 15.364 8.8465C15.396 8.9105 15.452 8.9505 15.532 8.9665C15.516 8.9185 15.5 8.8785 15.484 8.8465C15.468 8.7985 15.46 8.7585 15.46 8.7265C15.54 8.7265 15.572 8.6945 15.556 8.6305C15.476 8.6305 15.42 8.6465 15.388 8.6785C15.356 8.6625 15.324 8.6465 15.292 8.6305C15.276 8.5985 15.252 8.5825 15.22 8.5825C15.22 8.5985 15.244 8.6305 15.292 8.6785ZM15.748 9.1105C15.78 9.0785 15.836 8.9985 15.916 8.8705C16.012 8.7425 16.028 8.6545 15.964 8.6065C15.932 8.6385 15.9 8.6865 15.868 8.7505C15.852 8.7985 15.828 8.8465 15.796 8.8945C15.78 8.9425 15.748 8.9825 15.7 9.0145C15.652 9.0305 15.596 9.0225 15.532 8.9905C15.548 9.0705 15.58 9.0945 15.628 9.0625C15.676 9.0305 15.716 9.0465 15.748 9.1105ZM15.892 7.9585C15.892 8.0385 15.94 8.0945 16.036 8.1265C16.1 8.0465 16.1 7.9985 16.036 7.9825C15.972 7.9665 15.924 7.9585 15.892 7.9585ZM16.108 9.2785C16.108 9.2145 16.084 9.1905 16.036 9.2065C16.036 9.2545 16.06 9.2785 16.108 9.2785ZM16.18 9.0385C16.212 8.9745 16.196 8.9505 16.132 8.9665C16.068 8.9665 16.044 8.9905 16.06 9.0385C16.092 9.0705 16.108 9.0785 16.108 9.0625C16.124 9.0465 16.148 9.0385 16.18 9.0385ZM16.276 9.0385C16.26 9.1185 16.276 9.1585 16.324 9.1585C16.372 9.1585 16.412 9.1425 16.444 9.1105C16.492 9.0465 16.524 8.9825 16.54 8.9185C16.556 8.8385 16.588 8.7745 16.636 8.7265C16.604 8.6945 16.58 8.6945 16.564 8.7265C16.548 8.7425 16.524 8.7505 16.492 8.7505C16.492 8.6545 16.468 8.6305 16.42 8.6785C16.372 8.7105 16.332 8.7425 16.3 8.7745C16.332 8.8385 16.372 8.8785 16.42 8.8945C16.468 8.8945 16.444 8.9025 16.348 8.9185C16.348 8.9345 16.348 8.9585 16.348 8.9905C16.364 9.0065 16.372 9.0225 16.372 9.0385C16.34 9.0705 16.308 9.0705 16.276 9.0385ZM16.54 9.3265C16.524 9.3745 16.556 9.4145 16.636 9.4465C16.652 9.3665 16.62 9.3265 16.54 9.3265ZM16.612 9.5905C16.564 9.5905 16.548 9.6065 16.564 9.6385C16.596 9.6385 16.612 9.6225 16.612 9.5905ZM16.324 14.4145C16.372 14.4145 16.38 14.4065 16.348 14.3905C16.332 14.3585 16.324 14.3665 16.324 14.4145ZM16.396 15.2065C16.46 15.2065 16.5 15.1985 16.516 15.1825C16.516 15.1185 16.492 15.0945 16.444 15.1105C16.396 15.1265 16.38 15.1585 16.396 15.2065ZM16.54 14.7505C16.54 14.7025 16.508 14.6785 16.444 14.6785C16.444 14.7105 16.452 14.7345 16.468 14.7505C16.5 14.7665 16.524 14.7665 16.54 14.7505ZM16.516 13.2625C16.516 13.3585 16.548 13.3985 16.612 13.3825C16.596 13.3505 16.588 13.3185 16.588 13.2865C16.588 13.2545 16.564 13.2465 16.516 13.2625ZM16.612 9.7345C16.58 9.7665 16.572 9.7985 16.588 9.8305C16.62 9.8465 16.652 9.8465 16.684 9.8305C16.684 9.7665 16.66 9.7345 16.612 9.7345ZM16.612 17.0785C16.676 17.0785 16.708 17.0705 16.708 17.0545C16.724 17.0385 16.724 17.0305 16.708 17.0305C16.692 17.0145 16.668 17.0065 16.636 17.0065C16.62 17.0065 16.612 17.0305 16.612 17.0785ZM16.78 14.5825C16.812 14.5665 16.836 14.5345 16.852 14.4865C16.868 14.4225 16.86 14.3905 16.828 14.3905C16.796 14.4065 16.772 14.4385 16.756 14.4865C16.74 14.5185 16.748 14.5505 16.78 14.5825ZM16.852 14.8465C16.948 14.8465 16.972 14.8145 16.924 14.7505C16.892 14.7185 16.86 14.7185 16.828 14.7505C16.812 14.7825 16.82 14.8145 16.852 14.8465ZM16.924 14.0065C16.972 14.0065 16.98 13.9985 16.948 13.9825C16.932 13.9505 16.924 13.9585 16.924 14.0065ZM16.972 14.3425C17.02 14.3425 17.028 14.3345 16.996 14.3185C16.98 14.2865 16.972 14.2945 16.972 14.3425ZM16.972 14.5105C16.988 14.5265 17.012 14.5345 17.044 14.5345C17.044 14.4545 17.036 14.4225 17.02 14.4385C17.02 14.4545 17.004 14.4785 16.972 14.5105ZM17.044 13.8625C17.012 13.7985 17.012 13.7505 17.044 13.7185C17.092 13.6705 17.116 13.6145 17.116 13.5505C17.068 13.5505 17.028 13.5665 16.996 13.5985C16.98 13.6145 16.956 13.6225 16.924 13.6225C16.924 13.6385 16.924 13.6705 16.924 13.7185C16.924 13.7505 16.924 13.7825 16.924 13.8145C16.94 13.8465 16.956 13.8705 16.972 13.8865C16.988 13.9025 17.012 13.8945 17.044 13.8625ZM17.236 14.9425C17.236 14.8945 17.212 14.8705 17.164 14.8705V14.9425H17.236ZM17.188 14.7985C17.236 14.7985 17.26 14.7745 17.26 14.7265C17.18 14.7105 17.156 14.7345 17.188 14.7985ZM17.164 13.5265C17.228 13.5265 17.268 13.4705 17.284 13.3585C17.3 13.2305 17.244 13.1745 17.116 13.1905C17.148 13.2545 17.172 13.3105 17.188 13.3585C17.204 13.4065 17.196 13.4625 17.164 13.5265ZM17.572 14.1985C17.604 14.1505 17.612 14.1025 17.596 14.0545C17.58 14.0065 17.58 13.9585 17.596 13.9105C17.548 13.8785 17.5 13.8785 17.452 13.9105C17.42 13.9265 17.388 13.9505 17.356 13.9825C17.324 14.1265 17.396 14.1985 17.572 14.1985ZM17.476 13.2625C17.492 13.2785 17.5 13.2785 17.5 13.2625C17.516 13.2305 17.508 13.2145 17.476 13.2145V13.2625ZM17.548 13.5265C17.58 13.5425 17.596 13.5345 17.596 13.5025C17.612 13.4545 17.604 13.4305 17.572 13.4305C17.572 13.4465 17.564 13.4625 17.548 13.4785C17.548 13.4785 17.548 13.4945 17.548 13.5265ZM17.308 13.1185C17.356 13.1505 17.412 13.1585 17.476 13.1425C17.54 13.1265 17.588 13.1025 17.62 13.0705C17.684 13.0225 17.684 12.9745 17.62 12.9265C17.572 12.8625 17.524 12.8305 17.476 12.8305C17.428 12.8625 17.42 12.9105 17.452 12.9745C17.484 13.0225 17.476 13.0625 17.428 13.0945C17.412 13.0945 17.364 13.0785 17.284 13.0465C17.22 13.0145 17.228 13.0385 17.308 13.1185ZM17.62 13.7425C17.604 13.7745 17.612 13.7985 17.644 13.8145C17.692 13.8305 17.716 13.7985 17.716 13.7185C17.684 13.7025 17.652 13.7105 17.62 13.7425ZM17.716 14.1985C17.732 14.1505 17.724 14.1265 17.692 14.1265V14.1745C17.692 14.1745 17.7 14.1825 17.716 14.1985ZM17.716 13.0225C17.764 13.0225 17.796 13.0145 17.812 12.9985C17.78 12.9985 17.764 12.9825 17.764 12.9505C17.764 12.9185 17.748 12.9105 17.716 12.9265V13.0225ZM17.86 14.2705C17.828 14.2385 17.812 14.2385 17.812 14.2705C17.812 14.3025 17.828 14.3025 17.86 14.2705ZM17.86 13.8625C17.94 13.8625 17.956 13.8465 17.908 13.8145C17.86 13.7665 17.844 13.7825 17.86 13.8625ZM17.98 13.6945C18.06 13.6945 18.1 13.6465 18.1 13.5505C18.02 13.5505 17.98 13.5985 17.98 13.6945ZM18.028 12.5905C18.14 12.5905 18.164 12.5425 18.1 12.4465C18.084 12.4145 18.06 12.4065 18.028 12.4225C18.012 12.4385 18.004 12.4225 18.004 12.3745C17.988 12.2945 17.964 12.2785 17.932 12.3265C17.9 12.3745 17.892 12.4145 17.908 12.4465C17.956 12.4465 17.996 12.4945 18.028 12.5905ZM18.148 13.7425C18.292 13.7425 18.348 13.7025 18.316 13.6225C18.284 13.5905 18.244 13.5905 18.196 13.6225C18.164 13.6545 18.148 13.6945 18.148 13.7425ZM18.34 12.6385C18.356 12.5745 18.324 12.5505 18.244 12.5665C18.18 12.5665 18.156 12.5985 18.172 12.6625C18.204 12.6625 18.228 12.6545 18.244 12.6385C18.276 12.6225 18.308 12.6225 18.34 12.6385ZM18.364 10.9825C18.348 11.0785 18.356 11.1745 18.388 11.2705C18.42 11.3505 18.428 11.4305 18.412 11.5105H18.532C18.484 11.4305 18.468 11.3425 18.484 11.2465C18.5 11.1345 18.46 11.0465 18.364 10.9825ZM18.436 11.6785C18.42 11.7585 18.428 11.7825 18.46 11.7505C18.492 11.7185 18.484 11.6945 18.436 11.6785ZM18.556 14.0785C18.524 14.0785 18.508 14.0865 18.508 14.1025C18.524 14.1025 18.524 14.1185 18.508 14.1505C18.54 14.1505 18.548 14.1425 18.532 14.1265C18.532 14.1105 18.54 14.0945 18.556 14.0785ZM18.46 12.7105C18.508 12.7105 18.548 12.7025 18.58 12.6865C18.612 12.6705 18.588 12.6465 18.508 12.6145C18.508 12.6465 18.492 12.6625 18.46 12.6625C18.444 12.6625 18.444 12.6785 18.46 12.7105ZM18.652 9.4465H18.724C18.724 9.4145 18.7 9.4065 18.652 9.4225V9.4465ZM18.724 10.3345C18.724 10.3025 18.708 10.2865 18.676 10.2865C18.66 10.3025 18.652 10.3185 18.652 10.3345C18.668 10.3505 18.692 10.3505 18.724 10.3345ZM18.676 11.9905C18.724 11.9905 18.732 11.9745 18.7 11.9425C18.684 11.9105 18.676 11.9265 18.676 11.9905ZM18.724 11.2705C18.66 11.2865 18.628 11.3105 18.628 11.3425C18.628 11.3585 18.636 11.3745 18.652 11.3905C18.684 11.4065 18.708 11.4065 18.724 11.3905C18.74 11.3745 18.74 11.3345 18.724 11.2705ZM18.772 11.0785C18.82 11.0785 18.844 11.0465 18.844 10.9825C18.78 10.9825 18.756 11.0145 18.772 11.0785ZM18.844 11.6305C18.844 11.7105 18.86 11.7425 18.892 11.7265C18.924 11.6945 18.94 11.6545 18.94 11.6065C18.908 11.6225 18.876 11.6305 18.844 11.6305ZM16.444 23.8945C16.412 23.9585 16.404 24.0225 16.42 24.0865C16.452 24.1345 16.468 24.1905 16.468 24.2545C16.484 24.3505 16.484 24.4625 16.468 24.5905C16.452 24.7185 16.436 24.8385 16.42 24.9505C16.388 25.0465 16.324 25.1105 16.228 25.1425C16.18 25.1585 16.116 25.1505 16.036 25.1185C16.004 25.1345 15.988 25.1505 15.988 25.1665C16.004 25.1985 15.996 25.2145 15.964 25.2145C15.804 25.1985 15.652 25.1985 15.508 25.2145C15.364 25.2305 15.212 25.2305 15.052 25.2145C14.94 25.1985 14.892 25.1745 14.908 25.1425C14.94 25.0945 14.924 25.0625 14.86 25.0465C14.812 25.0465 14.788 25.0705 14.788 25.1185C14.804 25.1505 14.796 25.1745 14.764 25.1905C14.62 25.1745 14.468 25.1825 14.308 25.2145C14.164 25.2625 14.028 25.2625 13.9 25.2145C13.772 25.1505 13.7 25.0625 13.684 24.9505C13.684 24.8225 13.668 24.7025 13.636 24.5905C13.62 24.5425 13.62 24.4865 13.636 24.4225C13.652 24.3585 13.676 24.3105 13.708 24.2785C13.644 24.1985 13.628 24.0865 13.66 23.9425C13.692 23.8145 13.684 23.6865 13.636 23.5585C13.604 23.4145 13.604 23.2785 13.636 23.1505C13.668 23.0225 13.676 22.9105 13.66 22.8145C13.66 22.7025 13.66 22.5825 13.66 22.4545C13.66 22.3425 13.692 22.2545 13.756 22.1905C13.804 22.1265 13.852 22.1025 13.9 22.1185C13.964 22.1185 14.036 22.1105 14.116 22.0945C14.34 22.0625 14.564 22.0545 14.788 22.0705C15.012 22.0865 15.236 22.0945 15.46 22.0945C15.54 22.0945 15.604 22.0865 15.652 22.0705C15.716 22.0545 15.788 22.0465 15.868 22.0465C15.948 22.0625 16.028 22.0785 16.108 22.0945C16.188 22.1105 16.268 22.1345 16.348 22.1665C16.38 22.2465 16.412 22.3505 16.444 22.4785C16.476 22.5745 16.476 22.6545 16.444 22.7185C16.428 22.7825 16.412 22.8625 16.396 22.9585C16.396 23.0385 16.412 23.1585 16.444 23.3185C16.46 23.3665 16.452 23.4145 16.42 23.4625C16.404 23.5105 16.404 23.5585 16.42 23.6065C16.452 23.7345 16.46 23.8305 16.444 23.8945ZM15.532 22.4785C15.564 22.4785 15.58 22.4625 15.58 22.4305C15.548 22.4305 15.532 22.4225 15.532 22.4065V22.4785ZM15.628 22.7905C15.548 22.7905 15.5 22.7745 15.484 22.7425C15.468 22.7105 15.452 22.7585 15.436 22.8865C15.516 22.8865 15.556 22.8865 15.556 22.8865C15.572 22.8705 15.596 22.8385 15.628 22.7905ZM14.764 22.9825C14.748 23.0145 14.74 23.0545 14.74 23.1025C14.756 23.1505 14.788 23.1745 14.836 23.1745C14.9 23.0785 14.876 23.0145 14.764 22.9825ZM14.716 23.2705C14.796 23.3665 14.828 23.3745 14.812 23.2945C14.812 23.2145 14.78 23.2065 14.716 23.2705ZM14.644 23.3665C14.612 23.4145 14.62 23.4625 14.668 23.5105C14.716 23.5585 14.756 23.5665 14.788 23.5345C14.788 23.4705 14.772 23.4385 14.74 23.4385C14.708 23.4225 14.676 23.3985 14.644 23.3665ZM14.62 23.6545C14.604 23.7185 14.612 23.7345 14.644 23.7025C14.676 23.6705 14.668 23.6545 14.62 23.6545ZM14.524 23.0785C14.508 23.1265 14.524 23.1425 14.572 23.1265C14.62 23.1105 14.628 23.0865 14.596 23.0545C14.58 23.0545 14.572 23.0625 14.572 23.0785C14.572 23.0785 14.564 23.0785 14.548 23.0785H14.524ZM14.284 23.1025C14.316 23.1025 14.34 23.0865 14.356 23.0545H14.284V23.1025ZM14.332 23.3185C14.348 23.2865 14.332 23.2625 14.284 23.2465C14.236 23.2305 14.204 23.2385 14.188 23.2705C14.22 23.3185 14.268 23.3345 14.332 23.3185ZM14.356 23.8705C14.388 23.7745 14.364 23.7345 14.284 23.7505C14.284 23.8305 14.308 23.8705 14.356 23.8705ZM14.452 23.5585C14.436 23.5905 14.428 23.6145 14.428 23.6305C14.444 23.6465 14.452 23.6705 14.452 23.7025H14.596C14.58 23.6705 14.556 23.6465 14.524 23.6305C14.508 23.6145 14.484 23.5905 14.452 23.5585ZM14.596 24.3265C14.612 24.3425 14.628 24.3505 14.644 24.3505C14.676 24.3345 14.684 24.3105 14.668 24.2785C14.62 24.2785 14.596 24.2945 14.596 24.3265ZM14.884 24.4705C14.916 24.3905 14.9 24.3665 14.836 24.3985C14.836 24.4465 14.852 24.4705 14.884 24.4705ZM14.932 24.1105C14.964 24.0945 14.988 24.0705 15.004 24.0385C15.02 24.0065 14.996 23.9905 14.932 23.9905C14.884 23.9745 14.836 23.9905 14.788 24.0385C14.74 24.0705 14.7 24.0945 14.668 24.1105C14.636 24.1105 14.604 24.1025 14.572 24.0865C14.54 24.0705 14.516 24.0865 14.5 24.1345C14.58 24.1185 14.652 24.1185 14.716 24.1345C14.796 24.1505 14.868 24.1425 14.932 24.1105ZM14.788 23.7265C14.772 23.7745 14.78 23.8065 14.812 23.8225C14.844 23.8225 14.876 23.8145 14.908 23.7985C14.956 23.7665 14.988 23.7425 15.004 23.7265C15.02 23.6945 15.004 23.6625 14.956 23.6305C14.94 23.6625 14.916 23.6865 14.884 23.7025C14.852 23.7025 14.82 23.7105 14.788 23.7265ZM15.028 24.5665C15.044 24.5665 15.052 24.5585 15.052 24.5425C15.068 24.5265 15.06 24.5185 15.028 24.5185V24.5665ZM15.052 22.6225C15.132 22.6225 15.148 22.6065 15.1 22.5745C15.068 22.5265 15.052 22.5425 15.052 22.6225ZM15.1 23.2705C15.148 23.2705 15.156 23.2545 15.124 23.2225C15.108 23.1905 15.1 23.2065 15.1 23.2705ZM15.1 23.4865C15.1 23.5185 15.116 23.5345 15.148 23.5345C15.18 23.5185 15.212 23.5265 15.244 23.5585C15.26 23.5265 15.284 23.4625 15.316 23.3665C15.348 23.3665 15.396 23.3505 15.46 23.3185C15.444 23.2865 15.42 23.2625 15.388 23.2465C15.372 23.2145 15.372 23.1745 15.388 23.1265C15.308 23.1265 15.268 23.1825 15.268 23.2945C15.284 23.3905 15.228 23.4545 15.1 23.4865ZM15.484 23.7265C15.516 23.6785 15.516 23.6385 15.484 23.6065C15.452 23.5745 15.436 23.5985 15.436 23.6785C15.324 23.6625 15.26 23.7345 15.244 23.8945C15.228 24.0545 15.26 24.1505 15.34 24.1825C15.308 24.1025 15.308 24.0465 15.34 24.0145C15.388 23.9825 15.412 23.9265 15.412 23.8465C15.396 23.7985 15.396 23.7825 15.412 23.7985C15.428 23.7985 15.452 23.7745 15.484 23.7265ZM15.46 23.5105C15.508 23.5105 15.532 23.4865 15.532 23.4385C15.436 23.4385 15.412 23.4625 15.46 23.5105ZM15.532 23.9185C15.5 23.9345 15.492 23.9585 15.508 23.9905C15.524 24.0065 15.548 24.0225 15.58 24.0385C15.612 24.0225 15.62 23.9985 15.604 23.9665C15.604 23.9185 15.58 23.9025 15.532 23.9185ZM15.556 24.1105C15.572 24.1265 15.588 24.1345 15.604 24.1345C15.636 24.1345 15.652 24.1185 15.652 24.0865C15.62 24.0865 15.596 24.0865 15.58 24.0865C15.58 24.0705 15.572 24.0785 15.556 24.1105ZM15.628 23.3905C15.676 23.3905 15.7 23.3745 15.7 23.3425C15.652 23.3425 15.628 23.3585 15.628 23.3905ZM15.652 22.9825C15.684 23.0145 15.716 23.0145 15.748 22.9825C15.78 22.9345 15.772 22.9025 15.724 22.8865C15.676 22.9345 15.652 22.9665 15.652 22.9825ZM15.796 24.3505C15.844 24.3505 15.868 24.3265 15.868 24.2785C15.788 24.2625 15.764 24.2865 15.796 24.3505ZM16.012 24.7105C16.028 24.6625 16.012 24.6385 15.964 24.6385C15.932 24.6385 15.908 24.6465 15.892 24.6625C15.876 24.6945 15.884 24.7105 15.916 24.7105C15.948 24.6945 15.98 24.6945 16.012 24.7105Z" fill="#231F20"/>
</svg>
