<svg width="16" height="17" viewBox="0 0 16 17" fill="none" xmlns="http://www.w3.org/2000/svg">
<path d="M13.345 3.39896C13.065 3.11896 12.605 3.11896 12.32 3.39896L8 7.72395L3.68 3.39896C3.39499 3.11896 2.935 3.11896 2.655 3.39896L0.715 5.33396C0.57501 5.47394 0.5 5.65895 0.5 5.84895C0.5 6.04395 0.57501 6.22895 0.714995 6.36396L7.48498 13.139C7.62 13.274 7.80499 13.3489 8 13.3489C8.19501 13.3489 8.375 13.274 8.51501 13.139L15.285 6.36396C15.425 6.22895 15.5 6.04396 15.5 5.84895C15.5 5.65394 15.425 5.47395 15.285 5.33396L13.345 3.39896Z" fill="black"/>
</svg>
