<svg width="92" height="40" viewBox="0 0 92 40" fill="none" xmlns="http://www.w3.org/2000/svg">
<path d="M13.8102 13.982C6.22534 14.4799 0 8.19001 0 0.406226V0.0982813C0 0.0982813 0.0130101 0.0655212 0.0325253 0.0655212H25.9292C25.9292 0.0655212 25.9617 0.0786253 25.9617 0.0982813V0.720722C25.9617 7.76413 20.582 13.5496 13.8102 13.9885V13.982ZM1.33354 1.37592C1.33354 1.37592 1.29451 1.39558 1.30101 1.41523C1.65228 7.69861 6.75875 12.6978 12.9776 12.6978C19.1964 12.6978 24.3029 7.69861 24.6607 1.41523C24.6607 1.39558 24.6477 1.37592 24.6281 1.37592H1.33354Z" fill="white"/>
<path d="M12.9776 13.6151C19.9575 13.6151 25.6169 7.84275 25.6169 0.478296H0.344769C0.344769 7.84275 6.00417 13.6151 12.9841 13.6151" fill="#EB3627"/>
<path d="M8.06627 3.25635H9.2567V7.73792H8.06627V3.25635ZM17.8889 3.25635H16.692V7.73792H17.8889V3.25635ZM7.35071 3.25635H6.25136V5.52989L4.87879 3.25635H3.7274V7.73137L4.87879 7.73792V5.35954L5.67891 6.68305C5.84805 6.97134 6.13427 7.3448 6.47904 7.55446C6.6937 7.67895 7.01896 7.79689 7.40926 7.79689V3.25635H7.35071ZM22.1757 3.25635H21.0764V5.52989L19.7038 3.25635H18.5459V7.73137L19.7038 7.73792V5.35954L20.5039 6.68305C20.6796 6.97134 20.9528 7.3448 21.3041 7.55446C21.5187 7.67895 21.8375 7.79689 22.2343 7.79689V3.25635H22.1757ZM15.6186 5.98198C15.0592 5.59541 14.5843 5.45782 14.4412 5.38575C14.2721 5.30713 14.1615 5.13677 14.1615 4.93366C14.1615 4.65848 14.3892 4.42916 14.6754 4.42916H16.0089V3.2498H14.4217C13.5435 3.2498 12.8345 3.97707 12.8345 4.87469C12.8345 4.95332 12.841 5.02539 12.8475 5.09746C12.7369 4.94021 12.6068 4.80917 12.4507 4.69779C11.8912 4.31777 11.4229 4.18018 11.2733 4.10811C11.1041 4.02293 10.9935 3.85258 10.9935 3.65602C10.9935 3.38084 11.2277 3.15152 11.5074 3.15152H12.841V1.9656H11.2537C10.3756 1.9656 9.66651 2.69288 9.66651 3.5905C9.66651 4.20639 10.0048 4.74365 10.4992 5.01884C10.6748 5.12367 10.8244 5.20885 11.0651 5.30713C11.2212 5.37265 11.8782 5.58886 11.8782 6.02785C11.8782 6.30303 11.618 6.5258 11.2993 6.5258H9.67302V7.71171H11.5595C12.4442 7.71171 13.1727 6.97134 13.1727 6.06061C13.1727 5.98198 13.1662 5.90336 13.1532 5.83129C13.2898 6.01474 13.4655 6.17199 13.6736 6.28993C13.8558 6.39476 13.9989 6.47338 14.2396 6.57822C14.3957 6.64374 15.0592 6.8665 15.0592 7.29894C15.0592 7.58067 14.799 7.80344 14.4803 7.80344H12.854V8.9828H14.7405C15.6317 8.9828 16.3537 8.24242 16.3537 7.3317C16.3537 6.76167 16.0675 6.25717 15.6382 5.96233" fill="white"/>
<path d="M83.7851 4.17363C83.7851 4.84848 83.551 5.42506 83.0761 5.90336C82.6012 6.38165 82.0288 6.61752 81.3587 6.62408C80.6887 6.62408 80.1163 6.38821 79.6414 5.90991C79.1665 5.43161 78.9324 4.85504 78.9259 4.18018C78.9259 3.50532 79.16 2.92875 79.6349 2.45045C80.1098 1.97215 80.6822 1.73628 81.3522 1.72973C82.0223 1.72973 82.5947 1.9656 83.0696 2.4439C83.5444 2.92219 83.7786 3.49877 83.7851 4.17363ZM83.2062 4.18018C83.2062 3.63636 83.024 3.19083 82.6728 2.82391C82.315 2.46355 81.8792 2.2801 81.3522 2.2801C80.8318 2.2801 80.3895 2.46355 80.0317 2.82391C79.6804 3.18427 79.4983 3.63636 79.4983 4.18018C79.4983 4.71744 79.6804 5.16953 80.0317 5.53644C80.3895 5.8968 80.8253 6.08026 81.3522 6.08026C81.8726 6.08026 82.315 5.8968 82.6663 5.53644C83.024 5.17608 83.1997 4.724 83.1997 4.18018H83.2062ZM82.4516 5.47092H81.7946L81.3262 4.46847H81.053V5.47748H80.4741V2.87633H81.5279C81.7816 2.87633 81.9897 2.95495 82.1524 3.1122C82.3085 3.26945 82.3931 3.46601 82.3931 3.68878C82.3931 4.01638 82.2369 4.2457 81.9182 4.37674L82.4646 5.47092H82.4516ZM81.8011 3.69533C81.8011 3.6036 81.7686 3.52498 81.697 3.45291C81.632 3.38739 81.5474 3.35463 81.4433 3.35463H81.04V4.02948H81.4433C81.5474 4.02948 81.632 3.99672 81.697 3.9312C81.7621 3.86568 81.7946 3.78706 81.7946 3.68878L81.8011 3.69533Z" fill="white"/>
<path d="M30.9185 40C28.8629 40 26.8789 39.4234 25.1355 38.3227C24.1598 39.2793 22.9433 39.3907 21.8635 39.3776H21.4212C19.8664 39.4234 18.6175 39.122 17.427 37.6871C17.2774 37.9885 17.0823 38.2637 16.8416 38.5061C16.2301 39.1155 15.3845 39.4562 14.4607 39.4562H9.82914C8.91844 39.4627 7.95569 39.1089 7.38975 38.552C6.77177 37.9427 6.49855 37.294 6.49855 36.4423V36.3374C6.49855 36.3374 6.67419 35.4136 6.6807 35.3743L6.73924 35.1974C7.13605 34.0966 7.37674 33.4218 8.65823 32.9631C8.68425 32.8518 8.71678 32.6093 8.71678 32.131L8.91193 25.7166C8.92494 25.2187 8.93795 24.878 8.96397 24.6421H8.94446C8.94446 24.5897 8.94446 24.5504 8.94446 24.5176C7.92316 23.9017 7.36373 23.0238 7.36373 22.0344C7.36373 21.8772 7.37674 21.7134 7.40926 21.5561C7.40926 21.5364 7.65645 20.5078 7.67597 20.4161C8.19637 18.8894 8.91193 17.9197 10.7789 17.9197H13.0491C14.3762 17.9197 15.482 18.208 16.3342 18.7649C16.9327 18.2211 17.7068 17.9132 18.5264 17.9132H23.0084C23.8736 17.9066 24.7257 18.2539 25.3437 18.8698C25.4413 18.9615 25.5324 19.0663 25.6169 19.1843C26.6057 18.6274 27.6855 18.2342 28.7979 18.0049C27.074 15.9738 26.0983 13.4382 26.0983 10.9025C26.0853 4.78952 30.6518 0.00655201 36.4999 0C39.0889 0 40.3509 0.589681 41.4567 1.11384C41.5998 1.17936 41.743 1.25799 41.8861 1.34316C42.4585 0.871417 43.1806 0.615889 43.9612 0.615889H67.4119C68.6739 0.628993 70.9376 0.819001 72.7851 2.50287C74.2877 3.87224 75.1529 5.76577 75.1464 7.69861C75.2375 10.9222 73.325 13.0516 71.7118 14.2703C70.0855 15.4889 68.2901 16 66.228 15.8428L66.215 16.1048C66.2475 16.1507 66.3256 16.2097 66.5662 16.249C66.9435 16.3669 67.2233 16.5831 67.3729 16.8518C67.4379 16.9631 67.6331 17.2842 67.6136 17.8018H72.0825C73.5397 17.7952 74.5675 17.6183 75.0033 17.5397L75.257 17.5004C76.3564 17.3301 77.3842 17.6249 78.1908 18.3325C78.6266 18.0639 79.0625 17.8542 79.4853 17.7166L79.5894 17.6708L79.8756 17.5921C80.7147 17.3694 81.9767 17.0352 83.9738 17.2711L84.865 17.3497C85.9188 17.4218 87.8768 17.5594 88.8331 20.036C88.8851 20.1605 89.425 21.3006 89.7698 22.0213L90.3878 23.6462H90.3422C90.4203 23.9672 90.4463 24.2293 90.4528 24.498C90.4528 25.1728 90.2446 25.828 89.8478 26.3915C89.7438 26.5291 89.6267 26.6601 89.4966 26.778C90.739 28.2588 91.4156 30.0147 91.4221 31.7707C91.4286 36.2654 88.1891 39.4496 83.5379 39.5152C81.7816 39.5741 80.2008 39.3055 78.8738 38.7224C78.0867 39.2203 77.0199 39.2662 75.9921 39.2531L59.6579 39.2793C58.7797 39.2793 57.947 38.9386 57.3291 38.3227C57.29 38.2834 57.2575 38.2441 57.225 38.2048C55.7874 38.9517 54.1871 39.3317 52.4698 39.3317H46.6152C46.1339 39.3382 45.672 39.2334 45.2297 39.0238C42.2764 40.1966 38.8872 39.9934 36.0836 38.4799C34.5679 39.4693 32.792 39.9934 30.9185 40ZM24.9404 36.9009L25.3372 37.1761C26.9895 38.3292 28.915 38.932 30.912 38.932C32.6814 38.932 34.3532 38.4079 35.7453 37.4185L36.0185 37.222L36.3112 37.3923C38.9588 38.9255 42.2308 39.1351 45.0475 37.9427L45.2882 37.8378L45.5159 37.9689C45.8672 38.172 46.2314 38.2703 46.6087 38.2703H52.4633C54.1676 38.2572 55.7353 37.8509 57.1144 37.045L57.5567 36.7895L57.83 37.2285C57.9015 37.3464 57.9861 37.4775 58.0837 37.5758C58.5 37.9885 59.0594 38.2179 59.6644 38.2179L75.9986 38.1916C76.7206 38.1916 77.9046 38.1982 78.477 37.7068L78.7372 37.4775L79.0494 37.6282C80.2854 38.231 81.7881 38.5061 83.5184 38.4537C87.5581 38.3948 90.3748 35.6495 90.3682 31.7772C90.3682 30.1261 89.6527 28.4619 88.3582 27.0925L87.9354 26.647L88.4362 26.2932C88.6769 26.1229 88.8656 25.9525 89.0022 25.769C89.2624 25.4021 89.399 24.9697 89.399 24.5111C89.399 24.321 89.3795 24.1441 89.334 23.9541L89.2884 23.8034L88.807 22.4406C88.2216 21.2154 87.8963 20.5209 87.8638 20.4357C87.1483 18.5815 85.8537 18.4963 84.8064 18.4242L83.8762 18.3391C82.0678 18.1229 80.9684 18.4177 80.1683 18.6274L79.8301 18.7387C79.3877 18.8829 78.9259 19.1253 78.451 19.4595L78.0672 19.7281L77.7549 19.3808C77.1435 18.706 76.3499 18.4177 75.4391 18.5618L75.2115 18.6011C74.7301 18.6863 73.6437 18.8698 72.102 18.8698H66.3256L66.5272 18.1949C66.5402 18.1556 66.5662 18.0442 66.5728 17.8149C66.5858 17.5856 66.5142 17.4742 66.4817 17.4152C66.4557 17.3694 66.3906 17.317 66.3386 17.2973C65.5645 17.1794 65.2717 16.6945 65.1872 16.3145L65.1677 16.2359L65.1937 15.7969V14.6634L65.7921 14.7289C67.8087 15.0106 69.5521 14.5848 71.0938 13.4251C72.5119 12.3571 74.1837 10.5029 74.1056 7.71826C74.1056 6.06716 73.377 4.46192 72.0955 3.30221C70.2481 1.6249 67.8282 1.67731 66.911 1.70352L66.3711 1.71663V1.67076L43.9742 1.69042C43.3367 1.69042 42.7577 1.93939 42.3479 2.38493L42.0422 2.71908L41.6649 2.46355C41.4437 2.31286 41.2225 2.18837 41.0144 2.09009C39.9541 1.58559 38.8547 1.06798 36.5064 1.07453C31.2568 1.08108 27.1521 5.3923 27.1586 10.8894C27.1586 13.4644 28.284 16.0524 30.242 17.9853L31.0486 18.7781L29.9298 18.896C28.4531 19.0532 27.0025 19.5512 25.734 20.344L25.2591 20.6388L24.9924 20.1409C24.8753 19.9181 24.7517 19.7477 24.6151 19.6167C24.1858 19.1908 23.6134 18.955 23.0214 18.955H18.5394C17.8694 18.9615 17.2449 19.2629 16.8156 19.7936L16.4773 20.2129L16.0675 19.8657C15.3649 19.276 14.3502 18.9746 13.0557 18.9681H10.7854C9.5169 18.9681 9.11359 19.4922 8.71027 20.6519C8.68425 20.7568 8.62571 21.0254 8.45007 21.7592C8.43706 21.8247 8.43056 21.923 8.43056 22.0147C8.43056 22.6699 8.8794 23.2662 9.69254 23.6921L9.63399 23.8493L9.73157 23.7117L9.89419 23.7838L9.91371 23.9083C9.97876 24.0197 10.0113 24.1704 10.0113 24.57C10.0113 24.6093 10.0113 24.6552 10.0113 24.7011C10.0113 24.8125 9.97876 25.697 9.79011 32.1245C9.79011 33.2252 9.63399 33.7035 9.19815 33.887C8.2289 34.2015 8.13132 34.4898 7.74753 35.5446L7.70199 35.6691C7.70199 35.6691 7.59791 36.2785 7.56538 36.4554C7.57189 37.0057 7.73452 37.3726 8.13783 37.7723C8.50862 38.1392 9.19165 38.3817 9.83565 38.3817H14.4672C15.1047 38.3751 15.6902 38.1458 16.1065 37.733C16.4448 37.3989 16.6464 36.9468 16.705 36.4161L16.8676 34.8763L17.6807 36.1867C18.8191 38.0213 19.8144 38.3423 21.4081 38.303H21.87C22.8197 38.3096 23.7435 38.2244 24.42 37.5364L24.9469 36.8944L24.9404 36.9009Z" fill="white"/>
<path d="M88.7355 26.7256C88.9957 26.5422 89.2299 26.3391 89.4185 26.0901C89.7503 25.6183 89.9259 25.0811 89.9259 24.5045C89.9259 24.2752 89.8999 24.0524 89.8478 23.8296L89.8348 23.7772V23.7117L89.7893 23.6331V23.5807L89.3014 22.2506C88.9501 21.5102 88.3907 20.3243 88.3517 20.2326C87.519 18.0704 85.9123 17.9591 84.839 17.887L84.5918 17.8673L84.5137 17.8542L83.9217 17.8018C82.0288 17.5725 80.8318 17.8935 80.0317 18.1097L79.7455 18.1884L79.6674 18.2277C79.16 18.3915 78.6396 18.6667 78.1452 19.0139C77.4297 18.2211 76.4474 17.8542 75.3611 18.0246L75.1334 18.0639C74.6781 18.1425 73.6307 18.326 72.1021 18.326H67.0346C67.0606 18.2473 67.0932 18.0835 67.0997 17.8215C67.1192 17.4283 66.9761 17.2056 66.9305 17.1204C66.8395 16.9566 66.6638 16.8321 66.4947 16.7797C65.9743 16.6945 65.7661 16.4717 65.6946 16.1835L65.7141 15.8231V15.7707V15.2727V15.2531C67.5095 15.502 69.4935 15.2858 71.406 13.8509C73.338 12.3964 74.7041 10.3194 74.6325 7.70516C74.6325 5.92302 73.8454 4.17363 72.4468 2.90254C70.4498 1.08763 67.8673 1.14005 66.898 1.16626V1.1335L43.9742 1.15315C43.1611 1.15315 42.452 1.48075 41.9576 2.01802C41.7104 1.85422 41.4762 1.71663 41.2356 1.60524C40.1167 1.07453 38.9523 0.537266 36.4999 0.537266C30.9511 0.543818 26.6122 5.09091 26.6252 10.8894C26.6252 13.6151 27.8286 16.3538 29.8647 18.3653C28.297 18.5291 26.7878 19.0467 25.4478 19.8853C25.3177 19.6495 25.1746 19.4267 24.9729 19.2301C24.4525 18.7191 23.7435 18.4177 23.0149 18.4177H18.5329C17.6938 18.4242 16.9197 18.8174 16.3993 19.4529C15.6056 18.7912 14.4933 18.4373 13.0557 18.4373H10.7854C9.21767 18.4373 8.66474 19.1712 8.20288 20.5078C8.20288 20.5274 7.94268 21.6413 7.94268 21.6413C7.91666 21.7658 7.90365 21.8968 7.90365 22.0147C7.90365 22.8796 8.45658 23.6396 9.45185 24.1638C9.46486 24.1835 9.48438 24.2686 9.48438 24.57C9.48438 24.6028 9.48438 24.629 9.48438 24.6683C9.48438 24.6683 9.41065 27.1493 9.2632 32.1114C9.2632 33.2973 9.06805 33.3694 8.9965 33.3956C7.83209 33.7756 7.65646 34.2473 7.25314 35.3612L7.20761 35.4922C7.2011 35.525 7.03848 36.4161 7.03848 36.4161V36.4292C7.03848 37.1433 7.25965 37.6478 7.77355 38.1589C8.24191 38.6175 9.05504 38.9255 9.84215 38.9255H14.4738C15.2544 38.9189 15.9634 38.6372 16.4838 38.1196C16.9197 37.6871 17.1668 37.1106 17.2384 36.4816C18.4874 38.493 19.6908 38.8862 21.4277 38.8468H21.883C22.9173 38.8534 23.9972 38.7486 24.8038 37.9165C24.8038 37.9165 24.9404 37.7527 25.051 37.6151C26.7813 38.8206 28.8109 39.4693 30.9315 39.4627C32.818 39.4627 34.5874 38.8993 36.0705 37.8509C37.6513 38.7682 39.4467 39.2531 41.2681 39.2531C42.6537 39.2531 43.9937 38.9713 45.2687 38.4341C45.6785 38.6699 46.1404 38.8075 46.6283 38.8075H52.4828C54.2912 38.7944 55.9435 38.3554 57.4006 37.5102C57.4917 37.6609 57.5958 37.8116 57.7194 37.9427C58.2463 38.4668 58.9423 38.7486 59.6774 38.7486L76.0116 38.7224C76.9808 38.7224 78.1518 38.7027 78.8348 38.113C80.1358 38.7486 81.71 39.0434 83.5509 38.991C87.8963 38.932 90.9147 35.964 90.9147 31.7772C90.9147 29.9558 90.1341 28.1802 88.755 26.7256" fill="#EB3627"/>
<path d="M23.3532 35.6495C23.3532 35.2236 23.0149 35.0467 22.7222 34.8829C22.553 34.7846 22.3774 34.6994 22.2408 34.5618C21.922 34.2473 21.7464 33.5659 21.7594 32.7404C21.7594 32.4521 21.7724 25.9197 21.7724 25.638C21.7724 23.0238 22.4815 22.3227 23.1775 21.9885C23.3857 21.8903 23.5353 21.6609 23.5353 21.4382V21.1237C23.5353 21.0123 23.4898 20.914 23.4052 20.8288C23.3011 20.724 23.158 20.665 23.0214 20.665H18.5394C18.3052 20.6716 18.0255 20.8747 18.0255 21.1302V21.4906C18.0255 21.6413 18.1101 21.8575 18.5199 22.0344C19.6193 22.5061 20.2177 23.9148 20.2112 26.018V30.611C20.2112 30.611 20.2047 30.6372 20.1917 30.6372C20.1787 30.6372 20.1722 30.6306 20.1722 30.6241L15.2088 21.4251C15.1308 21.2547 14.7209 20.6781 13.0557 20.665H10.7203C10.4601 20.665 10.252 20.8681 10.1609 21.1499L10.0828 21.4971C9.96575 21.9361 10.1479 22.0737 10.3626 22.1851C10.3821 22.1916 10.4016 22.2048 10.4276 22.2179C11.6506 22.9124 11.7351 24.0852 11.7221 24.7142V24.8387L11.5074 32.131C11.5074 33.4283 11.3383 34.837 9.83565 35.3939C9.81613 35.3939 9.79011 35.407 9.75759 35.4136C9.60147 35.466 9.39981 35.5053 9.27621 35.8788L9.18514 36.2719C9.18514 36.3833 9.22417 36.4816 9.31524 36.5602C9.39981 36.6585 9.53642 36.7174 9.67302 36.7174H14.2331C14.4217 36.7109 14.5518 36.665 14.6494 36.5668C14.734 36.4816 14.7795 36.3571 14.7795 36.2129V35.9312C14.7795 35.7871 14.7079 35.5905 14.4022 35.4726C13.2963 35.0794 13.1727 32.9828 13.1727 32.0983L13.3939 25.1401V25.1269H13.4134C13.4134 25.1269 13.4329 25.1269 13.4394 25.1401C13.4785 25.2187 18.3247 33.9459 18.9362 35.027C19.8209 36.5864 20.2437 36.665 21.3561 36.6323C21.5122 36.6323 21.6944 36.6323 21.8895 36.6323C22.6376 36.6323 23.0084 36.5602 23.197 36.3767C23.3597 36.2064 23.3532 35.9967 23.3467 35.7805C23.3467 35.7412 23.3467 35.6953 23.3467 35.6429" fill="white"/>
<path d="M34.1385 34.136L34.0084 33.9525L33.8783 34.136C33.423 34.7453 32.844 35.1384 32.213 35.2629C30.2485 35.6429 27.7311 34.1556 26.8594 30.0016C26.7423 29.484 26.7033 28.8812 26.7293 28.2588V28.1867L26.6837 28.1343C26.378 27.8264 26.1503 27.4529 26.0463 27.0991C25.8901 26.5029 25.9422 25.8411 26.1764 25.2514C26.2024 25.8018 26.365 26.3915 26.6252 26.8501L26.8269 27.1908L26.8464 27.1253C27.5554 27.9574 28.7979 28.1736 29.7021 27.9312C30.3396 27.7609 31.0421 27.0139 31.1852 26.3587C31.2568 26.0246 31.1657 25.7232 30.925 25.5266C30.7754 25.4087 30.3266 25.0483 29.8777 25.4021C29.7736 25.4808 29.598 25.5135 29.4029 25.4808C29.0776 25.4283 28.7719 25.2252 28.5702 24.9238C28.3555 24.6159 28.297 24.1769 28.4141 23.7772C28.5312 23.3514 28.8239 23.0106 29.2402 22.8141C29.2988 22.7879 29.4614 22.7093 29.5655 22.683C30.7299 22.4537 32.0114 23.1286 33.0652 24.5176L33.2278 24.7273L33.3514 24.4914C33.8198 23.5741 34.4508 22.7486 35.2119 22.0344L35.368 21.8837L35.1794 21.7723C33.8848 20.9599 32.4017 20.534 30.8795 20.534C26.3585 20.5405 22.6896 24.2948 22.6961 28.9009C22.6961 31.1744 23.5873 33.2973 25.1811 34.8894C26.7228 36.4161 28.7589 37.2482 30.9055 37.2482C32.5318 37.2482 34.106 36.7568 35.4526 35.8329L35.6282 35.715L35.4656 35.5774C34.9777 35.1581 34.5288 34.6667 34.132 34.1294" fill="white"/>
<path d="M86.6343 27.7936C85.9643 27.2236 84.1754 26.267 82.9134 25.7363C82.0027 25.3628 80.8839 24.6945 80.6822 23.6658C80.6627 23.5872 80.6562 23.502 80.6562 23.3776C80.6562 22.9975 80.7343 22.4734 81.1116 22.1196C81.3783 21.8575 81.7751 21.733 82.2825 21.7527C82.5101 21.7658 83.3558 21.864 84.208 22.7879C84.6893 23.3186 85.0471 23.7379 85.3333 24.0786C85.9903 24.8649 86.257 25.1859 86.81 25.1138C86.823 25.1138 86.8425 25.1138 86.8555 25.1138C87.0181 25.1007 87.4149 25.068 87.5906 24.8124C87.6556 24.7273 87.7142 24.5831 87.6621 24.3735V24.3538L86.5042 21.6937C86.4652 21.5823 86.4262 21.484 86.3806 21.3923C86.3611 21.3202 86.3351 21.2416 86.3026 21.1695C85.8667 20.2326 85.3789 20.1867 84.4031 20.1081C84.1884 20.0885 83.9347 20.0688 83.6485 20.036C82.0743 19.846 81.1831 20.1343 80.4675 20.3178C80.4675 20.3178 79.9016 20.5012 79.9797 20.5209C79.3357 20.8354 78.8998 21.2809 78.8738 21.3006C78.7047 21.4775 78.4185 21.7658 78.1648 22.1785L78.1127 22.2572L78.1583 22.3358L78.7762 23.6855C78.7762 23.6855 78.7892 23.7248 78.7957 23.7379L78.8153 23.7903C79.0039 24.3866 78.8413 24.7862 78.6722 25.0156C78.5681 25.1597 78.3209 25.4021 77.8915 25.4808L77.6964 25.507L77.7549 25.6904C78.0867 26.7387 79.0559 27.5577 79.6089 27.9443C79.6089 27.9509 79.6219 27.9574 79.6414 27.9705C79.9927 28.2195 80.2399 28.3571 80.2464 28.3636L80.435 28.4685C80.9814 28.7764 81.5864 29.0844 82.1719 29.3792C82.7443 29.6675 83.2972 29.9427 83.7396 30.1982C85.1577 31.0106 85.7952 31.7969 85.8212 32.7469C85.8602 33.9787 84.9886 34.9091 83.7136 35.0139C83.1737 35.0532 82.0808 34.955 81.4238 34.3194C81.04 33.9525 80.8579 33.4545 80.8904 32.8387C80.9034 32.5176 81.0725 32.2621 81.4173 32.0328C81.7425 31.8165 81.8466 31.5152 81.723 31.0893C81.4888 30.2834 80.6757 30.2834 79.9927 30.3817C79.5113 30.4406 78.7827 30.8075 78.3014 31.4693L78.1843 31.6265L78.3664 31.7117C78.3664 31.7117 78.3924 31.7248 78.412 31.7314C78.4315 31.7445 78.451 31.751 78.4705 31.7576C79.1275 32.0917 79.4007 32.7404 79.147 33.4087C79.147 33.4152 78.5941 35.1122 78.5941 35.1122L78.5616 35.2039L78.6266 35.276C79.9471 36.7437 82.4386 36.8223 83.4469 36.7961H83.4924C86.6343 36.7502 88.6704 34.7977 88.6639 31.8165C88.6639 30.3686 87.9223 28.9075 86.6408 27.8067" fill="white"/>
<path d="M75.5692 36.5209C75.6603 36.5209 75.7449 36.5209 75.8164 36.5274C76.0311 36.5602 76.2262 36.6061 76.3889 36.6388C76.5385 36.6716 76.6556 36.6978 76.7401 36.7043C77.202 36.7633 77.3581 36.3702 77.3972 36.2391L77.4102 36.2195L78.3989 33.1663C78.4054 33.1663 78.4119 33.1466 78.4119 33.1401C78.542 32.7928 78.4315 32.5307 78.0737 32.3473C77.4037 32.0066 77.1239 32.3145 76.8312 32.6421C76.7987 32.6814 76.7727 32.7207 76.7271 32.76L76.532 32.9697C76.3498 33.1728 76.1872 33.3497 75.9465 33.5725C74.3788 35.0205 72.5054 34.8567 72.1476 34.8043H72.1346H72.1085C71.8614 34.8043 71.7052 34.7584 71.6207 34.6667C71.5166 34.5684 71.4645 34.3784 71.4645 34.0835V28.3702C71.4645 28.2916 71.5036 28.2064 71.5686 28.1409C71.6337 28.0753 71.7247 28.0426 71.8158 28.0426C71.9459 28.0426 72.1476 28.0426 72.3687 28.0622C72.4208 28.0622 72.4858 28.0753 72.5444 28.0753H72.5769C72.5769 28.0753 72.6159 28.0753 72.642 28.0885L72.8241 28.1016C74.021 28.226 74.4829 28.9206 74.7821 29.3923C74.8407 29.4906 74.8927 29.5758 74.9513 29.6478C75.3351 30.1523 75.7839 30.0934 76.1287 29.9951C76.4084 29.9099 76.61 29.7592 76.7076 29.5692C76.7792 29.4054 76.7792 29.2088 76.6816 29.0057C76.6035 28.8092 76.4409 28.3112 76.2653 27.7805C76.0441 27.0991 75.7904 26.326 75.6148 25.8935C75.283 25.1138 75.1919 24.9697 74.4699 25.0287C73.8064 25.0876 73.6828 25.4349 73.5917 25.6904C73.5657 25.7559 73.5397 25.8215 73.5071 25.8739C73.351 26.1097 73.1819 26.1556 72.642 26.208H71.7768C71.6857 26.208 71.6077 26.1753 71.5491 26.1163C71.4841 26.0508 71.4515 25.9656 71.445 25.8739L71.419 23.2269V23.1613C71.419 22.8862 71.419 22.5913 71.5296 22.4865C71.5491 22.4668 71.5881 22.4275 71.7247 22.4275H71.9394C72.7005 22.4079 73.8454 22.3882 75.0879 23.4038L75.8359 24.0262C76.6881 24.7338 76.8442 24.8649 77.2931 24.8976C77.3516 24.8976 77.4427 24.878 77.5728 24.8321C77.6053 24.8256 77.6248 24.8059 77.6509 24.8059C77.846 24.7535 77.9826 24.6618 78.0477 24.5242C78.1583 24.321 78.0802 24.1048 78.0477 24.0131C78.0477 24.0066 78.0412 23.9934 78.0412 23.9934L78.0347 23.9738L76.7271 21.0844C76.4799 20.4292 76.1287 20.1605 75.6018 20.2523C75.5692 20.2523 75.5237 20.2588 75.4717 20.2719C75.0098 20.3505 73.7934 20.5536 72.011 20.5602H66.8264C66.5597 20.5733 66.3646 20.8485 66.3646 21.0909V21.4513C66.3646 21.6937 66.5727 21.7658 66.7159 21.8116C66.7354 21.8116 66.7549 21.8247 66.7744 21.8313C67.9648 22.2899 68.0624 23.0631 68.0624 23.751V31.4038V31.6069L68.2706 31.561C68.6153 31.4758 68.9991 31.5414 69.422 31.7445C70.0725 32.0786 70.3327 32.6814 70.0855 33.3497L69.0577 36.593L75.5367 36.5405L75.5692 36.5209Z" fill="white"/>
<path d="M46.6933 33.6249V28.9337L46.6803 25.2842V25.1269H46.5177C46.1729 25.1138 45.8411 24.9369 45.5614 24.5897C45.054 23.9803 45.041 23.2531 45.5159 22.6634C45.633 22.5127 45.8086 22.3292 45.9907 22.1327L46.1274 22.0016L45.9712 21.8903C44.5726 20.8812 42.9334 20.344 41.2291 20.344C36.7015 20.3505 33.0392 24.1048 33.0457 28.7109C33.0457 30.9844 33.9304 33.1138 35.5306 34.6929C37.0658 36.2195 39.1019 37.0581 41.2551 37.0581C42.7252 37.0581 44.1823 36.6454 45.4573 35.8526L45.5224 35.8198L45.5354 35.7477C45.6004 35.3481 45.7956 35.0467 46.1599 34.8436C46.6868 34.516 46.6998 34.4504 46.6998 33.6314M37.0203 27.9378C36.721 27.6298 36.4869 27.2498 36.3958 26.9025C36.2332 26.3063 36.2852 25.6446 36.5259 25.0549C36.5454 25.5987 36.7015 26.1884 36.9682 26.647L37.1699 26.9877L37.1894 26.9222C37.8985 27.7543 39.1344 27.9705 40.0516 27.7281C40.6891 27.5577 41.3917 26.8108 41.5348 26.1556C41.5998 25.8149 41.5153 25.5135 41.2746 25.3235C41.1315 25.2056 40.6761 24.8387 40.2338 25.1925C40.1297 25.2776 39.9541 25.3104 39.7459 25.2776C39.4206 25.2318 39.1214 25.0221 38.9133 24.7207C38.7116 24.4128 38.653 23.9738 38.7571 23.5741C38.8742 23.1548 39.1669 22.8141 39.5833 22.6175C39.6483 22.5913 39.8175 22.5127 39.915 22.493C42.0162 22.0803 44.319 24.57 45.0475 28.0295C45.5159 30.2506 45.2427 32.3997 44.319 33.7756C43.8506 34.4767 43.2391 34.9156 42.5431 35.0467C40.5785 35.4333 38.0676 33.9459 37.1894 29.7985C37.0788 29.2744 37.0333 28.6716 37.0658 28.0557V27.9771L37.0138 27.9312L37.0203 27.9378Z" fill="white"/>
<path d="M57.7519 22.6437C56.2818 21.1106 54.1546 20.3309 52.0144 20.3833C51.4745 20.3964 49.8287 20.4357 48.3846 21.1826C47.3113 21.7461 46.4201 22.6437 46.0688 23.0893C45.659 23.5938 45.9973 24.0066 46.1079 24.1376C46.4201 24.5242 46.6543 24.4455 46.8169 24.3342C46.8234 24.3342 46.8364 24.3276 46.8364 24.321C46.986 24.2621 47.1617 24.2359 47.2658 24.2359C47.3048 24.2359 47.3373 24.249 47.3568 24.2686C47.3763 24.2817 47.3828 24.3145 47.3828 24.3538L47.3959 33.5266V33.6249C47.3959 34.5684 47.3959 34.8829 46.5112 35.4398C46.2054 35.6167 46.2054 35.8657 46.2054 36.0098V36.2064C46.2054 36.3571 46.264 36.4423 46.3095 36.4947C46.3616 36.5405 46.4526 36.6061 46.6087 36.5995H52.4633C56.7957 36.5864 59.7164 33.3628 59.827 28.5864C59.8791 26.3194 59.1505 24.0983 57.7454 22.6306M55.1629 33.4677C54.1221 34.706 52.8601 35.2629 52.0795 35.2695C52.0144 35.2695 51.9429 35.2695 51.8648 35.2629C51.7933 35.2563 51.7152 35.2563 51.6437 35.2563C51.4225 35.2563 51.2143 35.1712 51.0582 35.0205C50.8956 34.8698 50.811 34.6601 50.811 34.4373L50.7915 23.1089C50.7915 22.3489 51.3119 22.1982 51.6241 22.172C51.7738 22.172 51.8908 22.1589 52.0209 22.1589C53.2634 22.1589 54.597 23.0303 55.4881 24.4521L55.6703 24.8387C56.0476 25.5987 57.7844 29.5496 55.2735 33.2776L55.1564 33.4611V33.4808L55.1629 33.4677Z" fill="white"/>
<path d="M69.4675 33.1335C69.5976 32.7862 69.487 32.5242 69.1357 32.3407C68.4007 31.9672 68.121 32.3276 67.8022 32.7404L67.7827 32.7666C67.7046 32.878 67.6136 33.0025 67.5225 33.1335C67.3859 33.3169 67.2428 33.5201 67.0736 33.7297L67.0476 33.7756C66.833 34.0442 66.2605 34.7846 64.3025 34.7846C64.0878 34.7846 63.9382 34.7322 63.8341 34.6339C63.704 34.5094 63.639 34.2801 63.639 33.9656V24.3931C63.6325 24.3145 63.6325 24.2293 63.626 24.131C63.5999 23.43 63.5609 22.362 64.6147 21.8182C64.6473 21.7985 64.6733 21.7854 64.7058 21.7789C64.8164 21.733 65.005 21.6544 65.005 21.4382V20.9992C65.005 20.8943 64.966 20.7961 64.8945 20.7305C64.8099 20.6454 64.6798 20.5995 64.5497 20.5995H59.2286C58.9618 20.6061 58.7732 20.7764 58.7732 21.0057V21.484C58.7732 21.9099 59.0269 22.0016 59.183 22.0475C59.2025 22.054 59.2155 22.0606 59.2286 22.0606C60.2108 22.4341 60.1978 23.5545 60.1978 24.2162V24.3866L60.2108 33.4283V33.5987C60.2173 34.5029 60.1783 35.0663 59.4953 35.2629C59.2936 35.3284 59.1635 35.5053 59.1635 35.7412V36.0753C59.1635 36.1933 59.2025 36.2981 59.2806 36.3767C59.3652 36.4685 59.4953 36.5143 59.6449 36.5143L66.5858 36.5012H66.6248C66.7094 36.5012 66.7939 36.5012 66.872 36.5078C67.0736 36.5471 67.2818 36.5864 67.4444 36.6192C67.5875 36.6454 67.7046 36.6716 67.7892 36.6847C68.2511 36.7436 68.4007 36.3505 68.4462 36.2195V36.1998L69.4545 33.1466C69.4545 33.1466 69.4545 33.1335 69.4545 33.1204" fill="white"/>
<path d="M31.8943 17.2711C33.4035 18.5553 35.329 19.3546 37.0333 19.4005C40.4289 19.4857 42.8033 18.1425 43.714 15.5938C43.8376 15.2596 43.7465 14.8731 43.5188 14.7224C43.4213 14.6634 43.1806 14.5651 42.8748 14.86C41.8405 15.8296 40.4094 16.3669 38.8417 16.3669C37.1894 16.3669 35.6347 15.7248 34.4508 14.552C33.2343 13.353 32.5643 11.7412 32.5643 10.0246C32.5643 9.93284 32.5643 9.64455 32.5643 9.54627C32.6944 6.49959 34.3727 4.54054 36.8446 4.5602C37.97 4.5602 38.5945 4.92056 39.232 5.49713C39.7589 5.95577 40.0972 6.45373 40.0972 7.37756C40.0972 8.76003 39.2125 9.89353 38.1196 9.89353C37.4886 9.89353 37.1309 9.68387 36.9878 9.20557C36.9747 9.17936 36.9747 9.12039 36.9747 9.09419C36.9747 8.9828 37.0008 8.94349 37.1374 8.94349H37.1634C37.3065 8.95659 37.4431 8.96315 37.5212 8.95659C38.1391 8.90418 38.4709 8.46519 38.4254 7.80999C38.3928 7.41032 38.2172 7.08272 37.9245 6.87961C37.6838 6.70926 37.4301 6.64373 37.1244 6.65029C36.2397 6.6896 35.6412 7.37756 35.5111 8.03276C35.2704 9.19902 35.6802 10.2539 36.721 11.1712C37.3 11.6888 38.3018 11.9771 39.2645 11.9115C39.9736 11.8657 40.9884 11.6036 41.782 10.647C42.7512 9.50696 43.1025 8.20966 42.8228 6.90582C42.478 5.35299 41.2876 4.06224 40.2793 3.5905C39.219 3.09255 38.4514 2.73219 36.4999 2.73874C32.1805 2.73874 28.8174 6.32924 28.8239 10.9025C28.8239 13.2613 29.9753 15.6396 31.8878 17.2711" fill="white"/>
<path d="M59.3391 19.0139H64.361C64.5042 19.0074 64.6473 18.955 64.7318 18.8632C64.8034 18.7846 64.8489 18.6863 64.8489 18.5684V18.1491C64.8489 17.8935 64.5887 17.6577 64.361 17.5856C63.5154 17.1663 63.5219 16.5569 63.5219 15.7641V15.6003L63.5089 5.61507C63.5089 5.43161 63.5349 5.31368 63.5804 5.26781C63.5999 5.24816 63.639 5.20885 63.8081 5.20885C64.0813 5.20885 64.3285 5.20885 64.5432 5.20229C65.1482 5.18919 65.5905 5.17609 66.1629 5.26781C68.4007 5.60852 68.4787 7.57412 68.4852 7.6593C68.6934 10.3391 67.7632 11.2432 67.1387 11.4333C66.228 11.7019 66.0589 11.4791 65.7076 11.3481L65.6425 11.3153C65.4929 11.2629 65.3693 11.1515 65.2392 11.027C64.9985 10.8108 64.7188 10.5684 64.27 10.6601C63.9447 10.7256 63.73 11.0074 63.7105 11.3874C63.678 12.0622 64.1529 12.6061 65.2002 13.1171C66.1304 13.5627 67.8022 13.4644 69.0837 12.7961C70.2676 12.1736 72.3297 10.4898 72.4468 7.75102V7.72482C72.4468 7.16134 72.3102 5.73301 70.9637 4.50778C69.6171 3.276 67.8022 3.32187 66.9435 3.33497H66.8525C65.9353 3.35463 59.4822 3.34808 59.4107 3.34808C59.1375 3.34808 58.8643 3.53153 58.8643 3.81327V4.05569C58.8643 4.33088 59.2155 4.61916 59.4562 4.65192C60.0612 4.70434 60.1783 5.44472 60.1783 6.05405L60.1913 15.5938C60.1913 15.6331 60.1913 15.6921 60.1913 15.7379C60.2043 16.3014 60.2303 17.3497 59.3326 17.579H59.3717C59.0854 17.579 58.8317 17.9001 58.8317 18.1425V18.5553C58.8317 18.6667 58.8708 18.7715 58.9488 18.8501C59.0464 18.9418 59.1765 18.9877 59.3326 18.9877" fill="white"/>
<path d="M44.1368 4.95987C44.1368 4.95987 44.1693 4.97297 44.1888 4.97952C45.2687 5.3923 45.2492 6.59787 45.2427 7.32514V7.51515L44.8914 12.3702C44.8914 12.5143 44.8914 12.6912 44.8719 12.9206C44.8198 14.0606 44.7288 16.1835 46.0883 17.6708C47.0055 18.6667 48.5863 19.2105 50.4987 19.2957C52.6714 19.3939 54.4213 19.0336 55.6182 17.8411C56.8997 16.5569 56.9062 14.9779 56.8867 14.2375V14.0672C56.8867 13.792 56.7761 11.7871 56.7761 11.7871L56.4314 7.50205C56.4314 7.41687 56.4314 7.31859 56.4314 7.21376C56.4053 6.44717 56.3598 5.28747 57.5112 4.69124C57.5437 4.67158 57.5763 4.65848 57.6088 4.64537C57.7324 4.59951 57.934 4.51433 57.934 4.27191V3.79361C57.934 3.68223 57.8885 3.5774 57.8169 3.49877C57.7259 3.4136 57.5893 3.36118 57.4396 3.36118H52.8991C52.6129 3.36773 52.3982 3.55119 52.3982 3.80016V4.32432C52.3982 4.78952 52.6844 4.8878 52.8536 4.94021C52.8731 4.94676 52.8861 4.95332 52.9056 4.95987C54.083 5.39885 54.2392 5.8706 54.2392 7.4955L54.4408 12.6912C54.4668 14.3358 54.4408 15.8296 53.6862 16.6028C53.2244 17.068 52.6454 17.2907 51.5786 17.2842C50.7004 17.2842 50.0629 17.1138 49.536 16.688C48.7034 15.9934 48.6838 14.6962 48.7034 12.7043L48.8074 7.20721C48.8725 5.98198 48.9505 5.26126 50.0499 4.69779C50.0824 4.67813 50.115 4.66503 50.154 4.65192C50.2776 4.60606 50.4792 4.52088 50.4792 4.27846V3.80016C50.4792 3.68878 50.4402 3.58395 50.3556 3.50532C50.2646 3.4267 50.1345 3.36773 49.9848 3.36773H44.1823C43.8961 3.37428 43.688 3.55774 43.688 3.81327V4.33743C43.688 4.80262 43.9677 4.9009 44.1368 4.95332" fill="white"/>
</svg>
