<svg width="51" height="52" viewBox="0 0 51 52" fill="none" xmlns="http://www.w3.org/2000/svg">
<path d="M23.5927 25.7451C25.7331 27.8855 28.9657 28.352 31.6385 26.9195C34.937 25.1578 36.2103 21.0306 34.476 17.7267C34.1577 17.123 33.7515 16.5632 33.2685 16.0802C31.1281 13.9398 27.8955 13.4733 25.2227 14.9057C21.9298 16.6729 20.6565 20.8001 22.3853 24.0986C22.7091 24.7078 23.1152 25.2676 23.5982 25.7505" fill="#F58220"/>
<path d="M21.6391 27.7652C23.6533 26.8706 24.4765 25.2241 25.0254 24.1374C25.0418 24.11 25.0528 24.0771 25.0693 24.0496C25.1516 24.1429 25.2175 24.2417 25.3053 24.3295C25.7608 24.785 26.2877 25.1143 26.853 25.3503C25.1626 27.1944 22.1056 29.1647 19.3779 29.4007C18.2254 29.4995 17.3308 29.2635 16.6448 28.6872C16.5076 28.572 16.3704 28.4457 16.2386 28.314C15.9478 28.0231 15.6953 27.7158 15.4758 27.3975C17.254 28.4622 19.6469 28.6598 21.6391 27.7762" fill="#540000"/>
<path d="M25.0693 24.0385C25.3657 23.4458 25.6401 22.9189 26.123 22.381C26.7377 21.7005 27.5884 21.1462 28.6257 20.7016C29.0154 20.9047 29.3611 21.0199 29.5916 21.0968C29.6465 21.1187 29.7124 21.1297 29.7892 21.1626C29.8167 21.1791 29.9209 21.2285 30.0801 21.3877C30.5905 21.8981 30.9857 22.8201 31.0351 23.3525C31.0625 23.6543 31.0296 23.819 30.9802 24.1428C30.9363 24.4062 30.8814 24.7575 30.8704 25.1746C29.5807 25.8277 28.1318 25.8496 26.864 25.3282C26.2987 25.0922 25.7718 24.7629 25.3163 24.3074C25.2285 24.2196 25.1571 24.1263 25.0803 24.0275" fill="#540000"/>
<path d="M30.7714 39.4551C23.4391 45.3933 14.7402 45.6183 9.13124 40.0094C8.55503 39.4332 8.00594 38.7857 7.50106 38.0942C6.20589 36.3051 4.76264 33.7199 4.60885 30.932C4.85673 26.2967 10.6264 22.162 13.4803 20.6741C13.489 20.6549 13.4959 20.635 13.5047 20.6159C13.5199 20.5831 13.5624 20.4935 13.6112 20.3978C14.728 18.1593 16.8844 16.3935 19.2717 15.6597C19.1008 15.2434 19.0842 13.9842 19.0972 13.4066C19.1841 12.6338 19.5304 11.9045 20.0912 11.3437C20.876 10.559 22.0068 10.2081 23.1043 10.4056C24.7287 10.691 26.2213 11.2727 27.5494 12.1068L27.5604 12.0957C28.7624 10.6413 30.6399 9.64274 32.462 9.48907C33.1424 9.43423 33.8007 9.51102 34.4097 9.69204C34.9147 9.84571 35.387 10.0654 35.8096 10.3673C36.4627 10.252 37.1817 10.2246 37.9335 10.3289C39.3988 10.5319 40.5896 11.0751 41.4568 11.9422C42.044 12.5294 42.4673 13.2596 42.6868 14.0609C42.7965 14.4669 42.8561 14.8786 42.8561 15.2956C43.3116 15.5645 43.7784 15.8993 44.2065 16.3273C45.3754 17.4963 45.9191 18.9945 45.7326 20.5531C45.5679 21.9581 44.8483 23.0505 44.1513 23.8024C44.2555 24.2689 44.3001 24.7414 44.2891 25.2244C44.2561 26.3767 43.9158 27.4416 43.2847 28.369C41.6162 30.8385 38.702 31.2063 37.8568 31.2612C37.7746 31.2667 37.7034 31.261 37.6212 31.2664L37.6143 31.2664C36.4168 33.8536 34.2786 36.6164 30.7714 39.4551Z" fill="#540000"/>
<path d="M29.7728 27.2382C26.4798 31.1678 18.928 35.1084 14.4221 31.294C12.7591 29.8835 11.3267 27.7157 11.1675 25.5039C11.1675 25.5039 8.42339 26.8101 8.05567 29.922C7.83614 31.8209 8.8405 34.0985 10.2784 36.0853C14.8776 42.4188 22.6161 41.6504 28.6093 36.7988C35.058 31.5684 36.8691 26.3655 34.3884 21.2724C32.5444 17.4855 30.7607 17.1288 29.9375 17.1617C30.3161 17.1452 33.1206 20.1803 31.54 24.1428C30.9473 25.6356 30.0856 26.8595 29.7618 27.2492" fill="#FFF200"/>
<path d="M28.0822 19.7083C27.4126 20.0705 27.1437 20.8992 27.495 21.5688C27.8407 22.2329 28.6694 22.4799 29.3445 22.1231C30.0141 21.7609 30.283 20.9322 29.9318 20.2626C29.586 19.5985 28.7573 19.3515 28.0822 19.7083Z" fill="white"/>
<path d="M29.833 17.3425C29.2677 16.6016 29.4268 15.235 30.2226 14.2746C31.1666 13.133 33.0601 12.4909 33.8614 13.1934C34.3663 13.6325 34.2675 14.4447 34.2126 14.7521C34.4541 14.5655 35.8536 13.5062 37.4672 13.7258C37.8129 13.7752 39.1027 13.9563 39.3771 14.9551C39.6131 15.8168 39.0203 16.9803 37.8678 17.7377C38.3124 17.6444 39.0478 17.5456 39.8381 17.7322C40.8644 17.9682 42.4835 18.7969 42.3188 20.1471C42.1981 21.1459 41.1718 21.8869 40.9961 22.0186C40.2058 22.5674 39.4265 22.6333 39.1576 22.6387C39.3332 22.7266 40.9028 23.5278 40.8534 25.114C40.8425 25.3225 40.8205 25.8713 40.4363 26.4421C39.6131 27.6605 37.9282 27.8087 37.6318 27.8307C36.2433 27.924 35.0194 27.216 34.498 26.2116C33.9766 25.2073 34.5913 24.7353 34.4486 23.0668C34.3004 21.338 33.0656 18.8848 31.1941 18.0451C30.5519 17.7542 30.1897 17.8091 29.833 17.3425Z" fill="#ED1C24"/>
<path d="M28.066 17.244C27.6654 16.6568 26.9848 15.8225 25.8817 15.0926C24.6084 14.2584 23.3296 13.9236 22.5173 13.7809C22.6546 14.5987 22.7479 15.5591 22.7479 16.6238C22.7479 17.3702 22.6985 18.0673 22.6326 18.7039C22.1112 18.6545 20.5416 18.5777 18.9939 19.5326C17.5779 20.4108 15.9149 22.3152 16.4967 23.6543C16.9797 24.7739 18.8951 25.2185 20.2507 24.6203C21.8642 23.9068 21.7435 22.1176 23.5766 20.0869C24.9871 18.5228 26.7543 17.6995 28.0715 17.2385L28.066 17.244Z" stroke="#540000" stroke-width="3.57" stroke-linecap="round" stroke-linejoin="round"/>
<path d="M28.066 17.244C27.6654 16.6568 26.9848 15.8225 25.8817 15.0926C24.6084 14.2584 23.3296 13.9236 22.5173 13.7809C22.6546 14.5987 22.7479 15.5591 22.7479 16.6238C22.7479 17.3702 22.6985 18.0673 22.6326 18.7039C22.1112 18.6545 20.5416 18.5777 18.9939 19.5326C17.5779 20.4108 15.9149 22.3152 16.4967 23.6543C16.9797 24.7739 18.8951 25.2185 20.2507 24.6203C21.8642 23.9068 21.7435 22.1176 23.5766 20.0869C24.9871 18.5228 26.7543 17.6995 28.0715 17.2385" fill="#ED1C24"/>
<path d="M11.1674 25.504C11.1949 25.8388 11.2552 26.1735 11.3321 26.5028C10.5692 27.2108 9.71852 28.3469 9.52094 29.9934C9.30141 31.8923 10.3058 34.17 11.7437 36.1567C13.7414 38.9009 16.3154 40.3114 19.098 40.6352C15.7776 40.6955 12.6218 39.307 10.2838 36.0909C8.84589 34.1041 7.84153 31.8265 8.06106 29.9275C8.42329 26.8102 11.1729 25.5095 11.1729 25.5095" fill="#FAA61A"/>
</svg>
