<svg width="32" height="37" viewBox="0 0 32 37" fill="none" xmlns="http://www.w3.org/2000/svg">
<path d="M16.4411 36.2228C18.3219 36.2228 20.2027 35.8519 22.057 35.1234C30.3352 31.8519 33.7656 22.8453 30.2027 13.7062C29.9378 13.0307 29.5272 12.4215 29.0107 11.9446C28.9312 11.2029 28.6795 10.4612 28.2425 9.79894C24.5074 4.07709 18.3882 0.222781 13.0107 0.222781C11.6332 0.222781 10.3087 0.461192 9.09014 0.951259C2.26895 3.65325 -0.313831 13.0307 0.732528 20.4744C2.03054 29.746 8.49412 36.2228 16.4411 36.2228Z" fill="#540000"/>
<path d="M10.879 5.48091C14.8525 3.90475 20.8128 7.32197 24.1638 12.461C24.1241 12.3948 20.0711 12.0769 20.1903 12.0902C20.0446 12.0902 18.1638 16.9246 18.1638 16.9246L13.3293 14.5405L11.7929 19.7988L8.17703 19.0438C8.17703 19.0438 11.0512 21.3087 12.5214 22.4081C13.2366 20.9511 13.8591 19.6266 14.4949 18.1299C16.1638 19.322 19.8327 21.5736 19.8327 21.5736L22.0843 15.0968C22.0843 15.0968 24.23 15.2293 25.6605 15.4942C28.0711 21.6796 26.3095 28.2226 20.2697 30.6067C13.1969 33.4014 6.73332 28.1829 5.56776 19.8253C4.70683 13.7061 6.90551 7.08356 10.879 5.5074" fill="white"/>
</svg>
