<svg width="23" height="21" viewBox="0 0 23 21" fill="none" xmlns="http://www.w3.org/2000/svg">
<path d="M2.9008 12.938C3.1484 13.8621 3.57822 14.7373 4.18025 15.5525C6.87743 19.189 11.7542 19.6888 15.7753 16.7351C16.0724 16.516 16.3176 16.2341 16.4839 15.9175C16.8379 15.7808 17.1692 15.5595 17.437 15.2576C19.7565 12.6692 20.8447 9.15527 20.1367 6.5132C19.9554 5.83642 19.6639 5.21705 19.2627 4.68287C17.0371 1.68719 12.0898 1.65275 8.57026 3.14681C4.18585 5.00513 1.85458 9.03349 2.9008 12.938Z" fill="#540000"/>
<path d="M17.2725 6.15811C18.57 7.90288 17.6757 11.2812 15.592 13.6041C15.6193 13.5759 15.2419 11.5427 15.2511 11.603C15.2319 11.5314 12.609 11.2438 12.609 11.2438L13.1439 8.5547L10.3582 8.49207L10.2531 6.61611C10.2531 6.61611 9.51866 8.32643 9.17208 9.19349C9.98207 9.35309 10.7148 9.48458 11.5338 9.5999C11.1679 10.5768 10.5446 12.6758 10.5446 12.6758L14.0232 12.9294C14.0232 12.9294 14.2406 14.0011 14.2988 14.7388C11.5771 16.7375 8.13045 16.7333 6.16396 14.0798C3.85973 10.9726 5.57279 7.10994 9.52561 5.437C12.4188 4.20842 15.962 4.41683 17.2595 6.1616" fill="white"/>
</svg>
