<svg width="39" height="43" viewBox="0 0 39 43" fill="none" xmlns="http://www.w3.org/2000/svg">
<path d="M20.1686 22.7339C18.0383 21.5039 16.9921 19.0645 17.5544 16.6652C18.2435 13.7054 21.2155 11.8378 24.1737 12.5043C24.7146 12.6272 25.2394 12.8282 25.7202 13.1058C27.8505 14.3358 28.8966 16.7751 28.3344 19.1745C27.6398 22.1311 24.6679 23.9987 21.715 23.3354C21.1687 23.2093 20.6439 23.0083 20.1632 22.7307" fill="#F58220"/>
<path d="M18.9941 24.6924C19.2726 22.9231 20.3919 21.9306 21.1295 21.2712C21.1476 21.2525 21.1711 21.2369 21.1892 21.2182C21.0987 21.1732 21.0073 21.1423 20.9199 21.0919C20.4665 20.8301 20.0972 20.4858 19.793 20.0917C18.701 21.8065 17.7974 24.6205 18.1858 26.8113C18.3507 27.7368 18.7241 28.3894 19.3208 28.8067C19.4401 28.8902 19.568 28.9713 19.6991 29.047C19.9887 29.2142 20.283 29.3477 20.5791 29.4531C19.3693 28.2812 18.7109 26.4444 18.9854 24.6947" fill="#540000"/>
<path d="M21.198 21.2159C21.6009 20.8586 21.9568 20.5324 22.2774 20.0401C22.6823 19.4145 22.9385 18.6301 23.0693 17.7224C22.8279 17.4592 22.6647 17.212 22.5559 17.0473C22.5272 17.0088 22.5047 16.9594 22.4627 16.906C22.444 16.8879 22.3833 16.8165 22.2249 16.725C21.7168 16.4317 20.91 16.3155 20.4817 16.3887C20.239 16.4306 20.1166 16.4911 19.8728 16.598C19.6753 16.6878 19.4111 16.8048 19.086 16.9012C18.8446 18.0509 19.1321 19.1929 19.8081 20.0784C20.1122 20.4725 20.4815 20.8169 20.9349 21.0786C21.0223 21.1291 21.1106 21.1655 21.2043 21.205" fill="#540000"/>
<path d="M7.89669 19.9824C4.77759 26.987 6.43067 33.8627 12.0132 37.0859C12.5867 37.417 13.2105 37.7118 13.8595 37.9627C15.5363 38.6031 17.8692 39.1923 20.0899 38.7266C23.6764 37.557 25.7085 32.1583 26.2762 29.6051C26.2894 29.5943 26.3036 29.5847 26.3167 29.5737C26.3393 29.5549 26.4007 29.5027 26.4655 29.4443C27.9878 28.0968 28.9204 26.0327 28.9942 24.0043C29.357 24.0509 30.3489 23.7991 30.7995 23.6674C31.3879 23.4367 31.8875 23.0114 32.2098 22.4533C32.6607 21.6722 32.6983 20.7108 32.3124 19.8907C31.7467 18.6757 30.9762 17.6263 30.0421 16.7593L30.0485 16.7483C30.9373 15.4989 31.3263 13.8151 31.0636 12.3524C30.9636 11.8068 30.7648 11.3062 30.4946 10.8662C30.2678 10.5022 29.996 10.1776 29.6702 9.90937C29.6233 9.37246 29.4936 8.80234 29.2536 8.23406C28.786 7.12656 28.1091 6.30606 27.2461 5.80775C26.6616 5.47029 25.9994 5.29162 25.3243 5.28783C24.9825 5.28711 24.6468 5.32696 24.3195 5.41468C24.0126 5.11369 23.6516 4.81761 23.2255 4.57163C22.0621 3.89991 20.7717 3.78829 19.5874 4.26252C18.5192 4.68728 17.813 5.48197 17.3694 6.18725C16.9813 6.20352 16.601 6.26794 16.2242 6.37814C15.3266 6.64644 14.5623 7.13756 13.967 7.82798C12.3795 9.6571 12.7037 12.0221 12.8384 12.6971C12.8514 12.7627 12.8708 12.8175 12.8838 12.8831L12.8853 12.8886C11.1063 14.3727 9.3873 16.6322 7.89669 19.9824Z" fill="#540000"/>
<path d="M17.6967 18.1968C15.3047 21.6082 13.7999 28.3651 17.7418 31.0998C19.1987 32.1085 21.2017 32.7769 22.9714 32.4366C22.9714 32.4366 22.5232 34.8655 20.1579 35.8086C18.7134 36.3804 16.7143 36.071 14.8523 35.3602C8.91332 33.0821 7.88881 26.846 10.4367 21.121C13.1859 14.9588 16.8891 12.4428 21.4089 13.3188C24.7694 13.9699 25.4246 15.295 25.5719 15.9481C25.5051 15.6474 22.5329 14.0843 19.7548 16.1585C18.7077 16.9378 17.9282 17.8716 17.6904 18.2077" fill="#FFF200"/>
<path d="M23.9633 17.94C23.8198 18.5418 23.2258 18.9272 22.6264 18.7923C22.0324 18.6606 21.6642 18.062 21.8022 17.457C21.9457 16.8553 22.5397 16.4698 23.1392 16.6047C23.7332 16.7365 24.1014 17.3351 23.9633 17.94Z" fill="white"/>
<path d="M25.4519 16.0681C26.1524 16.356 27.1916 15.9436 27.7782 15.1169C28.4757 14.1358 28.5815 12.5144 27.8615 12.0332C27.4107 11.7292 26.7938 11.9776 26.5641 12.0853C26.6598 11.8565 27.1969 10.5351 26.6852 9.31471C26.5737 9.05369 26.1603 8.07937 25.3185 8.07405C24.5925 8.07004 23.8038 8.78005 23.4517 9.84406C23.4314 9.47548 23.3543 8.8774 23.0416 8.29628C22.6405 7.54029 21.6494 6.44369 20.6242 6.85691C19.8655 7.16179 19.4998 8.12325 19.4333 8.28882C19.1687 9.02463 19.281 9.65024 19.3332 9.86249C19.2274 9.7431 18.2682 8.67951 17.0335 9.05189C16.8721 9.10437 16.446 9.23705 16.0787 9.65867C15.2955 10.5612 15.5335 11.9149 15.5786 12.1522C15.7974 13.2618 16.6106 14.0736 17.5087 14.2716C18.4067 14.4696 18.6479 13.8878 19.9876 13.6489C21.3759 13.4016 23.5614 13.855 24.6141 15.1474C24.9775 15.5903 25.0106 15.8862 25.4519 16.0681Z" fill="#ED1C24"/>
<path d="M25.9011 17.4346C26.4464 17.6256 27.2444 17.9843 28.0494 18.6967C28.972 19.5208 29.5038 20.4542 29.7867 21.0618C29.1159 21.126 28.3423 21.2548 27.5065 21.4788C26.9206 21.6358 26.3839 21.8211 25.898 22.0067C26.0464 22.4056 26.4369 23.6216 26.0128 25.0374C25.6213 26.3336 24.4762 28.0395 23.3026 27.8645C22.3222 27.7209 21.5703 26.3108 21.7548 25.1209C21.9755 23.7042 23.4053 23.4227 24.6138 21.5566C25.5449 20.1205 25.8195 18.5601 25.9043 17.4291L25.9011 17.4346Z" stroke="#540000" stroke-width="3.57" stroke-linecap="round" stroke-linejoin="round"/>
<path d="M25.9011 17.4346C26.4464 17.6256 27.2444 17.9843 28.0494 18.6967C28.972 19.5208 29.5038 20.4542 29.7867 21.0618C29.1159 21.126 28.3423 21.2548 27.5065 21.4788C26.9206 21.6358 26.3839 21.8211 25.898 22.0067C26.0464 22.4056 26.4369 23.6216 26.0128 25.0374C25.6213 26.3336 24.4762 28.0395 23.3026 27.8645C22.3222 27.7209 21.5703 26.3108 21.7548 25.1209C21.9755 23.7042 23.4053 23.4227 24.6138 21.5566C25.5449 20.1205 25.8195 18.5601 25.9043 17.4291" fill="#ED1C24"/>
<path d="M22.9716 32.4368C22.703 32.4856 22.4275 32.5087 22.1529 32.5176C21.7576 33.2654 21.0447 34.1721 19.7938 34.6735C18.3494 35.2452 16.3502 34.9359 14.4882 34.225C11.914 33.234 10.2654 31.5102 9.42594 29.3941C10.0769 32.0132 11.8307 34.1983 14.847 35.3572C16.709 36.068 18.7081 36.3773 20.1526 35.8056C22.5234 34.8656 22.9661 32.4336 22.9661 32.4336" fill="#FAA61A"/>
</svg>
