<svg width="23" height="26" viewBox="0 0 23 26" fill="none" xmlns="http://www.w3.org/2000/svg">
<path d="M11.4346 25.2709C10.126 25.2709 8.81736 25.0128 7.52717 24.506C1.7674 22.2297 -0.619445 15.9631 1.85956 9.60431C2.04387 9.13431 2.32956 8.7104 2.68897 8.37863C2.74426 7.86256 2.91936 7.34648 3.22347 6.8857C5.82228 2.90455 10.0799 0.222806 13.8214 0.222806C14.7799 0.222806 15.7014 0.388688 16.5493 0.729667C21.2953 2.60966 23.0924 9.13432 22.3643 14.3135C21.4612 20.7644 16.964 25.2709 11.4346 25.2709Z" fill="#540000"/>
<path d="M15.3052 3.88135C12.5405 2.78469 8.39343 5.16232 6.06188 8.73798C6.08953 8.69191 8.90951 8.47073 8.82657 8.47995C8.92794 8.47995 10.2366 11.8436 10.2366 11.8436L13.6003 10.1848L14.6693 13.8434L17.1851 13.3182C17.1851 13.3182 15.1853 14.894 14.1624 15.6589C13.6648 14.6452 13.2316 13.7236 12.7893 12.6823C11.6281 13.5117 9.07539 15.0783 9.07539 15.0783L7.50873 10.5719C7.50873 10.5719 6.0158 10.664 5.02051 10.8484C3.34327 15.1521 4.56895 19.7046 8.77127 21.3634C13.6924 23.3079 18.1896 19.6769 19.0006 13.8619C19.5996 9.60425 18.0698 4.99644 15.3052 3.89978" fill="white"/>
</svg>
