<svg width="35" height="51" viewBox="0 0 35 51" fill="none" xmlns="http://www.w3.org/2000/svg">
<path d="M19.0206 26.5822C15.4265 26.5822 12.3208 24.2598 11.2794 20.8132C9.98924 16.5648 12.3853 12.0307 16.6153 10.7128C17.3894 10.4732 18.2004 10.3442 19.0114 10.3442C22.6054 10.3442 25.7111 12.6666 26.7525 16.1132C28.0334 20.3616 25.6374 24.8957 21.4166 26.2135C20.6333 26.4531 19.8223 26.5822 19.0114 26.5822" fill="#F58220"/>
<path d="M18.9654 29.9182C18.0254 27.4761 18.7166 25.4026 19.1682 24.0294C19.1774 23.9926 19.1958 23.9557 19.205 23.9188C19.0576 23.9281 18.9194 23.9557 18.7719 23.9557C18.007 23.9557 17.2882 23.7898 16.6155 23.5134C16.4864 26.4808 17.3988 30.7015 19.4907 33.1898C20.3754 34.2403 21.3246 34.7933 22.3844 34.8854C22.5964 34.9039 22.8176 34.9131 23.0387 34.9131C23.5272 34.9131 23.9972 34.867 24.4487 34.7841C22.0619 34.1851 19.887 32.3419 18.9562 29.9274" fill="#540000"/>
<path d="M19.2141 23.9096C19.4629 23.1631 19.6749 22.4904 19.7209 21.6334C19.7762 20.5459 19.5274 19.3663 19.0298 18.1222C18.5321 17.9655 18.1451 17.772 17.887 17.643C17.8225 17.6153 17.758 17.5693 17.6659 17.5324C17.629 17.5232 17.5 17.4771 17.2327 17.4771C16.3757 17.4771 15.2698 17.9195 14.7814 18.3249C14.5049 18.5553 14.3943 18.7212 14.1639 19.0345C13.9796 19.2926 13.7308 19.6336 13.3898 19.993C13.9243 21.6241 15.1223 22.859 16.6245 23.4857C17.2972 23.7622 18.0161 23.928 18.7809 23.928C18.9284 23.928 19.0666 23.9096 19.2141 23.8912" fill="#540000"/>
<path d="M1.48329 32.0656C2.65373 43.2071 9.76819 50.6993 19.1864 50.6994C20.1539 50.6994 21.1586 50.6168 22.163 50.4601C24.7524 50.0455 28.1346 49.0867 30.6044 46.8752C34.288 42.7754 32.9152 34.4599 31.7684 30.8146C31.7773 30.7913 31.7881 30.7687 31.7968 30.7453C31.8116 30.705 31.8512 30.5942 31.8905 30.4728C32.8323 27.6558 32.5044 24.3628 31.1161 21.7424C31.6091 21.5363 32.6802 20.4931 33.1542 19.9973C33.7301 19.2755 34.0516 18.3724 34.0516 17.4308C34.0516 16.1131 33.3968 14.8691 32.3095 14.1135C30.7061 12.9893 28.9646 12.2245 27.1493 11.8098V11.7912C27.3613 9.56102 26.6233 7.1463 25.2225 5.48749C24.6974 4.87026 24.0802 4.38199 23.4169 4.02264C22.8639 3.72775 22.2829 3.51562 21.6747 3.41425C21.2231 2.76916 20.6425 2.14254 19.9237 1.59882C18.523 0.539086 17.0672 -0.00463115 15.6112 -0.00469971C14.6251 -0.00469971 13.6567 0.252966 12.7997 0.741394C12.3667 0.990181 11.9711 1.28581 11.621 1.63592C11.0128 1.47927 10.3397 1.36837 9.62099 1.36835C7.65816 1.36835 5.94384 2.16981 4.79188 3.63495C3.75052 4.95278 3.43757 6.47415 3.39149 7.69061C2.91228 7.99473 2.47819 8.35403 2.08192 8.76874C1.14216 9.76393 0.533833 10.9437 0.285047 12.2521C-0.387507 15.7263 1.75044 18.4818 2.41395 19.2375C2.47834 19.3111 2.54293 19.3661 2.60731 19.4396L2.61317 19.4455C1.44644 22.623 0.921969 26.7377 1.48329 32.0656Z" fill="#540000"/>
<path d="M12.579 22.6471C12.0445 28.711 15.0764 38.3598 22.0619 38.9403C24.6423 39.1523 27.665 38.5349 29.6556 36.8115C29.6556 36.8115 30.8628 40.2121 28.5589 43.1335C27.1489 44.9121 24.3934 45.9811 21.5182 46.4419C12.3394 47.8979 6.48748 40.7558 5.52906 31.6508C4.50612 21.8454 7.35376 15.9566 13.7125 13.7633C18.4402 12.1321 20.2372 13.3301 20.9007 14.0489C20.5966 13.7172 15.6939 13.9107 13.6941 18.5646C12.9384 20.3156 12.6343 22.0665 12.579 22.6656" fill="#FFF200"/>
<path d="M20.32 17.7444C20.578 18.6107 20.108 19.5322 19.251 19.7995C18.4032 20.0667 17.5 19.5783 17.2328 18.712C16.9747 17.8458 17.4447 16.9242 18.3018 16.657C19.1496 16.3897 20.0528 16.8781 20.32 17.7444Z" fill="white"/>
<path d="M20.8361 14.2886C21.9328 14.1411 22.9465 12.8601 23.0848 11.3856C23.2506 9.63466 22.2001 7.50585 20.9375 7.42291C20.145 7.36762 19.5459 8.13252 19.334 8.43663C19.2879 8.07722 19.0022 6.01292 17.4632 4.84254C17.1315 4.59372 15.8966 3.66294 14.8275 4.27117C13.906 4.79646 13.4268 6.27096 13.7585 7.87448C13.4636 7.42291 12.9291 6.72252 12.1089 6.21566C11.0491 5.55214 8.99405 4.88862 7.99877 6.16037C7.26152 7.10037 7.50112 8.58408 7.53798 8.84212C7.74073 9.96643 8.33974 10.676 8.56092 10.9064C8.33974 10.8327 6.34917 10.1876 5.05898 11.5607C4.8931 11.745 4.45076 12.2243 4.29409 13.026C3.96233 14.7401 5.25251 16.2791 5.4829 16.5464C6.57035 17.7905 8.1923 18.2236 9.47327 17.8181C10.7542 17.4126 10.6344 16.5003 12.155 15.2193C13.7309 13.8923 16.8273 12.8693 19.1036 13.7356C19.8869 14.0305 20.145 14.3807 20.8361 14.2886Z" fill="#ED1C24"/>
<path d="M22.4027 15.6893C23.2321 15.5326 24.5039 15.4036 26.0429 15.717C27.8123 16.0856 29.167 16.8781 29.9688 17.4403C29.167 18.0116 28.2823 18.7397 27.3884 19.6336C26.7617 20.2603 26.218 20.8869 25.7388 21.4767C26.218 21.873 27.6003 23.1263 28.098 25.2275C28.5495 27.1535 28.3468 30.1486 26.7341 30.7845C25.3886 31.319 23.4072 30.0841 22.7713 28.4437C22.0157 26.49 23.6192 25.0892 23.7851 21.8453C23.9141 19.3479 23.1215 17.173 22.4027 15.6801L22.4027 15.6893Z" stroke="#540000" stroke-width="3.57" stroke-linecap="round" stroke-linejoin="round"/>
<path d="M22.4027 15.6893C23.2321 15.5326 24.5039 15.4036 26.0429 15.717C27.8123 16.0856 29.167 16.8781 29.9688 17.4403C29.167 18.0116 28.2823 18.7397 27.3884 19.6336C26.7617 20.2603 26.218 20.8869 25.7388 21.4767C26.218 21.873 27.6003 23.1263 28.098 25.2275C28.5495 27.1535 28.3468 30.1486 26.7341 30.7845C25.3886 31.319 23.4072 30.0841 22.7713 28.4437C22.0157 26.49 23.6192 25.0892 23.7851 21.8453C23.9141 19.3479 23.1215 17.173 22.4027 15.6801" fill="#ED1C24"/>
<path d="M29.6554 36.8115C29.3513 37.0696 29.0195 37.3 28.6785 37.5119C28.7246 38.7468 28.485 40.4148 27.2685 41.9631C25.8585 43.7417 23.1031 44.8107 20.2278 45.2715C16.2466 45.8981 12.9014 44.9213 10.2933 42.857C13.0304 45.6954 16.8457 47.1791 21.5088 46.4419C24.384 45.9811 27.1395 44.9121 28.5495 43.1335C30.8626 40.2121 29.6462 36.8115 29.6462 36.8115" fill="#FAA61A"/>
</svg>
